# Blender 4.3.2
# www.blender.org
mtllib door9.mtl
o gaz2975_nomg_turret.003
v 10.805019 -0.992599 -15.086425
v 10.840448 -1.964149 -16.739578
v 10.850557 -3.898712 -16.719833
v 10.825188 -4.861710 -15.046918
v 10.789734 -3.890144 -13.393765
v 10.779650 -1.955589 -13.413534
v 9.508713 -0.992966 -15.086122
v 9.483366 -1.955948 -13.413218
v 9.493427 -3.890511 -13.393439
v 9.544165 -1.964531 -16.739285
v 9.554235 -3.899086 -16.719519
v 9.528885 -4.862083 -15.046607
vn -0.0004 0.8621 -0.5067
vn 0.9998 0.0054 0.0183
vn 0.9998 0.0054 0.0182
vn -0.0001 0.8667 0.4989
vn 0.0002 0.0102 0.9999
vn -0.9998 -0.0054 -0.0183
vn -0.9998 -0.0054 -0.0182
vn 0.0004 -0.8621 0.5067
vn 0.0001 -0.8667 -0.4989
vn -0.0002 -0.0102 -0.9999
vt 0.713001 0.618592
vt 0.705647 0.618592
vt 0.705647 0.629411
vt 0.690750 0.647821
vt 0.697241 0.636377
vt 0.697241 0.644006
vt 0.690750 0.632557
vt 0.684123 0.636377
vt 0.684123 0.644006
vt 0.913054 0.472608
vt 0.906801 0.472608
vt 0.906801 0.454208
vt 0.913054 0.454208
vt 0.705647 0.640230
vt 0.713001 0.640230
vt 0.713001 0.629411
vt 0.911187 0.387312
vt 0.918540 0.387312
vt 0.918540 0.408949
vt 0.911187 0.408949
s 1
usemtl body
f 7/1/1 1/2/1 2/3/1
f 1/4/2 3/5/2 2/6/3
f 4/7/2 3/5/2 1/4/2
f 1/4/2 5/8/2 4/7/2
f 1/4/2 6/9/2 5/8/2
f 8/10/4 6/11/4 1/12/4
f 1/12/4 7/13/4 8/10/4
f 6/14/5 8/15/5 9/16/5
f 9/8/6 8/9/7 7/4/6
f 7/4/6 10/6/6 9/8/6
f 9/8/6 10/6/6 11/5/6
f 11/5/6 12/7/6 9/8/6
f 5/3/8 9/16/8 12/1/8
f 9/16/5 5/3/5 6/14/5
f 4/17/9 12/18/9 11/19/9
f 12/1/8 4/2/8 5/3/8
f 3/14/10 11/15/10 10/16/10
f 11/19/9 3/20/9 4/17/9
f 2/3/1 10/16/1 7/1/1
f 10/16/10 2/3/10 3/14/10
o gaz2975_nomg_turret.006
v 1.726573 -0.995148 -15.084270
v 1.762013 -1.966721 -16.737404
v 1.772098 -3.901276 -16.717651
v 1.746742 -4.864265 -15.044751
v 1.711300 -3.892700 -13.391592
v 1.701216 -1.958122 -13.411364
v 0.404908 -1.958496 -13.411044
v 0.430264 -0.995499 -15.083958
v 0.465705 -1.967079 -16.737103
v 0.475777 -3.901634 -16.717344
v 0.450433 -4.864632 -15.044445
v 0.414979 -3.893074 -13.391271
vn -0.0004 0.8621 -0.5067
vn 0.9998 0.0054 0.0183
vn -0.0001 0.8667 0.4989
vn -0.9998 -0.0054 -0.0183
vn -0.0002 -0.0102 -0.9999
vn 0.0001 -0.8667 -0.4989
vn 0.0004 -0.8621 0.5067
vn 0.0002 0.0102 0.9999
vt 0.705647 0.618592
vt 0.713001 0.618592
vt 0.713001 0.629411
vt 0.690750 0.647821
vt 0.697241 0.636377
vt 0.697241 0.644006
vt 0.690750 0.632557
vt 0.684123 0.636377
vt 0.684123 0.644006
vt 0.906801 0.472608
vt 0.913054 0.472608
vt 0.913054 0.454208
vt 0.906801 0.454208
vt 0.705647 0.629411
vt 0.713001 0.640230
vt 0.705647 0.640230
vt 0.918540 0.387312
vt 0.911187 0.387312
vt 0.911187 0.408949
vt 0.918540 0.408949
s 1
usemtl body
f 20/21/11 13/22/11 14/23/11
f 13/24/12 15/25/12 14/26/12
f 16/27/12 15/25/12 13/24/12
f 13/24/12 17/28/12 16/27/12
f 13/24/12 18/29/12 17/28/12
f 19/30/13 18/31/13 13/32/13
f 13/32/13 20/33/13 19/30/13
f 19/29/14 20/24/14 21/26/14
f 14/23/11 21/34/11 20/21/11
f 21/26/14 22/25/14 19/29/14
f 15/35/15 22/36/15 21/34/15
f 21/34/15 14/23/15 15/35/15
f 19/29/14 22/25/14 23/27/14
f 16/37/16 23/38/16 22/39/16
f 22/39/16 15/40/16 16/37/16
f 23/27/14 24/28/14 19/29/14
f 17/23/17 24/34/17 23/21/17
f 23/21/17 16/22/17 17/23/17
f 18/35/18 19/36/18 24/34/18
f 24/34/18 17/23/18 18/35/18
o gaz2975_nomg_turret.007
v 8.802179 -3.544792 -19.204592
v 8.276247 -3.900055 -18.298515
v 8.787579 -3.899918 -18.298651
v 8.290867 -3.544930 -19.204479
v 8.804598 -2.537193 -19.633667
v 8.773327 -1.167664 -18.326550
v 8.791689 -1.527435 -19.225193
v 8.293264 -2.537323 -19.633543
v 8.262003 -1.167793 -18.326426
v 8.280369 -1.527573 -19.225079
v 8.223921 -1.162437 -16.243738
v 8.182718 -3.886864 -13.182951
v 8.154640 1.259819 -13.166543
v 8.735254 -1.162300 -16.243855
v 8.694029 -3.886719 -13.183056
v 8.665949 1.259956 -13.166655
v 8.276316 1.314919 8.143268
v 8.494898 -1.404671 -3.016976
v 8.505655 -1.456665 -3.589553
v 8.558300 -1.467560 -6.468989
v 8.633146 -1.490181 -10.558856
v 7.765007 1.314774 8.143383
v 7.801336 -1.282242 6.921508
v 7.747936 0.000031 9.465262
v 7.864604 -2.807777 3.908490
v 7.917675 -3.122055 1.098330
v 7.961533 -2.241463 -1.563624
v 7.750104 0.931107 9.072536
v 7.983575 -1.404800 -3.016848
v 8.261412 0.931244 9.072405
v 8.259270 0.000168 9.465145
v 8.274967 -1.565872 9.068118
v 8.307034 -1.397827 7.262094
v 8.312674 -1.282104 6.921376
v 7.795739 -1.397972 7.262209
v 8.375925 -2.807625 3.908370
v 8.428974 -3.121910 1.098216
v 8.472853 -2.241333 -1.563759
v 7.796703 -1.854843 7.345412
v 7.763646 -1.566010 9.068235
v 8.299442 -3.212631 8.214539
v 7.788133 -3.212769 8.214664
v 8.334173 -4.601830 6.723575
v 7.822867 -4.601982 6.723680
v 7.809821 -2.577271 6.839049
v 8.308037 -1.854691 7.345294
v 8.321142 -2.577126 6.838921
v 7.843993 -3.686737 5.296837
v 8.355324 -3.686600 5.296705
v 7.899789 -4.625168 2.519215
v 7.894506 -5.793343 3.154626
v 8.405851 -5.793190 3.154484
v 8.477922 -5.656380 -0.832640
v 7.966599 -5.656509 -0.832511
v 8.517769 -4.460060 -3.368238
v 8.006472 -4.460205 -3.368128
v 7.984540 -3.164879 -2.549679
v 7.949401 -4.297844 -0.292819
v 8.411121 -4.625023 2.519071
v 8.460735 -4.297691 -0.292965
v 8.495884 -3.164749 -2.549804
v 7.997475 -1.987762 -3.605773
v 8.508785 -1.987625 -3.605887
v 7.994321 -1.456802 -3.589448
v 8.546659 -1.877159 -5.711508
v 8.046978 -1.467682 -6.468862
v 8.035364 -1.877289 -5.711380
v 8.121838 -1.490326 -10.558739
vn 0.0002 -0.9310 -0.3650
vn 0.0002 -0.9310 -0.3649
vn 0.9998 0.0054 0.0183
vn 0.9998 0.0054 0.0182
vn -0.0001 -0.3918 -0.9201
vn -0.0003 0.3750 -0.9270
vn -0.9998 -0.0054 -0.0183
vn -0.0003 0.9284 -0.3717
vn -0.0004 0.9284 -0.3717
vn -0.0002 1.0000 -0.0026
vn -0.0003 1.0000 -0.0026
vn -0.0003 0.7858 -0.6185
vn -0.0004 0.7858 -0.6185
vn -0.0001 0.9243 0.3817
vn -0.0003 0.6070 0.7947
vn -0.0001 0.7981 0.6025
vn 0.0001 0.3886 0.9214
vn 0.0003 -0.2457 0.9693
vn 0.0002 -0.9469 -0.3216
vn 0.0001 -0.9469 -0.3216
vn 0.0004 -0.9345 0.3559
vn 0.0004 -0.8922 0.4517
vn 0.0003 -0.9938 0.1111
vn 0.0004 -0.9703 0.2421
vn 0.0002 -0.9494 -0.3141
vn 0.0001 -0.8666 -0.4989
vn -0.0002 -0.1792 -0.9838
vn 0.0003 -0.4602 0.8878
vn 0.0004 -0.7316 0.6817
vn -0.0004 0.5740 -0.8189
vn -0.0003 0.8118 -0.5840
vn -0.0004 0.8118 -0.5840
vn -0.0004 0.9474 -0.3201
vn -0.0003 0.9474 -0.3201
vn 0.0004 -0.9485 0.3166
vn 0.0003 -0.9969 0.0793
vn 0.0003 -0.9802 0.1979
vn 0.0003 -0.9994 -0.0343
vn 0.0001 -0.9044 -0.4267
vn 0.0002 -0.9044 -0.4267
vn -0.0003 0.9933 0.1156
vn -0.0002 0.9933 0.1156
vn -0.0001 0.8937 0.4486
vn -0.0000 0.6678 0.7443
vn 0.0002 -0.0307 0.9995
vn 0.0001 -0.8796 -0.4757
vn -0.0000 -0.6719 -0.7406
vn 0.0002 -1.0000 0.0055
vn 0.0003 -1.0000 0.0055
vn 0.0004 -0.7384 0.6744
vn 0.0003 -0.9959 0.0904
vn 0.0003 -0.9959 0.0905
vn 0.0003 -0.9485 0.3166
vn 0.0003 -1.0000 0.0026
vt 0.784226 0.589363
vt 0.785975 0.589363
vt 0.785975 0.590919
vt 0.784226 0.590919
vt 0.324779 0.764949
vt 0.323663 0.767653
vt 0.320587 0.769006
vt 0.788118 0.590919
vt 0.316428 0.764949
vt 0.317510 0.767653
vt 0.074360 0.257719
vt 0.077605 0.257719
vt 0.077605 0.256163
vt 0.788118 0.589363
vt 0.394385 0.540065
vt 0.402119 0.536916
vt 0.396737 0.534726
vt 0.400097 0.534819
vt 0.074360 0.256163
vt 0.394398 0.537139
vt 0.071655 0.256163
vt 0.071655 0.257719
vt 0.404567 0.542928
vt 0.066719 0.256163
vt 0.400351 0.554719
vt 0.414994 0.548903
vt 0.066719 0.257719
vt 0.055291 0.256163
vt 0.316428 0.758458
vt 0.324779 0.749126
vt 0.309024 0.748991
vt 0.055291 0.257719
vt 0.003313 0.725396
vt 0.001620 0.725371
vt 0.001620 0.671005
vt 0.309024 0.683266
vt 0.317273 0.717751
vt 0.317409 0.719509
vt 0.317442 0.728435
vt 0.317713 0.741282
vt 0.003313 0.671029
vt 0.402784 0.452726
vt 0.395651 0.446428
vt 0.387579 0.445847
vt 0.389614 0.441017
vt 0.387602 0.443037
vt 0.406566 0.459723
vt 0.407072 0.467518
vt 0.406436 0.472179
vt 0.938584 0.555473
vt 0.938584 0.552717
vt 0.937029 0.552717
vt 0.410217 0.501448
vt 0.937029 0.555473
vt 0.937029 0.549683
vt 0.313081 0.679209
vt 0.310207 0.680426
vt 0.317307 0.686106
vt 0.317848 0.680561
vt 0.725031 0.590919
vt 0.722047 0.590919
vt 0.722047 0.589363
vt 0.938584 0.549683
vt 0.316969 0.687188
vt 0.722694 0.590919
vt 0.722694 0.589363
vt 0.728546 0.590919
vt 0.321601 0.696519
vt 0.322548 0.705174
vt 0.733981 0.590919
vt 0.728546 0.589363
vt 0.733981 0.589363
vt 0.739109 0.590919
vt 0.319843 0.713288
vt 0.739109 0.589363
vt 0.741898 0.590919
vt 0.395565 0.445396
vt 0.722955 0.589363
vt 0.396673 0.444679
vt 0.394112 0.440519
vt 0.725031 0.589363
vt 0.728448 0.589363
vt 0.728448 0.590919
vt 0.399305 0.441072
vt 0.732516 0.589363
vt 0.732516 0.590919
vt 0.404464 0.443507
vt 0.399091 0.445294
vt 0.724736 0.589363
vt 0.722955 0.590919
vt 0.724736 0.590919
vt 0.728503 0.589363
vt 0.403581 0.448134
vt 0.728503 0.590919
vt 0.734221 0.589363
vt 0.408965 0.454478
vt 0.411298 0.451527
vt 0.739437 0.589363
vt 0.739437 0.590919
vt 0.747135 0.590919
vt 0.747135 0.589363
vt 0.415136 0.462101
vt 0.752296 0.589363
vt 0.752296 0.590919
vt 0.410517 0.469183
vt 0.414749 0.469994
vt 0.411088 0.462149
vt 0.739656 0.589363
vt 0.734221 0.590919
vt 0.739656 0.590919
vt 0.743997 0.589363
vt 0.330256 0.711125
vt 0.326131 0.709502
vt 0.327145 0.700847
vt 0.743997 0.590919
vt 0.322649 0.716399
vt 0.746982 0.589363
vt 0.746982 0.590919
vt 0.319031 0.719644
vt 0.326604 0.718968
vt 0.747879 0.589363
vt 0.747879 0.590919
vt 0.318693 0.726136
vt 0.760257 0.589363
vt 0.760257 0.590919
vt 0.758660 0.590919
vt 0.758660 0.589363
vt 0.407156 0.473620
vt 0.410258 0.481158
vt 0.410525 0.478783
vt 0.408575 0.473175
vt 0.767255 0.589363
vt 0.767255 0.590919
vt 0.414913 0.491934
vt 0.774341 0.589363
vt 0.409853 0.559320
vt 0.741898 0.589363
vt 0.743013 0.589363
vt 0.743013 0.590919
vt 0.330729 0.698818
vt 0.324306 0.692192
vt 0.327112 0.687864
vt 0.320925 0.687458
vt 0.322886 0.683266
vt 0.318727 0.685836
vt 0.774341 0.590919
s 1
usemtl body
f 26/41/19 28/42/20 25/43/19
f 25/43/19 27/44/19 26/41/19
f 27/45/21 25/46/22 29/47/21
f 29/48/23 25/43/23 28/42/23
f 29/47/21 30/49/21 27/45/21
f 29/47/21 31/50/21 30/49/21
f 31/51/24 29/52/24 32/53/24
f 28/42/23 32/54/23 29/48/23
f 26/55/25 33/56/25 32/57/25
f 33/56/25 34/58/25 32/57/25
f 32/53/24 34/59/24 31/51/24
f 32/57/25 28/60/25 26/55/25
f 34/59/26 33/61/27 30/62/26
f 30/62/26 31/51/26 34/59/26
f 35/63/25 33/56/25 26/55/25
f 30/62/28 33/61/28 35/64/29
f 26/55/25 36/65/25 35/63/25
f 37/66/25 35/63/25 36/65/25
f 38/67/30 35/64/30 37/68/31
f 35/64/29 38/67/29 30/62/28
f 38/69/21 39/70/21 27/45/21
f 39/70/21 38/69/21 40/71/21
f 37/68/31 40/72/31 38/67/30
f 27/45/21 30/49/21 38/69/21
f 46/73/28 41/74/28 40/75/29
f 41/76/21 42/77/21 40/71/21
f 42/77/21 43/78/21 40/71/21
f 43/78/21 44/79/21 40/71/21
f 44/79/21 45/80/21 40/71/21
f 40/71/21 45/80/21 39/70/21
f 40/75/29 37/81/29 46/73/28
f 49/82/25 47/83/25 46/84/25
f 47/83/25 48/85/25 46/84/25
f 48/85/25 52/86/25 46/84/25
f 49/82/25 46/84/25 50/87/25
f 46/84/25 51/88/25 50/87/25
f 46/84/25 53/89/25 51/88/25
f 46/90/32 52/91/33 54/92/34
f 46/84/25 37/93/25 53/89/25
f 54/92/34 41/94/32 46/90/32
f 55/95/35 54/92/34 52/91/33
f 55/96/21 41/76/21 54/97/21
f 57/98/21 55/96/21 56/99/21
f 56/100/36 55/101/36 48/102/36
f 52/91/33 48/103/35 55/95/35
f 55/96/21 57/98/21 58/104/21
f 55/96/21 58/104/21 41/76/21
f 58/105/37 57/101/37 59/102/37
f 59/102/37 47/106/38 58/105/37
f 60/107/39 58/105/40 47/106/40
f 41/76/21 58/104/21 60/108/21
f 41/76/21 60/108/21 61/109/21
f 61/110/41 60/107/39 49/111/42
f 47/106/40 49/111/42 60/107/39
f 49/111/42 50/112/41 61/110/41
f 62/113/43 61/110/43 50/112/43
f 41/76/21 61/109/21 62/114/21
f 50/112/43 51/115/43 62/113/43
f 42/116/44 62/113/44 51/115/44
f 41/76/21 62/114/21 42/77/21
f 47/83/25 59/117/25 48/85/25
f 63/118/45 59/102/45 57/101/45
f 59/117/25 63/119/25 64/120/25
f 64/120/25 48/85/25 59/117/25
f 64/121/46 66/122/46 65/123/46
f 65/123/46 56/100/46 64/121/46
f 48/102/36 64/121/36 56/100/36
f 66/124/25 64/120/25 63/119/25
f 66/122/47 68/125/47 67/126/47
f 67/126/47 65/123/47 66/122/47
f 68/127/25 66/124/25 69/128/25
f 63/119/25 69/128/25 66/124/25
f 69/129/48 63/118/48 70/130/48
f 70/130/48 71/131/48 69/129/48
f 72/132/49 69/129/50 71/131/50
f 69/128/25 72/133/25 68/127/25
f 71/131/50 73/134/49 72/132/49
f 74/135/51 72/132/52 73/134/52
f 72/133/25 74/136/25 75/137/25
f 75/137/25 68/127/25 72/133/25
f 68/125/53 75/138/54 76/139/55
f 77/140/56 76/139/55 75/138/54
f 75/138/54 78/141/56 77/140/56
f 78/142/25 75/137/25 74/136/25
f 78/141/57 80/143/58 79/144/58
f 79/144/58 77/140/57 78/141/57
f 81/145/25 80/146/25 78/142/25
f 78/142/25 82/147/25 81/145/25
f 74/136/25 82/147/25 78/142/25
f 82/148/59 74/135/60 83/149/60
f 83/149/60 84/150/59 82/148/59
f 81/151/61 82/148/61 84/150/61
f 77/152/21 84/153/21 83/154/21
f 84/150/61 85/155/61 81/151/61
f 85/156/22 84/153/21 77/152/21
f 86/157/62 81/151/62 85/155/62
f 85/155/62 87/158/62 86/157/62
f 87/159/21 85/156/22 79/160/22
f 77/152/21 79/160/22 85/156/22
f 88/161/63 86/157/63 87/158/63
f 87/158/63 43/162/63 88/161/63
f 43/78/21 87/159/21 89/163/21
f 79/160/22 89/163/21 87/159/21
f 90/164/64 44/165/64 89/166/64
f 89/166/64 91/167/64 90/164/64
f 91/167/65 89/166/65 79/144/65
f 89/163/21 44/79/21 43/78/21
f 88/168/25 90/169/25 91/170/25
f 79/144/65 80/143/65 91/167/65
f 86/171/25 91/170/25 80/146/25
f 91/170/25 86/171/25 88/168/25
f 90/164/66 92/172/67 45/173/67
f 45/173/67 44/165/66 90/164/66
f 37/93/25 92/174/25 90/169/25
f 37/93/25 90/169/25 88/168/25
f 45/173/68 92/172/68 36/175/68
f 36/65/25 92/176/25 37/66/25
f 37/93/25 88/168/25 53/89/25
f 53/177/69 88/178/70 43/179/69
f 80/146/25 81/145/25 86/171/25
f 76/180/21 83/154/21 73/181/21
f 73/134/52 83/149/51 74/135/51
f 83/154/21 76/180/21 77/152/21
f 76/139/55 67/126/71 68/125/53
f 73/181/21 67/182/21 76/180/21
f 67/182/21 73/181/21 71/183/21
f 65/184/21 71/183/21 70/185/21
f 71/183/21 65/184/21 67/182/21
f 56/99/21 70/185/21 57/98/21
f 57/101/45 70/130/45 63/118/45
f 70/185/21 56/99/21 65/184/21
f 51/115/44 53/177/44 42/116/44
f 43/179/69 42/116/69 53/177/69
f 36/175/68 39/186/68 45/173/68
f 26/41/72 27/44/72 39/186/72
f 39/186/72 36/175/72 26/41/72
o gaz2975_nomg_turret.009
v 1.426679 -2.560600 -15.705782
v 9.852091 -3.299911 -15.700226
v 9.848213 -2.558228 -15.707790
v 1.413085 -2.188126 -15.072012
v 1.430552 -3.302277 -15.698229
v 9.842358 -3.669106 -15.058846
v 1.420810 -3.671478 -15.056831
v 9.828773 -3.296623 -14.425083
v 1.407226 -3.299004 -14.423064
v 9.824913 -2.554947 -14.432654
v 1.403376 -2.557320 -14.430641
v 9.834656 -2.185753 -15.074025
vn -0.0002 -0.0102 -0.9999
vn -0.0004 0.4900 -0.8717
vn -0.0004 0.6464 -0.7630
vn -0.0003 0.9812 -0.1929
vn 0.0001 -0.8667 -0.4989
vn 0.0002 -1.0000 0.0026
vn 0.0003 -0.9812 0.1929
vn 0.0004 -0.6464 0.7630
vn 0.0003 -0.4900 0.8717
vn 0.0002 0.0102 0.9999
vn -0.0001 0.8667 0.4989
vn -0.0003 1.0000 -0.0026
vt 0.421523 0.373250
vt 0.443566 0.373250
vt 0.443566 0.375549
vt 0.421523 0.375549
vt 0.443566 0.377865
vt 0.443566 0.380164
vt 0.421523 0.380164
vt 0.421523 0.377865
s 1
usemtl body
f 94/187/73 97/188/73 93/189/73
f 93/189/74 95/190/75 94/187/73
f 95/190/75 93/189/74 96/191/76
f 97/192/77 94/193/77 98/194/77
f 98/194/78 99/191/79 97/192/77
f 99/191/79 98/194/78 100/190/80
f 100/190/80 101/189/81 99/191/79
f 102/187/82 103/188/82 101/189/82
f 101/189/81 100/190/80 102/187/82
f 103/192/83 102/193/83 104/194/83
f 104/194/84 96/191/76 103/192/83
f 96/191/76 104/194/84 95/190/75
o gaz2975_nomg_turret.012
v 3.055534 -1.163895 -16.242514
v 2.582283 -1.169403 -18.325081
v 3.093592 -1.169266 -18.325186
v 2.544188 -1.164017 -16.242378
v 3.014279 -3.888321 -13.181712
v 2.986203 1.258362 -13.165277
v 3.107832 -3.901505 -18.297279
v 2.611120 -3.546524 -19.203115
v 2.596511 -3.901657 -18.297159
v 3.122442 -3.546394 -19.203238
v 2.502971 -3.888451 -13.181590
v 3.124862 -2.538788 -19.632301
v 2.600633 -1.529175 -19.223719
v 2.613544 -2.538933 -19.632193
v 3.111966 -1.529037 -19.223860
v 2.442091 -1.491928 -10.557380
v 2.474881 1.258217 -13.165188
v 2.596617 1.313332 8.144623
v 2.085271 1.313187 8.144741
v 2.314588 -1.458397 -3.588080
v 2.367255 -1.469261 -6.467510
v 2.303842 -1.406418 -3.015488
v 2.281810 -2.243073 -1.562285
v 2.793104 -2.242920 -1.562378
v 2.815163 -1.406273 -3.015604
v 2.825907 -1.458237 -3.588202
v 2.878567 -1.469139 -6.467624
v 2.866914 -1.878761 -5.710137
v 2.829098 -1.989212 -3.604554
v 2.317739 -1.989357 -3.604395
v 2.326750 -4.461800 -3.366773
v 2.304792 -3.166466 -2.548321
v 2.355629 -1.878891 -5.710024
v 2.286854 -5.658104 -0.831155
v 2.269702 -4.299431 -0.291476
v 2.816139 -3.166344 -2.548434
v 2.838057 -4.461655 -3.366890
v 2.798176 -5.657967 -0.831276
v 2.781000 -4.299294 -0.291578
v 2.731386 -4.626617 2.520440
v 2.220078 -4.626770 2.520561
v 2.164268 -3.688324 5.298214
v 2.214758 -5.794937 3.155971
v 2.654451 -4.603424 6.724929
v 2.143116 -4.603577 6.725060
v 2.726081 -5.794785 3.155870
v 2.675602 -3.688171 5.298081
v 2.641433 -2.578720 6.840263
v 2.130100 -2.578880 6.840396
v 2.116956 -1.856438 7.346770
v 2.108384 -3.214355 8.216017
v 2.619708 -3.214218 8.215902
v 2.595248 -1.567451 9.069483
v 2.083925 -1.567612 9.069607
v 2.579536 -0.001427 9.466516
v 2.068203 -0.001564 9.466621
v 2.115993 -1.399544 7.263568
v 2.627326 -1.399406 7.263448
v 2.121603 -1.283836 6.922878
v 2.628290 -1.856293 7.346669
v 2.632926 -1.283691 6.922742
v 2.139843 -1.728691 6.055358
v 2.651176 -1.728539 6.055239
v 2.184882 -2.809364 3.909860
v 2.696217 -2.809227 3.909730
v 2.237942 -3.123657 1.099686
v 2.749238 -3.123505 1.099585
v 2.581677 0.929642 9.073779
v 2.070355 0.929504 9.073893
v 2.953424 -1.491776 -10.557503
vn -0.0003 1.0000 -0.0026
vn -0.0002 1.0000 -0.0026
vn 0.9998 0.0054 0.0183
vn -0.0003 0.7858 -0.6185
vn -0.0004 0.7858 -0.6185
vn 0.0002 -0.9310 -0.3649
vn 0.0001 -0.9310 -0.3649
vn 0.0002 -0.9310 -0.3650
vn 0.0003 -1.0000 0.0026
vn 0.9998 0.0054 0.0182
vn -0.0003 0.3750 -0.9270
vn -0.0004 0.3750 -0.9270
vn -0.0001 -0.3918 -0.9201
vn -0.0003 0.9284 -0.3717
vn -0.9998 -0.0054 -0.0183
vn -0.9998 -0.0054 -0.0182
vn 0.0004 -0.7384 0.6744
vn 0.0003 -0.7384 0.6744
vn 0.0003 -0.9959 0.0904
vn 0.0002 -0.8666 -0.4989
vn 0.0001 -0.8666 -0.4989
vn 0.0004 -0.9959 0.0904
vn 0.0003 -0.0307 0.9995
vn 0.0003 -0.0308 0.9995
vn 0.0002 -0.0307 0.9995
vn -0.0000 0.6678 0.7443
vn 0.0001 -0.8796 -0.4757
vn -0.0000 -0.6719 -0.7406
vn -0.0001 0.8937 0.4486
vn -0.0001 0.8937 0.4487
vn -0.0003 0.9933 0.1156
vn -0.0004 0.9474 -0.3201
vn 0.0003 -0.9802 0.1979
vn 0.0003 -0.9969 0.0793
vn 0.0004 -0.9485 0.3166
vn 0.0002 -0.9994 -0.0343
vn -0.0004 0.8118 -0.5840
vn -0.0004 0.5740 -0.8189
vn -0.0003 0.5740 -0.8189
vn 0.0003 -0.4602 0.8878
vn 0.0004 -0.4602 0.8878
vn 0.0004 -0.7316 0.6817
vn 0.0003 -0.2457 0.9693
vn 0.0003 -0.2458 0.9693
vn -0.0002 -0.1792 -0.9838
vn 0.0002 -0.9469 -0.3216
vn -0.0001 -0.1792 -0.9838
vn 0.0004 -0.8898 0.4563
vn 0.0004 -0.8914 0.4531
vn 0.0004 -0.8920 0.4521
vn 0.0003 -0.9443 0.3292
vn 0.0003 -0.9766 0.2150
vn 0.0003 -0.9938 0.1112
vn 0.0003 -0.9938 0.1111
vn 0.0002 -0.9494 -0.3141
vn 0.0001 0.3886 0.9214
vn -0.0000 0.6070 0.7947
vn -0.0001 0.7981 0.6025
vn -0.0002 0.9243 0.3817
vn 0.0002 -0.9044 -0.4267
vn 0.0001 -0.9044 -0.4267
vn 0.0003 -1.0000 0.0055
vn 0.0002 -1.0000 0.0055
vt 0.071655 0.257719
vt 0.066719 0.257719
vt 0.066719 0.256163
vt 0.071655 0.256163
vt 0.488726 0.561738
vt 0.481758 0.561738
vt 0.481758 0.556322
vt 0.055291 0.256163
vt 0.488726 0.548536
vt 0.475580 0.548423
vt 0.785975 0.590919
vt 0.785975 0.589363
vt 0.784226 0.589363
vt 0.784226 0.590919
vt 0.774341 0.590919
vt 0.487796 0.563995
vt 0.485228 0.565124
vt 0.774341 0.589363
vt 0.074360 0.257719
vt 0.074360 0.256163
vt 0.077605 0.256163
vt 0.077605 0.257719
vt 0.788118 0.590919
vt 0.788118 0.589363
vt 0.482661 0.563995
vt 0.503592 0.486060
vt 0.502587 0.483548
vt 0.499730 0.482292
vt 0.496873 0.483548
vt 0.495837 0.486060
vt 0.767255 0.590919
vt 0.495837 0.500755
vt 0.503592 0.492089
vt 0.502399 0.508040
vt 0.510468 0.500880
vt 0.005247 0.725206
vt 0.005247 0.670840
vt 0.006940 0.670864
vt 0.006940 0.725230
vt 0.502807 0.529893
vt 0.510468 0.561921
vt 0.055291 0.257719
vt 0.502681 0.528261
vt 0.502650 0.519971
vt 0.741898 0.589363
vt 0.741898 0.590919
vt 0.743013 0.590919
vt 0.500421 0.534038
vt 0.739109 0.589363
vt 0.739109 0.590919
vt 0.475580 0.493581
vt 0.482464 0.522356
vt 0.484608 0.518632
vt 0.482577 0.523823
vt 0.743013 0.589363
vt 0.482605 0.531271
vt 0.483649 0.529352
vt 0.483931 0.523936
vt 0.746982 0.590919
vt 0.746982 0.589363
vt 0.747879 0.589363
vt 0.747879 0.590919
vt 0.501174 0.528135
vt 0.501488 0.522107
vt 0.494141 0.528763
vt 0.497815 0.531149
vt 0.743997 0.590919
vt 0.758660 0.590919
vt 0.760257 0.590919
vt 0.760257 0.589363
vt 0.758660 0.589363
vt 0.752296 0.590919
vt 0.490750 0.536048
vt 0.494580 0.537555
vt 0.743997 0.589363
vt 0.739656 0.590919
vt 0.486949 0.521228
vt 0.490250 0.523372
vt 0.493297 0.516827
vt 0.489855 0.515473
vt 0.739656 0.589363
vt 0.490701 0.508251
vt 0.734221 0.590919
vt 0.734221 0.589363
vt 0.728503 0.590919
vt 0.496276 0.553631
vt 0.493639 0.545593
vt 0.490310 0.547477
vt 0.739437 0.590919
vt 0.739437 0.589363
vt 0.732516 0.589363
vt 0.732516 0.590919
vt 0.493670 0.557650
vt 0.747135 0.590919
vt 0.488331 0.501029
vt 0.490673 0.497418
vt 0.493692 0.506558
vt 0.747135 0.589363
vt 0.728503 0.589363
vt 0.485511 0.497079
vt 0.724736 0.590919
vt 0.724736 0.589363
vt 0.722955 0.590919
vt 0.501457 0.559534
vt 0.499416 0.558027
vt 0.497595 0.561921
vt 0.728448 0.590919
vt 0.728448 0.589363
vt 0.725031 0.589363
vt 0.725031 0.590919
vt 0.502273 0.564433
vt 0.722047 0.589363
vt 0.722047 0.590919
vt 0.506700 0.565688
vt 0.502776 0.559283
vt 0.722955 0.589363
vt 0.722694 0.590919
vt 0.503090 0.558278
vt 0.483677 0.495725
vt 0.482943 0.491324
vt 0.487147 0.493581
vt 0.482492 0.495951
vt 0.722694 0.589363
vt 0.724379 0.590919
vt 0.501834 0.555892
vt 0.724379 0.589363
vt 0.728546 0.590919
vt 0.498788 0.549612
vt 0.728546 0.589363
vt 0.733981 0.590919
vt 0.497909 0.541574
vt 0.733981 0.589363
vt 0.486075 0.504640
vt 0.486865 0.511862
vt 0.483338 0.498998
vt 0.482210 0.496854
vt 0.478966 0.490196
vt 0.937029 0.549683
vt 0.938584 0.549683
vt 0.938584 0.552717
vt 0.937029 0.552717
vt 0.509369 0.564558
vt 0.938584 0.555473
vt 0.937029 0.555473
vt 0.476568 0.491212
vt 0.752296 0.589363
vt 0.767255 0.589363
vt 0.482831 0.541991
s 1
usemtl body
f 106/195/85 108/196/86 105/197/86
f 105/197/86 107/198/85 106/195/85
f 111/199/87 107/200/87 105/201/87
f 110/202/88 105/197/89 108/196/88
f 105/201/87 109/203/87 111/199/87
f 109/203/87 105/201/87 110/204/87
f 112/205/90 114/206/91 111/207/90
f 111/207/90 113/208/92 112/205/90
f 115/209/93 113/208/93 111/207/93
f 111/199/87 114/210/94 116/211/87
f 111/207/93 109/212/93 115/209/93
f 116/211/87 107/200/87 111/199/87
f 117/213/95 119/214/96 116/215/95
f 116/215/95 118/216/95 117/213/95
f 118/217/97 116/218/97 114/206/97
f 116/211/87 119/219/87 107/200/87
f 106/195/98 107/198/98 119/214/98
f 119/214/98 117/213/98 106/195/98
f 106/220/99 117/221/99 118/222/99
f 114/206/97 112/205/97 118/217/97
f 118/222/99 112/223/100 113/224/99
f 113/224/99 106/220/99 118/222/99
f 120/225/101 115/209/102 109/212/102
f 113/224/99 115/226/99 108/227/99
f 115/226/99 120/228/99 121/229/99
f 121/229/99 108/227/99 115/226/99
f 122/230/86 110/231/85 121/232/85
f 121/232/85 123/233/86 122/230/86
f 121/229/99 126/234/99 123/235/99
f 108/196/88 121/236/88 110/202/88
f 121/229/99 124/237/99 126/234/99
f 121/229/99 125/238/99 124/237/99
f 121/229/99 120/228/99 125/238/99
f 129/239/103 126/240/103 124/241/103
f 126/234/99 127/242/99 123/235/99
f 128/243/104 127/244/104 126/240/105
f 126/240/105 129/239/105 128/243/104
f 122/245/87 129/246/87 110/204/87
f 122/245/87 128/247/87 129/246/87
f 110/204/87 129/246/87 130/248/87
f 124/241/103 130/249/106 129/239/103
f 130/248/87 131/250/87 110/204/87
f 132/251/87 131/250/87 130/248/87
f 130/248/87 133/252/94 132/251/87
f 134/253/107 133/254/108 130/255/107
f 130/255/107 124/256/109 134/253/107
f 134/257/99 137/258/99 135/259/99
f 135/259/99 136/260/99 134/257/99
f 133/254/110 134/253/110 136/261/110
f 137/258/99 134/257/99 124/237/99
f 137/262/111 125/263/111 131/264/111
f 131/264/111 132/265/111 137/262/111
f 135/266/112 137/262/112 132/265/112
f 124/237/99 125/238/99 137/258/99
f 136/260/99 135/259/99 138/267/99
f 138/267/99 139/268/99 136/260/99
f 140/269/113 136/261/114 139/270/113
f 136/261/110 140/269/110 133/254/110
f 133/252/94 140/271/87 141/272/87
f 142/273/87 141/272/87 140/271/87
f 140/271/87 143/274/87 142/273/87
f 139/270/113 143/275/113 140/269/113
f 142/273/87 143/274/87 144/276/87
f 145/277/115 144/278/115 143/275/115
f 143/275/115 139/270/115 145/277/115
f 144/278/116 145/277/116 146/279/116
f 146/280/99 145/281/99 147/282/99
f 138/267/99 147/282/99 145/281/99
f 145/281/99 139/268/99 138/267/99
f 147/283/117 150/284/118 148/285/119
f 148/285/119 149/286/119 147/283/117
f 147/282/99 149/287/99 146/280/99
f 150/284/118 147/283/117 138/288/120
f 151/289/87 148/290/87 150/291/87
f 138/288/120 142/292/120 150/284/118
f 144/276/87 150/291/87 142/273/87
f 150/291/87 144/276/87 151/289/87
f 146/279/116 151/293/116 144/278/116
f 148/290/87 151/289/87 152/294/87
f 153/295/121 152/296/121 151/293/121
f 151/293/121 146/279/121 153/295/121
f 152/296/122 153/295/122 154/297/123
f 154/298/99 153/299/99 155/300/99
f 149/287/99 155/300/99 153/299/99
f 153/299/99 146/280/99 149/287/99
f 155/301/124 156/302/124 157/303/125
f 156/302/126 155/301/126 149/286/126
f 157/303/125 158/304/125 155/301/124
f 155/300/99 158/305/99 154/298/99
f 158/304/127 157/303/128 159/306/127
f 159/306/127 160/307/127 158/304/127
f 158/305/99 160/308/99 161/309/99
f 161/309/99 154/298/99 158/305/99
f 161/307/129 162/306/129 164/310/129
f 162/306/130 161/307/130 163/311/130
f 163/312/99 161/309/99 160/308/99
f 164/310/129 154/297/131 161/307/129
f 164/313/87 157/314/87 156/315/87
f 156/315/87 152/294/87 164/313/87
f 154/297/123 164/310/123 152/296/122
f 157/314/87 164/313/87 162/316/87
f 163/311/130 165/317/130 162/306/130
f 165/317/132 163/311/132 166/318/133
f 166/319/99 163/312/99 123/235/99
f 163/312/99 160/308/99 123/235/99
f 166/318/133 167/320/134 165/317/132
f 167/320/134 166/318/133 168/321/135
f 168/322/99 166/319/99 123/235/99
f 168/321/135 169/323/136 167/320/134
f 169/323/136 168/321/135 170/324/137
f 170/325/99 168/322/99 123/235/99
f 170/324/137 171/326/138 169/323/136
f 171/326/139 170/324/139 127/244/139
f 127/242/99 170/325/99 123/235/99
f 122/245/87 169/327/87 171/328/87
f 122/245/87 171/328/87 128/247/87
f 127/244/139 128/243/139 171/326/139
f 167/329/87 169/327/87 122/245/87
f 165/330/87 167/329/87 122/245/87
f 159/331/87 162/316/87 165/330/87
f 159/331/87 165/330/87 122/245/87
f 162/316/87 159/331/87 157/314/87
f 160/332/140 159/333/140 172/334/141
f 172/334/141 173/335/142 160/332/140
f 160/308/99 173/336/99 123/235/99
f 173/335/142 172/334/141 122/337/143
f 122/337/143 123/338/143 173/335/142
f 159/331/87 122/245/87 172/339/87
f 149/286/126 148/285/126 156/302/126
f 152/294/87 156/315/87 148/290/87
f 135/266/144 141/340/144 142/292/145
f 142/292/145 138/288/145 135/266/144
f 141/272/87 132/251/87 133/252/94
f 132/265/112 141/340/112 135/266/112
f 120/225/146 174/341/146 131/264/147
f 131/264/147 125/263/147 120/225/146
f 131/250/87 174/342/87 110/204/87
f 110/204/87 174/342/87 109/203/87
f 109/212/102 174/341/101 120/225/101
f 108/227/99 106/220/99 113/224/99
o gaz2975_nomg_turret.004
v 2.685929 2.476479 2.910764
v 2.704756 2.960831 1.737843
v 2.728656 2.470436 0.574872
v 2.743619 1.292595 0.103132
v 2.683236 1.301102 3.406545
v 2.174618 2.476334 2.910880
v 2.171902 1.300964 3.406675
v 2.217324 2.470314 0.575010
v 2.232311 1.292458 0.103253
v 2.193423 2.960678 1.737976
vn -0.0002 0.9243 0.3817
vn 0.9998 0.0054 0.0183
vn 0.0001 0.3886 0.9214
vn 0.0001 0.3887 0.9214
vn -0.9998 -0.0054 -0.0183
vn -0.0003 0.9214 -0.3885
vn -0.0004 0.9214 -0.3885
vn -0.0003 0.3718 -0.9283
vn -0.0004 0.3718 -0.9283
vt 0.449410 0.376580
vt 0.449410 0.374890
vt 0.453332 0.374890
vt 0.768272 0.550014
vt 0.760969 0.550014
vt 0.764621 0.548526
vt 0.759481 0.553631
vt 0.769759 0.553631
vt 0.445488 0.376580
vt 0.445488 0.374890
vt 0.457254 0.374890
vt 0.457254 0.376580
vt 0.453332 0.376580
vt 0.461175 0.374890
vt 0.461175 0.376580
s 1
usemtl body
f 180/343/148 175/344/148 176/345/148
f 175/346/149 177/347/149 176/348/149
f 175/346/149 178/349/149 177/347/149
f 175/346/149 179/350/149 178/349/149
f 181/351/150 179/352/150 175/344/151
f 175/344/151 180/343/151 181/351/150
f 181/350/152 180/346/152 184/348/152
f 182/347/152 181/350/152 184/348/152
f 182/347/152 183/349/152 181/350/152
f 177/353/153 182/354/153 184/355/154
f 184/355/154 176/345/154 177/353/153
f 176/345/148 184/355/148 180/343/148
f 178/356/155 183/357/155 182/354/155
f 182/354/155 177/353/156 178/356/155
o gaz2975_nomg_turret.005
v 8.365662 2.478065 2.909410
v 8.384478 2.962425 1.736487
v 8.408379 2.472031 0.573525
v 8.423344 1.294189 0.101778
v 8.362959 1.302696 3.405184
v 7.851635 1.302567 3.405312
v 7.854341 2.477921 2.909526
v 7.873155 2.962280 1.736614
v 7.897046 2.471893 0.573654
v 7.912033 1.294044 0.101869
vn -0.0002 0.9243 0.3817
vn 0.9998 0.0054 0.0183
vn 0.0001 0.3886 0.9214
vn 0.0001 0.3887 0.9214
vn -0.9998 -0.0054 -0.0183
vn -0.0003 0.9214 -0.3885
vn -0.0003 0.9214 -0.3886
vn -0.0004 0.9214 -0.3886
vn -0.0003 0.3718 -0.9283
vt 0.449410 0.374890
vt 0.449410 0.376580
vt 0.453332 0.376580
vt 0.768272 0.550014
vt 0.760969 0.550014
vt 0.764621 0.548526
vt 0.759481 0.553631
vt 0.769759 0.553631
vt 0.445488 0.374890
vt 0.445488 0.376580
vt 0.453332 0.374890
vt 0.457254 0.376580
vt 0.457254 0.374890
vt 0.461175 0.376580
vt 0.461175 0.374890
s 1
usemtl body
f 191/358/157 185/359/157 186/360/157
f 185/361/158 187/362/158 186/363/158
f 185/361/158 188/364/158 187/362/158
f 185/361/158 189/365/158 188/364/158
f 190/366/159 189/367/159 185/359/160
f 185/359/160 191/358/160 190/366/159
f 190/365/161 191/361/161 192/363/161
f 186/360/157 192/368/157 191/358/157
f 187/369/162 193/370/162 192/368/163
f 193/362/161 190/365/161 192/363/161
f 192/368/163 186/360/164 187/369/162
f 193/362/161 194/364/161 190/365/161
f 188/371/165 194/372/165 193/370/165
f 193/370/165 187/369/165 188/371/165
o gaz2975_nomg_turret.010
v 8.504831 0.648849 -8.704212
v 2.472895 0.830322 -8.391115
v 2.479573 0.647148 -8.702768
v 8.498169 0.832016 -8.392542
v 8.506737 0.284111 -8.700496
v 2.481467 0.282425 -8.699060
v 8.501972 0.102554 -8.385086
v 2.476686 0.100868 -8.383650
v 8.495258 0.285728 -8.073409
v 2.469997 0.284027 -8.071951
v 8.493387 0.650467 -8.077150
v 2.468114 0.648766 -8.075700
vn -0.0004 0.8621 -0.5067
vn -0.0002 -0.0102 -0.9999
vn 0.0001 -0.8667 -0.4989
vn 0.0004 -0.8621 0.5067
vn 0.0004 -0.8622 0.5066
vn 0.0002 0.0103 0.9999
vn -0.0001 0.8667 0.4989
vt 0.663871 0.616498
vt 0.711204 0.616498
vt 0.711204 0.614199
vt 0.663871 0.614199
vt 0.663871 0.611883
vt 0.711204 0.611883
vt 0.663871 0.609584
vt 0.711204 0.609584
s 1
usemtl body
f 196/373/166 198/374/166 195/375/166
f 195/375/166 197/376/166 196/373/166
f 197/376/167 195/375/167 199/374/167
f 199/374/167 200/373/167 197/376/167
f 200/377/168 199/378/168 201/375/168
f 201/375/168 202/376/168 200/377/168
f 202/379/169 201/380/169 203/378/169
f 203/378/170 204/377/170 202/379/170
f 204/377/171 203/378/171 205/380/171
f 205/380/171 206/379/171 204/377/171
f 206/376/172 205/375/172 198/378/172
f 198/378/172 196/377/172 206/376/172
o gaz2975_nomg_turret.011
v 2.600264 -0.722458 7.256527
v 2.973163 -0.376717 -13.256698
v 2.598186 -0.323837 7.252450
v 2.975264 -0.775352 -13.252637
v 7.815747 -0.720985 7.255304
v 7.813694 -0.322350 7.251196
v 8.190762 -0.773888 -13.253894
v 8.188660 -0.375267 -13.257946
vn -0.9998 -0.0055 -0.0183
vn -0.9998 -0.0054 -0.0183
vn 0.0002 0.0102 0.9999
vn 0.0002 0.0103 0.9999
vn 0.0003 -1.0000 0.0026
vn 0.9998 0.0053 0.0183
vn 0.9998 0.0055 0.0183
vn -0.0002 -0.0102 -0.9999
vn -0.0003 1.0000 -0.0026
vt 0.899450 0.554270
vt 0.899450 0.553052
vt 0.836295 0.553052
vt 0.836295 0.554270
vt 0.747847 0.294869
vt 0.746630 0.294869
vt 0.746630 0.310894
vt 0.836295 0.538244
vt 0.747847 0.310894
vt 0.899450 0.538244
s 1
usemtl body
f 208/381/173 210/382/173 207/383/174
f 207/383/174 209/384/174 208/381/173
f 209/385/175 207/386/175 211/387/176
f 211/388/177 207/384/177 210/381/177
f 211/387/176 212/389/176 209/385/175
f 212/384/178 211/383/178 213/382/179
f 210/381/177 213/390/177 211/388/177
f 213/382/179 214/381/179 212/384/178
f 214/389/180 213/387/180 210/386/180
f 214/390/181 208/381/181 209/384/181
f 209/384/181 212/388/181 214/390/181
f 210/386/180 208/385/180 214/389/180
o gaz2975_nomg_turret.013
v 2.953927 -0.337379 1.971773
v 3.220824 2.314667 -8.644787
v 3.058295 2.337601 0.243963
v 3.178612 -0.369057 -10.317816
v 3.529396 -0.337219 1.971632
v 3.459291 2.337715 0.243870
v 3.754104 -0.368912 -10.317955
v 3.621816 2.314796 -8.644897
vn -0.9995 0.0272 -0.0183
vn -0.9995 0.0271 -0.0183
vn 0.0001 0.5426 0.8400
vn -0.0000 0.5426 0.8400
vn 0.9991 0.0379 0.0182
vn -0.0003 0.5290 -0.8486
vn -0.0003 1.0000 -0.0026
vn -0.0002 1.0000 -0.0026
vn -0.0004 0.5290 -0.8486
vt 0.519891 0.710560
vt 0.514913 0.718301
vt 0.550728 0.718301
vt 0.545750 0.710560
vt 0.002031 0.371176
vt 0.002302 0.362554
vt 0.000476 0.362554
vt 0.000747 0.371176
vt 0.519509 0.709386
vt 0.514531 0.701645
vt 0.550346 0.701645
vt 0.545368 0.709386
vt 0.362068 0.588543
vt 0.362068 0.589834
vt 0.333262 0.589834
vt 0.333262 0.588543
s 1
usemtl body
f 216/391/182 218/392/182 215/393/182
f 215/393/183 217/394/183 216/391/183
f 217/395/184 215/396/184 219/397/184
f 219/397/185 220/398/185 217/395/185
f 220/399/186 219/400/186 221/401/186
f 221/401/186 222/402/186 220/399/186
f 222/398/187 221/397/187 218/396/187
f 222/403/188 216/404/188 217/405/189
f 217/405/189 220/406/189 222/403/188
f 218/396/190 216/395/190 222/398/190
