# Blender 4.3.2
# www.blender.org
mtllib door3_2.mtl
o gaz2975_nomg_body.080
v 2.583523 -7.456196 20.057034
v 2.584793 -12.799080 6.207735
v 2.585495 -12.799082 20.057037
v 2.584179 -7.456196 6.207735
v -1.741364 -7.456196 4.832092
v -1.741360 -7.456196 21.432693
v -1.741356 -12.792864 21.432697
v -1.501244 -14.437546 20.057045
v 1.504208 -14.115793 20.057037
v 1.503510 -14.115793 6.207735
v -1.741360 -12.792864 4.832092
v -1.501942 -14.437544 6.207733
vn 1.0000 0.0002 -0.0000
vn 0.7770 0.6295 -0.0000
vn 0.7468 0.6650 -0.0000
vn 1.0000 0.0004 -0.0001
vn 0.3030 0.0001 0.9530
vn 0.3031 0.0001 0.9530
vn -0.0000 1.0000 -0.0000
vn 0.3030 -0.0000 0.9530
vn 0.2937 -0.2412 0.9250
vn 0.0679 -0.6343 0.7701
vn 0.2666 -0.9638 0.0001
vn 0.4964 -0.8681 -0.0000
vn 0.1064 -0.9943 -0.0000
vn 0.7728 -0.6346 -0.0000
vn 0.2938 -0.2412 -0.9249
vn 0.0679 -0.6343 -0.7701
vn 0.3030 -0.0000 -0.9530
vn 0.3031 -0.0000 -0.9530
vt 0.312844 0.917422
vt 0.312843 0.904960
vt 0.345146 0.904959
vt 0.345145 0.917421
vt 0.355733 0.904959
vt 0.309635 0.894871
vt 0.348354 0.894871
vt 0.355734 0.917406
vt 0.333278 0.886244
vt 0.334213 0.882515
vt 0.339062 0.892778
vt 0.333790 0.893376
vt 0.300835 0.886246
vt 0.299901 0.882517
vt 0.295051 0.892778
vt 0.300322 0.893378
vt 0.302256 0.917407
vt 0.302256 0.904960
s 1
usemtl body
f 2/1/1 4/2/2 1/3/3
f 1/3/3 3/4/4 2/1/1
f 3/4/5 1/3/6 6/5/6
f 1/3/3 4/2/2 5/6/7
f 5/6/7 6/7/7 1/3/3
f 6/5/6 7/8/8 3/4/5
f 9/9/9 3/10/9 7/11/9
f 8/12/10 9/9/10 7/11/10
f 10/13/11 9/9/12 8/12/13
f 2/14/14 3/10/14 9/9/12
f 9/9/12 10/13/11 2/14/14
f 2/14/15 10/13/15 11/15/15
f 10/13/16 12/16/16 11/15/16
f 8/12/13 12/16/13 10/13/11
f 11/17/17 5/18/18 4/2/18
f 4/2/18 2/1/17 11/17/17
o gaz2975_nomg_body.079
v -2.447338 9.723598 -4.945311
v -2.447735 2.812916 -5.067289
v -2.422256 10.906868 -10.883744
v -2.447514 6.756260 -4.985622
v -2.447353 6.739651 -2.677485
v -2.447166 10.081230 -2.677501
v -2.416779 10.934891 24.378578
v -2.447224 9.625751 -0.721853
v -1.534534 9.625698 -0.721880
v -1.534481 10.081184 -2.677526
v -1.534668 6.739632 -2.677511
v -1.534668 6.739632 -4.985632
v -1.534843 5.717651 -2.677501
v -1.534950 2.743313 -0.721861
v -2.447636 2.743362 -0.721834
v -1.535030 2.341667 -2.677485
v -2.447559 3.899479 0.788805
v -1.534870 3.899429 0.788782
v -1.534599 8.415752 0.788782
v -1.534740 6.157593 1.233767
v -2.447422 6.157642 1.233797
v -2.447289 8.415806 0.788813
v -2.446697 -20.229294 24.378574
v -2.447384 -20.229294 2.133610
v -1.374187 -20.229294 24.378567
v -1.344269 10.934891 24.378571
v -1.349743 10.906868 -10.883744
v -1.373119 9.121380 19.507389
v -0.964058 12.853775 -8.189193
v -0.962391 12.853596 20.183846
v -0.580059 14.774792 24.378571
v -1.372864 0.874252 19.443710
v -1.374016 0.823330 22.709312
v -1.376312 -6.256721 22.709324
v -1.652569 14.774792 24.378578
v -1.997089 13.043610 20.183846
v -1.211693 16.985947 20.172028
v 1.395145 30.088387 19.462090
v 0.789356 27.051826 16.940483
v 0.786343 27.051331 -8.191266
v 1.372154 30.007774 -10.886559
v 2.444664 30.007774 -10.886559
v 2.467663 30.088387 19.462097
v -0.176945 16.795925 20.172024
v 1.824085 26.861809 16.940483
v 1.821075 26.861305 -8.191274
v -1.998791 13.043797 -8.189178
v -1.374882 -20.229294 2.133610
v -1.375404 -6.256718 -4.534804
v 1.796429 -6.256725 -4.534891
v 1.795521 -6.256721 22.709305
v 1.796635 1.099049 5.042341
v 1.796661 0.874252 19.443710
v 1.796665 0.823280 22.709297
v 1.798706 9.121262 19.464512
v 1.796402 9.109653 -9.214754
v -1.375423 9.109753 -9.214721
v 1.796616 1.321606 -9.215790
v -1.375217 1.321709 -9.215758
v -1.375286 0.847855 -10.885054
v -2.447788 0.847855 -10.885054
v -2.447720 2.341713 -2.677460
v -2.447624 5.771576 -4.985687
v -2.447533 5.744629 -2.677472
v -1.534843 5.717651 -4.985622
vn -1.0000 0.0001 -0.0005
vn -1.0000 0.0010 -0.0030
vn -1.0000 0.0005 -0.0006
vn -0.9920 0.1265 -0.0006
vn -0.9998 0.0186 0.0002
vn -1.0000 0.0001 0.0001
vn -0.0000 -0.0000 1.0000
vn -0.0002 -0.5704 0.8213
vn -0.0000 -0.3274 0.9449
vn -0.9998 0.0219 0.0010
vn -1.0000 0.0025 0.0011
vn -0.0001 -0.9312 -0.3644
vn -0.0001 -0.8659 -0.5002
vn -0.0001 -0.9739 -0.2268
vn -0.0167 -0.9197 0.3923
vn -0.0168 -0.9196 0.3925
vn -0.0182 -0.9998 -0.0000
vn -0.0000 -1.0000 -0.0072
vn -1.0000 0.0001 -0.0000
vn -1.0000 0.0002 0.0001
vn -1.0000 0.0002 -0.0000
vn -0.0000 0.8779 -0.4788
vn -0.0000 0.9404 -0.3400
vn -0.0000 0.6042 -0.7969
vn 0.0001 0.8354 0.5496
vn -0.0000 0.3899 -0.9209
vn -0.0000 -0.0656 -0.9978
vn -0.0000 0.0656 -0.9978
vn -0.0001 -0.3867 -0.9222
vn -0.0001 -0.5952 -0.8036
vn -1.0000 0.0004 0.0005
vn -1.0000 0.0012 0.0010
vn -1.0000 -0.0000 0.0001
vn -1.0000 -0.0000 -0.0000
vn -0.0000 -1.0000 -0.0000
vn 0.9928 -0.1200 0.0001
vn 0.9808 -0.1952 -0.0003
vn 0.9902 -0.1397 -0.0001
vn 1.0000 0.0001 -0.0060
vn 1.0000 -0.0013 -0.0032
vn 1.0000 -0.0016 -0.0026
vn 0.9807 -0.1953 -0.0000
vn 0.9808 -0.1952 0.0001
vn -0.0000 0.2742 0.9617
vn -0.0000 0.2091 0.9779
vn 1.0000 -0.0030 0.0003
vn 0.9999 -0.0003 -0.0159
vn 1.0000 0.0001 -0.0007
vn -0.9808 0.1952 -0.0001
vn -0.9808 0.1952 -0.0000
vn -0.9807 0.1953 0.0003
vn -0.0000 0.3057 0.9521
vn -0.9807 0.1954 0.0004
vn -0.9809 0.1947 0.0003
vn -0.9809 0.1947 0.0004
vn -0.0000 1.0000 -0.0027
vn 0.9807 -0.1953 -0.0004
vn 0.9807 -0.1953 -0.0003
vn 0.9809 -0.1948 -0.0003
vn 0.9809 -0.1947 -0.0004
vn -0.1806 -0.9836 -0.0000
vn -0.0000 0.0001 1.0000
vn -0.0543 -0.2954 -0.9538
vn -0.0005 -0.0029 -1.0000
vn -0.0000 -0.0001 -1.0000
vn -0.0000 -0.0000 -1.0000
vn -0.9809 0.1946 -0.0002
vn 0.1806 0.9836 -0.0000
vn -0.0002 0.2239 0.9746
vn 1.0000 0.0001 -0.0000
vn 1.0000 -0.0001 -0.0002
vn 0.8716 -0.4903 -0.0000
vn 0.9665 -0.2567 0.0003
vn 1.0000 -0.0001 -0.0000
vn 1.0000 -0.0002 -0.0000
vn -0.0000 0.6727 0.7399
vn -0.0000 0.9999 0.0156
vn 0.0067 -0.0052 1.0000
vn 0.0135 -0.0025 0.9999
vn 0.0068 -0.0051 1.0000
vn 0.9676 0.2523 -0.0023
vn -0.0000 -0.0077 1.0000
vn -0.0000 1.0000 -0.0004
vn 0.8820 0.4712 -0.0002
vn -0.0000 0.0001 -1.0000
vn 1.0000 -0.0000 -0.0000
vn 1.0000 -0.0002 0.0009
vn -0.0000 -0.5255 -0.8508
vn 1.0000 -0.0014 0.0072
vn 0.9999 -0.0025 0.0126
vn -1.0000 0.0012 -0.0004
vn 0.0001 0.5495 0.8355
vn 0.0165 0.5583 0.8295
vn 0.0165 0.5584 0.8294
vn 0.0295 0.9995 0.0117
vn -0.0000 -0.0001 1.0000
vn 0.0539 0.9130 0.4044
vn -0.0001 -0.0000 1.0000
vn 0.0590 0.9983 -0.0000
vt 0.721061 0.496069
vt 0.721179 0.504642
vt 0.720824 0.484677
vt 0.704023 0.508058
vt 0.727731 0.505674
vt 0.727729 0.496020
vt 0.964130 0.149840
vt 0.964130 0.159495
vt 0.961493 0.159495
vt 0.805895 0.508137
vt 0.733380 0.504358
vt 0.961493 0.215683
vt 0.964130 0.215683
vt 0.964130 0.221484
vt 0.961493 0.221484
vt 0.961493 0.149840
vt 0.964130 0.166164
vt 0.961493 0.166164
vt 0.720524 0.304874
vt 0.699326 0.299221
vt 0.708979 0.299223
vt 0.486838 0.128049
vt 0.486838 0.125096
vt 0.493506 0.125098
vt 0.711932 0.299223
vt 0.961493 0.191294
vt 0.964130 0.191294
vt 0.964130 0.196790
vt 0.961493 0.185525
vt 0.721685 0.299225
vt 0.961493 0.196790
vt 0.717183 0.309238
vt 0.710659 0.310522
vt 0.700640 0.304871
vt 0.704135 0.309236
vt 0.961493 0.203440
vt 0.964130 0.203440
vt 0.964130 0.210090
vt 0.961493 0.210090
vt 0.805885 0.418099
vt 0.737744 0.500861
vt 0.739029 0.494338
vt 0.042866 0.350879
vt 0.039768 0.350879
vt 0.039768 0.292857
vt 0.737743 0.487814
vt 0.733378 0.484474
vt 0.741620 0.418106
vt 0.104019 0.364939
vt 0.107117 0.364939
vt 0.107119 0.429202
vt 0.042866 0.292857
vt 0.414502 0.724203
vt 0.408217 0.728832
vt 0.332256 0.724269
vt 0.343619 0.720039
vt 0.343767 0.700804
vt 0.342039 0.728832
vt 0.332255 0.733401
vt 0.042866 0.358028
vt 0.039768 0.358028
vt 0.336150 0.700685
vt 0.336150 0.684171
vt 0.332257 0.651582
vt 0.805896 0.519447
vt 0.793777 0.514348
vt 0.793744 0.525961
vt 0.791694 0.564556
vt 0.039768 0.387973
vt 0.784409 0.555611
vt 0.711804 0.555611
vt 0.704018 0.564318
vt 0.882092 0.596975
vt 0.882092 0.600073
vt 0.794409 0.600073
vt 0.794409 0.596975
vt 0.042866 0.387973
vt 0.342067 0.738208
vt 0.349604 0.762145
vt 0.343722 0.769820
vt 0.408222 0.762143
vt 0.414508 0.769625
vt 0.887908 0.595543
vt 0.825488 0.595543
vt 0.825488 0.592930
vt 0.923375 0.595508
vt 0.887908 0.592930
vt 0.798766 0.595648
vt 0.798767 0.593035
vt 0.788783 0.595497
vt 0.788784 0.592884
vt 0.937278 0.596975
vt 0.937278 0.600073
vt 0.711809 0.514351
vt 0.923376 0.592895
vt 0.993846 0.592906
vt 0.993846 0.595519
vt 0.385364 0.920887
vt 0.401877 0.920882
vt 0.401877 0.928280
vt 0.384140 0.651581
vt 0.399693 0.684171
vt 0.146907 0.648656
vt 0.210452 0.648658
vt 0.210452 0.656057
vt 0.146907 0.656052
vt 0.188112 0.673212
vt 0.154522 0.672681
vt 0.146905 0.672564
vt 0.385363 0.928282
vt 0.377746 0.928280
vt 0.377747 0.920887
vt 0.358511 0.928284
vt 0.358510 0.920885
vt 0.154471 0.691910
vt 0.154371 0.699303
vt 0.221364 0.691905
vt 0.221363 0.699309
vt 0.228763 0.673739
vt 0.228764 0.691904
vt 0.221367 0.673737
vt 0.414504 0.700741
vt 0.410611 0.701847
vt 0.216747 0.652171
vt 0.227661 0.669849
vt 0.410608 0.720012
vt 0.020334 0.918760
vt 0.020333 0.847192
vt 0.023431 0.847192
vt 0.966340 0.596975
vt 0.966340 0.600073
vt 0.023433 0.918760
vt 0.704016 0.479002
vt 0.104020 0.429202
vt 0.727728 0.483315
vt 0.721061 0.493224
vt 0.964130 0.185525
vt 0.727729 0.493145
vt 0.961493 0.175732
vt 0.964130 0.175732
vt 0.964130 0.169063
vt 0.961493 0.169063
vt 0.493505 0.128051
s 1
usemtl body
f 16/19/19 13/20/20 14/21/21
f 13/20/20 15/22/22 14/21/21
f 15/22/22 13/20/20 18/23/23
f 13/20/20 16/19/19 17/24/24
f 17/24/24 18/23/23 13/20/20
f 18/25/25 17/26/26 23/27/27
f 19/28/28 15/22/22 18/23/23
f 18/23/23 20/29/29 19/28/28
f 21/30/30 20/31/31 18/32/32
f 18/32/32 22/33/32 21/30/30
f 23/27/27 22/34/25 18/25/25
f 16/35/33 24/36/34 23/27/35
f 23/27/27 17/26/26 16/35/36
f 26/37/37 22/38/37 23/39/37
f 25/40/38 23/41/37 24/42/39
f 26/37/37 23/39/37 25/43/38
f 26/44/40 27/45/41 29/46/42
f 27/45/41 26/44/40 28/47/43
f 28/48/37 26/37/37 25/43/38
f 29/46/42 30/49/44 26/44/40
f 26/37/37 30/50/37 32/51/37
f 26/37/37 21/52/37 22/38/37
f 26/37/37 31/53/37 21/52/37
f 26/37/37 32/51/37 31/53/37
f 32/54/45 33/55/46 34/56/47
f 33/55/46 32/54/45 30/49/44
f 34/56/47 31/57/48 32/54/45
f 35/58/49 19/28/28 34/59/50
f 19/28/28 20/29/29 34/59/50
f 31/57/48 34/56/47 20/31/31
f 35/58/49 34/59/50 33/60/24
f 38/61/25 19/62/25 35/63/25
f 35/58/49 33/60/24 29/64/51
f 35/58/49 29/64/51 27/65/52
f 36/66/52 35/58/49 27/65/52
f 37/67/53 35/68/53 36/69/53
f 35/63/25 37/70/25 38/61/25
f 39/71/54 41/72/55 38/73/56
f 39/71/54 38/73/56 40/74/57
f 44/75/58 40/74/57 38/73/59
f 41/72/55 42/76/60 38/73/56
f 42/76/60 43/77/61 38/73/56
f 38/61/25 43/78/62 47/79/63
f 38/73/59 45/80/64 44/75/58
f 46/81/65 45/80/64 38/73/59
f 38/73/59 37/82/66 46/81/65
f 47/79/63 19/62/25 38/61/25
f 19/28/28 47/83/67 48/84/68
f 49/85/67 48/84/68 47/83/67
f 49/85/67 47/83/67 50/86/69
f 50/87/70 47/79/63 43/78/62
f 49/85/67 50/86/69 51/88/71
f 52/89/72 51/88/71 50/86/69
f 50/86/69 53/90/73 52/89/72
f 54/91/74 53/92/74 50/93/74
f 50/93/74 55/94/74 54/91/74
f 43/78/62 55/95/70 50/87/70
f 56/96/61 57/97/75 55/98/76
f 56/96/61 55/98/76 43/77/61
f 55/98/76 57/97/75 58/99/77
f 58/99/77 54/100/78 55/98/76
f 58/101/79 57/102/79 51/103/79
f 39/71/54 54/100/78 58/99/77
f 58/99/77 41/72/55 39/71/54
f 41/104/80 58/101/80 52/105/80
f 51/103/79 52/105/79 58/101/79
f 57/102/81 56/106/81 49/107/81
f 49/107/81 51/103/81 57/102/81
f 56/106/82 42/108/82 48/109/82
f 56/96/61 43/77/61 42/76/60
f 48/109/82 49/107/82 56/106/82
f 53/92/83 54/91/83 39/110/84
f 52/89/72 53/90/73 15/22/22
f 39/110/84 15/111/84 53/92/83
f 15/22/22 59/112/85 52/89/72
f 52/105/80 59/113/80 41/104/80
f 59/112/85 15/22/22 48/84/68
f 41/104/86 59/113/86 48/114/86
f 15/22/22 19/28/28 48/84/68
f 48/114/86 42/115/86 41/104/86
f 45/116/87 46/117/25 63/118/25
f 46/81/65 37/82/66 60/119/88
f 60/119/88 61/120/89 46/81/65
f 46/121/53 61/122/53 62/123/90
f 62/123/90 63/124/91 46/121/53
f 63/124/91 64/125/92 65/126/93
f 63/124/91 62/123/90 64/125/92
f 66/127/93 63/124/91 65/126/93
f 63/118/25 66/128/94 45/116/87
f 66/128/94 65/129/95 44/130/95
f 44/130/95 45/116/87 66/128/94
f 65/129/96 67/131/97 40/132/98
f 65/126/93 64/125/92 67/133/99
f 40/132/98 44/130/100 65/129/96
f 40/134/101 67/133/99 68/135/102
f 64/125/92 68/135/102 67/133/99
f 68/135/102 69/136/101 40/134/101
f 71/137/103 69/138/103 68/135/103
f 64/125/92 70/139/104 68/135/102
f 68/135/103 70/139/103 71/137/103
f 60/119/88 72/140/105 71/141/104
f 71/141/104 61/120/89 60/119/88
f 61/142/106 71/143/106 70/139/106
f 69/144/107 71/141/104 72/140/105
f 72/145/106 60/146/106 36/147/106
f 72/140/105 39/71/108 69/144/107
f 39/110/84 72/148/103 73/149/103
f 36/147/106 73/150/106 72/145/106
f 73/149/103 15/111/84 39/110/84
f 15/22/22 73/151/109 14/21/21
f 73/151/109 36/66/52 14/21/21
f 62/123/90 70/139/104 64/125/92
f 70/139/106 62/123/106 61/142/106
f 40/74/57 69/144/107 39/71/54
f 36/69/53 60/152/53 37/67/53
f 36/66/52 74/153/52 14/21/21
f 27/65/52 74/153/52 36/66/52
f 75/154/37 14/21/21 74/153/52
f 28/47/43 74/155/110 27/45/41
f 74/153/52 76/156/37 75/154/37
f 25/157/111 76/158/112 74/155/25
f 74/155/110 28/47/43 25/157/25
f 75/159/113 76/158/112 25/157/111
f 75/154/37 16/19/19 14/21/21
f 24/36/34 16/35/33 75/159/114
f 75/159/115 77/160/115 24/36/116
f 25/157/117 77/160/115 75/159/115
f 24/42/39 77/161/39 25/40/38
f 30/49/44 29/46/42 33/55/46
f 20/31/31 21/30/30 31/57/48
o gaz2975_nomg_body.282
v -1.743050 29.843346 19.084099
v -1.887024 30.084984 18.661209
v -1.879551 29.839172 18.661224
v -1.750519 30.089157 19.084091
v -2.102879 29.832420 19.344658
v -2.110352 30.078239 19.344650
v -2.461761 29.821495 19.082798
v -2.469234 30.067314 19.082787
v -2.323734 29.825668 18.660419
v -2.331211 30.071480 18.660408
vn 0.9512 0.0289 -0.3073
vn 0.8504 0.0259 0.5255
vn 0.9965 0.0303 0.0785
vn 0.2333 0.0071 0.9724
vn -0.2368 -0.0072 0.9715
vn -0.5890 -0.0179 0.8079
vn -0.9501 -0.0289 -0.3107
vn 0.0018 -0.0000 -1.0000
vn -0.0304 0.9995 -0.0001
vt 0.921699 0.007330
vt 0.920415 0.007298
vt 0.920433 0.006588
vt 0.921716 0.006620
vt 0.919149 0.006557
vt 0.919132 0.007267
vt 0.917861 0.006525
vt 0.917853 0.007235
vt 0.916567 0.006529
vt 0.915279 0.006568
vt 0.916579 0.007239
vt 0.915300 0.007278
vt 0.973831 0.256203
vt 0.975115 0.256203
vt 0.975511 0.257424
vt 0.974473 0.258179
vt 0.973435 0.257424
s 1
usemtl body
f 79/162/118 81/163/119 78/164/120
f 78/164/120 80/165/118 79/162/118
f 82/166/121 78/164/120 81/163/119
f 81/163/119 83/167/122 82/166/121
f 84/168/123 82/166/121 83/167/122
f 83/167/122 85/169/123 84/168/123
f 86/170/124 84/168/124 85/169/124
f 80/171/125 86/170/125 87/172/125
f 85/169/124 87/172/124 86/170/124
f 87/172/125 79/173/125 80/171/125
f 79/174/126 87/175/126 85/176/126
f 83/177/126 81/178/126 85/176/126
f 81/178/126 79/174/126 85/176/126
o gaz2975_nomg_body.285
v -6.463669 11.946095 18.958637
v -5.253666 11.051785 19.045570
v -5.108929 11.470650 18.958683
v -6.393810 12.077549 19.387932
v -6.672554 11.554016 19.045307
v -7.100662 12.533443 19.389515
v -7.211170 12.432884 18.957890
v -7.537880 12.135544 19.046284
v -7.527897 13.998718 19.387661
v -7.676571 13.993973 18.958763
v -8.121208 13.979778 19.045021
v -7.527847 27.695045 19.387627
v -7.676289 27.695969 18.958912
v -7.460831 28.551277 19.380348
v -7.604229 28.588516 18.948200
v -8.121204 27.705139 19.044949
v -8.026562 28.720222 19.035030
v -8.121105 27.706741 19.387066
v -8.121212 13.979778 19.386841
v -7.321705 12.332321 19.558445
v -7.825260 13.989223 19.558548
v -7.537884 12.135544 19.385593
v -6.533527 11.814632 19.558537
v -6.672558 11.554016 19.386570
v -5.156723 11.329929 19.558525
v -5.253670 11.051785 19.386307
v -3.708305 10.880085 19.385830
v -3.710526 11.178841 19.558460
v -3.715084 11.483643 19.389473
v -5.061146 11.611374 19.387863
v -3.712811 11.331242 18.957916
v -3.708298 10.880085 19.046051
v -7.824921 27.701698 19.558548
v -7.746216 28.642258 19.548111
v -8.026028 28.725624 19.374355
v -7.378094 29.503326 19.354965
v -7.380543 29.495201 19.015514
v -7.161213 29.121353 18.934868
v -6.159809 29.774750 18.997227
v -6.131130 29.328773 18.921597
v -6.113285 29.191872 19.354477
v -1.261826 29.329407 18.731815
v -1.244892 29.200363 19.139378
v -1.254581 29.484344 19.293697
v -6.130405 29.493134 19.517269
v -1.272282 29.759407 19.124977
v -6.153694 29.783295 19.338455
v -1.280365 29.750885 18.802074
v -7.231316 29.261322 19.532608
v -7.083714 29.006142 19.368698
vn -0.2329 -0.6572 -0.7168
vn -0.2326 -0.6574 -0.7168
vn -0.0644 -0.1825 -0.9811
vn 0.1662 0.4734 -0.8650
vn -0.0637 -0.1815 -0.9813
vn 0.3133 0.8926 -0.3243
vn 0.5149 0.7945 -0.3219
vn 0.5118 0.7946 -0.3266
vn 0.5149 0.7945 -0.3218
vn -0.1132 -0.1668 -0.9795
vn -0.1042 -0.1614 -0.9814
vn 0.5177 0.7944 -0.3176
vn 0.9086 0.2710 -0.3179
vn 0.9168 0.2669 -0.2969
vn 0.9085 0.2710 -0.3179
vn -0.3952 -0.5869 -0.7067
vn -0.3951 -0.5868 -0.7068
vn -0.1884 -0.0602 -0.9803
vn -0.2081 -0.0615 -0.9762
vn -0.1883 -0.0602 -0.9803
vn 0.9450 -0.0000 -0.3272
vn 0.9448 -0.0000 -0.3275
vn 0.7206 -0.0000 -0.6934
vn -0.1882 -0.0602 -0.9803
vn 0.2398 -0.0000 -0.9708
vn -0.5008 -0.0001 -0.8656
vn 0.9432 -0.0785 -0.3228
vn 0.9440 -0.0801 -0.3201
vn 0.9431 -0.0783 -0.3232
vn 0.9421 -0.0765 -0.3264
vn -0.1945 0.0064 -0.9809
vn -0.1898 0.0035 -0.9818
vn -0.1944 0.0063 -0.9809
vn -0.8658 -0.0000 -0.5004
vn -0.1987 0.0089 -0.9800
vn -0.9957 0.0929 -0.0000
vn -0.9957 0.0928 -0.0002
vn -0.9957 0.0928 -0.0001
vn -0.9450 -0.0000 0.3272
vn -0.7568 -0.0000 0.6536
vn -0.5199 -0.1650 0.8381
vn -0.0047 -0.0015 1.0000
vn -0.0048 -0.0015 1.0000
vn -0.4926 -0.1498 0.8573
vn -0.1900 0.0001 0.9818
vn -0.9534 -0.3016 -0.0000
vn -0.2824 -0.4188 0.8630
vn -0.2861 -0.4354 0.8535
vn -0.5578 -0.8300 -0.0000
vn -0.2896 -0.8177 0.4974
vn -0.2893 -0.8177 0.4977
vn -0.1683 -0.4758 0.8633
vn -0.0007 -0.0019 1.0000
vn -0.0008 -0.0023 1.0000
vn -0.1685 -0.4787 0.8617
vn -0.3337 -0.9427 -0.0000
vn -0.0955 -0.8604 0.5005
vn -0.0956 -0.8606 0.5002
vn -0.1104 -0.9939 -0.0000
vn -0.0553 -0.4999 0.8643
vn -0.0535 -0.5121 0.8572
vn 0.0507 0.4848 0.8731
vn 0.0507 0.4849 0.8731
vn 0.0470 0.5062 0.8611
vn 0.0895 0.9393 -0.3312
vn 0.0490 0.4959 -0.8670
vn -0.0197 -0.1919 -0.9812
vn -0.0769 -0.6983 -0.7117
vn -0.0773 -0.6982 -0.7118
vn -0.0215 -0.1959 -0.9804
vn 0.1654 0.4697 0.8672
vn 0.1656 0.4734 0.8651
vn 0.3120 0.8920 -0.3272
vn 0.2742 0.4196 0.8653
vn 0.2737 0.4169 0.8667
vn 0.2742 0.4197 0.8653
vn 0.4896 0.1438 0.8600
vn 0.4896 0.1439 0.8600
vn 0.1875 -0.0000 0.9823
vn 0.4983 -0.0000 0.8670
vn -0.4996 0.0574 0.8644
vn -0.5154 0.0526 0.8553
vn -0.4995 0.0574 0.8644
vn 0.4987 -0.0318 0.8662
vn 0.4979 -0.0320 0.8666
vn 0.4981 -0.0320 0.8665
vn 0.4987 -0.0000 0.8668
vn -0.7682 0.6401 -0.0091
vn -0.7684 0.6399 -0.0098
vn -0.7683 0.6400 -0.0096
vn -0.4117 0.3635 0.8357
vn -0.4110 0.3633 0.8361
vn -0.4112 0.3633 0.8360
vn -0.9957 0.0929 0.0001
vn -0.7682 0.6401 -0.0090
vn -0.1661 0.1136 -0.9795
vn -0.1661 0.1138 -0.9795
vn -0.0495 0.1827 -0.9819
vn -0.0495 0.1828 -0.9819
vn -0.2232 0.9746 -0.0206
vn -0.2235 0.9745 -0.0217
vn -0.2234 0.9745 -0.0215
vn -0.0522 0.1637 -0.9851
vn 0.1764 -0.9431 -0.2819
vn 0.1843 -0.9349 -0.3033
vn -0.0116 -0.9534 -0.3014
vn -0.0116 -0.9535 -0.3011
vn -0.0264 -0.7327 -0.6801
vn -0.0337 -0.5015 -0.8645
vn 0.9985 0.0482 -0.0262
vn 0.9985 0.0483 -0.0262
vn 0.0395 -0.4733 0.8800
vn 0.0396 -0.4760 0.8785
vn 0.0458 0.0130 0.9989
vn 0.0399 0.5243 0.8506
vn 0.0256 0.8724 0.4881
vn 0.0397 0.5265 0.8492
vn 0.0037 0.9996 -0.0265
vn 0.9985 0.0483 -0.0263
vn -0.0256 0.6908 -0.7226
vn -0.0255 0.6906 -0.7228
vn 0.0039 0.9997 -0.0251
vn -0.0386 0.1627 -0.9859
vn -0.1128 0.5426 0.8324
vn -0.2231 0.9746 -0.0204
vn -0.0969 0.5165 0.8508
vn 0.4060 -0.3152 0.8578
vn 0.4044 -0.3149 0.8587
vn 0.4049 -0.3150 0.8584
vn -0.4119 0.3635 0.8356
vn 0.4068 -0.3154 0.8573
vn 0.1150 -0.4889 0.8647
vn 0.7315 -0.6147 -0.2950
vn 0.7313 -0.6154 -0.2941
vn 0.7314 -0.6150 -0.2947
vn 0.7317 -0.6142 -0.2957
vn 0.1764 -0.9431 -0.2820
vn 0.1025 -0.4684 0.8776
vn -0.1660 0.1135 -0.9796
vn 0.4990 -0.0317 0.8660
vn 0.2748 0.4231 0.8634
vt 0.966555 0.603902
vt 0.962399 0.603903
vt 0.962324 0.602620
vt 0.966577 0.602616
vt 0.962263 0.601322
vt 0.959550 0.601425
vt 0.959575 0.602745
vt 0.954867 0.601120
vt 0.959686 0.603953
vt 0.954708 0.602416
vt 0.915222 0.601080
vt 0.954400 0.603693
vt 0.915119 0.602394
vt 0.840928 0.233772
vt 0.838380 0.234538
vt 0.838012 0.233270
vt 0.840432 0.232527
vt 0.841555 0.235134
vt 0.914916 0.603710
vt 0.838825 0.235696
vt 0.841726 0.236390
vt 0.954360 0.604706
vt 0.914864 0.604705
vt 0.959676 0.604846
vt 0.959587 0.605723
vt 0.954551 0.605704
vt 0.962347 0.605878
vt 0.962408 0.604896
vt 0.966571 0.604874
vt 0.966588 0.605847
vt 0.970991 0.604917
vt 0.970793 0.605972
vt 0.970602 0.606987
vt 0.966618 0.606829
vt 0.966533 0.601304
vt 0.970491 0.601097
vt 0.970665 0.602429
vt 0.970970 0.603823
vt 0.962297 0.606855
vt 0.959484 0.606656
vt 0.954714 0.606689
vt 0.914981 0.605699
vt 0.841493 0.237580
vt 0.838760 0.237469
vt 0.838919 0.236570
vt 0.841251 0.238616
vt 0.915073 0.606690
vt 0.836291 0.236828
vt 0.836236 0.235958
vt 0.836209 0.234789
vt 0.833043 0.234718
vt 0.832895 0.236020
vt 0.833133 0.233414
vt 0.819060 0.233498
vt 0.819001 0.234733
vt 0.874709 0.011572
vt 0.833274 0.238955
vt 0.819125 0.238933
vt 0.819089 0.238001
vt 0.833123 0.237985
vt 0.818983 0.237027
vt 0.832929 0.237012
vt 0.818960 0.236012
vt 0.836390 0.237670
vt 0.838611 0.238424
vt 0.836488 0.238577
vt 0.836153 0.233487
s 1
usemtl body
f 89/179/127 92/180/128 88/181/129
f 88/181/130 90/182/130 89/179/131
f 90/182/130 88/181/130 91/183/132
f 93/184/133 91/183/134 88/181/135
f 94/185/136 88/181/137 92/180/137
f 88/181/135 94/185/138 93/184/133
f 96/186/139 93/184/140 94/185/141
f 92/180/142 95/187/143 94/185/136
f 97/188/144 94/185/145 95/187/146
f 94/185/141 97/188/141 96/186/139
f 99/189/147 96/186/148 97/188/149
f 95/187/146 98/190/150 97/188/144
f 100/191/151 97/188/149 98/190/152
f 97/188/149 100/191/151 99/189/147
f 100/192/153 102/193/154 101/194/155
f 101/194/155 99/195/156 100/192/153
f 102/193/157 100/192/158 103/196/159
f 98/190/152 103/197/160 100/191/151
f 103/196/159 104/198/161 102/193/157
f 104/198/162 103/196/163 105/199/164
f 106/200/165 105/201/166 103/197/160
f 103/197/160 98/190/152 106/200/165
f 106/200/167 109/202/167 107/203/167
f 107/203/168 108/204/169 106/200/170
f 105/201/166 106/200/165 108/204/171
f 109/202/172 106/200/172 98/190/172
f 110/205/173 107/203/174 109/202/173
f 109/202/173 111/206/173 110/205/173
f 111/206/175 109/202/175 95/187/175
f 98/190/172 95/187/172 109/202/172
f 111/206/176 113/207/177 112/208/178
f 112/208/179 110/205/180 111/206/181
f 113/207/177 111/206/176 92/180/182
f 95/187/143 92/180/142 111/206/175
f 92/180/128 89/179/127 113/207/182
f 114/209/183 113/207/184 89/179/185
f 113/207/184 114/209/183 115/210/186
f 115/210/186 112/208/187 113/207/187
f 112/208/188 115/210/188 116/211/188
f 116/211/189 117/212/190 112/208/189
f 117/213/191 116/214/191 118/215/191
f 118/215/192 90/182/192 117/213/191
f 90/182/192 118/215/192 119/216/193
f 119/216/194 89/179/195 90/182/196
f 89/179/195 119/216/194 114/209/185
f 117/212/197 91/217/198 110/205/198
f 91/183/132 117/213/199 90/182/199
f 110/205/180 112/208/179 117/212/197
f 107/203/200 110/205/201 91/217/202
f 108/204/169 107/203/168 93/218/203
f 93/218/204 96/219/204 108/204/204
f 120/220/205 108/204/171 96/219/206
f 108/204/171 120/220/205 105/201/166
f 120/221/207 121/222/208 122/223/209
f 121/222/210 120/221/211 99/224/212
f 96/219/206 99/225/213 120/220/205
f 122/223/209 105/199/209 120/221/207
f 122/223/214 123/226/215 124/227/216
f 123/226/217 122/223/218 121/222/219
f 105/199/164 122/223/220 104/198/162
f 124/227/216 104/198/221 122/223/214
f 104/198/222 124/227/223 125/228/223
f 127/229/224 125/228/225 124/227/225
f 126/230/226 124/227/227 123/226/228
f 124/227/225 126/230/229 127/229/224
f 125/228/230 127/229/231 128/231/230
f 130/232/232 128/231/233 127/229/234
f 129/233/235 127/229/234 126/230/229
f 127/229/234 129/233/235 130/232/232
f 131/234/236 130/234/237 129/234/237
f 128/235/238 130/236/239 131/237/239
f 131/237/240 132/238/240 128/235/238
f 132/238/240 131/237/240 133/239/241
f 129/234/237 133/234/236 131/234/236
f 133/239/242 134/240/242 132/238/243
f 134/240/242 133/239/242 135/241/244
f 135/234/245 133/234/236 129/234/237
f 135/241/246 126/230/247 134/240/248
f 126/230/247 135/241/246 129/233/249
f 134/240/250 123/226/250 136/242/250
f 123/226/228 134/240/251 126/230/226
f 136/242/252 132/238/252 134/240/252
f 136/242/253 121/222/254 101/243/255
f 121/222/219 136/242/256 123/226/217
f 101/243/255 137/244/257 136/242/253
f 132/238/258 136/242/258 137/244/258
f 102/193/259 125/228/260 137/245/261
f 137/245/261 101/194/262 102/193/259
f 128/231/230 137/245/263 125/228/230
f 137/244/258 128/235/264 132/238/258
f 125/228/223 102/193/265 104/198/222
f 99/224/212 101/243/266 121/222/210
f 91/217/202 93/218/267 107/203/200
o gaz2975_nomg_body.286
v 2.626404 29.922920 19.681652
v -2.688854 29.587143 19.681652
v -2.688854 29.922920 19.681652
v 2.626404 28.339622 19.681652
v -2.688862 29.922920 18.323631
v 2.626396 29.922920 18.323631
v 2.626396 28.339622 18.323631
v -2.688862 29.587143 18.323631
v 2.626396 28.339622 18.577465
v -2.522034 29.587143 18.514946
v 2.626396 29.743439 19.002640
v -2.522034 29.587143 19.490345
v 2.626404 28.339622 19.427826
vn -0.0000 -0.0000 1.0000
vn -0.0313 0.9995 -0.0003
vn -0.1252 0.9921 -0.0000
vn -0.0000 1.0000 -0.0000
vn -0.0000 -0.0000 -1.0000
vn -0.2285 -0.9735 -0.0000
vn -0.2329 -0.9511 0.2031
vn -0.0816 -0.2889 0.9539
vn 0.0303 -0.9995 -0.0000
vn -0.0816 -0.2889 -0.9539
vn -0.2355 -0.9719 -0.0000
vn -0.2241 -0.9548 -0.1954
vn -0.0000 -1.0000 -0.0000
vn -0.7607 -0.6491 -0.0001
vn -0.9705 -0.2413 -0.0000
vt 0.972387 0.266223
vt 0.975990 0.281582
vt 0.971416 0.281582
vt 0.971417 0.266223
vt 0.967493 0.266223
vt 0.967492 0.281582
vt 0.962917 0.281582
vt 0.966522 0.266223
vt 0.962206 0.281415
vt 0.965870 0.266552
vt 0.958419 0.279513
vt 0.963305 0.265384
vt 0.980490 0.279513
vt 0.976702 0.281415
vt 0.973040 0.266552
vt 0.968045 0.264771
vt 0.970864 0.264771
vt 0.971417 0.265253
vt 0.967493 0.265253
s 1
usemtl body
f 139/246/268 141/247/268 138/248/268
f 138/248/268 140/249/268 139/246/268
f 142/250/269 140/249/270 138/248/271
f 138/248/271 143/251/271 142/250/269
f 142/250/272 143/251/272 144/252/272
f 144/252/272 145/253/272 142/250/272
f 145/253/273 144/252/273 146/254/273
f 146/254/274 147/255/274 145/253/274
f 147/255/275 146/254/275 148/256/275
f 147/255/276 148/256/276 149/257/276
f 148/258/277 150/259/277 149/260/277
f 149/260/278 150/259/278 141/247/278
f 141/247/279 139/246/279 149/260/279
f 147/261/280 149/262/280 139/263/281
f 139/263/281 145/264/282 147/261/280
f 140/249/270 142/250/269 145/264/282
f 145/264/282 139/263/281 140/249/270
o gaz2975_nomg_body.289
v -4.782516 27.144630 17.810917
v -5.348515 27.832932 17.598652
v -5.415348 27.498039 17.572403
v -4.565628 27.395508 17.895210
v -4.228771 26.580406 18.031746
v -4.518436 26.504822 17.919415
v -4.631535 26.504593 18.211082
v -4.895607 27.144402 18.102577
v -9.308659 27.518127 16.398369
v -5.528435 27.497810 17.864071
v -10.213932 26.534393 16.046490
v -5.605106 15.934666 17.822220
v -4.683132 16.935440 18.180523
v -4.981747 16.375710 18.063454
v -4.570026 16.935677 17.888847
v -4.281075 16.839581 18.000896
v -4.658897 16.131573 17.852940
v -4.868656 16.375938 17.771786
v -5.492004 15.934902 17.530556
v -5.411144 15.599247 17.561626
v -9.352150 15.954918 16.369331
v -9.239056 15.955154 16.077675
v -9.322487 15.620293 16.045017
v -10.069847 16.160717 15.754902
v -9.858047 16.402775 15.837135
v -9.971134 16.402546 16.128796
v -10.265507 16.965279 16.015968
v -10.152409 16.965511 15.724304
v -10.442207 16.872784 15.611900
v -10.100838 26.534622 15.754826
v -10.389908 26.613678 15.642788
v -9.827568 27.171783 15.854641
v -9.940662 27.171555 16.146297
v -10.042423 27.425095 15.771576
v -9.259853 27.854019 16.082012
v -9.195549 27.518364 16.106716
v -10.293575 27.424545 16.543583
v -9.510921 27.853477 16.854038
v -5.599689 27.832352 18.370609
v -4.816822 27.395004 18.667210
v -6.789852 26.265518 19.665691
v -4.479939 26.579903 18.803730
v -6.818947 17.290749 19.647278
v -8.633213 26.282990 18.993359
v -8.662296 17.308178 18.974987
v -10.641010 26.613144 16.414795
v -10.693375 16.872238 16.383911
v -10.320976 16.160175 16.526840
v -9.573605 15.619755 16.817039
v -5.662331 15.598667 18.333618
v -4.910011 16.131027 18.624935
v -4.532261 16.839005 18.772854
vn 0.3548 0.0034 -0.9349
vn 0.3569 0.0054 -0.9341
vn 0.3563 0.0048 -0.9344
vn 0.3540 0.0027 -0.9353
vn -0.4316 -0.8863 -0.1680
vn -0.4316 -0.8863 -0.1681
vn 0.3619 0.0002 -0.9322
vn 0.3615 0.0002 -0.9324
vn -0.8514 -0.4074 -0.3305
vn -0.8514 -0.4074 -0.3304
vn -0.8513 -0.4074 -0.3305
vn 0.3607 0.0011 -0.9327
vn 0.3539 -0.1882 -0.9162
vn 0.3608 0.0011 -0.9327
vn 0.2690 -0.6586 -0.7028
vn 0.3612 0.0009 -0.9325
vn 0.3617 0.0008 -0.9323
vn 0.3819 0.0009 -0.9242
vn -0.9323 0.0062 -0.3615
vn 0.3584 0.0040 -0.9336
vn -0.8091 0.4972 -0.3133
vn 0.3616 0.0003 -0.9323
vn 0.3620 0.0013 -0.9322
vn 0.3615 0.0009 -0.9324
vn 0.3617 0.0009 -0.9323
vn 0.3608 0.0005 -0.9326
vn -0.5137 0.8347 -0.1985
vn 0.3608 0.0006 -0.9327
vn 0.3309 0.4162 -0.8469
vn 0.1747 0.8817 -0.4382
vn 0.3611 0.0007 -0.9325
vn 0.0044 1.0000 0.0025
vn 0.5209 0.8292 0.2026
vn 0.5209 0.8292 0.2027
vn 0.3621 0.0007 -0.9321
vn 0.3622 0.0005 -0.9321
vn 0.3623 0.0006 -0.9321
vn 0.3614 0.0008 -0.9324
vn 0.3612 0.0007 -0.9325
vn 0.3615 -0.0011 -0.9324
vn 0.3613 0.0007 -0.9324
vn 0.3596 0.0010 -0.9331
vn 0.8133 0.4887 0.3157
vn 0.9323 -0.0062 0.3615
vn 0.8133 0.4887 0.3158
vn 0.3613 0.0013 -0.9325
vn 0.3612 0.0013 -0.9325
vn 0.3613 0.0001 -0.9325
vn 0.3610 -0.0001 -0.9326
vn 0.3678 0.0038 -0.9299
vn 0.8483 -0.4153 0.3286
vn 0.3786 -0.0174 -0.9254
vn 0.4234 -0.8911 0.1635
vn 0.3662 0.0055 -0.9305
vn 0.3615 0.0007 -0.9324
vn 0.3693 0.0024 -0.9293
vn 0.4234 -0.8910 0.1635
vn -0.0044 -1.0000 -0.0025
vn 0.2613 -0.6818 -0.6833
vn 0.3268 -0.4163 -0.8485
vn 0.0045 1.0000 0.0022
vn -0.4326 0.8907 -0.1401
vn -0.4326 0.8906 -0.1401
vn -0.4326 0.8907 -0.1400
vn 0.0046 1.0000 0.0022
vn -0.1912 0.8418 0.5048
vn -0.1913 0.8416 0.5050
vn 0.4405 0.8861 0.1440
vn 0.0458 0.6155 0.7868
vn -0.2468 0.7219 0.6465
vn 0.3024 0.2777 0.9118
vn 0.3532 -0.0040 0.9355
vn 0.3500 -0.0031 0.9368
vn -0.3427 -0.0008 0.9395
vn -0.2245 0.7393 0.6348
vn -0.3426 -0.0008 0.9395
vn -0.3399 -0.1518 0.9281
vn -0.3399 -0.1520 0.9281
vn -0.7875 0.0021 0.6162
vn -0.7889 0.0013 0.6145
vn -0.7885 0.0015 0.6150
vn -0.7545 0.2253 0.6164
vn -0.5504 0.5491 0.6289
vn -0.7872 0.0023 0.6167
vn -0.9509 0.0061 -0.3094
vn -0.9509 0.0061 -0.3093
vn -0.8652 0.4151 -0.2812
vn -0.8652 0.4151 -0.2811
vn -0.6858 -0.4037 0.6055
vn -0.8298 -0.4882 -0.2703
vn -0.3642 -0.0035 0.9313
vn -0.2072 -0.8268 0.5230
vn -0.2072 -0.8269 0.5228
vn -0.0045 -1.0000 -0.0022
vn -0.5319 -0.8288 -0.1736
vn -0.2600 -0.7042 0.6607
vn 0.5245 -0.8343 0.1700
vn 0.0891 -0.5721 0.8153
vn -0.2521 -0.6951 0.6733
vn 0.8255 -0.4966 0.2682
vn 0.8255 -0.4965 0.2682
vn 0.2777 -0.3362 0.8999
vn 0.3563 -0.0049 0.9343
vn 0.9509 -0.0061 0.3094
vn 0.8688 0.4064 0.2829
vn 0.8688 0.4065 0.2829
vn 0.4406 0.8861 0.1439
vn -0.8652 0.4152 -0.2812
vt 0.445937 0.192872
vt 0.448640 0.194301
vt 0.447993 0.195004
vt 0.445740 0.193795
vt 0.447465 0.195503
vt 0.449849 0.196937
vt 0.448999 0.197146
vt 0.448276 0.197309
vt 0.430852 0.197222
vt 0.433602 0.194444
vt 0.445553 0.194504
vt 0.445285 0.228465
vt 0.448102 0.225636
vt 0.447195 0.227222
vt 0.448819 0.225832
vt 0.449675 0.226102
vt 0.448346 0.228419
vt 0.447734 0.227735
vt 0.445486 0.229158
vt 0.445715 0.230088
vt 0.433258 0.229096
vt 0.433465 0.228405
vt 0.431567 0.227143
vt 0.433019 0.230025
vt 0.430405 0.228328
vt 0.431023 0.227651
vt 0.430676 0.225550
vt 0.429957 0.225737
vt 0.429098 0.225998
vt 0.430131 0.197052
vt 0.429282 0.196833
vt 0.431155 0.194920
vt 0.431677 0.195424
vt 0.430515 0.194210
vt 0.433234 0.192808
vt 0.433423 0.193733
vt 0.770458 0.312093
vt 0.770957 0.314179
vt 0.756686 0.314177
vt 0.753132 0.311909
vt 0.754834 0.310388
vt 0.757365 0.312145
vt 0.772951 0.310289
vt 0.767754 0.306209
vt 0.774452 0.307808
vt 0.767774 0.279645
vt 0.762667 0.306280
vt 0.762667 0.279653
vt 0.753362 0.307869
vt 0.753309 0.277713
vt 0.751173 0.277188
vt 0.751201 0.308385
vt 0.757282 0.273489
vt 0.753039 0.273906
vt 0.754787 0.275442
vt 0.770359 0.273451
vt 0.756575 0.271495
vt 0.770871 0.271402
vt 0.774483 0.273790
vt 0.772853 0.275428
vt 0.776445 0.277087
vt 0.774377 0.277668
vt 0.776558 0.308353
vt 0.774551 0.311895
s 1
usemtl body
f 152/265/283 154/266/284 151/267/285
f 151/267/285 153/268/286 152/265/283
f 153/268/287 151/267/288 158/269/288
f 151/267/285 154/266/284 155/270/289
f 155/270/289 156/271/290 151/267/285
f 151/267/291 156/271/292 157/272/292
f 157/272/292 158/269/293 151/267/291
f 161/273/294 159/274/295 158/269/296
f 159/274/295 160/275/297 158/269/296
f 158/269/288 160/275/287 153/268/287
f 162/276/298 161/273/294 158/269/296
f 163/277/299 162/276/298 158/269/296
f 157/272/300 163/277/299 158/269/296
f 163/277/301 157/272/301 156/271/301
f 163/277/299 164/278/302 162/276/298
f 164/278/303 163/277/303 165/279/303
f 156/271/301 165/279/301 163/277/301
f 155/270/289 166/280/304 165/279/305
f 165/279/305 156/271/290 155/270/289
f 165/279/305 166/280/304 167/281/306
f 167/281/306 168/282/307 165/279/305
f 165/279/303 168/282/303 164/278/303
f 169/283/308 168/282/307 167/281/306
f 168/282/309 169/283/309 162/276/309
f 162/276/309 164/278/309 168/282/309
f 167/281/306 170/284/310 169/283/308
f 172/285/311 169/283/312 170/284/313
f 169/283/312 172/285/311 171/286/314
f 171/286/314 162/276/314 169/283/312
f 176/287/315 171/286/316 172/285/316
f 170/284/313 173/288/317 172/285/311
f 172/285/318 173/288/319 174/289/320
f 174/289/320 175/290/321 172/285/318
f 172/285/316 175/290/315 176/287/315
f 162/276/298 171/286/322 176/287/323
f 162/276/298 176/287/323 161/273/294
f 176/287/323 177/291/324 161/273/294
f 177/291/325 176/287/325 175/290/325
f 161/273/326 177/291/326 178/292/326
f 175/290/325 178/292/327 177/291/325
f 174/289/320 179/293/328 178/292/329
f 178/292/329 175/290/321 174/289/320
f 180/294/330 178/292/329 179/293/328
f 178/292/326 180/294/326 161/273/326
f 179/293/328 181/295/331 180/294/330
f 182/296/332 180/294/330 181/295/331
f 180/294/333 182/296/333 183/297/333
f 183/297/333 161/273/333 180/294/333
f 161/273/294 183/297/334 159/274/334
f 159/274/335 183/297/335 182/296/335
f 181/295/331 184/298/336 182/296/332
f 182/296/332 184/298/336 185/299/337
f 185/299/337 186/300/338 182/296/332
f 182/296/335 186/300/339 159/274/335
f 160/275/297 159/274/295 186/300/340
f 186/300/341 153/268/342 160/275/340
f 153/268/342 186/300/341 185/299/337
f 185/299/337 152/265/283 153/268/342
f 189/301/343 152/302/343 185/303/343
f 185/303/344 184/304/345 187/305/344
f 187/305/344 188/306/346 185/303/344
f 185/303/347 188/306/348 189/301/349
f 152/302/350 189/301/350 190/307/350
f 190/307/351 189/301/351 191/308/351
f 191/308/352 189/301/349 188/306/348
f 191/308/353 192/309/353 190/307/353
f 192/309/354 191/308/355 193/310/354
f 193/310/356 191/308/356 194/311/356
f 188/306/357 194/311/357 191/308/352
f 194/311/358 195/312/359 193/310/360
f 195/312/361 194/311/362 196/313/363
f 187/305/364 196/313/364 194/311/364
f 194/311/365 188/306/365 187/305/365
f 196/313/363 197/314/366 195/312/361
f 179/315/367 197/314/367 196/313/368
f 196/313/368 181/316/368 179/315/367
f 181/316/369 196/313/370 187/305/369
f 199/317/371 195/312/371 197/314/371
f 174/318/372 198/319/372 197/314/372
f 197/314/372 179/315/372 174/318/372
f 197/314/373 198/319/373 199/317/373
f 200/320/374 199/317/375 173/321/376
f 173/321/377 199/317/377 198/319/377
f 195/312/378 199/317/375 200/320/374
f 200/320/379 170/322/379 167/323/379
f 167/323/379 201/324/379 200/320/379
f 193/310/380 200/320/380 201/324/380
f 173/321/376 170/322/376 200/320/376
f 200/320/381 193/310/360 195/312/359
f 201/324/382 167/323/382 166/325/382
f 166/325/382 202/326/383 201/324/382
f 201/324/384 202/326/384 193/310/384
f 193/310/354 202/326/385 192/309/354
f 155/327/386 192/309/386 202/326/386
f 202/326/386 166/325/386 155/327/386
f 198/319/377 174/318/377 173/321/377
f 190/307/387 192/309/388 155/327/387
f 155/327/387 154/328/387 190/307/387
f 190/307/350 154/328/389 152/302/350
f 187/305/369 184/304/390 181/316/369
o gaz2975_nomg_body.291
v -8.212700 20.835327 19.296844
v -7.381760 20.835289 19.094559
v -8.130398 20.835289 18.852409
v -7.508301 20.835289 19.480991
v -8.060207 20.835327 19.563026
v -8.130398 22.414993 18.852409
v -8.212700 22.414993 19.296844
v -7.508301 22.414970 19.480991
v -8.060207 22.414970 19.563026
v -7.381760 22.414970 19.094559
v -7.723114 22.414970 19.637241
v -7.723114 20.835327 19.637241
vn -0.0001 -1.0000 -0.0000
vn -0.0000 -1.0000 0.0001
vn -0.9833 -0.0000 -0.1821
vn -0.9999 -0.0000 -0.0103
vn -0.0001 -1.0000 0.0001
vn -0.9750 -0.0000 0.2223
vn -0.6866 -0.0000 0.7271
vn -0.0000 1.0000 -0.0000
vn -0.0000 1.0000 0.0001
vn -0.4485 -0.0000 0.8938
vn 0.9503 -0.0000 0.3112
vn 0.8930 -0.0001 0.4500
vn 0.0090 0.0001 1.0000
vn 0.2968 -0.0000 0.9549
vn 0.7825 -0.0000 0.6227
vn -0.0000 -1.0000 0.0002
vt 0.514269 0.014096
vt 0.514287 0.015271
vt 0.512190 0.015431
vt 0.511996 0.014140
vt 0.934982 0.005081
vt 0.934982 0.000518
vt 0.936288 0.000518
vt 0.512858 0.016015
vt 0.936288 0.005081
vt 0.937174 0.000518
vt 0.516902 0.015342
vt 0.514800 0.015260
vt 0.514774 0.014086
vt 0.516257 0.015950
vt 0.937174 0.005081
vt 0.517047 0.014045
vt 0.940113 0.000518
vt 0.940113 0.005081
vt 0.938939 0.005081
vt 0.515262 0.015873
vt 0.938171 0.000518
vt 0.938171 0.005081
vt 0.938939 0.000518
vt 0.513848 0.015900
s 1
usemtl body
f 204/329/391 206/330/391 203/331/391
f 203/331/392 205/332/392 204/329/392
f 208/333/393 205/334/393 203/335/394
f 207/336/395 203/331/391 206/330/391
f 209/337/396 203/335/394 207/338/397
f 203/335/394 209/337/396 208/333/393
f 209/339/398 210/340/398 212/341/398
f 210/340/398 209/339/398 211/342/399
f 207/338/397 211/343/400 209/337/396
f 212/341/398 208/344/398 209/339/398
f 204/345/401 212/346/401 210/347/402
f 211/342/399 213/348/398 210/340/398
f 214/349/403 213/350/404 211/343/400
f 211/343/400 207/338/397 214/349/403
f 213/350/404 214/349/403 206/351/405
f 206/330/391 214/352/406 207/336/395
f 206/351/405 210/347/402 213/350/404
f 210/347/402 206/351/405 204/345/401
o gaz2975_nomg_body.290
v -2.883461 11.533485 18.841450
v -2.995640 10.463226 19.547634
v -2.880875 11.530098 19.584332
v -2.997211 10.466278 18.871758
v -3.574871 11.560860 18.628117
v -3.375751 11.692310 19.225258
v -3.570717 11.555389 19.830112
v -3.999630 11.574375 19.239201
v -3.937672 10.503040 19.234802
v -3.578640 10.490864 18.679089
v -3.576530 10.485954 19.770924
vn 0.9943 -0.1064 -0.0032
vn 0.9944 -0.1061 -0.0028
vn 0.9943 -0.1065 -0.0035
vn 0.9943 -0.1068 -0.0040
vn 0.3093 0.9509 0.0033
vn 0.2922 -0.0583 -0.9546
vn 0.1152 0.9614 -0.2500
vn -0.1798 0.9703 0.1617
vn 0.1269 0.9578 0.2578
vn -0.1869 0.9707 -0.1514
vn -0.8091 -0.0492 0.5857
vn -0.8211 -0.0243 -0.5702
vn -0.8395 -0.0463 -0.5414
vn 0.3124 -0.0463 -0.9488
vn -0.8295 -0.0264 0.5579
vn 0.3334 -0.0539 0.9413
vn 0.3555 -0.0703 0.9320
vt 0.879767 0.488602
vt 0.879184 0.490465
vt 0.876195 0.489635
vt 0.876836 0.487586
vt 0.528309 0.000347
vt 0.530496 0.000355
vt 0.529369 0.001824
vt 0.875747 0.491677
vt 0.531122 0.002386
vt 0.529327 0.003652
vt 0.527590 0.002374
vt 0.875362 0.495912
vt 0.875436 0.493804
vt 0.878523 0.494087
vt 0.878798 0.492194
vt 0.878456 0.495954
vt 0.878523 0.497752
vt 0.875434 0.498027
s 1
usemtl body
f 216/353/407 218/354/408 215/355/409
f 215/355/409 217/356/410 216/353/407
f 217/357/411 215/358/411 220/359/411
f 219/360/412 215/355/412 218/354/412
f 215/358/413 219/361/413 220/359/413
f 222/362/414 221/363/414 220/359/414
f 221/363/415 217/357/415 220/359/415
f 219/361/416 222/362/416 220/359/416
f 221/364/417 222/365/417 223/366/417
f 222/365/418 219/360/418 224/367/418
f 224/367/419 223/366/419 222/365/419
f 218/354/412 224/367/420 219/360/412
f 223/366/421 225/368/421 221/364/421
f 225/368/422 216/369/423 217/370/422
f 217/370/422 221/364/422 225/368/422
o gaz2975_nomg_body.078
v -3.513618 10.715714 19.897152
v -1.969761 10.715714 18.128559
v -1.969761 10.715714 20.336922
v -3.513618 10.715714 18.568329
v -4.119205 10.715714 18.965927
v -4.119205 10.715714 19.499538
v -1.969761 8.327469 20.336922
v -3.513618 8.327469 19.897152
v -3.513618 8.327469 18.568329
v -4.119205 8.327469 19.499538
v -1.969761 8.327469 18.128559
v -4.119205 8.327469 18.965927
vn -0.0000 1.0000 -0.0000
vn -0.2740 -0.0000 0.9617
vn -0.3268 -0.0000 0.9451
vn -0.4091 -0.0000 0.9125
vn -0.8383 -0.0001 0.5452
vn -0.0000 -1.0000 -0.0000
vn -0.8383 -0.0000 0.5452
vn -0.2740 -0.0000 -0.9617
vn -0.3269 -0.0000 -0.9451
vn -0.8383 0.0001 -0.5452
vn -0.4092 -0.0000 -0.9125
vn -0.8384 -0.0000 -0.5451
vt 0.881166 0.000938
vt 0.879895 0.005398
vt 0.876056 0.005398
vt 0.874786 0.000938
vt 0.858330 0.231930
vt 0.858330 0.238829
vt 0.853693 0.238829
vt 0.878746 0.007148
vt 0.877205 0.007148
vt 0.853693 0.231930
vt 0.851600 0.238829
vt 0.462397 0.024469
vt 0.463495 0.028147
vt 0.459585 0.030640
vt 0.464402 0.025069
vt 0.851600 0.231930
vt 0.457760 0.024527
vt 0.843328 0.238829
vt 0.843328 0.231930
vt 0.847965 0.231930
vt 0.464843 0.026546
vt 0.850058 0.231930
vt 0.847965 0.238829
vt 0.850058 0.238829
s 1
usemtl body
f 227/371/424 229/372/424 226/373/424
f 226/373/424 228/374/424 227/371/424
f 232/375/425 228/376/425 226/377/426
f 226/373/424 229/372/424 230/378/424
f 230/378/424 231/379/424 226/373/424
f 233/380/427 226/377/426 231/381/428
f 226/377/426 233/380/427 232/375/425
f 233/382/429 234/383/429 236/384/429
f 234/383/429 233/382/429 235/385/429
f 231/381/428 235/386/430 233/380/427
f 236/384/429 232/387/429 233/382/429
f 227/388/431 236/389/431 234/390/432
f 235/385/429 237/391/429 234/383/429
f 237/392/433 235/386/430 231/381/428
f 229/393/434 234/390/432 237/392/433
f 231/381/428 230/394/435 237/392/433
f 237/392/433 230/394/435 229/393/434
f 234/390/432 229/393/434 227/388/431
o gaz2975_nomg_body.287
v -1.339134 12.911572 20.922501
v -3.058998 13.254612 21.172966
v -1.335751 12.911572 21.147011
v -3.075993 13.254612 20.044731
v -2.297050 17.171070 19.997818
v -0.532497 16.964722 20.912899
v -0.320007 27.104065 16.821739
v 1.600254 27.684830 17.514175
v -0.335838 27.056816 -8.191065
v 1.586662 27.642021 -8.191510
v -0.084557 28.229698 -8.191124
v 1.633698 27.861580 -8.191516
v 1.639595 27.861572 17.646957
v -0.522495 16.997841 21.134762
v -0.078663 28.229691 17.666061
v -2.244961 17.344757 21.160706
vn -0.1952 -0.9808 0.0029
vn 0.4500 -0.0917 -0.8883
vn 0.4336 -0.0970 -0.8959
vn 0.4095 -0.3487 -0.8430
vn 0.3986 -0.3503 -0.8476
vn 0.2911 -0.9567 0.0014
vn 0.2889 -0.9573 0.0016
vn 0.2912 -0.9567 0.0014
vn -0.0002 -0.0000 -1.0000
vn 0.2095 0.9778 -0.0000
vn -0.1177 0.9931 0.0005
vn 0.0731 0.2916 0.9537
vn -0.2360 0.3393 0.9106
vn -0.3783 0.9257 0.0001
vn -0.4758 0.3534 0.8055
vn -0.9798 0.1995 0.0141
vn -0.9778 0.2095 0.0002
vn -0.9806 0.1953 0.0148
vn 0.0151 -0.0000 0.9999
vn -0.2941 0.0614 0.9538
vn -0.5287 0.1079 0.8420
vn -0.9806 0.1952 0.0148
vt 0.525747 0.007395
vt 0.529007 0.007395
vt 0.526396 0.012471
vt 0.525747 0.012471
vt 0.913389 0.601408
vt 0.913389 0.607109
vt 0.901448 0.607109
vt 0.901448 0.601408
vt 0.868596 0.607109
vt 0.868596 0.601408
vt 0.794159 0.607109
vt 0.794159 0.601408
vt 0.526486 0.001865
vt 0.529303 0.006941
vt 0.525837 0.006941
vt 0.525837 0.001865
vt 0.868596 0.615523
vt 0.794159 0.615523
vt 0.794159 0.610411
vt 0.901448 0.615523
vt 0.868596 0.610411
vt 0.901448 0.610411
vt 0.913389 0.615523
vt 0.913389 0.610411
s 1
usemtl body
f 239/395/436 241/396/436 238/397/436
f 238/397/436 240/398/436 239/395/436
f 238/399/437 241/400/438 242/401/437
f 242/401/437 243/402/437 238/399/437
f 243/402/439 242/401/440 244/403/439
f 244/403/439 245/404/439 243/402/439
f 245/404/441 244/403/442 246/405/443
f 246/405/443 247/406/443 245/404/443
f 247/407/444 246/408/444 248/409/444
f 248/409/444 249/410/444 247/407/444
f 250/411/445 249/412/445 248/413/446
f 251/414/447 250/411/447 252/415/448
f 248/413/446 252/415/449 250/411/445
f 252/415/448 253/416/450 251/414/447
f 253/416/450 252/415/448 244/403/451
f 246/405/452 244/403/451 252/415/452
f 252/415/449 248/413/446 246/405/452
f 244/403/451 242/401/453 253/416/451
f 240/417/454 251/414/454 253/416/455
f 239/418/456 253/416/455 242/401/457
f 253/416/455 239/418/456 240/417/454
f 242/401/457 241/400/457 239/418/457
o gaz2975_nomg_body.283
v 3.516293 -1.161644 9.150911
v 3.743809 -0.317982 -1.599108
v 3.714523 -1.253571 -1.615173
v 2.580902 -1.132469 9.129873
v 3.444420 -0.930195 12.644701
v 3.546295 -0.226536 9.112940
v 2.509033 -0.901009 12.624325
v 2.508789 -0.063297 13.882122
v 2.544617 0.016048 12.313896
v 2.544872 0.665279 13.288631
v 3.481342 3.040947 15.566456
v 3.480244 0.637177 13.311525
v 2.546059 2.977703 15.461231
v 3.211353 3.892143 16.234627
v 2.273777 3.497120 15.859222
v 2.507694 2.379944 16.180748
v 2.229816 2.909527 16.586540
v 3.442978 2.443188 16.285980
v 3.444164 -0.091404 13.905006
v 3.480011 -0.013138 12.334274
v 2.610920 -0.197365 9.091908
v 2.778137 -1.224117 -1.567717
v 2.807415 -0.288536 -1.551655
v 2.471554 -0.171726 -4.003542
v 2.406239 -1.099274 -4.111610
v 3.440369 -1.166687 -3.996908
v 1.568043 -0.795784 -5.262416
v 1.398167 -0.922646 -4.350683
v 2.591785 -0.990646 -5.098777
v 2.686161 -0.069134 -4.952965
v 1.716789 0.115379 -5.107915
v 1.546898 -0.011482 -4.196183
v 3.476616 -0.233112 -3.926582
v 3.165802 3.305298 16.962482
v 2.369350 3.681057 17.218540
v 1.572983 3.730320 17.213406
v 2.411720 4.269402 16.491707
v 1.531906 3.004623 16.623581
v 1.572987 3.593048 15.896755
v 1.614075 4.318745 16.486576
vn 0.7289 0.6846 0.0076
vn 0.7286 0.6849 0.0075
vn 0.9993 -0.0313 0.0187
vn 0.6844 -0.7289 0.0188
vn 0.4202 -0.9073 0.0155
vn 0.9993 -0.0316 0.0187
vn -0.0313 -0.9995 0.0080
vn -0.0326 -0.9973 0.0654
vn 0.4179 -0.9059 0.0686
vn 0.6837 -0.7271 0.0623
vn 0.9993 -0.0311 0.0226
vn -0.9993 0.0315 -0.0219
vn -0.9992 0.0287 -0.0266
vn -0.9993 0.0293 -0.0246
vn -0.0384 -0.8318 0.5537
vn -0.0380 -0.8317 0.5539
vn -0.0382 -0.8318 0.5538
vn -0.9993 0.0312 -0.0207
vn -0.9993 0.0314 -0.0217
vn 0.0363 0.6841 -0.7284
vn 0.0357 0.6843 -0.7283
vn 0.0362 0.6842 -0.7284
vn 0.0384 0.6837 -0.7288
vn 0.0382 0.8318 -0.5538
vn 0.0385 0.8317 -0.5539
vn 0.0383 0.8318 -0.5538
vn -0.9992 0.0273 -0.0289
vn 0.0468 0.6262 -0.7782
vn 0.0453 0.6257 -0.7788
vn 0.0474 0.6247 -0.7794
vn 0.0445 0.6286 -0.7765
vn -0.9219 -0.2723 -0.2755
vn -0.9220 -0.2723 -0.2754
vn -0.9219 -0.2723 -0.2756
vn -0.9992 0.0279 -0.0301
vn -0.9218 -0.2724 -0.2758
vn -0.0459 -0.6267 0.7779
vn -0.0458 -0.6226 0.7812
vn -0.0471 -0.6248 0.7794
vn -0.0379 -0.6846 0.7279
vn -0.0357 -0.6842 0.7284
vn -0.0361 -0.6843 0.7283
vn -0.0384 -0.6847 0.7278
vn -0.0385 -0.8319 0.5536
vn 0.9992 -0.0280 0.0295
vn 0.9993 -0.0292 0.0248
vn 0.9992 -0.0281 0.0276
vn 0.9993 -0.0314 0.0219
vn 0.9993 -0.0315 0.0219
vn 0.0380 0.8319 -0.5536
vn 0.0326 0.9973 -0.0654
vn 0.0325 0.9973 -0.0654
vn -0.6841 0.7291 -0.0188
vn -0.6844 0.7288 -0.0189
vn 0.0314 0.9995 -0.0080
vn -0.9993 0.0313 -0.0187
vn -0.9993 0.0316 -0.0187
vn 0.0310 0.9995 -0.0080
vn 0.0586 0.9978 0.0297
vn 0.0336 0.9985 0.0430
vn 0.0587 0.9978 0.0297
vn -0.9890 0.0535 0.1381
vn -0.9889 0.0284 0.1460
vn -0.9890 0.0536 0.1380
vn -0.2455 -0.0951 0.9647
vn -0.0330 -0.9989 -0.0326
vn -0.0606 -0.9974 -0.0401
vn -0.0331 -0.9989 -0.0326
vn -0.0515 -0.9916 -0.1188
vn -0.1638 -0.9768 -0.1383
vn -0.1332 -0.9779 -0.1609
vn 0.7933 0.0150 -0.6086
vn 0.1815 0.1355 -0.9740
vn 0.1412 0.9803 0.1379
vn 0.1589 0.9734 0.1651
vn 0.1412 0.9803 0.1378
vn -0.2234 -0.1274 0.9664
vn 0.0515 0.9916 0.1188
vn 0.9929 -0.0293 -0.1151
vn 0.9929 -0.0299 -0.1154
vn 0.9929 -0.0297 -0.1153
vn 0.9929 -0.0291 -0.1151
vn 0.0587 0.9978 0.0296
vn -0.0310 -0.9995 0.0080
vn -0.0473 -0.6269 0.7776
vn 0.9688 0.1612 0.1884
vn 0.9684 0.1640 0.1878
vn 0.9687 0.1618 0.1883
vn 0.9992 -0.0283 0.0297
vn -0.0439 -0.6286 0.7765
vn 0.4936 0.6617 0.5644
vn 0.9690 0.1591 0.1889
vn 0.0439 0.7753 0.6301
vn -0.1377 -0.7660 -0.6279
vn -0.1378 -0.7660 -0.6279
vn -0.1385 -0.7663 -0.6274
vn 0.0443 0.6285 -0.7766
vn 0.0450 0.6281 -0.7768
vt 0.305687 0.975874
vt 0.330798 0.975789
vt 0.330768 0.977939
vt 0.305645 0.978138
vt 0.330734 0.980147
vt 0.338931 0.979986
vt 0.338775 0.977791
vt 0.338277 0.970860
vt 0.341278 0.970763
vt 0.341436 0.972918
vt 0.342451 0.979541
vt 0.330523 0.971607
vt 0.338431 0.973135
vt 0.349087 0.971710
vt 0.349201 0.973885
vt 0.341614 0.975120
vt 0.351398 0.973532
vt 0.351149 0.971256
vt 0.348793 0.969563
vt 0.350348 0.969170
vt 0.352860 0.977349
vt 0.350511 0.978061
vt 0.349776 0.976025
vt 0.342016 0.977345
vt 0.338600 0.975475
vt 0.330675 0.973725
vt 0.305552 0.973626
vt 0.305512 0.971423
vt 0.299337 0.973688
vt 0.299603 0.971436
vt 0.297329 0.970958
vt 0.305477 0.980338
vt 0.298892 0.979673
vt 0.300376 0.977796
vt 0.297552 0.977634
vt 0.295369 0.977783
vt 0.296130 0.980202
vt 0.297771 0.975601
vt 0.295728 0.975040
vt 0.296937 0.972987
vt 0.300466 0.975773
vt 0.351888 0.975291
vt 0.353615 0.974977
vt 0.355261 0.974872
vt 0.354771 0.977355
vt 0.353037 0.972923
vt 0.351796 0.968477
vt 0.352751 0.970386
vt 0.354493 0.972164
s 1
usemtl body
f 255/419/458 259/420/459 254/421/460
f 254/421/461 256/422/462 255/419/463
f 256/422/462 254/421/461 257/423/464
f 260/424/465 257/423/465 254/421/466
f 254/421/466 258/425/467 260/424/465
f 258/425/467 254/421/466 259/420/468
f 260/426/469 261/427/470 263/428/471
f 261/429/472 260/424/473 258/425/474
f 257/430/475 260/426/469 262/431/476
f 263/428/471 262/431/476 260/426/469
f 263/428/477 266/432/478 264/433/479
f 264/433/479 265/434/480 263/428/477
f 262/431/481 263/428/482 265/434/483
f 266/432/484 263/428/471 261/427/470
f 267/435/485 264/433/486 266/432/487
f 266/432/487 268/436/488 267/435/485
f 268/436/489 266/432/490 269/437/491
f 261/427/470 269/437/492 266/432/484
f 269/437/491 270/438/493 268/436/489
f 270/439/494 269/440/495 271/441/496
f 272/442/497 271/441/498 269/440/499
f 269/440/499 261/429/500 272/442/497
f 258/425/474 272/442/501 261/429/472
f 271/441/502 272/442/503 265/434/504
f 272/442/503 258/425/505 273/443/506
f 273/443/506 265/434/504 272/442/503
f 265/434/483 273/443/507 262/431/481
f 274/444/508 262/431/509 273/443/509
f 273/443/509 259/420/508 274/444/508
f 259/420/468 273/443/506 258/425/505
f 262/431/476 274/444/475 257/430/475
f 276/445/510 274/444/511 259/420/512
f 275/446/513 257/430/475 274/444/475
f 274/444/511 276/445/510 275/446/514
f 259/420/459 255/419/458 276/445/515
f 277/447/516 276/445/517 255/419/518
f 278/448/519 275/446/520 276/445/521
f 276/445/521 277/447/521 278/448/519
f 281/449/522 278/448/522 277/447/522
f 275/450/523 278/451/524 279/452/525
f 278/451/526 282/453/526 279/452/526
f 280/454/527 282/453/527 278/451/527
f 278/451/528 281/455/528 280/454/528
f 279/452/529 282/453/529 283/456/529
f 284/457/530 283/456/530 282/453/530
f 282/453/530 280/454/530 284/457/530
f 283/456/531 284/457/532 285/458/531
f 285/458/533 277/447/533 283/456/533
f 277/447/534 285/458/534 281/449/534
f 283/456/529 286/459/529 279/452/529
f 286/459/535 283/456/535 277/447/535
f 256/422/536 279/452/537 286/459/538
f 286/459/538 255/419/539 256/422/536
f 255/419/518 286/459/540 277/447/516
f 279/452/525 256/422/525 275/450/523
f 257/423/464 275/450/541 256/422/462
f 271/441/496 287/460/542 270/439/494
f 287/460/543 271/441/544 264/433/545
f 265/434/504 264/433/546 271/441/502
f 270/439/494 287/460/542 288/461/547
f 288/461/548 287/460/548 267/435/548
f 264/433/545 267/435/549 287/460/543
f 288/461/547 289/462/547 291/463/547
f 289/462/550 288/461/550 290/464/550
f 267/435/548 290/464/548 288/461/548
f 291/463/547 270/439/494 288/461/547
f 270/438/551 291/465/551 292/466/551
f 292/466/552 268/436/553 270/438/551
f 268/436/488 292/466/488 293/467/488
f 293/467/554 290/464/555 268/436/488
f 290/464/550 293/467/550 289/462/550
f 290/464/555 267/435/485 268/436/488
o gaz2975_nomg_body.288
v 2.527832 5.619457 3.030014
v 1.699806 6.036530 -4.374201
v 2.120174 6.036530 -4.374199
v 2.107456 5.619457 3.030014
v 1.799950 5.406490 4.464127
v 2.120346 4.224941 -4.374261
v 2.526112 4.557037 3.026007
v 1.699978 4.224941 -4.374259
v 2.105736 4.557037 3.026007
v 1.797901 4.755360 4.459490
v 2.087631 4.552399 -4.713381
v 1.667259 4.552399 -4.713381
v 2.087494 5.712517 -4.713247
v 1.667126 5.712517 -4.713249
vn -0.0000 0.9984 0.0562
vn 0.9984 -0.0004 -0.0567
vn 0.9984 0.0001 -0.0567
vn 0.9999 -0.0007 -0.0172
vn -0.0000 0.9892 0.1469
vn 0.9969 -0.0022 0.0791
vn 0.8915 -0.0050 0.4531
vn -0.0000 -0.9990 0.0448
vn -0.0000 -0.9906 0.1370
vn 0.8912 -0.0060 0.4536
vn -0.0000 -0.7194 -0.6946
vn 0.6849 0.0002 -0.7287
vn 0.5995 0.0002 -0.8004
vn -0.0000 0.0001 -1.0000
vn -0.0000 0.7230 -0.6909
vt 0.617592 0.998677
vt 0.618384 0.980071
vt 0.619301 0.980281
vt 0.618380 0.998299
vt 0.622519 0.998299
vt 0.619698 0.976417
vt 0.621822 0.980291
vt 0.623305 0.998684
vt 0.622741 0.980090
vt 0.621470 0.976427
vt 0.622124 0.999863
vt 0.621808 0.999027
vt 0.619081 0.999027
vt 0.618763 0.999862
s 1
usemtl body
f 295/468/556 297/469/556 294/470/556
f 294/470/556 296/471/556 295/468/556
f 299/472/557 296/471/558 294/470/559
f 294/470/560 297/469/560 298/473/560
f 300/474/561 294/470/559 298/473/562
f 300/474/561 299/472/557 294/470/559
f 301/475/563 299/472/563 300/474/563
f 300/474/563 302/476/563 301/475/563
f 300/474/564 303/477/564 302/476/564
f 298/473/562 303/477/565 300/474/561
f 301/475/566 305/478/566 304/479/566
f 304/479/566 299/472/566 301/475/566
f 306/480/567 304/479/568 305/478/569
f 305/478/569 307/481/569 306/480/567
f 307/481/570 295/468/570 296/471/570
f 296/471/570 306/480/570 307/481/570
f 299/472/557 306/480/567 296/471/558
f 299/472/557 304/479/568 306/480/567
o gaz2975_nomg_body.284
v -2.447525 5.795113 0.996881
v -2.447521 6.706501 -4.879697
v -2.447346 6.662834 0.996870
v -2.447533 5.824680 -4.879685
v -1.534660 6.662823 0.996840
v -1.534836 5.795097 0.996855
v -1.534843 5.824661 -4.879710
v -1.534668 6.692383 -4.879723
vn -1.0000 -0.0000 -0.0000
vn -1.0000 0.0002 -0.0000
vn -0.0000 0.9577 0.2877
vn 0.0002 0.9886 0.1507
vn -0.0000 -0.9603 0.2788
vn 0.0002 -0.9977 0.0684
vn 0.0003 -0.9884 -0.1521
vn -0.0000 -0.9885 -0.1509
vn -0.0000 -0.0000 -1.0000
vn -0.0000 1.0000 0.0050
vn 0.0155 0.9999 0.0074
vt 0.128668 0.117755
vt 0.131108 0.117023
vt 0.136067 0.133260
vt 0.133665 0.133981
vt 0.131635 0.097275
vt 0.128997 0.097275
vt 0.128996 0.094771
vt 0.131635 0.094770
vt 0.128996 0.077805
vt 0.131635 0.077805
vt 0.131635 0.075300
vt 0.131635 0.114242
vt 0.128996 0.114242
vt 0.128996 0.075259
s 1
usemtl body
f 309/482/571 311/483/571 308/484/572
f 308/484/572 310/485/572 309/482/571
f 312/486/573 310/487/574 308/488/575
f 313/489/576 308/488/575 311/490/577
f 308/488/575 313/489/576 312/486/573
f 311/490/577 314/491/578 313/489/576
f 315/492/579 314/491/578 311/490/577
f 315/493/580 309/494/581 310/487/581
f 310/487/574 312/486/573 315/493/580
f 311/490/577 309/495/579 315/492/579
