# Blender 4.3.2
# www.blender.org
mtllib door2_1.mtl
o gaz2975_nomg_body.020
v 11.350282 9.672352 -3.574570
v -12.998127 18.117821 -3.574547
v 11.350280 18.117828 -3.574570
v -12.998127 9.672344 -3.574547
vn -0.0000 -0.0000 1.0000
vt 0.986664 0.188651
vt 0.986664 0.008658
vt 0.488856 0.008658
vt 0.488856 0.188651
s 1
usemtl glass
f 2/1/1 4/2/1 1/3/1
f 1/3/1 3/4/1 2/1/1
o gaz2975_nomg_body.021
v -12.998123 18.117821 -4.052399
v 11.350282 9.672352 -4.052414
v 11.350280 18.117828 -4.052414
v -12.998123 9.672344 -4.052399
vn -0.0000 -0.0000 -1.0000
vt 0.488856 0.008658
vt 0.986664 0.008658
vt 0.986664 0.188651
vt 0.488856 0.188651
s 1
usemtl glass
f 6/5/2 8/6/2 5/7/2
f 5/7/2 7/8/2 6/5/2
