# Blender 4.3.2
# www.blender.org
mtllib door1_1.mtl
o gaz2975_nomg_body.022
v -20.496019 14.350372 0.149788
v -20.496021 22.795849 0.149788
v 3.852385 22.795856 0.149796
v 3.852385 14.350380 0.149796
vn -0.0000 -0.0000 1.0000
vt 0.497068 0.642236
vt 0.994876 0.462244
vt 0.497068 0.462244
vt 0.994876 0.642236
s 1
usemtl glass
f 1/1/1 3/2/1 2/3/1
f 3/2/1 1/1/1 4/4/1
o gaz2975_nomg_body.023
v 3.852385 22.795856 -0.328056
v -20.496021 22.795849 -0.328056
v -20.496019 14.350372 -0.328056
v 3.852385 14.350380 -0.328056
vn -0.0000 -0.0000 -1.0000
vt 0.994876 0.462244
vt 0.497068 0.642236
vt 0.497068 0.462244
vt 0.994876 0.642236
s 1
usemtl glass
f 5/5/2 7/6/2 6/7/2
f 7/6/2 5/5/2 8/8/2
