# Blender 4.3.2
# www.blender.org
mtllib door7.mtl
o gaz2975_nomg_turret.022
v 22.226297 -0.787056 2.120861
v 21.029867 -1.763306 6.538029
v 21.029867 -0.787056 6.538030
v 22.226297 -1.763306 2.120859
v 22.226427 -1.763313 -6.197651
v 22.226427 -0.787064 -6.197651
v -16.023970 -1.763313 -6.198231
v -16.023970 -0.787064 -6.198229
v -16.024099 -0.787056 2.120281
v -11.685776 -0.787048 9.679600
v 13.470538 -0.787048 10.876352
v 17.887753 -0.787048 9.680045
v 13.470538 -1.763298 10.876352
v -7.268605 -1.763298 10.876036
v -7.268605 -0.787048 10.876036
v -11.685776 -1.763298 9.679600
v -14.827793 -1.763298 6.537489
v -14.827793 -0.787048 6.537489
v -16.024099 -1.763306 2.120281
v 17.887753 -1.763298 9.680045
vn 0.9652 -0.0000 0.2614
vn 0.9956 -0.0000 0.0935
vn 0.9956 -0.0000 0.0936
vn -0.0000 1.0000 -0.0000
vn 1.0000 -0.0000 -0.0000
vn -0.0000 -0.0000 -1.0000
vn 0.4195 -0.0000 0.9078
vn 0.2614 -0.0000 0.9652
vn -0.0262 -0.0000 0.9997
vn -0.0000 -0.0000 1.0000
vn -0.0807 -0.0000 0.9967
vn -0.4196 -0.0000 0.9077
vn -0.5729 -0.0000 0.8196
vn -0.0000 -1.0000 -0.0000
vn -0.8196 -0.0000 0.5729
vn -0.9078 -0.0000 0.4195
vn -0.9956 -0.0000 0.0935
vn -1.0000 -0.0000 -0.0000
vn 0.5729 -0.0000 0.8196
vn 0.7071 -0.0000 0.7071
vt 0.494650 0.581221
vt 0.482781 0.581221
vt 0.482781 0.578443
vt 0.494651 0.578443
vt 0.781015 0.327867
vt 0.777611 0.315299
vt 0.777611 0.291633
vt 0.461205 0.581220
vt 0.461205 0.578443
vt 0.777611 0.288856
vt 0.886433 0.288856
vt 0.886433 0.291633
vt 0.886433 0.315299
vt 0.874091 0.336806
vt 0.802521 0.340210
vt 0.789954 0.336806
vt 0.506177 0.578461
vt 0.518045 0.578474
vt 0.518045 0.581251
vt 0.571836 0.581241
vt 0.571835 0.578464
vt 0.861524 0.340210
vt 0.583706 0.581233
vt 0.583705 0.578456
vt 0.861524 0.240280
vt 0.874091 0.243683
vt 0.883030 0.252622
vt 0.595230 0.581233
vt 0.595230 0.578456
vt 0.607100 0.581233
vt 0.886433 0.265190
vt 0.607100 0.578455
vt 0.628675 0.578455
vt 0.628675 0.581233
vt 0.883030 0.327867
vt 0.789954 0.243683
vt 0.802521 0.240280
vt 0.506174 0.581238
vt 0.777611 0.265190
vt 0.781015 0.252622
s 1
usemtl body
f 2/1/1 4/2/2 1/3/3
f 1/3/3 3/4/1 2/1/1
f 3/5/4 1/6/4 6/7/4
f 1/3/3 4/2/2 5/8/5
f 5/8/5 6/9/5 1/3/3
f 6/7/6 5/10/6 7/11/6
f 7/11/6 8/12/6 6/7/6
f 8/12/4 9/13/4 6/7/4
f 9/13/4 10/14/4 6/7/4
f 10/14/4 11/15/4 6/7/4
f 11/15/4 3/5/4 6/7/4
f 11/15/4 12/16/4 3/5/4
f 12/17/7 11/18/8 13/19/8
f 14/20/9 13/19/10 11/18/10
f 11/18/10 15/21/11 14/20/9
f 10/14/4 15/22/4 11/15/4
f 16/23/12 14/20/9 15/21/11
f 15/21/11 10/24/13 16/23/12
f 14/25/14 16/26/14 17/27/14
f 17/28/15 16/23/12 10/24/13
f 10/24/13 18/29/16 17/28/15
f 19/30/17 17/28/15 18/29/16
f 17/27/14 19/31/14 7/11/14
f 14/25/14 17/27/14 7/11/14
f 18/29/16 9/32/17 19/30/17
f 19/30/17 9/32/17 8/33/18
f 8/33/18 7/34/18 19/30/17
f 9/13/4 18/35/4 10/14/4
f 20/36/14 13/37/14 14/25/14
f 20/36/14 14/25/14 7/11/14
f 13/19/8 20/38/19 12/17/7
f 3/4/20 12/17/7 20/38/19
f 20/38/19 2/1/20 3/4/20
f 4/39/14 2/40/14 20/36/14
f 4/39/14 20/36/14 7/11/14
f 5/10/14 4/39/14 7/11/14
