# Blender 4.3.2
# www.blender.org
mtllib door8.mtl
o gaz2975_nomg_hatch
v -3.174759 -1.464058 -24.037786
v -3.174762 -1.115013 -23.433226
v -6.478333 -1.115013 -23.433226
v -6.478333 -1.464058 -24.037786
v -3.174759 -1.115013 -24.642351
v -6.478333 -1.115013 -24.642351
v -3.174762 -0.416924 -24.642351
v -6.478333 -0.416924 -24.642351
v -3.174762 -0.067886 -24.037786
v -6.478333 -0.067879 -24.037786
v -3.174762 -0.416924 -23.433226
v -6.478333 -0.416924 -23.433226
v -6.580807 -0.765968 -24.037786
v 8.754054 -1.115028 -23.433222
v 8.860642 -1.115028 -21.172907
v 8.860642 -0.416939 -21.172907
v 8.754054 -0.416939 -23.433222
v -6.371745 -0.416924 -21.172911
v -6.371745 -1.115013 -21.172911
v -3.281349 -1.115013 -21.172911
v -3.281351 -0.416924 -21.172911
v 8.754054 -0.067894 -24.037783
v 8.651582 -0.765984 -24.037783
v 8.754054 -0.416939 -24.642347
v 11.951035 -1.115028 -21.172907
v 11.951037 -0.416939 -21.172907
v 12.057626 -0.416939 -23.433222
v -16.024002 -0.787041 -6.313671
v -16.024002 -1.763290 -6.313671
v 22.226379 -1.763298 -6.313663
v 22.226379 -0.787048 -6.313667
v 12.057626 -1.115028 -23.433222
v -7.268378 -0.787056 -23.232176
v -11.685565 -0.787056 -22.035810
v -14.827635 -0.787048 -18.893751
v 17.887959 -0.787064 -22.035803
v 22.226379 -0.787056 -14.476549
v 21.030014 -0.787064 -18.893740
v 13.470767 -0.787064 -23.232172
v -16.023998 -0.787048 -14.476561
v 22.226383 -1.763306 -14.476549
v 21.030014 -1.763313 -18.893740
v 17.887959 -1.763313 -22.035803
v 13.470767 -1.763313 -23.232172
v -7.268378 -1.763306 -23.232176
v -11.685563 -1.763306 -22.035810
v -14.827635 -1.763298 -18.893751
v -16.023998 -1.763298 -14.476561
v 8.754054 -1.464073 -24.037783
v 12.057626 -1.464073 -24.037783
v 8.754054 -1.115028 -24.642347
v 12.057628 -1.115028 -24.642344
v 12.057628 -0.416939 -24.642344
v 12.057626 -0.067894 -24.037783
v 12.160094 -0.765984 -24.037783
v -3.072290 -0.765968 -24.037786
vn -0.0000 -0.8660 0.5000
vn -0.0000 -0.9820 -0.1888
vn -0.0000 -1.0000 -0.0001
vn -0.0000 -0.6545 -0.7560
vn -0.0000 -0.3275 -0.9449
vn -0.0000 0.3275 -0.9448
vn -0.0000 0.6545 -0.7560
vn -0.0000 0.9820 -0.1888
vn -0.0000 0.9820 0.1888
vn -0.0000 0.8660 0.5000
vn -0.9859 -0.0000 0.1671
vn -0.9989 -0.0000 0.0471
vn -0.0000 -0.0000 1.0000
vn -0.0000 1.0000 -0.0000
vn -0.9894 0.1452 -0.0000
vn -0.9859 0.1447 0.0836
vn -0.9859 0.1447 -0.0836
vn 0.9989 -0.0000 0.0471
vn 1.0000 -0.0000 -0.0000
vn 0.9955 -0.0000 -0.0947
vn 0.9077 -0.0000 -0.4195
vn 0.8196 -0.0000 -0.5729
vn 0.5729 -0.0000 -0.8196
vn 0.4195 -0.0000 -0.9077
vn 0.0807 -0.0001 -0.9967
vn 0.0262 -0.0000 -0.9997
vn -0.0262 -0.0000 -0.9997
vn -0.0807 -0.0001 -0.9967
vn -0.4195 -0.0000 -0.9077
vn -0.5729 -0.0000 -0.8196
vn -0.8196 -0.0000 -0.5729
vn -0.9078 -0.0000 -0.4195
vn -0.9955 -0.0000 -0.0947
vn -1.0000 -0.0000 -0.0000
vn 0.0001 -0.9820 0.1888
vn 0.0001 -0.9820 -0.1889
vn 0.0001 -0.6545 -0.7561
vn -0.0001 -0.3275 -0.9449
vn -0.0000 0.3275 -0.9449
vn -0.0000 0.6545 -0.7561
vn -0.0000 0.9820 -0.1889
vn -0.9859 -0.1447 0.0836
vn -0.9894 -0.1452 -0.0000
vn -0.9859 -0.1447 -0.0836
vn -0.0000 -1.0000 -0.0000
vn 0.9859 -0.1447 -0.0836
vn 0.9894 -0.1452 -0.0000
vn 0.9859 -0.1447 0.0836
vn 0.9859 0.1447 -0.0836
vn 0.9894 0.1452 -0.0000
vn 0.9859 0.1447 0.0836
vn -0.9859 -0.0000 -0.1671
vn 0.9859 -0.0000 -0.1671
vn 0.9859 -0.0000 0.1671
vt 0.961021 0.429563
vt 0.958939 0.430054
vt 0.956613 0.420202
vt 0.958695 0.419710
vt 0.963103 0.429071
vt 0.960777 0.419219
vt 0.965185 0.428579
vt 0.962859 0.418727
vt 0.967267 0.428088
vt 0.964940 0.418235
vt 0.969349 0.427596
vt 0.967022 0.417744
vt 0.974700 0.409917
vt 0.976855 0.409917
vt 0.975777 0.411784
vt 0.969944 0.429665
vt 0.976606 0.427742
vt 0.976014 0.425687
vt 0.973838 0.416470
vt 0.975920 0.415978
vt 0.978096 0.425195
vt 0.977240 0.405352
vt 0.975089 0.405352
vt 0.976166 0.407220
vt 0.976171 0.403485
vt 0.960557 0.188197
vt 0.960557 0.190974
vt 0.851734 0.190974
vt 0.851734 0.188197
vt 0.966629 0.415627
vt 0.973447 0.414367
vt 0.935647 0.140064
vt 0.948214 0.143467
vt 0.957153 0.152406
vt 0.864077 0.143467
vt 0.851734 0.164973
vt 0.855138 0.152406
vt 0.876644 0.140064
vt 0.960557 0.164973
vt 0.368254 0.464948
vt 0.371032 0.464948
vt 0.371032 0.477474
vt 0.368254 0.477474
vt 0.368254 0.484497
vt 0.371032 0.484497
vt 0.368254 0.491315
vt 0.371032 0.491316
vt 0.368250 0.498338
vt 0.371027 0.498338
vt 0.368204 0.530163
vt 0.370982 0.530164
vt 0.368193 0.537185
vt 0.370970 0.537187
vt 0.368185 0.544004
vt 0.370962 0.544005
vt 0.368185 0.551027
vt 0.370962 0.551027
vt 0.370962 0.563554
vt 0.368185 0.563554
vt 0.974012 0.407220
vt 0.972938 0.405352
vt 0.974007 0.403485
vt 0.960557 0.214198
vt 0.957153 0.226765
vt 0.948214 0.235704
vt 0.876644 0.239107
vt 0.855138 0.226765
vt 0.864077 0.235704
vt 0.935647 0.239107
vt 0.851734 0.214198
vt 0.974696 0.413651
vt 0.973626 0.411784
vt 0.977929 0.411784
vt 0.976859 0.413651
s 1
usemtl body
f 1/1/1 2/2/1 3/3/1
f 3/3/1 4/4/2 1/1/3
f 5/5/4 1/1/3 4/4/2
f 4/4/2 6/6/5 5/5/4
f 7/7/6 5/5/4 6/6/5
f 6/6/5 8/8/7 7/7/6
f 9/9/8 7/7/6 8/8/7
f 8/8/7 10/10/9 9/9/8
f 11/11/10 9/9/8 10/10/9
f 10/10/9 12/12/10 11/11/10
f 3/13/11 12/14/11 13/15/11
f 14/16/12 15/17/12 16/18/12
f 16/18/12 17/11/12 14/16/12
f 18/19/13 19/20/13 20/21/13
f 20/21/13 21/18/13 18/19/13
f 11/11/14 12/12/14 18/19/14
f 18/19/14 21/18/14 11/11/14
f 22/22/15 23/23/15 17/24/16
f 24/25/17 23/23/15 22/22/15
f 15/21/13 25/20/13 26/19/13
f 26/19/13 16/18/13 15/21/13
f 17/11/14 16/18/14 26/19/14
f 26/19/14 27/12/14 17/11/14
f 28/26/13 29/27/13 30/28/13
f 30/28/13 31/29/13 28/26/13
f 12/12/12 3/30/12 19/31/12
f 19/31/12 18/19/12 12/12/12
f 2/16/18 11/11/18 21/18/18
f 21/18/18 20/17/18 2/16/18
f 25/31/18 32/30/18 27/12/18
f 27/12/18 26/19/18 25/31/18
f 33/32/14 34/33/14 35/34/14
f 33/32/14 35/34/14 28/26/14
f 36/35/14 33/32/14 28/26/14
f 37/36/14 36/35/14 28/26/14
f 37/36/14 38/37/14 36/35/14
f 36/35/14 39/38/14 33/32/14
f 31/29/14 37/36/14 28/26/14
f 35/34/14 40/39/14 28/26/14
f 31/40/19 30/41/19 41/42/20
f 41/42/20 37/43/20 31/40/19
f 38/44/21 37/43/20 41/42/20
f 41/42/20 42/45/22 38/44/21
f 36/46/23 38/44/21 42/45/22
f 42/45/22 43/47/24 36/46/23
f 39/48/25 36/46/23 43/47/24
f 43/47/24 44/49/26 39/48/25
f 33/50/27 39/48/25 44/49/26
f 44/49/26 45/51/28 33/50/27
f 34/52/29 33/50/27 45/51/28
f 45/51/28 46/53/30 34/52/29
f 35/54/31 34/52/29 46/53/30
f 46/53/30 47/55/32 35/54/31
f 40/56/33 35/54/31 47/55/32
f 47/55/32 48/57/33 40/56/33
f 40/56/33 48/57/33 29/58/34
f 29/58/34 28/59/34 40/56/33
f 32/3/1 14/2/1 49/1/35
f 49/1/35 50/4/36 32/3/1
f 50/4/36 49/1/35 51/5/37
f 51/5/37 52/6/38 50/4/36
f 52/6/38 51/5/37 24/7/39
f 24/7/39 53/8/40 52/6/38
f 53/8/40 24/7/39 22/9/41
f 22/9/41 54/10/9 53/8/40
f 54/10/9 22/9/41 17/11/10
f 17/11/10 27/12/10 54/10/9
f 14/60/42 23/23/43 49/61/43
f 49/61/43 23/23/43 51/62/44
f 17/24/11 23/23/11 14/60/11
f 48/63/45 47/64/45 46/65/45
f 48/63/45 46/65/45 30/28/45
f 46/65/45 44/66/45 30/28/45
f 44/66/45 42/67/45 30/28/45
f 44/66/45 43/68/45 42/67/45
f 46/65/45 45/69/45 44/66/45
f 29/27/45 48/63/45 30/28/45
f 42/67/45 41/70/45 30/28/45
f 52/71/46 55/15/47 50/72/47
f 50/72/47 55/15/47 32/13/48
f 7/25/49 9/22/50 56/23/50
f 9/22/50 11/24/51 56/23/50
f 27/14/51 55/15/50 54/73/50
f 54/73/50 55/15/50 53/74/49
f 12/14/16 10/73/15 13/15/15
f 10/73/15 8/74/17 13/15/15
f 8/74/52 6/71/52 13/15/52
f 51/62/52 23/23/52 24/25/52
f 6/71/44 4/72/43 13/15/43
f 4/72/43 3/13/42 13/15/43
f 53/74/53 55/15/53 52/71/53
f 5/62/53 7/25/53 56/23/53
f 2/60/48 1/61/47 56/23/47
f 1/61/47 5/62/46 56/23/47
f 11/24/54 2/60/54 56/23/54
f 32/13/54 55/15/54 27/14/54
