# Blender 4.3.2
# www.blender.org
mtllib door2_2.mtl
o gaz2975_nomg_body.313
v -15.707233 19.682762 -2.830620
v 9.468758 18.168831 -2.830299
v -10.304628 18.168823 -2.830444
v -11.285666 17.971107 -2.830444
v -11.983500 17.382065 -2.830429
v -12.249210 16.407852 -2.830429
v -12.249207 11.302742 -2.830368
v -11.983414 10.328522 -2.830338
v -15.707230 -21.086349 -2.829758
v -14.467655 21.820084 -2.830757
v -15.343338 20.944397 -2.830681
v -15.343327 20.944366 -4.280968
v -15.707222 19.682732 -4.280876
v -16.230257 21.467751 -4.280968
v -16.704449 19.823685 -4.280891
v -15.707212 -21.086380 -4.280029
v -15.337187 -22.452587 -2.829758
v -15.337175 -22.452614 -4.280029
v -16.704441 -21.219040 -4.280029
v -16.230249 -22.969843 -4.280014
v -16.704445 19.823685 -5.136284
v -16.704445 -21.219040 -5.135422
v -11.983410 10.328514 -5.136047
v -11.285341 9.739483 -5.136032
v -10.303972 9.541763 -5.136017
v 9.469413 9.541771 -5.135880
v 10.450447 9.739483 -5.135849
v 15.170088 -24.670143 -5.135429
v -14.984852 -24.215239 -5.135437
v -16.230247 -22.969843 -5.135422
v -14.984854 -24.215242 -4.280029
v -14.467625 -23.322159 -4.280029
v -13.101727 -23.692108 -4.280045
v -13.234053 -24.689434 -4.280029
v 15.170088 -24.670143 -4.280037
v -13.234051 -24.689434 -5.135422
v 14.172843 -23.673582 -4.280052
v 14.172831 -23.673552 -2.829796
v 14.172677 22.189209 -4.280403
v 14.172664 22.189232 -2.830124
v 10.450123 17.971115 -2.830276
v 11.148190 17.382072 -2.830261
v 11.413992 16.407860 -2.830261
v -13.101433 22.190117 -2.830696
v -13.101416 22.190094 -4.280983
v -14.467636 21.820053 -4.281021
v -13.234060 23.187332 -4.280998
v 15.169917 23.186417 -4.280418
v 15.169917 23.186417 -5.135818
v 9.468759 18.168831 -5.136024
v -14.984865 22.713135 -5.136436
v 10.450120 17.971115 -5.135994
v 11.148195 17.382072 -5.135979
v 11.413992 16.407860 -5.135963
v -13.234058 23.187332 -5.136375
v -14.984869 22.713135 -4.281036
v 11.413992 11.302750 -5.135895
v 11.148284 10.328522 -5.135880
v 11.413992 11.302750 -2.830185
v 11.142296 10.323471 -2.830185
v 10.442417 9.737865 -2.830185
v 9.469413 9.541771 -2.830185
v -13.101740 -23.692081 -2.829758
v -14.467642 -23.322136 -2.829758
v -10.303968 9.541763 -2.830307
v -11.285341 9.739483 -2.830338
v -16.230255 21.467751 -5.136360
v -10.304626 18.168823 -5.136154
v -11.285664 17.971107 -5.136154
v -11.983498 17.382057 -5.136154
v -12.249205 16.407852 -5.136139
v -12.249208 11.302742 -5.136063
vn -0.0000 -0.0000 1.0000
vn -0.0000 0.0001 1.0000
vn -1.0000 -0.0000 -0.0000
vn 0.0001 -0.0000 1.0000
vn -0.9608 0.2771 -0.0000
vn -0.8185 0.5746 -0.0000
vn -0.9044 0.4267 -0.0000
vn -0.9652 -0.2614 -0.0000
vn -0.8272 -0.5618 -0.0000
vn -0.9129 -0.4081 -0.0000
vn -0.9078 -0.4195 -0.0000
vn -0.0000 -0.0000 -1.0000
vn -0.8196 -0.5729 -0.0000
vn -0.4195 -0.9078 -0.0000
vn -0.5729 -0.8196 -0.0000
vn -0.2614 -0.9652 -0.0000
vn 0.0007 -1.0000 -0.0000
vn -0.0062 -1.0000 -0.0000
vn 1.0000 -0.0000 -0.0000
vn -0.0001 -0.0000 1.0000
vn -0.0068 1.0000 -0.0000
vn -0.0000 1.0000 -0.0000
vn -0.4088 0.9126 -0.0000
vn -0.0248 0.9997 -0.0000
vn -0.5626 0.8267 -0.0000
vn -0.2614 0.9652 -0.0000
vn -0.5729 0.8196 -0.0000
vn -0.4195 0.9078 -0.0000
vn -0.8127 0.5827 -0.0000
vn -0.8998 -0.4363 -0.0000
vn -0.7916 -0.6111 -0.0000
vn -0.9972 -0.0751 -0.0000
vn -0.9997 -0.0240 -0.0000
vn -0.9997 0.0239 -0.0000
vn -0.9971 0.0759 -0.0003
vn -0.9642 0.2652 -0.0009
vn -0.9636 0.2673 -0.0019
vn -0.4997 0.8662 -0.0002
vn -0.3463 0.9381 -0.0008
vn -0.6439 0.7651 -0.0006
vn -0.6450 0.7642 -0.0000
vn -0.1976 0.9803 -0.0000
vn -0.0242 -0.9997 0.0001
vn -0.5619 -0.8272 -0.0000
vn -0.4082 -0.9129 -0.0000
vn 0.3471 0.9378 -0.0000
vn 0.5009 0.8655 -0.0000
vn 0.1975 0.9803 -0.0000
vn 0.7916 0.6111 -0.0000
vn 0.8998 0.4363 -0.0000
vn -0.6449 -0.7643 -0.0000
vn -0.1975 -0.9803 -0.0000
vn -0.9001 0.4356 -0.0000
vn -0.0000 -0.0001 -1.0000
vn -0.0000 -1.0000 -0.0000
vn 0.1976 -0.9803 -0.0000
vn 0.7917 -0.6110 -0.0000
vn 0.8999 -0.4361 -0.0000
vn 0.6450 -0.7642 -0.0000
vn 0.9972 -0.0751 -0.0000
vn 0.9997 -0.0239 -0.0000
vn 0.9997 0.0240 -0.0000
vn 0.9972 0.0751 -0.0000
vt 0.588467 0.711609
vt 0.585612 0.706685
vt 0.643610 0.703197
vt 0.598058 0.703197
vt 0.595798 0.702742
vt 0.594191 0.701385
vt 0.593578 0.699141
vt 0.593578 0.687380
vt 0.594191 0.685136
vt 0.585612 0.612766
vt 0.582270 0.706684
vt 0.586450 0.709592
vt 0.582476 0.712457
vt 0.585502 0.712459
vt 0.585500 0.715800
vt 0.582475 0.715797
vt 0.224974 0.115690
vt 0.224974 0.119436
vt 0.222128 0.120170
vt 0.222128 0.115288
vt 0.582271 0.612765
vt 0.579974 0.707009
vt 0.582260 0.603414
vt 0.585522 0.603417
vt 0.585519 0.606759
vt 0.582258 0.606755
vt 0.208399 0.133213
vt 0.208399 0.137251
vt 0.205553 0.137630
vt 0.579974 0.612460
vt 0.577990 0.707009
vt 0.205553 0.132454
vt 0.224568 0.108633
vt 0.224567 0.113808
vt 0.222126 0.113808
vt 0.578016 0.612459
vt 0.689405 0.516293
vt 0.687450 0.514644
vt 0.702622 0.427972
vt 0.702622 0.542876
vt 0.684703 0.514091
vt 0.629345 0.514091
vt 0.626598 0.514644
vt 0.613385 0.418310
vt 0.697807 0.419584
vt 0.701294 0.423070
vt 0.222127 0.108633
vt 0.222127 0.103608
vt 0.224568 0.103608
vt 0.213452 0.131349
vt 0.218478 0.131349
vt 0.217719 0.134194
vt 0.591617 0.603421
vt 0.588356 0.603419
vt 0.587745 0.601121
vt 0.591312 0.601124
vt 0.224568 0.098433
vt 0.656746 0.601168
vt 0.654449 0.603464
vt 0.591314 0.599154
vt 0.222127 0.098433
vt 0.654446 0.606805
vt 0.654446 0.712459
vt 0.657787 0.606805
vt 0.657787 0.712459
vt 0.660085 0.604509
vt 0.591615 0.712461
vt 0.645871 0.702742
vt 0.647479 0.701385
vt 0.648091 0.699141
vt 0.654446 0.715800
vt 0.588355 0.712461
vt 0.591615 0.715803
vt 0.588354 0.715803
vt 0.591309 0.718100
vt 0.656744 0.718098
vt 0.656744 0.720068
vt 0.662055 0.604509
vt 0.662055 0.714757
vt 0.660085 0.714757
vt 0.626599 0.537690
vt 0.629347 0.538243
vt 0.613385 0.552290
vt 0.697807 0.550965
vt 0.692906 0.552293
vt 0.624645 0.536041
vt 0.623900 0.533313
vt 0.591310 0.720071
vt 0.130722 0.073145
vt 0.132144 0.068168
vt 0.134491 0.068839
vt 0.133070 0.073815
vt 0.587741 0.718100
vt 0.222808 0.067361
vt 0.222808 0.070895
vt 0.219962 0.071653
vt 0.219962 0.066628
vt 0.135871 0.064007
vt 0.771162 0.353019
vt 0.771159 0.359597
vt 0.768274 0.359593
vt 0.623900 0.519021
vt 0.768282 0.353014
vt 0.753707 0.359568
vt 0.624644 0.516293
vt 0.753714 0.352990
vt 0.750829 0.359565
vt 0.648091 0.687380
vt 0.647465 0.685124
vt 0.750808 0.352987
vt 0.645853 0.683775
vt 0.748224 0.359564
vt 0.748200 0.352986
vt 0.586464 0.609618
vt 0.591614 0.606763
vt 0.643611 0.683324
vt 0.745366 0.359561
vt 0.745366 0.352983
vt 0.588467 0.607615
vt 0.588353 0.606761
vt 0.598060 0.683324
vt 0.684703 0.520546
vt 0.629345 0.520545
vt 0.595799 0.683779
vt 0.408989 0.218404
vt 0.402410 0.218404
vt 0.402413 0.215546
vt 0.408991 0.215546
vt 0.408987 0.221012
vt 0.402408 0.221010
vt 0.773767 0.353021
vt 0.773767 0.359599
vt 0.776624 0.353022
vt 0.776624 0.359601
vt 0.701294 0.547479
vt 0.133524 0.063337
vt 0.134865 0.058643
vt 0.137212 0.059313
vt 0.684705 0.538243
vt 0.684704 0.531788
vt 0.629346 0.531788
vt 0.687451 0.537690
vt 0.217974 0.093667
vt 0.224552 0.093667
vt 0.224552 0.096523
vt 0.217973 0.096523
vt 0.689405 0.536041
vt 0.402384 0.241340
vt 0.408963 0.241342
vt 0.408962 0.243947
vt 0.402384 0.243947
vt 0.690149 0.533313
vt 0.402387 0.238456
vt 0.408965 0.238463
vt 0.690149 0.519021
vt 0.402405 0.223890
vt 0.408983 0.223896
vt 0.656748 0.599198
vt 0.692906 0.418256
vt 0.214210 0.134194
s 1
usemtl body
f 10/1/1 1/2/1 2/3/1
f 1/2/1 3/4/2 2/3/1
f 1/2/1 4/5/2 3/4/2
f 5/6/1 4/5/2 1/2/1
f 6/7/1 5/6/1 1/2/1
f 7/8/1 6/7/1 1/2/1
f 8/9/1 7/8/1 1/2/1
f 8/9/1 1/2/1 9/10/1
f 9/10/3 1/2/3 13/11/3
f 10/1/1 11/12/4 1/2/1
f 1/13/5 11/14/6 12/15/7
f 12/15/7 13/16/5 1/13/5
f 13/17/1 12/18/2 14/19/1
f 14/19/1 15/20/1 13/17/1
f 16/21/1 13/11/1 15/22/1
f 13/11/3 16/21/3 9/10/3
f 16/23/8 18/24/9 17/25/10
f 17/25/10 9/26/8 16/23/8
f 18/27/1 16/28/1 19/29/1
f 15/22/1 19/30/1 16/21/1
f 19/30/3 15/22/3 21/31/3
f 19/29/1 20/32/1 18/27/1
f 20/33/11 19/34/8 22/35/8
f 21/31/3 22/36/3 19/30/3
f 23/37/12 24/38/12 22/39/12
f 23/37/12 22/39/12 21/40/12
f 24/38/12 25/41/12 22/39/12
f 25/41/12 26/42/12 22/39/12
f 26/42/12 27/43/12 22/39/12
f 27/43/12 28/44/12 22/39/12
f 28/44/12 29/45/12 22/39/12
f 29/45/12 30/46/12 22/39/12
f 22/35/8 30/47/13 20/33/11
f 30/47/13 29/48/14 31/49/15
f 31/49/15 20/33/11 30/47/13
f 20/50/1 31/51/1 32/52/1
f 33/53/1 32/54/1 31/55/1
f 31/55/1 34/56/1 33/53/1
f 34/57/16 31/49/15 29/48/14
f 34/56/1 35/58/1 37/59/1
f 35/58/17 34/56/17 36/60/17
f 29/48/14 36/61/16 34/57/16
f 37/59/1 33/53/1 34/56/1
f 33/53/18 37/59/17 38/62/17
f 40/63/19 38/62/19 37/64/19
f 37/64/19 39/65/19 40/63/19
f 39/65/1 37/64/1 35/66/1
f 44/67/1 10/1/1 40/63/1
f 10/1/1 2/3/1 40/63/1
f 2/3/1 41/68/1 40/63/1
f 41/68/1 42/69/1 40/63/1
f 42/69/1 43/70/20 40/63/1
f 43/70/20 38/62/1 40/63/1
f 44/67/21 40/63/22 39/71/22
f 10/72/23 44/67/21 45/73/24
f 39/71/22 45/73/24 44/67/21
f 45/73/24 46/74/25 10/72/23
f 46/74/1 45/73/1 47/75/1
f 48/76/1 47/75/1 45/73/1
f 45/73/1 39/71/1 48/76/1
f 47/75/22 48/76/22 49/77/22
f 28/78/19 49/79/19 48/80/19
f 48/80/19 35/66/19 28/78/19
f 35/66/1 48/80/1 39/65/1
f 52/81/12 50/82/12 49/83/12
f 50/82/12 51/84/12 49/83/12
f 51/84/12 55/85/12 49/83/12
f 53/86/12 52/81/12 49/83/12
f 54/87/12 53/86/12 49/83/12
f 54/87/12 49/83/12 28/44/12
f 49/77/22 55/88/22 47/75/22
f 55/89/26 51/90/27 56/91/28
f 56/91/28 47/92/26 55/89/26
f 47/75/1 56/93/1 46/74/1
f 12/94/2 46/95/1 56/96/1
f 56/96/1 14/97/1 12/94/2
f 14/98/29 56/91/28 51/90/27
f 42/99/30 53/100/31 54/101/32
f 57/102/12 54/87/12 28/44/12
f 43/103/33 54/101/32 57/104/34
f 54/101/32 43/103/33 42/99/30
f 58/105/12 57/102/12 28/44/12
f 59/106/35 57/104/34 58/107/36
f 57/104/34 59/106/35 43/103/33
f 43/70/20 59/108/1 38/62/1
f 59/108/1 60/109/1 38/62/1
f 58/107/36 60/110/37 59/106/35
f 60/109/1 61/111/1 38/62/1
f 27/112/38 61/113/39 60/110/40
f 60/110/40 58/107/41 27/112/38
f 61/111/1 17/114/1 63/115/1
f 61/111/1 62/116/1 17/114/1
f 26/117/42 62/118/42 61/113/39
f 61/111/1 63/115/1 38/62/1
f 61/113/39 27/112/38 26/117/42
f 38/62/17 63/115/43 33/53/18
f 17/114/1 64/119/1 63/115/1
f 63/115/43 64/120/44 32/54/45
f 32/54/45 33/53/18 63/115/43
f 64/120/44 17/25/10 18/24/9
f 18/24/9 32/54/45 64/120/44
f 62/116/1 9/10/1 17/114/1
f 62/116/1 65/121/1 9/10/1
f 25/41/22 65/122/22 62/123/22
f 62/123/22 26/42/22 25/41/22
f 65/121/1 66/124/1 9/10/1
f 24/125/46 66/126/47 65/127/48
f 65/127/48 25/128/48 24/125/46
f 66/124/1 8/9/1 9/10/1
f 23/129/49 8/130/50 66/126/47
f 66/126/47 24/125/46 23/129/49
f 27/43/12 58/105/12 28/44/12
f 41/131/51 52/132/51 53/100/31
f 53/100/31 42/99/30 41/131/51
f 2/133/52 50/134/52 52/132/52
f 52/132/52 41/131/52 2/133/52
f 50/82/12 21/40/12 51/84/12
f 21/40/12 67/135/12 51/84/12
f 51/90/27 67/136/53 14/98/29
f 67/136/53 21/137/5 15/138/5
f 15/138/5 14/98/29 67/136/53
f 50/82/12 68/139/54 21/40/12
f 3/140/55 68/139/55 50/82/55
f 50/82/55 2/141/55 3/140/55
f 68/139/54 69/142/12 21/40/12
f 4/143/56 69/144/56 68/145/56
f 68/145/56 3/146/56 4/143/56
f 21/40/12 69/142/12 70/147/12
f 5/148/57 70/149/58 69/150/59
f 69/150/59 4/151/59 5/148/57
f 21/40/12 70/147/12 71/152/12
f 6/153/60 71/154/61 70/149/58
f 70/149/58 5/148/57 6/153/60
f 21/40/12 71/152/12 72/155/12
f 7/156/62 72/157/63 71/154/61
f 71/154/61 6/153/60 7/156/62
f 23/37/12 21/40/12 72/155/12
f 8/130/50 23/129/49 72/157/63
f 72/157/63 7/156/62 8/130/50
f 46/74/25 12/15/7 11/14/6
f 11/14/6 10/72/23 46/74/25
f 36/60/17 28/158/17 35/58/17
f 28/44/12 36/159/54 29/45/12
f 32/52/1 18/160/1 20/50/1
o gaz2975_nomg_body.314
v -9.194231 20.185623 -5.142738
v -6.756914 20.183395 -5.657768
v -9.194231 20.183388 -5.657761
v -6.756914 20.185631 -5.142746
v -9.194231 20.632767 -4.887146
v -9.269833 20.630539 -5.402184
v -9.194231 21.077682 -5.146606
v -9.194231 21.075447 -5.661621
v -9.194229 20.628304 -5.917213
v -6.756910 21.075455 -5.661629
v -6.756910 20.628311 -5.917221
v -6.681313 20.630547 -5.402176
v -6.756910 21.077690 -5.146614
v -6.756910 20.632774 -4.887138
vn -0.0000 -1.0000 0.0043
vn -0.0000 -0.7533 0.6577
vn -0.0000 -0.9434 0.3316
vn -0.9894 -0.1261 -0.0721
vn -0.9859 -0.1671 0.0007
vn -0.0000 -0.1845 0.9828
vn -0.9859 -0.0829 0.1451
vn -0.9859 0.0842 0.1444
vn -0.9894 0.1261 0.0721
vn -0.9859 0.1671 -0.0007
vn -0.9859 0.0829 -0.1451
vn -0.9859 -0.0842 -0.1444
vn -0.0000 0.7532 -0.6578
vn -0.0000 -0.1930 -0.9812
vn -0.0000 0.1845 -0.9828
vn -0.0000 0.9434 -0.3316
vn -0.0000 -0.5038 -0.8638
vn 0.9859 0.0829 -0.1451
vn 0.9894 0.1255 -0.0732
vn 0.9859 -0.0842 -0.1443
vn 0.9859 0.1671 -0.0007
vn 0.9859 0.0842 0.1443
vn 0.9859 -0.0829 0.1451
vn 0.9894 -0.1255 0.0732
vn 0.9859 -0.1671 0.0007
vn -0.0000 0.1930 0.9812
vn -0.0000 0.7589 0.6512
vn -0.0000 0.9462 0.3234
vt 0.175328 0.106828
vt 0.175328 0.108040
vt 0.169597 0.108040
vt 0.169597 0.106828
vt 0.149639 0.090208
vt 0.150394 0.088935
vt 0.151119 0.090225
vt 0.169597 0.109251
vt 0.151874 0.088952
vt 0.152599 0.090243
vt 0.151844 0.091516
vt 0.150364 0.091498
vt 0.175328 0.111673
vt 0.175328 0.112884
vt 0.169597 0.112884
vt 0.169597 0.111673
vt 0.169597 0.114095
vt 0.156556 0.097419
vt 0.155824 0.096132
vt 0.157304 0.096142
vt 0.175328 0.114095
vt 0.158036 0.097428
vt 0.156572 0.094856
vt 0.158052 0.094865
vt 0.158784 0.096151
vt 0.175328 0.109251
vt 0.169597 0.110462
vt 0.175328 0.110462
s 1
usemtl body
f 74/161/64 76/162/65 73/163/66
f 73/163/66 75/164/64 74/161/64
f 75/165/67 73/166/68 78/167/67
f 77/168/69 73/163/66 76/162/65
f 73/166/70 77/169/70 78/167/70
f 77/169/71 79/170/72 78/167/72
f 79/170/72 80/171/73 78/167/72
f 80/171/74 81/172/74 78/167/74
f 81/172/75 75/165/67 78/167/67
f 82/173/76 83/174/77 81/175/78
f 81/175/78 80/176/79 82/173/76
f 75/177/80 81/175/78 83/174/77
f 83/178/81 82/179/82 84/180/82
f 83/174/77 74/181/80 75/177/80
f 74/182/83 83/178/83 84/180/83
f 82/179/82 85/183/84 84/180/82
f 85/183/85 86/184/85 84/180/85
f 86/184/86 76/185/87 84/180/87
f 76/185/87 74/182/88 84/180/87
f 76/162/65 86/186/89 77/168/69
f 79/187/90 77/168/69 86/186/89
f 86/186/89 85/188/91 79/187/90
f 80/176/79 79/187/90 85/188/91
f 85/188/91 82/173/76 80/176/79
o gaz2975_nomg_body.315
v 7.524856 20.183395 -5.657753
v 7.716656 20.046852 -5.142120
v 7.524856 20.185631 -5.142731
v 7.716656 20.044617 -5.657158
v 6.547567 20.183395 -5.657768
v 6.547567 20.185631 -5.142746
v 6.355774 20.044617 -5.657173
v 6.355774 20.046852 -5.142120
v 6.377981 18.515785 -5.650536
v 7.694443 18.515785 -5.650536
v 7.694443 18.518021 -5.135490
v 6.377981 18.518021 -5.135490
vn 0.5862 0.8102 -0.0035
vn 0.5862 0.8101 -0.0035
vn -0.0000 -0.0044 -1.0000
vn -0.0000 -0.0043 -1.0000
vn -0.5862 0.8101 -0.0035
vn -0.5863 0.8101 -0.0035
vn -0.5862 0.8102 -0.0035
vn -0.9999 -0.0145 0.0001
vn -0.0000 -1.0000 0.0043
vn 0.9999 -0.0145 0.0001
vt 0.212460 0.071006
vt 0.213917 0.071006
vt 0.213923 0.071681
vt 0.212454 0.071681
vt 0.217238 0.071401
vt 0.214452 0.071401
vt 0.219237 0.071681
vt 0.217768 0.071681
vt 0.217774 0.071006
vt 0.219231 0.071006
vt 0.217734 0.066646
vt 0.213957 0.066646
vt 0.213969 0.065178
vt 0.217722 0.065178
vt 0.212466 0.066646
vt 0.219225 0.066646
s 1
usemtl body
f 88/189/92 90/190/92 87/191/92
f 87/191/93 89/192/93 88/189/93
f 91/193/94 87/194/95 90/190/95
f 92/195/96 91/196/97 93/197/96
f 90/190/95 93/197/95 91/193/94
f 93/197/96 94/198/98 92/195/96
f 94/198/99 93/197/99 95/199/99
f 96/200/95 95/199/95 93/197/95
f 93/197/95 90/190/95 96/200/95
f 96/200/100 97/201/100 98/202/100
f 97/203/101 96/200/101 90/190/101
f 98/202/100 95/199/100 96/200/100
f 95/199/99 98/204/99 94/198/99
f 90/190/101 88/189/101 97/203/101
o gaz2975_nomg_body.316
v -7.486931 20.183395 -5.657753
v -7.295134 20.046852 -5.142120
v -7.486931 20.185631 -5.142731
v -7.295134 20.044617 -5.657158
v -8.464222 20.183388 -5.657776
v -8.464222 20.185623 -5.142738
v -8.656015 20.044609 -5.657166
v -8.656015 20.046844 -5.142128
v -8.633804 18.515778 -5.650558
v -7.317343 18.515785 -5.650536
v -7.317343 18.518021 -5.135490
v -8.633804 18.518013 -5.135498
vn 0.5862 0.8102 -0.0035
vn 0.5863 0.8101 -0.0035
vn -0.0000 -0.0044 -1.0000
vn -0.0000 -0.0042 -1.0000
vn -0.0000 -0.0043 -1.0000
vn -0.5862 0.8101 -0.0035
vn -0.5861 0.8102 -0.0035
vn -0.5862 0.8102 -0.0035
vn -0.5863 0.8101 -0.0035
vn -0.9999 -0.0145 0.0001
vn -0.0000 -1.0000 0.0043
vn 0.9999 -0.0145 0.0001
vt 0.205091 0.070866
vt 0.206548 0.070866
vt 0.206554 0.071541
vt 0.205085 0.071541
vt 0.209870 0.071262
vt 0.207083 0.071262
vt 0.211868 0.071541
vt 0.210399 0.071541
vt 0.210405 0.070866
vt 0.211862 0.070866
vt 0.210365 0.066507
vt 0.206588 0.066507
vt 0.206600 0.065039
vt 0.210353 0.065039
vt 0.205097 0.066507
vt 0.211856 0.066507
s 1
usemtl body
f 100/205/102 102/206/102 99/207/102
f 99/207/103 101/208/103 100/205/103
f 103/209/104 99/210/105 102/206/106
f 104/211/107 103/212/108 105/213/109
f 102/206/106 105/213/104 103/209/104
f 105/213/109 106/214/110 104/211/107
f 106/214/111 105/213/111 107/215/111
f 108/216/106 107/215/106 105/213/104
f 105/213/104 102/206/106 108/216/106
f 108/216/112 109/217/112 110/218/112
f 109/219/113 108/216/113 102/206/113
f 110/218/112 107/215/112 108/216/112
f 107/215/111 110/220/111 106/214/111
f 102/206/113 100/205/113 109/219/113
o gaz2975_nomg_body.318
v -16.516050 18.744896 -5.321030
v -14.525742 18.651039 -4.706345
v -16.516048 18.744896 -4.706345
v -14.525745 18.651039 -5.321030
v -16.516050 15.835960 -5.321030
v -17.048386 18.835129 -5.013687
v -17.048393 18.744896 -5.628387
v -17.580738 18.744896 -5.321045
v -17.048393 15.835953 -5.628387
v -17.580738 15.835960 -5.321045
v -17.048386 15.745720 -5.013687
v -16.516048 15.835960 -4.706345
v -17.048393 15.835960 -4.398987
v -17.580738 15.835960 -4.706345
v -17.048393 18.744896 -4.398987
v -17.580738 18.744896 -4.706345
v -14.525745 15.929810 -5.321030
v -14.525742 15.929810 -4.706345
vn 0.0471 0.9989 -0.0000
vn 0.1671 0.9859 -0.0000
vn -0.0000 -0.0000 -1.0000
vn 0.1888 -0.0000 -0.9820
vn 0.5000 -0.0000 -0.8660
vn 0.0836 0.9859 -0.1447
vn -0.0000 0.9894 -0.1452
vn -0.0836 0.9859 -0.1447
vn -0.7561 -0.0000 -0.6545
vn -0.1887 -0.0000 -0.9820
vn -0.9448 -0.0000 -0.3276
vn -0.0836 -0.9859 -0.1447
vn -0.0000 -0.9894 -0.1452
vn 0.0836 -0.9859 -0.1447
vn 0.1671 -0.9859 -0.0000
vn 0.0836 -0.9859 0.1447
vn -0.0000 -0.9894 0.1452
vn -0.0836 -0.9859 0.1447
vn -0.1671 -0.9859 -0.0000
vn -0.7561 -0.0000 0.6545
vn -0.0002 -0.0000 1.0000
vn -0.1887 -0.0000 0.9820
vn -0.9448 -0.0000 0.3275
vn -0.1671 0.9859 -0.0000
vn -0.0836 0.9859 0.1447
vn -0.0000 0.9894 0.1452
vn 0.0836 0.9859 0.1447
vn 0.5000 -0.0000 0.8660
vn 0.0471 -0.9989 -0.0000
vn 1.0000 -0.0000 -0.0000
vt 0.190946 0.106160
vt 0.190861 0.107912
vt 0.185184 0.107644
vt 0.185269 0.105881
vt 0.144333 0.094682
vt 0.146098 0.094682
vt 0.145215 0.096212
vt 0.185184 0.115942
vt 0.183430 0.107644
vt 0.146979 0.096212
vt 0.146103 0.097743
vt 0.181677 0.107644
vt 0.183430 0.115942
vt 0.181677 0.115942
vt 0.212081 0.134497
vt 0.212957 0.136028
vt 0.211194 0.136027
vt 0.212077 0.137558
vt 0.210311 0.137558
vt 0.209431 0.136028
vt 0.210307 0.134497
vt 0.179923 0.115942
vt 0.178170 0.115942
vt 0.178170 0.107644
vt 0.179923 0.107644
vt 0.144329 0.097743
vt 0.143452 0.096212
vt 0.176416 0.107644
vt 0.176416 0.115942
vt 0.190861 0.115674
vt 0.190946 0.117426
vt 0.185269 0.117705
vt 0.192615 0.115674
vt 0.192615 0.107912
s 1
usemtl body
f 112/221/114 114/222/114 111/223/114
f 111/223/114 113/224/114 112/221/114
f 113/225/115 111/226/115 116/227/115
f 115/228/116 111/223/116 114/222/116
f 117/229/117 111/223/118 115/228/118
f 111/226/119 117/230/120 116/227/120
f 117/230/120 118/231/121 116/227/120
f 118/232/122 117/229/117 119/233/123
f 115/228/118 119/233/123 117/229/117
f 119/233/123 120/234/124 118/232/122
f 120/235/125 119/236/126 121/237/126
f 119/236/126 115/238/127 121/237/126
f 115/238/128 122/239/128 121/237/128
f 122/239/129 123/240/130 121/237/130
f 123/240/130 124/241/131 121/237/130
f 124/241/132 120/235/132 121/237/132
f 124/242/133 123/243/134 125/244/135
f 120/234/124 124/242/133 126/245/136
f 125/244/135 126/245/136 124/242/133
f 118/231/137 126/246/137 116/227/137
f 126/246/138 125/247/139 116/227/139
f 126/245/136 118/232/122 120/234/124
f 125/247/139 113/225/140 116/227/139
f 113/248/141 125/244/135 123/243/134
f 123/243/141 122/249/141 113/248/141
f 127/250/142 128/251/142 122/252/142
f 122/252/142 115/228/142 127/250/142
f 128/253/143 127/250/143 114/222/143
f 114/222/143 112/254/143 128/253/143
f 114/222/116 127/250/116 115/228/116
o gaz2975_nomg_body.332
v 5.817553 20.185631 -5.142731
v 8.254871 20.183395 -5.657753
v 5.817553 20.183395 -5.657753
v 8.254871 20.185631 -5.142731
v 5.817553 20.632774 -4.887138
v 5.741950 20.630547 -5.402191
v 5.817553 21.077690 -5.146599
v 5.817553 21.075455 -5.661613
v 5.817553 20.628311 -5.917206
v 8.254871 21.075455 -5.661613
v 8.254871 20.628311 -5.917206
v 8.330475 20.630547 -5.402176
v 8.254871 21.077690 -5.146599
v 8.254871 20.632774 -4.887138
vn -0.0000 -1.0000 0.0043
vn -0.0000 -0.7533 0.6577
vn -0.0000 -0.9434 0.3317
vn -0.9859 -0.1671 0.0007
vn -0.0000 -0.1845 0.9828
vn -0.9859 -0.0829 0.1451
vn -0.9859 0.0842 0.1444
vn -0.9859 0.1671 -0.0007
vn -0.9859 0.0829 -0.1451
vn -0.9859 -0.0842 -0.1444
vn -0.0000 0.7532 -0.6577
vn -0.0000 -0.1930 -0.9812
vn -0.0000 0.1845 -0.9828
vn -0.0000 0.9434 -0.3316
vn -0.0000 -0.5038 -0.8638
vn 0.9859 0.0829 -0.1451
vn 0.9894 0.1255 -0.0732
vn -0.0000 -0.5037 -0.8639
vn 0.9859 -0.0842 -0.1444
vn 0.9859 0.1671 -0.0007
vn 0.9859 0.0842 0.1444
vn 0.9859 -0.0829 0.1451
vn 0.9894 -0.1255 0.0732
vn 0.9859 -0.1671 0.0007
vn -0.0000 0.1930 0.9812
vn -0.0000 0.7589 0.6512
vn -0.0000 0.9462 0.3234
vt 0.154700 0.092090
vt 0.154700 0.093559
vt 0.147746 0.093559
vt 0.147746 0.092090
vt 0.223424 0.090004
vt 0.224698 0.090759
vt 0.223407 0.091484
vt 0.147746 0.095029
vt 0.224680 0.092238
vt 0.223390 0.092963
vt 0.222117 0.092209
vt 0.222134 0.090729
vt 0.154700 0.097968
vt 0.154700 0.099437
vt 0.147746 0.099437
vt 0.147746 0.097968
vt 0.147746 0.100907
vt 0.150376 0.103802
vt 0.149643 0.102516
vt 0.151123 0.102525
vt 0.154700 0.100907
vt 0.151855 0.103811
vt 0.150391 0.101238
vt 0.151871 0.101248
vt 0.152603 0.102534
vt 0.154700 0.095029
vt 0.147746 0.096498
vt 0.154700 0.096498
s 1
usemtl body
f 130/255/144 132/256/145 129/257/146
f 129/257/146 131/258/144 130/255/144
f 131/259/147 129/260/147 134/261/147
f 133/262/148 129/257/146 132/256/145
f 129/260/149 133/263/149 134/261/149
f 133/263/150 135/264/150 134/261/150
f 135/264/151 136/265/151 134/261/151
f 136/265/152 137/266/152 134/261/152
f 137/266/153 131/259/153 134/261/153
f 138/267/154 139/268/155 137/269/156
f 137/269/156 136/270/157 138/267/154
f 131/271/158 137/269/156 139/268/155
f 139/272/159 138/273/160 140/274/160
f 139/268/155 130/275/161 131/271/158
f 130/276/162 139/272/162 140/274/162
f 138/273/160 141/277/163 140/274/160
f 141/277/164 142/278/164 140/274/164
f 142/278/165 132/279/166 140/274/166
f 132/279/166 130/276/167 140/274/166
f 132/256/145 142/280/168 133/262/148
f 135/281/169 133/262/148 142/280/168
f 142/280/168 141/282/170 135/281/169
f 136/270/157 135/281/169 141/282/170
f 141/282/170 138/267/154 136/270/157
o gaz2975_nomg_body.317
v 7.748364 4.917297 -0.721809
v 9.909370 5.605309 -1.635971
v 10.169788 4.945068 -1.000145
v 7.718714 4.255501 -1.384247
v 7.713370 5.579327 -1.384430
v -7.772829 4.255497 -1.384262
v -7.802477 4.917294 -0.721794
v -9.963486 5.605305 -1.635979
v -7.767483 5.579323 -1.384430
v -10.223900 4.945065 -1.000137
v -10.793348 5.600040 -2.275078
v -9.967880 4.281471 -1.637451
v -11.397009 4.937630 -1.903587
v -10.776510 4.276344 -2.260193
v -11.569572 4.910271 -2.983192
v -10.925705 5.579060 -3.103065
v -10.262510 4.924545 -3.192474
v -10.172855 4.938759 -2.631699
v -10.906378 4.255756 -3.072617
v -9.707464 4.941708 -2.273293
v -7.737835 4.917530 -2.046883
v 7.683719 4.917534 -2.046883
v 9.913765 4.281475 -1.637444
v 9.653348 4.941711 -2.273285
v 10.118738 4.938763 -2.631691
v 10.722399 4.276348 -2.260185
v 11.342892 4.937634 -1.903580
v 11.515461 4.910275 -2.983200
v 10.852262 4.255760 -3.072624
v 10.208393 4.924549 -3.192467
v 10.739237 5.600044 -2.275070
v 10.871589 5.579063 -3.103058
vn 0.0728 0.7066 0.7039
vn 0.0722 0.7075 0.7030
vn 0.1142 -0.0000 0.9935
vn 0.0888 -0.7066 0.7020
vn -0.0000 -0.9486 0.3164
vn -0.0000 -0.9491 -0.3150
vn -0.0000 -0.3154 0.9489
vn -0.0000 0.3155 0.9489
vn -0.0000 0.9485 0.3167
vn -0.0728 0.7066 0.7039
vn -0.1142 -0.0000 0.9935
vn -0.0722 0.7075 0.7030
vn -0.0727 0.7067 0.7038
vn -0.0000 0.9491 -0.3149
vn -0.0888 -0.7067 0.7020
vn -0.4338 0.7079 0.5574
vn -0.6102 0.0013 0.7923
vn -0.6102 0.0010 0.7923
vn -0.0892 -0.7076 0.7010
vn -0.0888 -0.7067 0.7019
vn -0.4291 -0.7063 0.5630
vn -0.6878 -0.7145 0.1281
vn -0.6879 -0.7145 0.1281
vn -0.7085 0.6992 0.0955
vn 0.6878 0.7145 -0.1281
vn 0.6879 0.7145 -0.1281
vn 0.7085 -0.6992 -0.0955
vn 0.4291 0.7063 -0.5630
vn 0.4338 -0.7079 -0.5574
vn 0.0724 -0.7068 -0.7037
vn 0.0723 -0.7065 -0.7040
vn 0.0726 -0.7072 -0.7033
vn 0.0892 0.7069 -0.7017
vn 0.0894 0.7066 -0.7019
vn 0.0888 0.7073 -0.7013
vn 0.0887 0.7075 -0.7011
vn 0.0727 -0.7075 -0.7030
vn -0.0000 -0.7074 -0.7068
vn -0.0000 0.7075 -0.7068
vn -0.0000 0.7075 -0.7067
vn -0.0724 -0.7068 -0.7037
vn -0.0727 -0.7075 -0.7030
vn -0.0726 -0.7072 -0.7033
vn -0.0723 -0.7065 -0.7040
vn -0.0888 0.7073 -0.7013
vn -0.0894 0.7066 -0.7019
vn -0.0892 0.7069 -0.7017
vn -0.4338 -0.7079 -0.5574
vn -0.0887 0.7075 -0.7011
vn -0.4291 0.7063 -0.5630
vn 0.4291 -0.7063 0.5630
vn 0.6878 -0.7145 0.1281
vn -0.7085 -0.6992 -0.0955
vn -0.6878 0.7145 -0.1281
vn 0.7085 0.6992 0.0955
vn 0.4338 0.7079 0.5574
vn 0.6102 0.0010 0.7923
vn 0.6102 0.0013 0.7923
vn 0.0892 -0.7076 0.7010
vt 0.299998 0.992995
vt 0.305071 0.992772
vt 0.305149 0.994987
vt 0.300022 0.994980
vt 0.305067 0.997196
vt 0.340589 0.997196
vt 0.340508 0.994987
vt 0.345658 0.992995
vt 0.345634 0.994980
vt 0.340584 0.992772
vt 0.348112 0.992981
vt 0.348464 0.994982
vt 0.345666 0.996972
vt 0.348085 0.996995
vt 0.350622 0.995002
vt 0.349937 0.992359
vt 0.348800 0.990301
vt 0.347471 0.990865
vt 0.349888 0.997621
vt 0.348764 0.999668
vt 0.347445 0.999111
vt 0.345676 0.990886
vt 0.345678 0.999084
vt 0.340697 0.999354
vt 0.340689 0.990610
vt 0.304967 0.990610
vt 0.304960 0.999354
vt 0.299991 0.996972
vt 0.299979 0.999085
vt 0.299980 0.990887
vt 0.297572 0.996995
vt 0.298185 0.990865
vt 0.298212 0.999111
vt 0.297192 0.994983
vt 0.295035 0.995003
vt 0.295769 0.997621
vt 0.296893 0.999669
vt 0.297545 0.992981
vt 0.295719 0.992359
vt 0.296856 0.990302
s 1
usemtl body
f 144/283/171 147/284/172 143/285/172
f 143/285/173 145/286/173 144/283/171
f 145/286/173 143/285/173 146/287/174
f 148/288/175 146/287/176 143/285/177
f 149/289/178 143/285/177 147/284/179
f 143/285/177 149/289/178 148/288/175
f 150/290/180 152/291/181 149/289/181
f 149/289/182 151/292/182 150/290/183
f 147/284/179 151/292/184 149/289/178
f 148/288/185 149/289/181 152/291/181
f 153/293/186 155/294/187 152/291/188
f 152/291/186 150/290/186 153/293/186
f 152/291/189 154/295/189 148/288/190
f 154/295/191 152/291/188 155/294/187
f 155/294/191 156/296/191 154/295/191
f 156/296/192 155/294/193 157/297/192
f 158/298/194 157/297/194 155/294/194
f 155/294/194 153/293/194 158/298/194
f 159/299/195 158/298/196 153/293/195
f 153/293/195 160/300/195 159/299/195
f 161/301/197 159/302/197 160/303/197
f 157/297/192 161/301/192 156/296/192
f 160/303/197 156/296/197 161/301/197
f 150/290/198 162/304/198 160/300/198
f 160/300/198 153/293/198 150/290/198
f 156/296/199 160/303/199 162/305/199
f 162/305/199 154/295/199 156/296/199
f 154/295/200 162/305/201 163/306/202
f 151/292/203 163/307/204 162/304/205
f 162/304/205 150/290/206 151/292/203
f 163/306/202 148/288/207 154/295/200
f 146/287/176 148/288/175 163/306/208
f 164/308/209 163/307/210 151/292/184
f 163/306/208 164/309/208 146/287/176
f 165/310/211 146/287/212 164/309/213
f 164/309/213 166/311/214 165/310/211
f 166/312/215 164/308/216 147/284/217
f 151/292/184 147/284/179 164/308/209
f 168/313/218 165/310/218 166/311/218
f 147/284/217 144/283/219 166/312/215
f 167/314/220 166/312/220 144/283/220
f 166/311/218 167/315/218 168/313/218
f 165/310/221 168/313/221 169/316/221
f 170/317/222 169/316/222 168/313/222
f 171/318/223 168/313/223 167/315/223
f 168/313/222 171/318/222 170/317/222
f 167/315/223 172/319/223 171/318/223
f 173/320/224 174/321/224 172/322/224
f 172/322/224 167/314/224 173/320/224
f 169/316/225 170/317/225 174/321/225
f 174/321/225 173/320/225 169/316/225
f 173/320/226 144/283/226 145/286/226
f 145/286/227 169/316/228 173/320/226
f 144/283/220 173/320/220 167/314/220
f 169/316/228 145/286/227 165/310/221
f 146/287/174 165/310/229 145/286/229
o gaz2975_nomg_body.085
v 10.479660 -1.658882 -2.356926
v 11.838877 -1.581173 -2.926888
v 11.838877 -1.581173 -2.506531
v 10.479658 -1.658882 -2.777298
v 4.434664 -1.998241 -2.519234
v 4.434664 -1.998241 -2.098877
v 10.481499 -3.330929 -2.357208
v 11.838938 -3.392757 -2.506363
v 12.177927 -1.905186 -2.539215
v 12.178061 -3.065296 -2.539078
v 11.838938 -3.392757 -2.926727
v 10.481499 -3.330929 -2.777603
v 4.438670 -3.060661 -2.520981
v 4.438670 -3.060661 -2.100601
v 3.005191 -2.862343 -2.828812
v 3.000553 -2.211212 -2.826759
v 12.178061 -3.065296 -2.959442
v 12.177927 -1.905186 -2.959587
vn -0.0571 0.9984 -0.0000
vn -0.0566 0.9984 -0.0000
vn -0.0561 0.9984 -0.0000
vn 0.1066 -0.0000 0.9943
vn 0.1070 0.0001 0.9943
vn 0.0641 -0.0001 0.9979
vn -0.0560 0.9984 -0.0000
vn 0.0424 -0.0015 0.9991
vn 0.0427 -0.0001 0.9991
vn -0.0455 -0.9990 -0.0000
vn -0.0439 -0.9990 -0.0000
vn -0.0451 -0.9990 -0.0000
vn 0.0960 0.0001 0.9954
vn 0.0959 0.0001 0.9954
vn 0.6946 -0.7194 -0.0000
vn -0.0447 -0.9990 -0.0000
vn -0.1370 -0.9906 -0.0000
vn -0.4522 -0.0031 0.8919
vn -0.4536 -0.0060 0.8912
vn -0.0629 -0.0019 0.9980
vn -0.0631 -0.0019 0.9980
vn -0.4522 -0.0032 0.8919
vn -0.1469 0.9892 -0.0000
vn 1.0000 0.0001 -0.0000
vn 0.6909 0.7230 -0.0000
vt 0.901389 0.917417
vt 0.900911 0.920595
vt 0.899940 0.920506
vt 0.900404 0.917368
vt 0.896194 0.917000
vt 0.898743 0.934696
vt 0.897899 0.934365
vt 0.896070 0.920163
vt 0.895099 0.920073
vt 0.899718 0.916509
vt 0.897028 0.916273
vt 0.895607 0.916218
vt 0.895218 0.916866
vt 0.894625 0.934319
vt 0.895514 0.934148
vt 0.895543 0.937844
vt 0.897194 0.937998
vt 0.896435 0.915495
vt 0.897114 0.915299
vt 0.899802 0.915534
vt 0.900440 0.915849
vt 0.901122 0.916703
s 1
usemtl body
f 176/323/230 178/324/231 175/325/232
f 175/325/232 177/326/230 176/323/230
f 182/327/233 177/326/234 175/325/235
f 175/325/232 178/324/231 179/328/236
f 179/328/232 180/329/232 175/325/232
f 181/330/237 175/325/235 180/329/238
f 181/330/237 182/327/233 175/325/235
f 182/327/239 181/330/240 186/331/241
f 182/327/233 183/332/242 177/326/234
f 182/327/233 184/333/243 183/332/242
f 184/333/244 182/327/244 185/334/244
f 186/331/241 185/335/239 182/327/239
f 187/336/245 186/331/241 181/330/240
f 181/330/240 188/337/245 187/336/245
f 188/337/246 189/338/246 187/336/246
f 190/339/247 189/338/248 188/337/248
f 188/337/249 180/329/250 190/339/251
f 190/339/252 180/329/252 179/328/252
f 180/329/250 188/337/249 181/330/237
f 185/334/244 191/340/244 184/333/244
f 191/341/253 192/342/253 183/332/253
f 183/332/253 184/333/253 191/341/253
f 177/326/254 183/332/254 192/343/254
f 192/343/254 176/344/254 177/326/254
o gaz2975_nomg_body.319
v -16.516047 -18.464943 -5.321030
v -14.525736 -18.558804 -4.706345
v -16.516045 -18.464943 -4.706345
v -14.525738 -18.558804 -5.321030
v -16.516043 -21.373886 -5.321030
v -17.048382 -18.374714 -5.013687
v -17.048389 -18.464943 -5.628387
v -17.580738 -18.464943 -5.321045
v -17.048389 -21.373886 -5.628387
v -17.580734 -21.373886 -5.321045
v -17.048382 -21.464115 -5.013687
v -16.516041 -21.373886 -4.706345
v -17.048389 -21.373886 -4.398987
v -17.580734 -21.373886 -4.706345
v -17.048389 -18.464943 -4.398987
v -17.580738 -18.464943 -4.706345
v -14.525738 -21.280033 -5.321030
v -14.525736 -21.280033 -4.706345
vn 0.0471 0.9989 -0.0000
vn 0.1671 0.9859 -0.0000
vn -0.0000 -0.0000 -1.0000
vn 0.1888 -0.0000 -0.9820
vn 0.5000 -0.0000 -0.8660
vn 0.0835 0.9859 -0.1447
vn -0.0000 0.9894 -0.1452
vn -0.0835 0.9859 -0.1447
vn -0.7561 -0.0000 -0.6545
vn -0.1888 -0.0000 -0.9820
vn -0.9448 -0.0000 -0.3276
vn -0.0835 -0.9859 -0.1447
vn -0.0000 -0.9894 -0.1452
vn 0.0836 -0.9859 -0.1447
vn 0.1671 -0.9859 -0.0000
vn 0.0836 -0.9859 0.1447
vn -0.0000 -0.9894 0.1452
vn -0.0836 -0.9859 0.1447
vn -0.1671 -0.9859 -0.0000
vn -0.7561 -0.0000 0.6545
vn -0.0002 -0.0000 1.0000
vn -0.1887 -0.0000 0.9820
vn -0.9448 -0.0000 0.3275
vn -0.1671 0.9859 -0.0000
vn -0.0835 0.9859 0.1447
vn -0.0000 0.9894 0.1452
vn 0.0835 0.9859 0.1447
vn 0.5000 -0.0000 0.8660
vn 0.0471 -0.9989 -0.0000
vn 1.0000 -0.0000 -0.0000
vt 0.399986 0.174529
vt 0.399902 0.176281
vt 0.394224 0.176013
vt 0.394309 0.174250
vt 0.192641 0.117242
vt 0.194407 0.117242
vt 0.193524 0.118772
vt 0.394224 0.184311
vt 0.392471 0.176013
vt 0.195288 0.118772
vt 0.194411 0.120302
vt 0.390718 0.176013
vt 0.392471 0.184311
vt 0.390718 0.184311
vt 0.216536 0.094131
vt 0.217412 0.095661
vt 0.215649 0.095661
vt 0.216532 0.097192
vt 0.214766 0.097192
vt 0.213886 0.095661
vt 0.214762 0.094131
vt 0.388964 0.184311
vt 0.387210 0.184311
vt 0.387210 0.176013
vt 0.388964 0.176013
vt 0.192638 0.120302
vt 0.191761 0.118772
vt 0.385457 0.176013
vt 0.385457 0.184311
vt 0.399902 0.184044
vt 0.399986 0.185795
vt 0.394309 0.186074
vt 0.401656 0.184044
vt 0.401656 0.176281
s 1
usemtl body
f 194/345/255 196/346/255 193/347/255
f 193/347/255 195/348/255 194/345/255
f 195/349/256 193/350/256 198/351/256
f 197/352/257 193/347/257 196/346/257
f 199/353/258 193/347/259 197/352/259
f 193/350/260 199/354/261 198/351/261
f 199/354/261 200/355/262 198/351/261
f 200/356/263 199/353/258 201/357/264
f 197/352/259 201/357/264 199/353/258
f 201/357/264 202/358/265 200/356/263
f 202/359/266 201/360/267 203/361/267
f 201/360/267 197/362/268 203/361/267
f 197/362/269 204/363/269 203/361/269
f 204/363/270 205/364/271 203/361/271
f 205/364/271 206/365/272 203/361/271
f 206/365/273 202/359/273 203/361/273
f 206/366/274 205/367/275 207/368/276
f 202/358/265 206/366/274 208/369/277
f 207/368/276 208/369/277 206/366/274
f 200/355/278 208/370/278 198/351/278
f 208/370/279 207/371/280 198/351/280
f 208/369/277 200/356/263 202/358/265
f 207/371/280 195/349/281 198/351/280
f 195/372/282 207/368/276 205/367/275
f 205/367/282 204/373/282 195/372/282
f 209/374/283 210/375/283 204/376/283
f 204/376/283 197/352/283 209/374/283
f 210/377/284 209/374/284 196/346/284
f 196/346/284 194/378/284 210/377/284
f 196/346/257 209/374/257 197/352/257
