# Blender 4.3.2
# www.blender.org
mtllib door4_2.mtl
o gaz2975_nomg_body.081
v -2.594719 5.968281 18.030024
v -2.974915 7.887165 -14.537744
v -2.976589 7.886982 13.835299
v -3.358936 9.808182 18.030024
v -2.589230 5.940254 -17.232290
v -2.565861 4.154770 13.158842
v -2.566120 -4.092358 13.095163
v -2.564972 -4.143280 16.360765
v -2.562675 -11.223331 16.360777
v -2.564793 -25.195904 18.030020
v -2.286411 9.808182 18.030031
v -1.522217 5.968281 18.030031
v -1.492290 -25.195904 18.030027
v -1.491589 -25.195904 -4.214933
v -1.491344 -2.223248 -7.070381
v -1.491421 -1.067131 -5.559738
v -1.491558 1.191032 -5.114750
v -1.491695 3.449196 -5.559738
v -1.491756 4.659142 -7.070400
v -2.404232 1.190979 -5.114780
v -2.404366 3.449142 -5.559765
v -2.404015 -2.223297 -7.070408
v -2.404430 4.659088 -7.070427
v -2.404491 5.114574 -9.026073
v -1.491829 5.114620 -9.026047
v -1.516716 5.940254 -17.232290
v -1.491642 4.756989 -11.293859
v -1.491642 1.773037 -9.026031
v -2.404305 1.773022 -9.026059
v -2.404129 0.751041 -9.026047
v -2.404305 1.773022 -11.334181
v -1.491467 1.789650 -11.334170
v -1.491245 -2.153694 -11.415833
v -1.491356 0.804966 -11.334235
v -1.491268 -2.624897 -9.026004
v -1.491463 0.778019 -9.026021
v -2.404129 0.751041 -11.334171
v -2.403942 -2.624943 -9.026031
v -1.491184 -4.118755 -17.233603
v -2.563694 -4.118755 -17.233603
v -2.563763 -3.644901 -15.564303
v -2.564098 -25.195904 -4.214933
v -2.563549 4.143143 -15.563270
v -5.735374 4.143044 -15.563299
v -5.737686 4.154652 13.115965
v -5.735611 -3.867561 -1.306210
v -5.735600 -3.645004 -15.564336
v -5.735409 -11.223335 -10.883440
v -2.563583 -11.223328 -10.883354
v -5.734509 -11.223331 16.360750
v -5.735641 -4.092358 13.095156
v -5.735653 -4.143333 16.360750
v -1.941898 8.077000 13.835299
v -4.725323 22.084721 -14.539813
v -5.311119 25.041164 -17.235109
v -1.940182 8.077183 -14.537729
v -5.334126 25.121777 13.113550
v -6.383636 25.041164 -17.235109
v -6.406651 25.121777 13.113543
v -5.760056 21.894688 -14.539821
v -5.763081 21.895199 10.591936
v -4.728352 22.085217 10.591936
v -2.727295 12.019337 13.823481
v -3.762043 11.829315 13.823477
v -2.404095 -1.067181 -5.559769
vn -0.9928 -0.1200 -0.0001
vn -0.9946 -0.1036 -0.0009
vn -0.9809 -0.1947 0.0002
vn -0.9807 -0.1953 -0.0000
vn -0.9808 -0.1952 0.0001
vn -0.0000 -0.0000 1.0000
vn -0.9999 -0.0113 -0.0015
vn -1.0000 -0.0013 -0.0032
vn -1.0000 -0.0030 0.0003
vn -1.0000 -0.0010 -0.0093
vn -1.0000 -0.0000 -0.0009
vn -1.0000 0.0001 -0.0007
vn 1.0000 -0.0000 -0.0000
vn 1.0000 0.0004 0.0005
vn -0.0000 -0.8584 -0.5131
vn -0.0000 -1.0000 -0.0000
vn 1.0000 -0.0000 0.0001
vn 1.0000 0.0001 0.0001
vn 1.0000 0.0009 0.0012
vn 0.9998 0.0219 0.0006
vn 0.0001 -0.3868 -0.9222
vn -0.0000 0.0656 -0.9978
vn 0.0001 -0.0656 -0.9978
vn 1.0000 0.0029 0.0011
vn 0.0001 -0.8659 -0.5002
vn -0.0000 -0.5952 -0.8036
vn 1.0000 0.0001 -0.0000
vn 0.0001 -0.9312 -0.3644
vn 0.0001 -0.9739 -0.2268
vn 0.9998 0.0191 0.0001
vn 0.9920 0.1265 -0.0006
vn 1.0000 0.0011 -0.0030
vn -0.0000 -0.3274 0.9449
vn -0.0000 -0.5705 0.8213
vn 1.0000 0.0002 0.0001
vn 1.0000 0.0002 -0.0000
vn 0.0182 -0.9998 -0.0000
vn 0.0167 -0.9196 0.3925
vn 0.0167 -0.9197 0.3923
vn -0.0000 -1.0000 -0.0072
vn 1.0000 0.0001 -0.0002
vn 1.0000 0.0005 -0.0006
vn -0.0000 -0.0001 1.0000
vn -0.0165 0.5584 0.8294
vn -0.0295 0.9995 0.0117
vn 0.0001 -0.0000 1.0000
vn -0.0543 0.9130 0.4044
vn -0.0539 0.9130 0.4044
vn -0.0590 0.9983 -0.0000
vn -0.0000 0.9404 -0.3400
vn -0.0000 0.5495 0.8355
vn -0.0001 0.8354 0.5496
vn -0.0000 0.8779 -0.4788
vn 1.0000 0.0012 -0.0004
vn -0.0000 0.0001 -1.0000
vn -0.0000 -0.0000 -1.0000
vn -0.0000 -0.5255 -0.8508
vn -1.0000 -0.0002 0.0009
vn -1.0000 -0.0000 -0.0000
vn -1.0000 -0.0015 0.0076
vn -1.0000 0.0001 -0.0000
vn -0.0000 -0.8584 -0.5130
vn -0.9999 -0.0025 0.0127
vn -1.0000 -0.0015 0.0075
vn -0.0000 1.0000 -0.0004
vn -0.8820 0.4712 -0.0004
vn -0.9676 0.2523 -0.0002
vn -1.0000 -0.0001 -0.0000
vn -0.8716 -0.4903 -0.0000
vn -1.0000 -0.0001 -0.0002
vn -0.9665 -0.2567 -0.0000
vn -1.0000 -0.0002 -0.0000
vn -0.0004 0.2239 0.9746
vn -0.0000 0.6727 0.7399
vn -0.0000 0.9999 0.0156
vn -0.0067 -0.0051 1.0000
vn -0.0135 -0.0025 0.9999
vn -0.0067 -0.0052 1.0000
vn -0.0000 -0.0077 1.0000
vn 0.9809 0.1946 -0.0002
vn 0.9808 0.1952 -0.0000
vn 0.9809 0.1947 0.0004
vn -0.0000 -0.0001 -1.0000
vn -0.0000 0.0001 1.0000
vn -0.1806 0.9836 -0.0000
vn 0.9807 0.1953 0.0003
vn -0.0000 1.0000 -0.0027
vn -0.9807 -0.1953 -0.0003
vn -0.9809 -0.1947 -0.0004
vn -0.9809 -0.1948 -0.0003
vn -0.9807 -0.1953 -0.0004
vn 0.1806 -0.9836 -0.0000
vn 0.0543 -0.2954 -0.9538
vn 0.9808 0.1952 -0.0001
vn 0.9807 0.1954 0.0003
vn 0.0005 -0.0029 -1.0000
vn -0.0000 0.3057 0.9521
vn -0.0000 0.3899 -0.9209
vn -0.0000 0.6042 -0.7969
vt 0.415108 0.723798
vt 0.498075 0.723864
vt 0.421448 0.728467
vt 0.488206 0.728467
vt 0.498076 0.733077
vt 0.231703 0.620680
vt 0.231703 0.623498
vt 0.221612 0.623498
vt 0.486613 0.719597
vt 0.486463 0.700193
vt 0.494147 0.700073
vt 0.494147 0.683414
vt 0.498074 0.650539
vt 0.139723 0.623498
vt 0.139723 0.620680
vt 0.221612 0.620680
vt 0.879122 0.484503
vt 0.806573 0.418089
vt 0.870875 0.418096
vt 0.196816 0.627699
vt 0.138367 0.627697
vt 0.138367 0.624879
vt 0.874755 0.487844
vt 0.873467 0.494372
vt 0.874753 0.500899
vt 0.806563 0.508179
vt 0.968992 0.206001
vt 0.968992 0.199953
vt 0.971391 0.199953
vt 0.879120 0.504397
vt 0.968992 0.211087
vt 0.971391 0.206001
vt 0.986021 0.138698
vt 0.986024 0.156782
vt 0.982054 0.153603
vt 0.980884 0.147670
vt 0.971391 0.211087
vt 0.991163 0.157978
vt 0.971391 0.216364
vt 0.968992 0.216364
vt 0.884772 0.505714
vt 0.908493 0.508100
vt 0.891327 0.504682
vt 0.884773 0.496055
vt 0.971391 0.159986
vt 0.968992 0.159986
vt 0.968992 0.151205
vt 0.971391 0.151205
vt 0.991161 0.146512
vt 0.991162 0.149198
vt 0.919507 0.010880
vt 0.913442 0.010882
vt 0.913441 0.008196
vt 0.971391 0.166051
vt 0.968992 0.166051
vt 0.891445 0.496104
vt 0.891683 0.484705
vt 0.891446 0.493258
vt 0.968992 0.168688
vt 0.884775 0.483342
vt 0.884773 0.493179
vt 0.971391 0.174753
vt 0.968992 0.174753
vt 0.971391 0.168688
vt 0.919506 0.008195
vt 0.968992 0.183660
vt 0.968992 0.188906
vt 0.971391 0.183660
vt 0.971391 0.188906
vt 0.991160 0.137642
vt 0.908501 0.479027
vt 0.139315 0.619298
vt 0.139315 0.616480
vt 0.165747 0.616480
vt 0.261910 0.624882
vt 0.261910 0.627700
vt 0.165747 0.619298
vt 0.415105 0.700130
vt 0.419033 0.701245
vt 0.419035 0.719569
vt 0.445736 0.650538
vt 0.196816 0.624881
vt 0.725445 0.592390
vt 0.786376 0.592384
vt 0.786377 0.599118
vt 0.793107 0.599119
vt 0.793107 0.615641
vt 0.725535 0.599114
vt 0.756134 0.616121
vt 0.786380 0.615643
vt 0.776452 0.631723
vt 0.782178 0.635257
vt 0.792105 0.619179
vt 0.776452 0.638453
vt 0.718656 0.638455
vt 0.430046 0.683414
vt 0.718656 0.631728
vt 0.718654 0.616710
vt 0.725582 0.616602
vt 0.638034 0.892995
vt 0.638033 0.886738
vt 0.652007 0.886740
vt 0.652007 0.893000
vt 0.631589 0.892995
vt 0.631588 0.886740
vt 0.615311 0.892997
vt 0.615312 0.886736
vt 0.900704 0.514397
vt 0.818687 0.514394
vt 0.900708 0.555680
vt 0.908499 0.564393
vt 0.215940 0.619298
vt 0.276076 0.615368
vt 0.276102 0.612603
vt 0.238571 0.612693
vt 0.350649 0.613074
vt 0.820772 0.564630
vt 0.295688 0.619298
vt 0.215940 0.616480
vt 0.295688 0.616480
vt 0.486508 0.769814
vt 0.415101 0.769618
vt 0.421443 0.762071
vt 0.480575 0.762073
vt 0.172512 0.612690
vt 0.172538 0.615454
vt 0.238553 0.615457
vt 0.144225 0.612819
vt 0.818721 0.526013
vt 0.828061 0.555680
vt 0.144283 0.615582
vt 0.133659 0.612902
vt 0.806562 0.519495
vt 0.488178 0.737926
vt 0.133723 0.615665
vt 0.273965 0.620680
vt 0.273965 0.623498
vt 0.350633 0.615839
vt 0.971391 0.193905
vt 0.968992 0.193905
vt 0.982052 0.141736
s 1
usemtl body
f 5/1/1 1/2/2 2/3/3
f 1/2/2 3/4/4 2/3/3
f 1/2/2 4/5/5 3/4/4
f 11/6/6 4/7/6 1/8/6
f 6/9/7 1/2/2 5/1/1
f 1/2/2 6/9/7 7/10/8
f 7/10/8 8/11/9 1/2/2
f 1/2/10 8/11/9 9/12/11
f 9/12/11 10/13/12 1/2/10
f 1/8/6 10/14/6 13/15/6
f 1/8/6 12/16/6 11/6/6
f 13/15/6 12/16/6 1/8/6
f 15/17/13 13/18/14 14/19/13
f 14/20/15 13/21/16 10/22/16
f 13/18/14 15/17/13 16/23/17
f 13/18/14 16/23/17 17/24/18
f 13/18/14 17/24/18 18/25/19
f 13/18/14 18/25/19 12/26/20
f 18/27/21 17/28/22 20/29/23
f 12/26/20 18/25/19 19/30/24
f 19/31/25 18/27/21 21/32/26
f 20/29/23 21/32/26 18/27/21
f 22/33/27 23/34/27 21/35/27
f 22/33/27 21/35/27 20/36/27
f 21/32/26 23/37/28 19/31/25
f 24/38/27 23/34/27 22/33/27
f 23/37/28 24/39/29 25/40/29
f 25/40/29 19/31/25 23/37/28
f 25/41/30 26/42/31 12/26/20
f 12/26/20 19/30/24 25/41/30
f 26/42/31 25/41/30 27/43/32
f 27/43/32 25/41/30 28/44/18
f 29/45/33 28/46/34 25/47/6
f 25/47/6 24/48/6 29/45/33
f 30/49/35 29/50/27 22/33/27
f 29/50/27 24/38/27 22/33/27
f 31/51/36 29/52/27 30/53/35
f 29/45/37 31/54/38 32/55/39
f 32/55/40 28/46/34 29/45/33
f 28/44/18 32/56/41 27/43/32
f 33/57/42 27/43/32 32/56/41
f 34/58/27 33/57/42 32/56/41
f 34/59/43 32/55/39 31/54/38
f 35/60/13 33/57/42 34/58/27
f 34/58/27 36/61/27 35/60/13
f 30/62/44 36/63/44 34/59/45
f 31/54/46 37/64/47 34/59/48
f 34/59/48 37/64/47 30/62/49
f 30/53/35 37/65/36 31/51/36
f 35/66/6 36/63/44 30/62/44
f 14/19/13 35/60/13 15/17/13
f 14/19/13 33/57/42 35/60/13
f 15/67/50 35/66/51 38/68/52
f 30/62/6 38/68/52 35/66/51
f 38/68/52 22/69/53 15/67/50
f 38/70/27 30/49/35 22/33/27
f 33/57/42 26/42/31 27/43/32
f 33/57/42 39/71/54 26/42/31
f 39/71/54 33/57/42 14/19/13
f 39/72/55 40/73/55 5/74/56
f 40/75/57 39/76/57 14/20/15
f 5/74/56 26/77/56 39/72/55
f 40/78/58 41/79/59 43/80/60
f 41/79/59 40/78/58 42/81/61
f 14/20/15 42/82/62 40/75/57
f 43/80/60 5/1/63 40/78/58
f 5/1/1 43/80/64 6/9/7
f 6/83/65 43/84/65 44/85/66
f 44/85/55 43/86/55 41/87/55
f 44/85/66 45/88/67 6/83/65
f 45/88/67 44/85/66 46/89/68
f 44/85/66 47/90/59 46/89/68
f 41/87/55 47/90/55 44/85/55
f 46/89/68 47/90/59 48/91/69
f 49/92/57 48/91/57 47/90/57
f 47/90/57 41/93/57 49/92/57
f 48/91/69 49/94/16 9/95/16
f 9/12/11 49/96/70 42/81/61
f 42/81/61 49/96/70 41/79/59
f 46/89/68 48/91/69 50/97/71
f 9/95/16 50/97/71 48/91/69
f 52/98/72 51/99/72 50/97/71
f 51/99/72 46/89/68 50/97/71
f 8/100/73 52/101/74 50/102/6
f 50/102/6 9/103/6 8/100/73
f 7/104/75 51/105/75 52/101/74
f 52/101/74 8/100/73 7/104/75
f 51/99/72 45/88/67 46/89/68
f 6/106/76 45/107/77 51/105/78
f 51/105/78 7/104/79 6/106/76
f 42/81/61 10/13/12 9/12/11
f 10/22/16 42/82/62 14/20/15
f 56/108/80 53/109/81 26/42/31
f 53/109/81 12/26/20 26/42/31
f 54/110/82 56/108/80 26/42/31
f 26/42/31 55/111/82 54/110/82
f 55/112/83 26/77/56 5/74/56
f 2/113/84 56/114/84 54/115/84
f 53/116/85 56/114/85 2/113/85
f 54/110/82 55/111/82 57/117/86
f 57/118/87 55/112/87 58/119/87
f 5/74/56 58/119/83 55/112/83
f 58/119/87 59/120/87 57/118/87
f 59/121/88 58/122/89 60/123/90
f 58/122/89 5/1/1 60/123/90
f 59/121/88 60/123/90 61/124/91
f 62/125/92 61/126/92 60/127/92
f 5/1/1 2/3/3 60/123/90
f 54/115/84 60/127/84 2/113/84
f 60/127/92 54/115/92 62/125/92
f 61/126/93 62/125/93 63/128/93
f 63/129/94 62/130/95 57/117/86
f 62/130/95 54/110/82 57/117/86
f 64/131/96 63/128/96 53/132/96
f 63/129/94 11/133/94 53/109/81
f 63/129/94 57/117/86 11/133/94
f 63/128/93 64/131/93 61/126/93
f 64/134/5 4/5/5 59/121/88
f 64/134/5 3/4/4 4/5/5
f 53/132/96 3/135/96 64/131/96
f 64/134/5 59/121/88 61/124/91
f 57/136/97 59/137/97 4/7/97
f 4/7/97 11/6/97 57/136/97
f 53/109/81 11/133/94 12/26/20
f 2/113/85 3/138/85 53/116/85
f 22/69/53 65/139/98 16/140/99
f 22/33/27 20/36/27 65/141/27
f 16/140/99 15/67/50 22/69/53
f 65/139/98 20/29/23 17/28/22
f 17/28/22 16/140/99 65/139/98
o gaz2975_nomg_body.295
v -1.491455 0.828503 -5.351665
v -1.491474 1.739891 -11.228244
v -1.491455 0.858070 -11.228233
v -1.491634 1.696224 -5.351677
v -2.404297 1.696209 -5.351707
v -2.404121 0.828487 -5.351692
v -2.404129 0.858051 -11.228259
v -2.404305 1.725773 -11.228271
vn 1.0000 -0.0000 -0.0000
vn 1.0000 0.0002 -0.0000
vn -0.0000 -0.9969 -0.0788
vn 0.0001 -0.9603 0.2788
vn -0.0000 -0.9977 0.0684
vn -0.0001 0.9886 0.1507
vn -0.0006 0.9577 0.2877
vn -0.0004 -0.9885 -0.1509
vn -0.0000 -0.0000 -1.0000
vn -0.0000 1.0000 0.0050
vn -0.0155 0.9999 0.0074
vt 0.957862 0.002977
vt 0.942421 0.002866
vt 0.942421 0.000586
vt 0.957862 0.000660
vt 0.937903 0.321379
vt 0.937903 0.336811
vt 0.935503 0.336811
vt 0.937902 0.339089
vt 0.935503 0.339089
vt 0.935503 0.321379
vt 0.935502 0.319101
vt 0.935503 0.354522
vt 0.937903 0.354522
vt 0.937903 0.319064
s 1
usemtl body
f 67/142/100 69/143/101 66/144/101
f 66/144/101 68/145/100 67/142/100
f 68/146/102 66/147/103 71/148/104
f 66/147/103 69/149/105 70/150/106
f 70/150/106 71/148/104 66/147/103
f 71/148/104 72/151/107 68/146/102
f 68/146/102 72/151/107 73/152/108
f 73/153/109 70/150/106 69/149/105
f 69/149/110 67/154/110 73/153/109
f 73/152/108 67/155/108 68/146/108
o gaz2975_nomg_body.298
v -6.465088 -0.409573 -3.322544
v -5.738934 0.439880 -1.884428
v -5.736877 -0.211250 -1.889061
v -6.466808 0.652847 -3.318537
v -5.638966 -0.741669 -10.722808
v -6.059334 -0.741669 -10.722806
v -6.044720 -0.409573 -3.322544
v -6.026619 -0.414211 -11.061930
v -6.059162 1.069920 -10.722749
v -6.026482 0.745907 -11.061798
v -5.606239 -0.414211 -11.061932
v -5.606106 0.745907 -11.061796
v -5.638794 1.069920 -10.722749
v -6.046432 0.652847 -3.318537
vn -0.8912 -0.0060 0.4535
vn -0.8919 -0.0032 0.4522
vn -0.8912 -0.0060 0.4536
vn -0.0000 -0.9906 0.1370
vn -0.9985 -0.0014 -0.0547
vn -0.9985 -0.0012 -0.0547
vn -0.9985 -0.0006 -0.0548
vn -0.0000 -0.9990 0.0448
vn -0.0000 -0.7194 -0.6946
vn -0.9954 0.0001 -0.0960
vn -0.9954 0.0001 -0.0959
vn -0.9985 0.0001 -0.0550
vn -0.0000 0.0001 -1.0000
vn -0.0000 0.7230 -0.6909
vn -0.0000 0.9984 0.0562
vn -0.0000 0.9892 0.1469
vt 0.463502 0.982601
vt 0.467016 0.982281
vt 0.467025 0.984312
vt 0.463511 0.984029
vt 0.466843 0.985053
vt 0.483404 0.984874
vt 0.483754 0.985507
vt 0.484066 0.984301
vt 0.484066 0.982104
vt 0.483404 0.981539
vt 0.484826 0.984556
vt 0.484826 0.981848
vt 0.483748 0.980905
vt 0.466825 0.981542
s 1
usemtl body
f 75/156/111 77/157/112 74/158/111
f 74/158/113 76/159/113 75/156/113
f 74/158/114 80/160/114 76/159/114
f 74/158/115 77/157/116 79/161/117
f 78/162/118 80/160/118 74/158/118
f 74/158/118 79/161/118 78/162/118
f 78/162/119 79/161/119 81/163/119
f 83/164/120 81/163/121 79/161/121
f 77/157/116 82/165/122 79/161/117
f 82/165/120 83/164/120 79/161/121
f 84/166/123 81/163/123 83/164/123
f 83/164/123 85/167/123 84/166/123
f 85/167/124 83/164/124 82/165/124
f 82/165/124 86/168/124 85/167/124
f 77/157/125 87/169/125 86/168/125
f 86/168/125 82/165/125 77/157/125
f 77/157/126 75/156/126 87/169/126
f 81/163/119 84/166/119 78/162/119
o gaz2975_nomg_body.303
v -6.350708 -0.697208 10.143167
v -5.511978 -1.236290 10.864866
v -6.308323 -1.285553 10.869993
v -5.553055 -0.647869 10.138029
v -7.150326 -1.074467 9.886080
v -6.212757 -1.469490 9.510668
v -6.168789 -2.057083 10.237993
v -5.511967 -1.373562 9.548216
v -6.446674 -2.586666 9.832201
v -6.485039 -1.988907 9.112684
v -7.420322 -1.925663 9.217909
v -6.483852 -4.301331 6.940083
v -6.447769 -5.029911 7.533567
v -6.448006 -5.867619 6.275778
v -7.383148 -5.058014 7.556467
v -7.383392 -5.896805 6.296154
v -7.485275 -5.193150 2.764389
v -7.418991 -4.979748 5.985723
v -7.455257 -6.128254 2.802361
v -6.519882 -6.099079 2.781322
v -7.682766 -5.284592 -7.947659
v -7.653481 -6.220181 -7.963720
v -7.415596 -5.199726 -10.275133
v -7.379356 -6.133297 -10.345461
v -6.717125 -6.190731 -7.916267
v -6.549892 -5.163979 2.743353
v -6.746403 -5.255146 -7.900206
v -6.345226 -6.065884 -10.460161
v -6.410542 -5.138336 -10.352093
v -5.507030 -5.762394 -11.610966
v -6.530766 -5.957256 -11.447325
v -5.337139 -5.889256 -10.699228
v -5.485878 -4.978092 -10.544732
v -6.625153 -5.035744 -11.301516
v -5.655769 -4.851231 -11.456463
v -6.483597 -4.950565 5.965342
v -7.419224 -4.329433 6.962975
v -7.381958 -2.523422 9.937426
v -7.104782 -1.661312 10.613935
v -5.470886 -1.961987 10.275034
vn -0.0439 0.7753 0.6301
vn -0.4936 0.6617 0.5644
vn -0.0469 0.6264 -0.7781
vn -0.0450 0.6281 -0.7768
vn -0.0441 0.6284 -0.7766
vn -0.0468 0.6262 -0.7782
vn 0.9219 -0.2723 -0.2756
vn 0.9218 -0.2724 -0.2758
vn 0.9219 -0.2724 -0.2756
vn 0.1380 -0.7661 -0.6277
vn 0.1385 -0.7663 -0.6274
vn 0.1382 -0.7662 -0.6276
vn -0.0444 0.6286 -0.7765
vn 0.9220 -0.2723 -0.2754
vn -0.0474 0.6247 -0.7794
vn 0.9992 0.0277 -0.0297
vn 0.9992 0.0279 -0.0301
vn 0.9992 0.0284 -0.0272
vn -0.0453 0.6257 -0.7788
vn -0.0382 0.6837 -0.7288
vn -0.0357 0.6843 -0.7283
vn -0.0363 0.6841 -0.7284
vn 0.9993 0.0293 -0.0246
vn 0.9993 0.0315 -0.0219
vn 0.0382 -0.8318 0.5538
vn 0.0380 -0.8317 0.5539
vn 0.0384 -0.8318 0.5537
vn 0.0379 -0.6846 0.7279
vn 0.0384 -0.6847 0.7278
vn 0.0377 -0.6846 0.7279
vn 0.0385 -0.8319 0.5536
vn -0.9993 -0.0312 0.0226
vn -0.4179 -0.9059 0.0687
vn -0.6837 -0.7271 0.0623
vn -0.9993 -0.0314 0.0218
vn -0.9993 -0.0315 0.0219
vn -0.9993 -0.0311 0.0226
vn -0.9993 -0.0287 0.0254
vn 0.0326 -0.9973 0.0654
vn -0.9993 -0.0313 0.0187
vn -0.7286 0.6849 0.0076
vn -0.7289 0.6846 0.0076
vn 0.0313 -0.9995 0.0080
vn -0.6844 -0.7289 0.0188
vn -0.4202 -0.9073 0.0155
vn -0.9993 -0.0316 0.0187
vn -0.9928 -0.0310 -0.1158
vn -0.9929 -0.0291 -0.1150
vn -0.9929 -0.0297 -0.1153
vn -0.9929 -0.0299 -0.1154
vn 0.0606 -0.9974 -0.0401
vn 0.0331 -0.9989 -0.0326
vn 0.0310 -0.9995 0.0080
vn 0.9993 0.0316 -0.0187
vn 0.6841 0.7291 -0.0188
vn 0.6844 0.7289 -0.0189
vn 0.9993 0.0312 -0.0207
vn 0.9993 0.0313 -0.0196
vn 0.9993 0.0313 -0.0187
vn 0.9890 0.0536 0.1380
vn 0.9889 0.0284 0.1460
vn 0.2454 -0.0951 0.9647
vn 0.0515 -0.9916 -0.1188
vn 0.1332 -0.9779 -0.1609
vn 0.1638 -0.9768 -0.1383
vn 0.2234 -0.1274 0.9664
vn -0.1589 0.9734 0.1650
vn -0.1412 0.9803 0.1378
vn -0.1589 0.9734 0.1651
vn -0.1815 0.1355 -0.9740
vn -0.7934 0.0150 -0.6086
vn -0.7933 0.0150 -0.6086
vn -0.0515 0.9916 0.1188
vn -0.0587 0.9978 0.0297
vn -0.0336 0.9985 0.0430
vn -0.0587 0.9978 0.0296
vn -0.0310 0.9995 -0.0080
vn -0.0314 0.9995 -0.0080
vn 0.9992 0.0309 -0.0233
vn -0.0326 0.9973 -0.0654
vn -0.0383 0.8318 -0.5538
vn -0.0385 0.8317 -0.5539
vn -0.0382 0.8318 -0.5538
vn -0.0380 0.8319 -0.5536
vn -0.9992 -0.0286 0.0268
vn -0.9992 -0.0280 0.0295
vn -0.9992 -0.0283 0.0297
vn -0.0384 0.6837 -0.7288
vn -0.9687 0.1618 0.1883
vn -0.9684 0.1640 0.1878
vn -0.9688 0.1612 0.1884
vn 0.0461 -0.6265 0.7780
vn 0.0473 -0.6269 0.7776
vn 0.0471 -0.6248 0.7794
vn 0.0357 -0.6842 0.7284
vn 0.0458 -0.6226 0.7812
vn -0.9690 0.1591 0.1889
vn 0.0452 -0.6282 0.7767
vn 0.1377 -0.7660 -0.6279
vn 0.0442 -0.6284 0.7766
vn 0.0439 -0.6286 0.7765
vt 0.355261 0.974872
vt 0.354493 0.972164
vt 0.353037 0.972923
vt 0.353615 0.974977
vt 0.351398 0.973532
vt 0.351149 0.971256
vt 0.350348 0.969170
vt 0.348793 0.969563
vt 0.352751 0.970386
vt 0.349087 0.971710
vt 0.341278 0.970763
vt 0.349201 0.973885
vt 0.341436 0.972918
vt 0.338277 0.970860
vt 0.338775 0.977791
vt 0.338931 0.979986
vt 0.342451 0.979541
vt 0.342016 0.977345
vt 0.350511 0.978061
vt 0.330798 0.975789
vt 0.330768 0.977939
vt 0.338600 0.975475
vt 0.305687 0.975874
vt 0.330734 0.980147
vt 0.305645 0.978138
vt 0.300466 0.975773
vt 0.300376 0.977796
vt 0.305477 0.980338
vt 0.305512 0.971423
vt 0.305552 0.973626
vt 0.330675 0.973725
vt 0.330523 0.971607
vt 0.299603 0.971436
vt 0.298892 0.979673
vt 0.299337 0.973688
vt 0.297329 0.970958
vt 0.297552 0.977634
vt 0.295369 0.977783
vt 0.296130 0.980202
vt 0.296937 0.972987
vt 0.297771 0.975601
vt 0.295728 0.975040
vt 0.338431 0.973135
vt 0.341614 0.975120
vt 0.349776 0.976025
vt 0.351888 0.975291
vt 0.352860 0.977349
vt 0.351796 0.968477
vt 0.354771 0.977355
s 1
usemtl body
f 89/170/127 91/171/127 88/172/127
f 88/172/127 90/173/127 89/170/127
f 90/173/128 88/172/128 92/174/128
f 93/175/129 88/172/130 91/171/131
f 88/172/130 93/175/129 92/174/132
f 93/175/133 94/176/134 96/177/135
f 94/176/136 93/175/137 95/178/138
f 91/171/131 95/178/139 93/175/129
f 96/177/135 97/179/140 93/175/133
f 92/174/132 93/175/129 97/179/141
f 97/179/142 96/177/143 100/180/144
f 97/179/141 98/181/145 92/174/132
f 98/181/146 97/179/147 99/182/148
f 100/180/144 99/182/149 97/179/142
f 99/182/149 100/180/144 101/183/150
f 103/184/151 101/185/152 100/186/153
f 102/187/154 100/186/155 96/188/156
f 100/186/153 102/187/157 103/184/151
f 104/189/158 106/190/159 103/184/160
f 103/184/161 105/191/162 104/189/163
f 105/191/162 103/184/161 102/187/164
f 101/185/165 103/184/160 106/190/159
f 106/190/166 104/189/167 108/192/168
f 106/190/159 107/193/165 101/185/165
f 107/193/169 106/190/170 109/194/171
f 108/192/172 109/194/171 106/190/170
f 109/194/173 108/192/174 110/195/175
f 110/195/175 111/196/176 109/194/173
f 112/197/177 109/194/178 111/196/177
f 109/194/171 112/197/179 107/193/169
f 112/198/180 114/199/181 113/200/182
f 113/200/183 107/201/184 112/198/185
f 114/199/186 112/198/187 115/202/186
f 111/196/177 115/203/177 112/197/177
f 115/202/186 116/204/186 114/199/186
f 116/204/188 115/202/188 119/205/188
f 115/203/189 111/196/189 118/206/189
f 117/207/190 119/208/190 115/203/190
f 115/203/191 118/206/191 117/207/191
f 119/205/192 120/209/192 116/204/192
f 121/210/193 116/204/194 120/209/193
f 120/209/193 122/211/195 121/210/193
f 118/206/196 121/210/196 122/211/196
f 122/211/196 117/207/196 118/206/196
f 111/196/197 110/195/197 121/210/198
f 121/210/198 118/206/198 111/196/197
f 110/195/199 116/204/199 121/210/199
f 108/192/200 114/199/201 116/204/202
f 116/204/202 110/195/202 108/192/200
f 114/199/203 108/192/168 104/189/167
f 104/189/204 113/200/182 114/199/181
f 107/201/184 113/200/183 123/212/205
f 105/191/206 123/212/206 113/200/206
f 113/200/206 104/189/206 105/191/206
f 123/212/205 101/183/150 107/201/184
f 101/183/150 123/212/205 99/182/149
f 124/213/207 99/182/208 123/212/209
f 123/212/209 105/191/210 124/213/207
f 124/213/211 102/187/164 125/214/212
f 102/187/164 124/213/211 105/191/162
f 125/214/212 98/181/213 124/213/211
f 99/182/148 124/213/214 98/181/146
f 98/181/215 125/214/216 126/215/217
f 94/216/218 126/215/219 125/214/220
f 96/188/156 125/214/221 102/187/154
f 125/214/220 96/188/222 94/216/218
f 126/215/217 92/174/223 98/181/215
f 92/174/128 126/215/128 90/173/128
f 94/216/218 90/173/224 126/215/219
f 95/178/138 127/217/225 94/176/136
f 90/173/224 94/216/218 127/218/226
f 127/218/226 89/170/227 90/173/224
o gaz2975_nomg_body.294
v -6.524467 -17.765696 13.708490
v -2.197598 -12.422806 15.084139
v -2.197594 -17.759474 15.084143
v -6.522503 -12.422806 13.708487
v -5.443180 -19.082407 13.708498
v -6.523758 -17.765694 -0.140816
v -2.197598 -17.759474 -1.516451
v -6.523151 -12.422806 -0.140812
v -5.442474 -19.082407 -0.140816
v -2.437008 -19.404154 -0.140814
v -2.437714 -19.404156 13.708498
v -2.197601 -12.422806 -1.516451
vn -0.3031 0.0001 0.9530
vn -0.3032 0.0002 0.9529
vn -0.3030 -0.0000 0.9530
vn -0.3033 0.0003 0.9529
vn -0.2937 -0.2412 0.9250
vn -1.0000 0.0002 -0.0000
vn -1.0000 0.0004 -0.0001
vn -0.9269 0.3752 -0.0000
vn -0.4964 -0.8681 -0.0000
vn -0.7728 -0.6346 -0.0000
vn -0.2938 -0.2412 -0.9249
vn -0.3030 -0.0000 -0.9530
vn -0.7770 0.6295 -0.0000
vn -0.3723 -0.9281 -0.0000
vn -0.1064 -0.9943 -0.0000
vn -0.0679 -0.6343 -0.7701
vn -0.0679 -0.6342 0.7701
vn -0.3031 -0.0000 -0.9530
vn -0.0000 1.0000 -0.0000
vt 0.388819 0.894119
vt 0.379191 0.894119
vt 0.379189 0.882785
vt 0.388820 0.882798
vt 0.376390 0.932508
vt 0.371129 0.938451
vt 0.375540 0.929116
vt 0.349810 0.882784
vt 0.406748 0.929117
vt 0.411158 0.938451
vt 0.405898 0.932509
vt 0.340180 0.882798
vt 0.349810 0.894118
vt 0.406364 0.938996
vt 0.375924 0.938995
vt 0.340181 0.894118
vt 0.346892 0.903294
vt 0.382109 0.903294
s 1
usemtl body
f 129/219/228 131/220/228 128/221/228
f 128/221/229 130/222/230 129/219/231
f 132/223/232 130/224/232 128/225/232
f 133/226/233 128/221/234 131/220/235
f 132/223/236 128/225/237 133/227/237
f 133/227/238 134/228/238 136/229/238
f 134/230/239 133/226/239 135/231/239
f 131/220/235 135/231/240 133/226/233
f 133/227/237 136/229/241 132/223/236
f 136/229/242 137/232/242 138/233/242
f 136/229/243 134/228/243 137/232/243
f 138/233/242 132/223/236 136/229/241
f 138/233/244 130/224/244 132/223/244
f 135/231/245 139/234/245 134/230/245
f 139/235/246 135/231/240 131/220/235
f 131/220/246 129/236/246 139/235/246
o gaz2975_nomg_body.297
v -2.599846 7.944962 14.573946
v -1.641937 12.204460 13.649271
v -3.406483 11.998112 14.564360
v -0.862995 8.288002 13.696177
v -0.879990 8.288002 14.824419
v -2.603230 7.944962 14.798464
v -1.694027 12.378147 14.812159
v -3.416500 12.031231 14.786215
v -3.860332 23.263081 11.317514
v -5.578583 22.894962 11.298410
v -3.854424 23.263088 -14.539673
v -5.572678 22.894970 -14.540067
v -5.525642 22.675411 -14.540061
v -5.539242 22.718212 11.165625
v -3.603149 22.090206 -14.539614
v -3.618988 22.137455 10.473192
vn -0.4499 -0.0917 -0.8884
vn -0.4336 -0.0970 -0.8959
vn -0.4500 -0.0916 -0.8883
vn -0.4500 -0.0917 -0.8883
vn 0.1952 -0.9808 0.0029
vn -0.0151 -0.0000 0.9999
vn -0.0584 0.2166 0.9745
vn -0.0583 0.2167 0.9745
vn -0.0731 0.2916 0.9537
vn -0.2026 0.9133 0.3533
vn -0.1997 0.9140 0.3533
vn -0.2095 0.9778 -0.0000
vn 0.0002 -0.0000 -1.0000
vn -0.2901 -0.9570 0.0015
vn -0.2912 -0.9567 0.0014
vn -0.2911 -0.9567 0.0014
vn -0.2889 -0.9573 0.0016
vn 0.9782 0.2077 0.0027
vn 0.9788 0.2045 0.0071
vn 0.9778 0.2095 0.0002
vn -0.4068 -0.3491 -0.8442
vn -0.4095 -0.3487 -0.8430
vn -0.4014 -0.3499 -0.8464
vn -0.3986 -0.3503 -0.8476
vn 0.9802 0.1974 0.0144
vn 0.9806 0.1952 0.0148
vt 0.928529 0.412889
vt 0.928529 0.423750
vt 0.933714 0.423750
vt 0.933714 0.412889
vt 0.900787 0.043613
vt 0.903162 0.038995
vt 0.900198 0.038995
vt 0.900198 0.043613
vt 0.920876 0.423750
vt 0.925526 0.423750
vt 0.925526 0.412889
vt 0.920876 0.412889
vt 0.925526 0.383009
vt 0.920876 0.383009
vt 0.925526 0.315306
vt 0.920876 0.315306
vt 0.918280 0.029005
vt 0.918280 0.028415
vt 0.913662 0.028415
vt 0.933714 0.383009
vt 0.933714 0.315306
vt 0.928529 0.315306
vt 0.913662 0.031567
vt 0.928529 0.383009
s 1
usemtl body
f 141/237/247 143/238/248 140/239/249
f 140/239/249 142/240/250 141/237/247
f 140/241/251 143/242/251 144/243/251
f 144/243/251 145/244/251 140/241/251
f 145/245/252 144/246/252 146/247/252
f 146/247/253 147/248/254 145/245/252
f 147/248/254 146/247/253 148/249/255
f 148/249/256 149/250/257 147/248/255
f 149/250/257 148/249/256 150/251/258
f 150/251/258 151/252/258 149/250/258
f 152/253/259 151/254/259 150/255/259
f 153/256/260 152/257/261 154/258/262
f 150/255/259 154/259/259 152/253/259
f 154/258/262 155/260/263 153/256/260
f 148/249/264 155/260/265 154/258/266
f 154/258/266 150/251/266 148/249/264
f 142/240/267 153/256/268 155/260/269
f 155/260/269 141/237/270 142/240/267
f 146/247/271 141/237/271 155/260/265
f 155/260/265 148/249/264 146/247/271
f 141/237/271 146/247/271 144/246/272
f 144/246/272 143/238/272 141/237/271
o gaz2975_nomg_body.299
v 0.956619 22.177792 11.754038
v 6.274967 21.567783 9.697950
v 5.369663 22.551517 10.049822
v 1.589447 22.531200 11.515516
v 0.692554 21.537983 11.862535
v 0.744144 11.968830 11.831976
v 1.666111 10.968056 11.473680
v 0.843521 22.178020 11.462362
v 1.476353 22.531429 11.223856
v 5.256569 22.551754 9.758177
v 5.320866 22.887409 9.733473
v 1.409527 22.866322 11.250105
v 0.626648 22.428898 11.546671
v 1.660702 22.865742 12.022062
v 0.877842 22.428394 12.318663
v 0.289799 21.613796 11.683195
v 0.540955 21.613293 12.455183
v 2.850864 21.298908 13.317137
v 4.694218 21.316380 12.644812
v 2.879959 12.324139 13.298731
v 5.571918 22.886868 10.505491
v 6.354595 22.457935 10.195044
v 6.450920 21.647068 9.294241
v 6.702030 21.646534 10.066248
v 6.103466 22.458485 9.423029
v 5.888603 22.205173 9.506094
v 6.161865 21.568012 9.406279
v 6.001690 22.204945 9.797758
v 6.503227 11.906174 9.263353
v 6.213436 11.998901 9.375757
v 6.130871 11.194107 9.406355
v 5.919075 11.436165 9.488588
v 6.326527 11.998669 9.667421
v 6.032177 11.435932 9.780256
v 5.413170 10.988308 10.020784
v 5.300068 10.988544 9.729136
v 5.383507 10.653683 9.696478
v 1.472157 10.632637 11.213079
v 1.553017 10.968292 11.182009
v 0.719925 11.164963 11.504385
v 0.929657 11.409328 11.423239
v 0.631062 11.969063 11.540300
v 1.042759 11.409100 11.714899
v 0.342094 11.872971 11.652342
v 0.579456 21.538212 11.570868
v 0.971016 11.164417 12.276396
v 0.593296 11.872395 12.424307
v 1.723343 10.632057 11.985071
v 4.723301 12.341568 12.626440
v 5.634609 10.653145 10.468485
v 6.381996 11.193565 10.178301
v 6.754395 11.905628 10.035364
vn -0.3607 0.0012 -0.9327
vn -0.3607 0.0010 -0.9327
vn -0.3612 0.0010 -0.9325
vn -0.3532 -0.1882 -0.9164
vn -0.2690 -0.6586 -0.7028
vn 0.4316 -0.8863 -0.1680
vn 0.4316 -0.8863 -0.1681
vn 0.8514 -0.4074 -0.3304
vn -0.3819 0.0009 -0.9242
vn -0.3627 -0.0005 -0.9319
vn 0.0044 -1.0000 -0.0025
vn -0.3268 -0.4163 -0.8485
vn -0.2613 -0.6818 -0.6833
vn -0.3615 0.0007 -0.9324
vn -0.3548 0.0034 -0.9349
vn -0.3548 0.0035 -0.9349
vn -0.3540 0.0027 -0.9352
vn -0.3557 0.0043 -0.9346
vn -0.0045 1.0000 0.0022
vn -0.3569 0.0054 -0.9341
vn -0.4405 0.8861 0.1440
vn -0.4406 0.8861 0.1439
vn -0.8688 0.4064 0.2829
vn -0.8688 0.4064 0.2830
vn -0.8688 0.4065 0.2829
vn -0.3024 0.2777 0.9118
vn -0.0458 0.6155 0.7868
vn 0.2245 0.7393 0.6348
vn 0.3427 -0.0008 0.9395
vn -0.3538 -0.0042 0.9353
vn -0.3500 -0.0031 0.9368
vn -0.3537 -0.0041 0.9354
vn 0.1912 0.8418 0.5048
vn 0.1913 0.8417 0.5050
vn 0.2245 0.7393 0.6349
vn 0.4326 0.8907 -0.1401
vn 0.4326 0.8907 -0.1400
vn 0.5504 0.5491 0.6289
vn 0.8652 0.4151 -0.2812
vn 0.7545 0.2253 0.6164
vn 0.4326 0.8906 -0.1401
vn -0.3662 0.0055 -0.9305
vn -0.3675 0.0041 -0.9300
vn -0.3611 0.0001 -0.9325
vn -0.3694 0.0024 -0.9293
vn -0.4234 -0.8911 0.1635
vn -0.3612 -0.0002 -0.9325
vn -0.8483 -0.4153 0.3286
vn -0.3786 -0.0174 -0.9254
vn -0.3613 0.0013 -0.9325
vn -0.3612 0.0013 -0.9325
vn -0.9323 -0.0062 0.3615
vn -0.9324 -0.0062 0.3615
vn -0.3612 0.0007 -0.9325
vn -0.8133 0.4887 0.3158
vn -0.8133 0.4887 0.3157
vn -0.3597 0.0010 -0.9331
vn -0.3613 0.0007 -0.9324
vn -0.3615 -0.0011 -0.9324
vn -0.5209 0.8292 0.2027
vn -0.5209 0.8292 0.2026
vn -0.3623 0.0006 -0.9321
vn -0.3623 0.0005 -0.9321
vn -0.3306 0.4162 -0.8470
vn -0.3619 0.0007 -0.9322
vn -0.3615 0.0008 -0.9324
vn -0.1747 0.8817 -0.4383
vn -0.0044 1.0000 0.0025
vn -0.3608 0.0005 -0.9326
vn -0.3608 0.0006 -0.9327
vn 0.5137 0.8347 -0.1985
vn 0.5137 0.8347 -0.1986
vn -0.3617 0.0008 -0.9323
vn -0.3619 0.0013 -0.9322
vn 0.8091 0.4972 -0.3133
vn 0.8091 0.4971 -0.3134
vn -0.3584 0.0041 -0.9336
vn -0.3618 0.0005 -0.9322
vn -0.3615 0.0004 -0.9324
vn 0.9324 0.0062 -0.3615
vn 0.9323 0.0062 -0.3615
vn -0.8255 -0.4965 0.2682
vn -0.8255 -0.4966 0.2681
vn -0.9509 -0.0061 0.3094
vn -0.8255 -0.4965 0.2683
vn -0.3563 -0.0049 0.9343
vn -0.2777 -0.3362 0.8999
vn -0.0891 -0.5721 0.8153
vn -0.5245 -0.8343 0.1700
vn -0.5245 -0.8342 0.1700
vn 0.0045 -1.0000 -0.0022
vn 0.2072 -0.8268 0.5230
vn 0.2072 -0.8269 0.5228
vn 0.2600 -0.7041 0.6607
vn 0.3404 -0.1518 0.9280
vn 0.3399 -0.1520 0.9281
vn 0.2521 -0.6951 0.6733
vn 0.3641 -0.0035 0.9313
vn 0.5319 -0.8288 -0.1736
vn 0.6858 -0.4038 0.6055
vn 0.7875 0.0021 0.6162
vn 0.7872 0.0023 0.6167
vn 0.7885 0.0015 0.6150
vn 0.9509 0.0061 -0.3093
vn 0.9509 0.0061 -0.3094
vn 0.8298 -0.4882 -0.2703
vn 0.3426 -0.0008 0.9395
vn 0.7889 0.0013 0.6145
vt 0.468750 0.227153
vt 0.452225 0.225443
vt 0.466581 0.194367
vt 0.454960 0.228207
vt 0.466848 0.228147
vt 0.467033 0.228853
vt 0.469275 0.227650
vt 0.469556 0.225357
vt 0.469383 0.197180
vt 0.454782 0.228914
vt 0.454593 0.229834
vt 0.467229 0.229770
vt 0.905217 0.309240
vt 0.892238 0.309242
vt 0.892692 0.307345
vt 0.469918 0.228349
vt 0.888969 0.307165
vt 0.890424 0.305705
vt 0.887143 0.303943
vt 0.889059 0.303448
vt 0.895151 0.301994
vt 0.899778 0.302058
vt 0.904600 0.307393
vt 0.895132 0.277832
vt 0.906902 0.305795
vt 0.910206 0.303973
vt 0.908450 0.307178
vt 0.908241 0.303504
vt 0.451889 0.228440
vt 0.452526 0.227734
vt 0.450663 0.225830
vt 0.451507 0.225612
vt 0.453046 0.227232
vt 0.450480 0.196821
vt 0.451335 0.197080
vt 0.451780 0.194503
vt 0.452395 0.195176
vt 0.452049 0.197266
vt 0.452936 0.195681
vt 0.454824 0.194426
vt 0.454617 0.193738
vt 0.454380 0.192815
vt 0.467009 0.192752
vt 0.466780 0.193677
vt 0.469626 0.194413
vt 0.469017 0.195093
vt 0.470096 0.196986
vt 0.468481 0.195603
vt 0.470948 0.196717
vt 0.471121 0.225727
vt 0.470275 0.225518
vt 0.887246 0.275506
vt 0.889031 0.272507
vt 0.890513 0.273997
vt 0.889127 0.276034
vt 0.892781 0.272199
vt 0.892316 0.270336
vt 0.905319 0.270420
vt 0.904676 0.272234
vt 0.899778 0.277840
vt 0.906945 0.274011
vt 0.908289 0.276075
vt 0.910231 0.275597
vt 0.908534 0.272613
s 1
usemtl body
f 156/261/273 157/262/274 162/263/275
f 156/261/273 158/264/276 157/262/274
f 156/261/273 159/265/277 158/264/276
f 164/266/278 159/265/278 156/261/279
f 163/267/280 156/261/280 160/268/280
f 160/268/281 156/261/273 161/269/282
f 156/261/273 162/263/275 161/269/282
f 156/261/279 163/267/279 164/266/278
f 159/265/283 164/266/284 165/270/285
f 166/271/286 165/270/285 164/266/284
f 164/266/284 167/272/287 166/271/286
f 167/272/288 164/266/289 163/267/290
f 166/273/291 167/274/291 169/275/291
f 163/267/290 168/276/292 167/272/288
f 167/274/293 168/277/294 170/278/293
f 170/278/293 169/275/293 167/274/293
f 170/278/295 168/277/296 171/279/295
f 171/279/295 172/280/297 170/278/295
f 170/278/298 172/280/298 173/281/298
f 173/281/299 169/275/299 170/278/299
f 173/281/300 174/282/300 176/283/300
f 174/282/301 173/281/301 175/284/301
f 175/284/302 173/281/303 172/280/304
f 176/283/305 169/275/306 173/281/307
f 169/275/306 176/283/305 166/273/291
f 166/273/308 176/283/309 177/285/308
f 177/285/310 176/283/310 174/282/310
f 178/286/311 180/287/311 177/285/311
f 177/285/311 179/288/311 178/286/311
f 174/282/312 179/288/312 177/285/312
f 177/285/308 180/287/313 166/273/308
f 166/271/286 180/289/314 181/290/315
f 181/290/315 180/289/314 178/291/316
f 181/290/315 165/270/317 166/271/286
f 158/264/318 165/270/318 181/290/318
f 178/291/316 182/292/319 181/290/315
f 183/293/320 181/290/320 182/292/320
f 181/290/318 183/293/318 158/264/318
f 158/264/321 183/293/321 157/262/274
f 182/292/320 157/262/320 183/293/320
f 182/292/319 178/291/316 184/294/322
f 184/294/322 185/295/323 182/292/319
f 157/262/324 182/292/324 185/295/325
f 185/295/323 184/294/322 186/296/286
f 186/296/286 187/297/326 185/295/323
f 188/298/327 185/295/328 187/297/327
f 185/295/325 188/298/325 157/262/324
f 157/262/274 188/298/329 189/299/330
f 187/297/327 189/299/327 188/298/327
f 157/262/274 189/299/330 162/263/275
f 189/299/330 190/300/331 162/263/275
f 191/301/332 190/300/332 189/299/333
f 189/299/333 187/297/333 191/301/332
f 186/296/286 192/302/334 191/301/335
f 191/301/335 187/297/326 186/296/286
f 191/301/336 192/302/337 193/303/338
f 193/303/338 194/304/339 191/301/336
f 190/300/340 191/301/336 194/304/339
f 194/304/341 193/303/342 195/305/338
f 194/304/339 162/263/340 190/300/340
f 162/263/343 194/304/343 196/306/344
f 195/305/338 196/306/345 194/304/341
f 197/307/346 196/306/345 195/305/338
f 198/308/347 196/306/348 197/307/347
f 196/306/344 198/308/344 162/263/343
f 162/263/275 198/308/349 161/269/282
f 197/307/347 161/269/347 198/308/347
f 195/305/338 199/309/346 197/307/346
f 197/307/346 199/309/346 171/310/350
f 171/310/350 200/311/351 197/307/346
f 161/269/352 197/307/352 200/311/353
f 163/267/290 200/311/351 171/310/350
f 160/268/280 200/311/280 163/267/280
f 200/311/353 160/268/353 161/269/352
f 199/312/354 195/313/355 201/314/354
f 171/279/356 199/312/356 202/315/356
f 201/314/354 202/315/357 199/312/354
f 202/315/356 172/280/356 171/279/356
f 172/280/304 202/315/358 175/284/302
f 175/284/359 202/315/359 201/314/359
f 201/314/360 203/316/360 175/284/360
f 203/316/361 201/314/361 195/313/361
f 195/313/361 193/317/362 203/316/361
f 203/316/363 193/317/363 192/318/363
f 203/316/364 205/319/365 204/320/366
f 204/320/367 175/284/368 203/316/369
f 192/318/363 205/319/365 203/316/364
f 205/319/370 206/321/370 207/322/370
f 206/321/371 205/319/371 192/318/371
f 207/322/372 204/320/372 205/319/372
f 204/320/373 207/322/374 179/288/375
f 179/288/376 207/322/377 184/323/377
f 186/324/378 184/323/378 207/322/378
f 207/322/378 206/321/378 186/324/378
f 192/318/371 186/324/371 206/321/371
f 175/284/368 204/320/367 174/282/379
f 179/288/375 174/282/380 204/320/373
f 184/323/377 178/286/376 179/288/376
f 171/310/350 168/276/292 163/267/290
f 165/270/283 158/264/276 159/265/277
o gaz2975_nomg_body.301
v 1.122158 6.644764 13.039316
v -0.226170 6.364632 12.609377
v 1.169949 6.504040 12.610144
v -0.223896 6.517033 13.040926
v 2.454823 7.110939 13.039377
v 1.217743 6.363316 13.209986
v 2.594547 6.848022 13.209982
v 2.733578 6.587406 13.038023
v 3.382732 7.365711 13.209898
v 3.598896 7.168934 13.037046
v 4.182220 9.013168 12.696482
v 3.598892 7.168934 12.697737
v 4.182224 9.013168 13.038301
v 3.886272 9.022614 13.210001
v 4.182117 22.740131 13.038527
v 4.182217 22.738529 12.696409
v 3.737301 22.729359 12.610373
v 4.087574 23.753613 12.686483
v 3.665234 23.621906 12.599661
v 3.521843 23.584667 13.031794
v 3.144741 24.039532 13.020159
v 3.222233 24.154743 12.586329
v 3.441578 24.528591 12.666960
v 2.174297 24.225262 13.005938
v 2.192150 24.362156 12.573057
v 2.220821 24.808140 12.648680
v -2.677162 24.362797 12.383268
v -2.694096 24.233753 12.790831
v -2.684406 24.517735 12.945143
v -2.666706 24.792797 12.776430
v 2.191418 24.526524 13.168718
v 3.292351 24.294712 13.184061
v 2.214706 24.816685 12.989901
v 3.439114 24.536716 13.006411
v -2.658642 24.784267 12.453527
v 3.807220 23.675648 13.199564
v 4.087025 23.759014 13.025801
v 3.885933 22.735088 13.210001
v 3.588898 9.032108 13.039122
v 3.588852 22.728436 13.039087
v 3.737583 9.027363 12.610224
v 3.272213 7.466274 12.609350
v 3.161690 7.566833 13.040968
v 2.524685 6.979485 12.610098
v 2.733574 6.587406 12.696760
v 1.314690 6.085175 13.037752
v 1.314686 6.085175 12.697016
v -0.230690 5.913475 13.037283
v -0.230682 5.913475 12.697504
v -0.228455 6.212231 13.209913
vn -0.0918 0.9411 -0.3254
vn -0.0895 0.9393 -0.3312
vn -0.0940 0.9429 -0.3196
vn -0.3123 0.8921 -0.3266
vn -0.3120 0.8920 -0.3272
vn -0.3130 0.8925 -0.3249
vn -0.0470 0.5062 0.8611
vn -0.1656 0.4728 0.8655
vn -0.1656 0.4734 0.8652
vn -0.1655 0.4712 0.8663
vn -0.1654 0.4697 0.8672
vn 0.1684 -0.4771 0.8626
vn 0.1685 -0.4786 0.8617
vn 0.1683 -0.4763 0.8630
vn -0.2740 0.4182 0.8660
vn -0.2738 0.4169 0.8667
vn -0.2743 0.4202 0.8650
vn 0.2861 -0.4354 0.8536
vn 0.2824 -0.4188 0.8630
vn 0.2861 -0.4355 0.8535
vn 0.5200 -0.1650 0.8381
vn 0.8586 -0.5127 -0.0000
vn 0.8584 -0.5129 -0.0000
vn 0.5578 -0.8300 -0.0000
vn 0.9534 -0.3016 -0.0000
vn 1.0000 -0.0000 -0.0000
vn 1.0000 -0.0000 0.0003
vn 0.4926 -0.1498 0.8573
vn 0.5018 -0.0000 0.8650
vn 0.5010 -0.0000 0.8654
vn 0.9957 0.0929 -0.0001
vn 0.9957 0.0928 -0.0001
vn 0.9957 0.0929 0.0001
vn 0.1901 0.0005 -0.9818
vn 0.1911 0.0025 -0.9816
vn 0.1904 -0.0000 -0.9817
vn 0.1954 0.0069 -0.9807
vn 0.1987 0.0089 -0.9800
vn -0.7315 -0.6147 -0.2950
vn -0.7317 -0.6142 -0.2957
vn -0.7315 -0.6149 -0.2947
vn -0.9430 -0.0782 -0.3235
vn -0.9440 -0.0801 -0.3201
vn -0.9431 -0.0783 -0.3232
vn 0.1660 0.1136 -0.9796
vn 0.1660 0.1135 -0.9796
vn 0.1661 0.1137 -0.9795
vn -0.7313 -0.6154 -0.2940
vn -0.1843 -0.9349 -0.3033
vn -0.1764 -0.9431 -0.2820
vn 0.1661 0.1138 -0.9795
vn 0.0522 0.1637 -0.9851
vn 0.0495 0.1827 -0.9819
vn 0.0256 -0.7327 -0.6801
vn 0.0116 -0.9535 -0.3011
vn 0.0116 -0.9534 -0.3014
vn 0.0337 -0.5015 -0.8645
vn -0.9985 0.0482 -0.0262
vn -0.9985 0.0483 -0.0262
vn -0.0396 -0.4760 0.8785
vn -0.0399 0.5243 0.8506
vn -0.0458 0.0130 0.9989
vn -0.1025 -0.4684 0.8776
vn -0.1150 -0.4889 0.8647
vn -0.1025 -0.4683 0.8776
vn 0.0969 0.5165 0.8508
vn -0.0397 0.5265 0.8492
vn -0.0256 0.8724 0.4882
vn -0.0256 0.8724 0.4881
vn -0.0039 0.9997 -0.0251
vn 0.0255 0.6907 -0.7227
vn 0.0255 0.6908 -0.7226
vn 0.2232 0.9746 -0.0206
vn 0.2231 0.9746 -0.0204
vn 0.2234 0.9745 -0.0215
vn 0.1128 0.5426 0.8324
vn -0.0037 0.9996 -0.0265
vn 0.0386 0.1627 -0.9859
vn 0.4112 0.3633 0.8360
vn 0.4110 0.3633 0.8361
vn 0.4117 0.3635 0.8357
vn 0.4119 0.3635 0.8356
vn 0.7684 0.6399 -0.0096
vn 0.7684 0.6399 -0.0097
vn 0.7682 0.6401 -0.0091
vn 0.2235 0.9745 -0.0217
vn 0.5155 0.0526 0.8553
vn 0.4995 0.0574 0.8644
vn 0.5154 0.0526 0.8553
vn 0.7682 0.6401 -0.0090
vn -0.4982 -0.0000 0.8670
vn -0.4987 -0.0000 0.8668
vn -0.4981 -0.0320 0.8665
vn -0.4979 -0.0321 0.8667
vn -0.4987 -0.0318 0.8662
vn -0.9449 -0.0000 -0.3272
vn -0.9448 -0.0000 -0.3275
vn -0.9421 -0.0765 -0.3264
vn -0.4990 -0.0317 0.8660
vn -0.9168 0.2669 -0.2970
vn -0.9085 0.2710 -0.3180
vn 0.2081 -0.0615 -0.9762
vn 0.1882 -0.0602 -0.9803
vn -0.8114 0.4881 -0.3215
vn -0.8115 0.4880 -0.3215
vn -0.5176 0.7944 -0.3176
vn 0.1086 -0.1641 -0.9805
vn 0.1041 -0.1614 -0.9814
vn 0.1092 -0.1644 -0.9803
vn 0.1132 -0.1668 -0.9795
vn 0.4287 -0.9035 -0.0000
vn 0.4287 -0.9034 -0.0000
vn 0.3337 -0.9427 -0.0000
vn 0.2216 -0.9751 -0.0000
vn 0.2217 -0.9751 -0.0000
vn 0.0638 -0.1816 -0.9813
vn 0.0644 -0.1825 -0.9811
vn 0.0442 -0.1884 -0.9811
vn 0.1104 -0.9939 -0.0000
vn 0.0410 -0.1889 -0.9811
vn 0.0214 -0.1959 -0.9804
vn 0.0197 -0.1919 -0.9812
vn 0.0535 -0.5121 0.8572
vn 0.0553 -0.4998 0.8644
vn -0.0507 0.4848 0.8731
vn 0.0535 -0.5122 0.8572
vn 0.1683 -0.4759 0.8632
vn -0.5177 0.7944 -0.3176
vn -0.5118 0.7946 -0.3266
vn -0.3133 0.8926 -0.3243
vn -0.5075 0.1542 0.8477
vn -0.4896 0.1438 0.8600
vn -0.5074 0.1541 0.8478
vn -0.2748 0.4231 0.8634
vn -0.4050 -0.3150 0.8584
vn -0.4044 -0.3148 0.8587
vn -0.4060 -0.3152 0.8578
vn -0.4068 -0.3154 0.8573
vt 0.973506 0.156691
vt 0.972295 0.156850
vt 0.972483 0.160449
vt 0.973675 0.160410
vt 0.972499 0.164334
vt 0.976614 0.160400
vt 0.977508 0.160373
vt 0.977651 0.156749
vt 0.976642 0.164257
vt 0.977532 0.164302
vt 0.975749 0.164201
vt 0.976501 0.166767
vt 0.975704 0.166686
vt 0.975577 0.171522
vt 0.974892 0.166677
vt 0.974656 0.171486
vt 0.974670 0.207397
vt 0.976485 0.171348
vt 0.975576 0.207445
vt 0.913747 0.002925
vt 0.913903 0.004068
vt 0.916386 0.003558
vt 0.973474 0.207213
vt 0.914472 0.005307
vt 0.916790 0.004610
vt 0.917126 0.005764
vt 0.918816 0.005566
vt 0.918765 0.004382
vt 0.921563 0.005633
vt 0.918740 0.003318
vt 0.921645 0.004446
vt 0.934363 0.005557
vt 0.921779 0.003262
vt 0.934416 0.004433
vt 0.881757 0.004553
vt 0.883281 0.004070
vt 0.883857 0.005132
vt 0.934337 0.001460
vt 0.934303 0.000613
vt 0.921435 0.000592
vt 0.883225 0.006162
vt 0.934432 0.002347
vt 0.921572 0.001475
vt 0.918511 0.000937
vt 0.918600 0.001762
vt 0.921749 0.002360
vt 0.934454 0.003270
vt 0.918690 0.002528
vt 0.882017 0.006130
vt 0.916446 0.001944
vt 0.916301 0.002762
vt 0.913959 0.001843
vt 0.977380 0.171199
vt 0.976480 0.207339
vt 0.977381 0.207255
vt 0.914179 0.000901
vt 0.972279 0.207119
vt 0.973494 0.171205
vt 0.972315 0.171060
vt 0.914924 0.006440
vt 0.916581 0.001076
vt 0.973792 0.166779
vt 0.972592 0.166801
vt 0.973679 0.164278
vt 0.974846 0.164210
vt 0.975729 0.160415
vt 0.974846 0.160429
vt 0.975768 0.156395
vt 0.974774 0.156414
vt 0.976727 0.156576
vt 0.977350 0.166861
s 1
usemtl body
f 209/325/381 211/326/382 208/327/381
f 208/327/381 210/328/383 209/325/381
f 210/328/384 208/327/385 212/329/386
f 213/330/387 208/331/387 211/332/387
f 214/333/388 212/334/389 208/331/390
f 208/331/390 213/330/391 214/333/388
f 215/335/392 214/333/393 213/330/394
f 212/334/395 214/333/396 216/336/397
f 214/333/398 215/335/399 217/337/398
f 217/337/398 216/336/400 214/333/398
f 216/336/401 217/337/401 220/338/401
f 219/339/402 217/337/403 215/335/404
f 218/340/405 220/338/405 217/337/405
f 217/337/403 219/339/402 218/340/405
f 220/338/406 218/340/406 223/341/407
f 220/338/408 221/342/408 216/336/408
f 221/342/409 220/338/409 222/343/410
f 223/341/407 222/343/407 220/338/406
f 222/344/411 223/345/412 225/346/413
f 224/347/414 223/341/415 218/340/416
f 223/345/415 224/348/414 226/349/417
f 226/349/417 225/346/418 223/345/415
f 226/349/419 227/350/420 228/351/421
f 227/350/422 226/349/423 224/348/424
f 225/346/425 226/349/426 229/352/427
f 228/351/421 229/352/428 226/349/419
f 229/352/429 228/351/430 231/353/429
f 229/352/427 230/354/431 225/346/425
f 230/354/432 229/352/433 232/355/432
f 231/353/429 232/355/429 229/352/429
f 232/355/434 231/353/435 235/356/436
f 232/355/432 233/357/432 230/354/432
f 233/357/432 232/355/434 234/358/437
f 235/356/436 234/358/437 232/355/434
f 234/359/438 235/360/439 236/361/438
f 236/362/440 235/363/440 231/364/440
f 236/361/438 237/365/438 234/359/438
f 237/366/441 236/362/442 238/367/442
f 231/364/440 238/367/442 236/362/442
f 228/368/443 239/369/444 238/367/443
f 238/367/443 231/364/445 228/368/443
f 240/370/446 238/367/446 239/369/446
f 238/367/447 240/370/448 237/366/449
f 240/370/450 233/357/451 242/371/452
f 233/357/453 240/370/454 241/372/455
f 239/369/456 241/372/456 240/370/456
f 242/371/457 237/366/449 240/370/448
f 242/373/438 234/359/438 237/365/438
f 234/358/458 242/371/452 233/357/451
f 243/374/459 244/375/460 241/372/461
f 241/372/461 239/369/462 243/374/459
f 230/354/463 241/372/464 244/375/465
f 241/372/455 230/354/466 233/357/453
f 245/376/467 222/344/468 244/375/469
f 244/375/469 243/374/467 245/376/467
f 225/346/413 244/375/413 222/344/411
f 244/375/465 225/346/470 230/354/463
f 246/377/471 221/342/471 245/378/472
f 245/378/472 247/379/472 246/377/471
f 247/380/473 245/376/474 243/374/475
f 222/343/410 245/378/410 221/342/409
f 247/381/476 224/347/476 248/382/477
f 248/382/477 246/383/477 247/381/476
f 224/348/424 247/384/478 227/350/422
f 243/374/475 227/385/479 247/380/473
f 246/383/480 248/382/481 249/386/481
f 219/339/482 249/386/482 248/382/482
f 218/340/416 248/382/416 224/347/414
f 248/382/482 218/340/483 219/339/482
f 249/386/484 250/387/485 246/383/480
f 250/387/485 249/386/484 251/388/486
f 252/389/487 251/388/488 249/386/489
f 249/386/489 219/339/490 252/389/487
f 252/389/491 215/335/492 253/390/493
f 253/390/494 254/391/495 252/389/493
f 251/388/496 252/389/497 254/391/498
f 215/335/492 252/389/491 219/339/404
f 254/391/495 253/390/494 255/392/499
f 255/392/499 256/393/499 254/391/499
f 210/328/500 254/391/498 256/393/501
f 254/391/498 210/328/500 251/388/496
f 256/393/501 209/325/502 210/328/500
f 257/394/503 255/392/504 253/390/503
f 211/332/387 257/394/505 213/330/387
f 253/390/503 213/330/506 257/394/503
f 213/330/394 253/390/507 215/335/392
f 251/388/508 212/329/509 250/387/509
f 212/329/386 251/388/510 210/328/384
f 221/342/511 246/377/512 250/395/513
f 216/336/397 250/395/514 212/334/395
f 250/395/513 216/336/511 221/342/511
f 227/385/515 243/374/516 239/369/517
f 239/369/517 228/368/518 227/385/515
o gaz2975_nomg_body.302
v 4.273712 17.448383 12.948305
v 3.442780 17.448353 12.746019
v 4.191395 17.448383 12.503870
v 3.569313 17.448353 13.132444
v 4.121220 17.448353 13.214472
v 4.121220 15.868710 13.214472
v 4.273712 15.868710 12.948305
v 3.569313 15.868679 13.132444
v 3.442780 15.868679 12.746019
v 4.191395 15.868679 12.503870
v 3.784119 15.868710 13.288694
v 3.784119 17.448353 13.288694
vn -0.0000 1.0000 -0.0000
vn -0.0000 1.0000 0.0001
vn 0.9833 -0.0000 -0.1821
vn 0.9750 -0.0000 0.2223
vn 0.9951 -0.0000 0.0985
vn 0.4485 -0.0000 0.8938
vn 0.6866 -0.0000 0.7270
vn -0.0000 -1.0000 -0.0000
vn -0.0000 -1.0000 0.0001
vn -0.9504 -0.0000 0.3112
vn -0.7825 -0.0000 0.6226
vn -0.8464 -0.0000 0.5326
vn -0.9503 -0.0000 0.3112
vn 0.0001 -1.0000 0.0001
vn -0.0090 -0.0000 1.0000
vn -0.2968 -0.0000 0.9550
vt 0.913228 0.034214
vt 0.913205 0.033146
vt 0.911293 0.033072
vt 0.911161 0.034252
vt 0.918132 0.027405
vt 0.918132 0.026217
vt 0.913981 0.026217
vt 0.911880 0.032519
vt 0.918131 0.025411
vt 0.913981 0.025411
vt 0.922873 0.006285
vt 0.923019 0.008192
vt 0.924088 0.008175
vt 0.922343 0.006892
vt 0.924048 0.006108
vt 0.913981 0.027405
vt 0.913981 0.022737
vt 0.913981 0.023806
vt 0.918131 0.023806
vt 0.918131 0.022737
vt 0.922447 0.007792
vt 0.913981 0.024504
vt 0.918131 0.024504
vt 0.912784 0.032589
s 1
usemtl body
f 259/396/519 261/397/519 258/398/520
f 258/398/519 260/399/519 259/396/519
f 260/400/521 258/401/522 264/402/523
f 262/403/520 258/398/520 261/397/519
f 258/401/522 262/404/524 263/405/525
f 263/405/525 264/402/523 258/401/522
f 264/406/526 265/407/526 266/408/526
f 265/407/526 264/406/526 263/409/526
f 266/408/526 267/410/527 264/406/526
f 264/402/521 267/411/521 260/400/521
f 266/412/528 265/413/529 261/414/530
f 261/414/531 259/415/531 266/412/531
f 263/409/526 268/416/532 265/407/526
f 265/413/529 268/417/533 269/418/534
f 269/418/534 261/414/530 265/413/529
f 261/397/519 269/419/519 262/403/520
f 262/404/524 269/418/534 268/417/533
f 268/417/533 263/405/525 262/404/524
o gaz2975_nomg_body.300
v -1.055519 6.566875 12.492910
v -0.943352 5.496616 13.199095
v -0.941769 5.499668 12.523218
v -1.058113 6.563488 13.235785
v -0.364120 6.594250 12.279570
v -0.563236 6.725697 12.876719
v -0.368256 6.588779 13.481565
v 0.060638 6.607765 12.890646
v -0.001324 5.536430 12.886248
v -0.360340 5.524254 12.330542
v -0.362450 5.519344 13.422377
vn -0.9943 -0.1062 -0.0030
vn -0.9943 -0.1068 -0.0040
vn -0.9943 -0.1062 -0.0031
vn -0.9944 -0.1061 -0.0028
vn -0.3125 -0.0463 -0.9488
vn -0.2922 -0.0583 -0.9546
vn -0.3093 0.9509 0.0033
vn -0.1152 0.9614 -0.2500
vn 0.1798 0.9703 0.1617
vn -0.1269 0.9578 0.2577
vn 0.1869 0.9707 -0.1514
vn 0.8091 -0.0492 0.5857
vn 0.8211 -0.0243 -0.5702
vn 0.8395 -0.0463 -0.5414
vn 0.8295 -0.0264 0.5579
vn -0.3555 -0.0703 0.9320
vn -0.3334 -0.0539 0.9413
vt 0.909664 0.036401
vt 0.910587 0.033735
vt 0.908725 0.033152
vt 0.907969 0.035870
vt 0.906866 0.032744
vt 0.930393 0.014162
vt 0.929428 0.012818
vt 0.928403 0.014155
vt 0.927833 0.012307
vt 0.929466 0.011155
vt 0.931046 0.012318
vt 0.904675 0.035269
vt 0.904932 0.032461
vt 0.903015 0.032394
vt 0.906396 0.035519
vt 0.902977 0.035208
vt 0.901091 0.032459
vt 0.901341 0.035269
s 1
usemtl body
f 271/420/535 273/421/536 270/422/537
f 270/422/538 272/423/538 271/420/538
f 272/423/539 270/422/540 274/424/539
f 273/425/541 275/426/541 270/427/541
f 270/427/542 275/426/542 274/428/542
f 277/429/543 275/426/543 276/430/543
f 276/430/544 275/426/544 273/425/544
f 274/428/545 275/426/545 277/429/545
f 278/431/546 277/432/546 276/433/546
f 279/434/547 274/424/547 277/432/547
f 277/432/548 278/431/548 279/434/548
f 274/424/539 279/434/539 272/423/539
f 276/433/549 280/435/549 278/431/549
f 280/435/550 276/433/551 273/436/550
f 273/436/550 271/437/550 280/435/550
o gaz2975_nomg_body.292
v -0.425362 3.360859 13.548605
v -1.969227 3.360859 11.780012
v -1.969219 3.360859 13.988375
v -0.425369 3.360859 12.219782
v 0.180225 3.360859 13.150991
v -0.425362 5.749104 13.548605
v 0.180225 5.749104 13.150991
v 0.180225 5.749104 12.617388
v 0.180225 3.360859 12.617388
v -0.425369 5.749104 12.219782
v -1.969227 5.749104 11.780012
v -1.969219 5.749104 13.988375
vn -0.0000 -1.0000 -0.0000
vn 0.2740 -0.0000 0.9617
vn 0.4091 -0.0000 0.9125
vn 0.3631 -0.0000 0.9317
vn 0.8383 -0.0000 0.5452
vn -0.0000 1.0000 -0.0000
vn 0.8383 -0.0000 -0.5452
vn 0.3632 -0.0000 -0.9317
vn 0.4090 -0.0000 -0.9125
vn 0.2740 -0.0000 -0.9617
vt 0.925986 0.014227
vt 0.924830 0.010170
vt 0.921339 0.010170
vt 0.920183 0.014227
vt 0.918311 0.021641
vt 0.918311 0.018553
vt 0.913717 0.018553
vt 0.922384 0.008579
vt 0.918311 0.017160
vt 0.913717 0.017160
vt 0.925622 0.010132
vt 0.926667 0.011723
vt 0.928070 0.011723
vt 0.918311 0.016133
vt 0.913717 0.016133
vt 0.918311 0.014740
vt 0.913717 0.014740
vt 0.923785 0.008579
vt 0.929114 0.010132
vt 0.930270 0.006075
vt 0.913717 0.011651
vt 0.924467 0.006075
vt 0.918311 0.011651
vt 0.913717 0.021641
s 1
usemtl body
f 282/438/552 284/439/552 281/440/552
f 281/440/552 283/441/552 282/438/552
f 283/442/553 281/443/554 286/444/555
f 285/445/552 281/440/552 284/439/552
f 281/443/554 285/446/556 287/447/556
f 287/447/556 286/444/555 281/443/554
f 286/448/557 287/449/557 288/450/557
f 289/451/558 288/452/558 287/447/556
f 287/447/556 285/446/556 289/451/558
f 289/451/558 284/453/559 290/454/560
f 284/439/552 289/455/552 285/445/552
f 290/454/560 288/452/558 289/451/558
f 288/450/557 290/456/557 286/448/557
f 286/448/557 290/456/557 291/457/557
f 291/458/561 290/454/560 284/453/559
f 291/457/557 292/459/557 286/448/557
f 284/453/561 282/460/561 291/458/561
f 286/444/553 292/461/553 283/442/553
o gaz2975_nomg_body.293
v -1.607777 25.104870 12.311861
v -2.059429 24.872562 12.312677
v -1.615253 24.859058 12.311872
v -1.469753 25.100697 12.734247
v -2.051956 25.118374 12.312662
v -2.195915 24.876736 12.735552
v -2.188446 25.122547 12.735544
v -1.836117 24.865803 12.996119
v -1.828644 25.111629 12.996103
v -1.477226 24.854885 12.734251
vn -0.0018 -0.0000 -1.0000
vn 0.5862 -0.0179 -0.8100
vn 0.7600 -0.0232 -0.6495
vn 0.9967 -0.0302 0.0750
vn 0.0304 0.9995 -0.0001
vn -0.9512 0.0289 -0.3073
vn -0.9965 0.0302 0.0785
vn -0.8504 0.0260 0.5255
vn -0.2333 0.0073 0.9724
vn 0.2368 -0.0071 0.9715
vn 0.8523 -0.0260 0.5225
vt 0.965132 0.001252
vt 0.965132 0.001898
vt 0.963964 0.001898
vt 0.963964 0.001252
vt 0.962797 0.001898
vt 0.921389 0.007793
vt 0.921750 0.008904
vt 0.920805 0.009590
vt 0.959293 0.001898
vt 0.959293 0.001251
vt 0.960461 0.001251
vt 0.960461 0.001898
vt 0.919860 0.008904
vt 0.961629 0.001251
vt 0.961629 0.001898
vt 0.920221 0.007793
vt 0.962797 0.001251
s 1
usemtl body
f 294/462/562 297/463/562 293/464/562
f 293/464/563 295/465/564 294/462/562
f 295/465/564 293/464/563 296/466/565
f 296/467/566 293/468/566 297/469/566
f 297/470/567 294/471/567 298/472/568
f 298/472/568 299/473/569 297/470/567
f 296/467/566 297/469/566 299/474/566
f 299/473/569 298/472/568 300/475/570
f 300/475/570 301/476/571 299/473/569
f 301/477/566 296/467/566 299/474/566
f 301/476/571 300/475/570 302/478/572
f 302/478/572 296/466/565 301/476/571
f 296/466/565 302/478/572 295/465/564
o gaz2975_nomg_body.296
v -1.250141 24.956310 11.975084
v -6.565392 24.956310 13.333105
v -6.565392 24.956310 11.975084
v -1.250134 24.956310 13.333105
v -6.565392 23.373013 11.975084
v -1.250141 24.620533 11.975084
v -1.250134 24.620533 13.333105
v -1.416954 24.620533 12.166391
v -6.565392 23.373013 12.228910
v -6.565392 24.776829 12.654093
v -6.565392 23.373013 13.079279
v -1.416954 24.620533 13.141798
v -6.565392 23.373013 13.333105
vn -0.0000 1.0000 -0.0000
vn -0.0000 -0.0000 -1.0000
vn 1.0000 -0.0000 -0.0000
vn 0.2285 -0.9735 -0.0000
vn -0.0000 -1.0000 -0.0000
vn 0.2329 -0.9511 0.2031
vn 0.0816 -0.2889 0.9539
vn 0.0816 -0.2889 -0.9539
vn -0.0303 -0.9995 -0.0000
vn 0.2241 -0.9548 -0.1954
vn 0.2355 -0.9719 -0.0000
vn -0.0000 -0.0000 1.0000
vt 0.850425 0.349538
vt 0.838229 0.342727
vt 0.836489 0.345843
vt 0.848685 0.352654
vt 0.846656 0.356287
vt 0.835718 0.345413
vt 0.836059 0.346614
vt 0.846208 0.356778
vt 0.837459 0.342297
vt 0.835581 0.344760
vt 0.836030 0.347277
vt 0.843018 0.358942
vt 0.852806 0.341416
vt 0.839210 0.341583
vt 0.852637 0.345267
vt 0.833965 0.348796
vt 0.838660 0.341956
vt 0.852454 0.345906
vt 0.836831 0.342522
s 1
usemtl body
f 304/479/573 306/480/573 303/481/573
f 303/481/573 305/482/573 304/479/573
f 307/483/574 305/482/574 303/481/574
f 308/484/575 303/481/575 306/480/575
f 303/481/574 308/485/574 307/483/574
f 311/486/576 307/483/576 308/485/576
f 306/480/575 309/487/575 308/484/575
f 310/488/577 308/484/577 309/487/577
f 308/485/578 310/489/578 311/486/578
f 310/489/579 312/490/579 311/486/579
f 312/491/580 314/492/580 313/493/580
f 310/489/581 314/494/581 312/490/581
f 314/492/582 309/495/582 315/496/582
f 309/487/577 314/497/577 310/488/577
f 315/496/583 313/493/583 314/492/583
f 304/479/584 315/496/584 309/495/584
f 309/495/584 306/480/584 304/479/584
