# Blender 4.3.2
# www.blender.org
mtllib door4_1.mtl
o gaz2975_nomg_body.008
v -5.064518 22.021313 10.591936
v -3.061295 11.955833 13.823481
v -2.276646 8.013355 13.835299
v -5.058777 22.021313 -14.539826
v -2.275963 8.013351 -14.537740
vn -0.9808 -0.1952 -0.0002
vn -0.9808 -0.1951 -0.0001
vn -0.9808 -0.1952 -0.0000
vn -0.9808 -0.1950 -0.0001
vn -0.9808 -0.1949 -0.0000
vt 0.938413 0.988567
vt 0.993879 0.737990
vt 0.993678 0.808513
vt 0.508587 0.988557
vt 0.508617 0.737999
s 1
usemtl glass
f 1/1/1 3/2/2 2/3/3
f 4/4/4 3/2/2 1/1/1
f 5/5/5 3/2/2 4/4/4
o gaz2975_nomg_body.009
v -2.786831 12.004219 13.823442
v -4.790070 22.069698 10.591898
v -4.784313 22.069698 -14.539854
v -2.002190 8.061741 13.835260
v -2.001492 8.061737 -14.537776
vn 0.9808 0.1952 0.0002
vn 0.9808 0.1950 0.0001
vn 0.9808 0.1953 0.0002
vn 0.9808 0.1951 0.0001
vn 0.9808 0.1949 -0.0000
vt 0.993678 0.808513
vt 0.508587 0.988557
vt 0.938413 0.988567
vt 0.993879 0.737990
vt 0.508617 0.737999
s 1
usemtl glass
f 6/6/6 8/7/7 7/8/8
f 6/6/6 9/9/9 8/7/7
f 8/7/7 9/9/9 10/10/10
