# Blender 4.3.2
# www.blender.org
mtllib door2.mtl
o gaz2975_nomg_body.024
v -32.320015 -10.577309 27.318192
v -33.462364 -11.339413 26.262039
v -33.461796 -10.574379 26.262871
v -32.320587 -11.339458 27.317360
v -25.775928 -10.700115 30.356926
v -27.754406 -7.850800 19.594727
v -37.238678 -7.737331 7.559204
v -29.243492 -5.272827 7.560768
v -34.897999 -9.647305 19.591476
v -18.637455 -7.885838 19.593338
v -18.129650 -5.529915 19.734291
v -16.143875 -10.708511 32.260437
v -19.821873 -5.022038 7.600700
v -19.358189 -2.920437 7.580978
v -19.951874 -3.751038 -2.575020
v -19.649639 -1.232906 -17.258553
v -20.139465 -2.853062 -17.258480
v -29.555569 -3.894234 -2.598633
v -30.005894 -2.841007 -17.258526
v -37.239143 -4.857807 -17.258568
v -37.238842 -6.381367 2.147224
v -37.238846 -11.338684 5.167885
v -37.239124 -11.335266 -12.055008
v -36.464897 -11.338684 5.166977
v -36.452599 -11.335266 -12.055008
v -36.829857 -5.137814 -17.080532
v -30.005894 -3.603485 -17.258526
v -19.182526 -3.615540 -17.258480
v -18.692715 -2.006172 -17.258553
v 32.984043 -1.232899 -17.258537
v 32.027115 -2.006165 -17.258537
v 33.473866 -2.853054 -17.258465
v 32.516941 -3.615532 -17.258465
v 43.340313 -3.603470 -17.258503
v 50.164265 -5.137798 -17.080502
v 43.340313 -2.840992 -17.258503
v 50.573559 -4.857792 -17.258545
v 42.889977 -3.894218 -2.598618
v 50.573242 -6.381351 2.147240
v 42.577885 -5.272812 7.560799
v 33.286274 -3.751030 -2.574997
v 32.692589 -2.920429 7.581024
v 33.156265 -5.022030 7.600716
v 31.464039 -5.529907 19.734322
v 31.971840 -7.885830 19.593369
v 29.478256 -10.708504 32.260468
v 39.110321 -10.700108 30.356956
v 41.088791 -7.850784 19.594757
v 50.573078 -7.737316 7.559219
v 48.232391 -9.647289 19.591507
v 46.796177 -10.574364 26.262901
v 45.654392 -10.577293 27.318222
v 45.654968 -11.339443 27.317375
v 46.796757 -11.339397 26.262070
v 48.236488 -11.338928 19.585503
v 47.468372 -11.338928 19.585487
v 46.206589 -11.339397 25.757393
v 45.120697 -11.339443 26.786942
v 38.840004 -11.339626 29.704361
v 39.110886 -11.339626 30.356087
v 29.368114 -11.341019 31.512596
v 29.257156 -11.340595 32.149208
v 6.667189 -11.340286 31.371017
v 29.035233 -11.339737 33.858627
v 6.667188 -11.340286 33.863899
v -15.700858 -11.339745 33.858612
v -15.922776 -11.340603 32.149193
v -16.033733 -11.341026 31.512581
v -25.776512 -11.339634 30.356056
v -25.505611 -11.339634 29.704315
v -31.786312 -11.339458 26.786942
v -32.872215 -11.339413 25.757362
v -34.133987 -11.338943 19.585480
v -34.902103 -11.338943 19.585464
v -15.695971 -9.996471 33.681091
v 25.281002 -6.446259 22.323349
v -11.946614 -6.446266 22.323349
v 29.030346 -9.996464 33.681091
v 26.477501 -6.088192 21.173126
v 25.144112 -5.201092 20.342651
v 28.009911 -2.932079 7.561920
v 26.588703 -2.431187 7.568001
v 26.669235 -1.109573 -15.189796
v 26.210674 0.566750 -14.727001
v 26.140511 -0.772697 7.689880
v 25.338524 0.616211 -15.581047
v -12.806117 -0.772705 7.689865
v 25.767223 -2.522236 14.108841
v -12.432837 -2.522243 14.108841
v -11.809731 -5.201099 20.342651
v -13.254313 -2.431194 7.567986
v -13.143119 -6.088200 21.173126
v -14.675515 -2.932087 7.561935
v -12.876273 0.566742 -14.727024
v -13.334826 -1.109581 -15.189812
v -12.462871 -1.073078 -16.044498
v 25.797279 -1.073071 -16.044483
v -12.004109 0.616203 -15.581062
v 49.799309 -11.338669 5.166992
v 50.573540 -11.335251 -12.054985
v 49.787037 -11.335251 -12.054977
v 50.573246 -11.338669 5.167900
vn -0.6788 -0.0003 0.7344
vn -0.1999 0.9550 0.2190
vn -0.4212 -0.0008 0.9070
vn -0.4212 -0.0007 0.9070
vn -0.1089 0.9558 0.2731
vn -0.2392 0.9507 0.1974
vn -0.2394 0.9517 0.1923
vn -0.2394 0.9515 0.1931
vn -0.2864 0.9290 0.2345
vn -0.2864 0.9291 0.2340
vn -0.2865 0.9292 0.2335
vn 0.0038 0.9779 0.2090
vn 0.0038 0.9728 0.2317
vn -0.0269 0.9717 0.2347
vn 0.0038 0.9669 0.2553
vn -0.2398 0.9532 0.1841
vn -0.9692 0.2003 0.1435
vn -0.9614 0.1648 0.2205
vn -0.9540 0.1918 0.2305
vn -0.0437 0.9733 0.2255
vn -0.0269 0.9824 0.1849
vn -0.0269 0.9823 0.1851
vn -0.9661 0.2145 0.1437
vn -0.9757 0.2156 0.0394
vn -0.0269 0.9919 0.1242
vn -0.9551 0.2946 0.0309
vn -0.9568 0.2893 0.0299
vn -0.9552 0.2945 0.0308
vn -0.9541 0.2978 0.0314
vn -0.0150 0.9980 0.0612
vn -0.0151 0.9907 0.1349
vn 0.0012 0.9974 0.0716
vn -0.2653 0.9612 0.0759
vn -0.2678 0.9604 0.0772
vn -0.2660 0.9610 0.0763
vn -0.2646 0.9614 0.0755
vn -0.2270 0.9641 0.1378
vn -1.0000 -0.0000 -0.0000
vn -0.2865 0.9293 0.2329
vn -0.0000 -1.0000 -0.0002
vn -0.0000 -1.0000 -0.0001
vn -0.0000 -0.6263 -0.7796
vn -0.0963 -0.6304 -0.7702
vn 0.1140 -0.4090 -0.9054
vn -0.0261 -0.0000 -0.9997
vn -0.0260 -0.0000 -0.9997
vn -0.0000 -0.0000 -1.0000
vn -0.0000 0.8943 -0.4474
vn -0.0000 0.5860 -0.8103
vn 0.0260 -0.0000 -0.9997
vn 0.0261 -0.0000 -0.9997
vn -0.1140 -0.4090 -0.9054
vn 0.2660 0.9610 0.0762
vn 0.2678 0.9604 0.0772
vn 0.2653 0.9612 0.0759
vn -0.0012 0.9974 0.0716
vn 0.2646 0.9614 0.0755
vn 0.2270 0.9641 0.1378
vn 0.0151 0.9907 0.1349
vn 0.0151 0.9957 0.0915
vn 0.9552 0.2944 0.0308
vn 0.9541 0.2978 0.0314
vn 0.9551 0.2948 0.0309
vn 0.9568 0.2893 0.0299
vn 0.9757 0.2156 0.0394
vn 0.0269 0.9919 0.1242
vn 0.0269 0.9824 0.1848
vn 0.0269 0.9824 0.1850
vn 0.9661 0.2145 0.1437
vn 0.9692 0.2003 0.1435
vn 0.9661 0.2144 0.1437
vn -0.0038 0.9729 0.2313
vn 0.0437 0.9733 0.2255
vn 0.9540 0.1918 0.2305
vn 0.9540 0.1919 0.2306
vn -0.0038 0.9732 0.2300
vn -0.0038 0.9779 0.2090
vn -0.0038 0.9669 0.2553
vn 0.2865 0.9292 0.2335
vn 0.2864 0.9291 0.2340
vn 0.2864 0.9290 0.2345
vn 0.2394 0.9516 0.1929
vn 0.2395 0.9518 0.1914
vn 0.2392 0.9507 0.1974
vn 0.2398 0.9532 0.1841
vn 0.1999 0.9550 0.2190
vn 0.1089 0.9558 0.2731
vn 0.6788 -0.0003 0.7344
vn 0.6787 -0.0003 0.7344
vn 0.4212 -0.0007 0.9070
vn 0.4212 -0.0009 0.9070
vn -0.0000 -1.0000 -0.0000
vn 0.9775 0.0007 0.2108
vn 0.9775 0.0005 0.2108
vn 0.9776 0.0015 0.2107
vn 0.0001 -1.0000 -0.0000
vn 0.0001 -1.0000 0.0007
vn -0.0000 -1.0000 0.0006
vn -0.0000 -1.0000 0.0005
vn -0.0001 -1.0000 0.0007
vn -0.0001 -1.0000 -0.0000
vn -0.9816 -0.1056 0.1591
vn -0.9776 0.0016 0.2107
vn -0.9815 0.0017 0.1912
vn -0.9775 0.0007 0.2108
vn -0.9775 0.0005 0.2108
vn -0.1939 -0.0012 0.9810
vn -0.1743 -0.2295 0.9576
vn -0.9302 -0.3466 0.1209
vn -0.0000 0.1349 0.9909
vn -0.0000 0.1343 0.9909
vn -0.0002 0.1310 0.9914
vn -0.9586 0.0407 0.2818
vn -0.0000 0.9367 0.3503
vn -0.0000 0.9206 0.3905
vn -0.0000 0.9422 0.3352
vn -0.0000 0.9410 0.3383
vn 0.0145 0.9530 0.3027
vn -0.0000 0.1310 0.9914
vn -0.0196 0.9532 0.3018
vn 0.9614 0.1648 0.2205
vn 0.9586 0.0407 0.2818
vn 0.0009 0.9545 0.2981
vn -0.0454 0.9743 0.2208
vn 0.2374 0.8297 0.5052
vn 0.4238 0.8707 0.2496
vn 0.3284 0.9297 0.1666
vn 0.3240 0.9163 0.2353
vn 0.3301 0.9349 0.1302
vn -0.0028 0.9933 0.1153
vn -0.0028 0.9977 0.0677
vn -0.0029 0.9933 0.1152
vn -0.0033 0.9778 0.2096
vn 0.9556 0.2464 0.1615
vn 0.9642 0.2553 0.0713
vn 0.0385 0.9976 0.0581
vn 0.9657 0.2591 0.0185
vn 0.9656 0.2592 0.0185
vn -0.0000 0.9910 0.1337
vn -0.0000 0.9945 0.1051
vn -0.0000 0.9982 0.0596
vn -0.0018 0.9982 0.0596
vn -0.0000 0.9514 0.3079
vn 0.9663 -0.2570 -0.0139
vn -0.0000 0.9361 0.3517
vn -0.0000 0.9097 0.4153
vn -0.9663 -0.2570 -0.0139
vn -0.0000 0.8918 0.4523
vn -0.2374 0.8297 0.5052
vn -0.9643 0.2552 0.0713
vn -0.9642 0.2553 0.0713
vn -0.9556 0.2464 0.1615
vn -0.3240 0.9163 0.2353
vn -0.3284 0.9297 0.1666
vn -0.3284 0.9297 0.1665
vn -0.4238 0.8707 0.2496
vn -0.3301 0.9349 0.1302
vn 0.0028 0.9977 0.0677
vn 0.0030 0.9922 0.1249
vn 0.0030 0.9922 0.1248
vn 0.0033 0.9742 0.2255
vn 0.0304 0.9629 0.2681
vn 0.0503 0.9775 0.2048
vn -0.9655 0.2596 0.0185
vn -0.9657 0.2591 0.0185
vn -0.0385 0.9976 0.0581
vn -0.6612 0.3614 -0.6574
vn -0.6601 0.3622 -0.6580
vn -0.6613 0.3614 -0.6573
vn -0.0251 0.9995 0.0171
vn -0.0000 0.5201 -0.8541
vn -0.0000 0.8507 -0.5256
vn -0.0000 0.4693 -0.8830
vn -0.0001 0.6265 -0.7794
vn -0.6631 0.3601 -0.6563
vn -0.0000 0.9983 0.0578
vn 0.0251 0.9995 0.0171
vn 0.6612 0.3614 -0.6574
vn 0.6631 0.3601 -0.6563
vn 0.6620 0.3609 -0.6569
vn 0.6601 0.3623 -0.6580
vn 0.9302 -0.3466 0.1209
vn 0.1743 -0.2295 0.9576
vn 0.1939 -0.0012 0.9810
vn 1.0000 -0.0000 -0.0000
vn 0.9816 -0.1056 0.1591
vn 0.0962 -0.6304 -0.7702
vn 0.9815 0.0017 0.1912
vn 0.9776 0.0016 0.2107
vn 0.2865 0.9293 0.2329
vt 0.869606 0.135224
vt 0.866102 0.138564
vt 0.865084 0.137065
vt 0.868287 0.134216
vt 0.852856 0.113995
vt 0.846497 0.145779
vt 0.881109 0.080712
vt 0.873701 0.115328
vt 0.857503 0.078857
vt 0.827376 0.113699
vt 0.831461 0.078009
vt 0.821619 0.111617
vt 0.819244 0.151813
vt 0.826738 0.076542
vt 0.831451 0.048294
vt 0.827930 0.005093
vt 0.833126 0.005384
vt 0.858937 0.049532
vt 0.862050 0.007583
vt 0.883190 0.010016
vt 0.880926 0.065184
vt 0.898881 0.027664
vt 0.892970 0.077015
vt 0.900568 0.027223
vt 0.894907 0.077751
vt 0.883567 0.009572
vt 0.862651 0.005527
vt 0.831831 0.001876
vt 0.826280 0.002733
vt 0.676347 0.004990
vt 0.678047 0.002691
vt 0.671196 0.005186
vt 0.672547 0.001690
vt 0.641705 0.005068
vt 0.620768 0.008932
vt 0.642290 0.007131
vt 0.621142 0.009383
vt 0.645082 0.049106
vt 0.622978 0.064571
vt 0.646297 0.078438
vt 0.672567 0.048100
vt 0.677065 0.076394
vt 0.672344 0.077813
vt 0.681941 0.111497
vt 0.676172 0.113528
vt 0.684046 0.151695
vt 0.656817 0.145438
vt 0.650691 0.113609
vt 0.622678 0.080096
vt 0.629835 0.114765
vt 0.635109 0.133691
vt 0.638294 0.136566
vt 0.637268 0.138054
vt 0.633782 0.134685
vt 0.632178 0.135379
vt 0.625348 0.116474
vt 0.623535 0.117669
vt 0.636505 0.139765
vt 0.655991 0.149003
vt 0.656426 0.147120
vt 0.684383 0.157915
vt 0.684496 0.155400
vt 0.751627 0.162267
vt 0.687531 0.154092
vt 0.751637 0.155158
vt 0.815742 0.154131
vt 0.818760 0.155508
vt 0.818863 0.158015
vt 0.846883 0.147467
vt 0.847304 0.149355
vt 0.866854 0.140282
vt 0.871205 0.135931
vt 0.879977 0.118288
vt 0.878174 0.117078
vt 0.815569 0.152515
vt 0.687764 0.152457
vt 0.698602 0.119347
vt 0.804900 0.119397
vt 0.695786 0.115828
vt 0.689051 0.076259
vt 0.699202 0.113295
vt 0.691693 0.076289
vt 0.695840 0.075974
vt 0.693567 0.010419
vt 0.696941 0.012619
vt 0.807951 0.076064
vt 0.698885 0.010961
vt 0.697611 0.094108
vt 0.806080 0.094182
vt 0.804392 0.113347
vt 0.807758 0.115878
vt 0.812055 0.076368
vt 0.814729 0.076330
vt 0.807248 0.012701
vt 0.810678 0.010488
vt 0.807454 0.007518
vt 0.696781 0.007473
vt 0.805287 0.011018
vt 0.608903 0.077020
vt 0.605319 0.026904
vt 0.610844 0.076301
vt 0.603636 0.026449
s 1
usemtl body
f 2/1/1 4/2/1 1/3/1
f 1/3/1 3/4/1 2/1/1
f 6/5/2 3/4/2 1/3/2
f 5/6/3 1/3/4 4/2/4
f 6/5/5 1/3/5 5/6/5
f 7/7/6 9/8/7 6/5/8
f 6/5/9 8/9/10 7/7/11
f 8/9/12 6/5/13 10/10/14
f 10/10/14 6/5/13 5/6/15
f 6/5/8 9/8/7 3/4/16
f 13/11/17 10/10/17 11/12/17
f 11/12/18 10/10/19 12/13/18
f 5/6/20 12/13/20 10/10/14
f 10/10/14 13/11/21 8/9/22
f 11/12/17 14/14/23 13/11/17
f 15/15/24 13/11/24 14/14/24
f 8/9/22 13/11/21 15/15/25
f 16/16/26 17/17/27 15/15/28
f 16/16/26 15/15/28 14/14/29
f 18/18/30 15/15/30 17/17/30
f 15/15/25 18/18/31 8/9/31
f 17/17/30 19/19/32 18/18/30
f 18/18/33 19/19/34 20/20/35
f 20/20/35 21/21/36 18/18/33
f 21/21/37 8/9/37 18/18/37
f 21/21/38 20/20/38 23/22/38
f 21/21/39 7/7/11 8/9/10
f 7/7/38 21/21/38 22/23/38
f 23/22/38 22/23/38 21/21/38
f 23/22/40 25/24/40 24/25/41
f 24/25/41 22/23/41 23/22/40
f 25/24/42 23/22/42 20/20/42
f 20/20/43 26/26/43 25/24/43
f 26/26/44 20/20/44 19/19/44
f 19/19/45 27/27/46 26/26/45
f 27/27/46 19/19/45 17/17/47
f 17/17/47 28/28/47 27/27/46
f 29/29/47 28/28/47 17/17/47
f 17/17/47 16/16/47 29/29/47
f 29/29/47 16/16/48 30/30/49
f 30/30/49 31/31/47 29/29/47
f 31/31/47 30/30/47 32/32/47
f 32/32/47 33/33/47 31/31/47
f 34/34/50 33/33/47 32/32/47
f 35/35/51 34/34/50 36/36/51
f 32/32/47 36/36/51 34/34/50
f 36/36/52 37/37/52 35/35/52
f 37/37/53 36/36/54 38/38/55
f 38/38/56 36/36/56 32/32/56
f 38/38/55 39/39/57 37/37/53
f 39/39/58 38/38/58 40/40/58
f 40/40/59 38/38/56 41/41/60
f 32/32/56 41/41/60 38/38/56
f 30/30/61 42/42/62 41/41/63
f 30/30/61 41/41/63 32/32/64
f 42/42/65 43/43/65 41/41/65
f 41/41/66 43/43/67 40/40/68
f 44/44/69 45/45/70 43/43/71
f 43/43/71 42/42/69 44/44/69
f 40/40/68 43/43/67 45/45/72
f 45/45/73 46/46/73 47/47/73
f 46/46/74 45/45/74 44/44/75
f 45/45/72 48/48/76 40/40/77
f 47/47/78 48/48/76 45/45/72
f 49/49/79 40/40/80 48/48/81
f 48/48/82 50/50/83 49/49/84
f 48/48/82 51/51/85 50/50/83
f 48/48/86 52/52/86 51/51/86
f 48/48/87 47/47/87 52/52/87
f 52/52/88 53/53/89 54/54/88
f 53/53/90 52/52/90 47/47/91
f 54/54/88 51/51/88 52/52/88
f 57/55/92 54/54/92 53/53/92
f 51/51/93 54/54/94 55/56/95
f 56/57/92 55/56/92 54/54/92
f 54/54/92 57/55/92 56/57/92
f 53/53/92 58/58/92 57/55/92
f 59/59/96 58/58/92 53/53/92
f 53/53/92 60/60/96 59/59/96
f 61/61/97 59/59/96 60/60/96
f 60/60/96 62/62/98 61/61/97
f 63/63/92 61/61/97 62/62/98
f 63/63/92 62/62/98 64/64/99
f 65/65/92 63/63/92 64/64/99
f 65/65/92 66/66/40 63/63/92
f 66/66/40 67/67/98 63/63/92
f 67/67/98 68/68/100 63/63/92
f 68/68/100 67/67/98 69/69/101
f 69/69/101 70/70/101 68/68/100
f 70/70/101 69/69/101 4/2/92
f 4/2/92 71/71/92 70/70/101
f 72/72/92 71/71/92 4/2/92
f 4/2/92 2/1/92 72/72/92
f 73/73/92 72/72/92 2/1/92
f 2/1/92 74/74/92 73/73/92
f 24/25/41 73/73/92 74/74/92
f 7/7/102 22/23/102 74/74/102
f 74/74/103 9/8/103 7/7/104
f 3/4/105 9/8/103 74/74/103
f 74/74/103 2/1/106 3/4/105
f 74/74/92 22/23/41 24/25/41
f 4/2/4 69/69/3 5/6/3
f 12/13/107 5/6/107 69/69/107
f 69/69/108 67/67/108 12/13/108
f 12/13/109 67/67/109 66/66/109
f 65/65/110 75/75/111 66/66/112
f 66/66/113 75/75/113 12/13/113
f 75/75/114 78/76/115 76/77/116
f 76/77/116 77/78/117 75/75/114
f 11/12/118 75/75/118 77/78/118
f 64/64/119 78/76/115 75/75/114
f 65/65/110 64/64/119 75/75/111
f 12/13/18 75/75/18 11/12/18
f 78/76/120 44/44/120 79/79/120
f 44/44/75 78/76/121 46/46/74
f 46/46/122 78/76/122 64/64/122
f 79/79/120 76/77/123 78/76/120
f 81/80/124 79/79/124 44/44/124
f 76/77/125 79/79/125 80/81/125
f 80/81/126 79/79/126 81/80/126
f 81/80/127 82/82/127 80/81/128
f 82/82/127 81/80/127 30/30/129
f 42/42/130 30/30/131 81/80/132
f 44/44/133 42/42/130 81/80/132
f 80/81/134 82/82/135 85/83/135
f 30/30/136 83/84/136 82/82/136
f 82/82/137 83/84/137 84/85/137
f 84/85/138 85/83/135 82/82/135
f 87/86/139 85/83/140 86/87/141
f 85/83/142 84/85/142 86/87/141
f 88/88/143 85/83/140 87/86/139
f 85/83/144 88/88/144 80/81/144
f 87/86/139 89/89/145 88/88/143
f 80/81/146 88/88/143 89/89/145
f 90/90/147 89/89/147 87/86/147
f 89/89/145 90/90/148 80/81/146
f 76/77/116 80/81/146 90/90/148
f 90/90/148 77/78/117 76/77/116
f 77/78/149 90/90/149 92/91/149
f 87/86/150 91/92/151 90/90/152
f 90/90/153 91/92/154 93/93/155
f 93/93/156 92/91/156 90/90/156
f 16/16/157 93/93/155 91/92/154
f 16/16/158 14/14/159 93/93/160
f 92/91/161 93/93/160 14/14/159
f 77/78/162 92/91/162 11/12/162
f 14/14/163 11/12/163 92/91/163
f 91/92/151 87/86/150 94/94/164
f 94/94/165 95/95/165 91/92/165
f 91/92/166 95/95/166 16/16/166
f 96/96/167 95/95/168 94/94/169
f 95/95/170 96/96/170 16/16/170
f 16/16/48 96/96/171 97/97/172
f 86/87/173 97/97/172 96/96/171
f 96/96/171 98/98/174 86/87/173
f 94/94/169 98/98/175 96/96/167
f 98/98/174 94/94/176 86/87/173
f 97/97/172 30/30/49 16/16/48
f 30/30/177 97/97/177 83/84/177
f 97/97/178 86/87/179 84/85/180
f 84/85/180 83/84/181 97/97/178
f 94/94/176 87/86/141 86/87/141
f 64/64/182 62/62/182 46/46/182
f 46/46/183 62/62/183 60/60/183
f 60/60/184 47/47/184 46/46/184
f 47/47/91 60/60/91 53/53/90
f 55/56/92 56/57/92 99/99/41
f 100/100/40 102/101/41 99/99/41
f 99/99/41 101/102/40 100/100/40
f 99/99/41 102/101/41 55/56/92
f 39/39/185 102/101/185 100/100/185
f 55/56/186 102/101/186 49/49/186
f 49/49/185 102/101/185 39/39/185
f 37/37/42 100/100/42 101/102/42
f 101/102/187 35/35/187 37/37/187
f 100/100/185 37/37/185 39/39/185
f 49/49/188 50/50/189 55/56/95
f 55/56/95 50/50/189 51/51/93
f 39/39/190 40/40/80 49/49/79
o gaz2975_nomg_body.025
v -20.247818 -3.345512 -3.230125
v -20.757206 -1.766876 -5.551983
v -20.247791 -1.766876 -5.551983
v -20.757236 -3.343494 -3.232750
v -20.247787 -3.310486 -14.438602
v -20.247814 -3.396526 -2.807152
v -20.247791 -3.884579 -2.538338
v -27.746548 -3.320515 -3.229980
v -28.256020 -3.367943 -2.822662
v -28.256027 -3.316933 -3.245628
v -28.256001 -3.884583 -2.538345
v -28.256004 -1.766880 -5.551975
v -28.256001 -3.310490 -14.438606
v -20.247787 -1.388554 -12.940498
v -28.255997 -1.388557 -12.940498
v -27.746601 -1.371971 -12.431355
v -27.746601 -1.766880 -5.551983
v -27.746590 -3.055889 -13.311317
v -20.757206 -3.055885 -13.311314
v -20.757206 -1.371967 -12.431351
vn -0.0000 0.8270 0.5622
vn 0.0004 0.8270 0.5622
vn 0.0003 0.8270 0.5622
vn -0.0000 0.8270 0.5623
vn 1.0000 -0.0000 -0.0000
vn 1.0000 0.0001 -0.0000
vn 0.0033 0.9928 0.1197
vn 0.0033 0.9995 0.0303
vn 0.0020 0.8783 0.4781
vn -0.0000 0.4824 0.8759
vn 0.0016 0.7932 0.6090
vn 0.0033 0.9994 0.0341
vn -1.0000 -0.0003 -0.0002
vn -1.0000 -0.0001 -0.0000
vn -1.0000 -0.0000 -0.0000
vn -0.0000 0.4821 0.8761
vn -0.0000 0.4826 0.8758
vn -0.0000 0.6148 -0.7887
vn -0.0000 0.7195 -0.6945
vn -0.0000 0.7823 -0.6229
vn -0.0000 -0.1963 0.9805
vn 0.9572 0.2888 0.0166
vn 0.9573 0.2887 0.0166
vn -0.0894 0.9944 0.0571
vn -0.0000 0.9987 0.0511
vn -0.0049 0.8305 0.5570
vn -0.0000 0.8300 0.5578
vn -0.0057 0.8305 0.5569
vn -0.0112 0.8311 0.5561
vn -0.0000 0.9156 0.4022
vn -0.0000 0.9778 0.2095
vn 0.0033 0.9997 0.0262
vn -0.0000 -0.2168 0.9762
vn -0.0000 0.9984 0.0573
vn 0.0833 0.9952 0.0510
vt 0.580103 0.214318
vt 0.573381 0.210408
vt 0.574083 0.209182
vt 0.580814 0.213097
vt 0.605097 0.207096
vt 0.623975 0.196065
vt 0.622707 0.196072
vt 0.623976 0.195010
vt 0.572903 0.209123
vt 0.572064 0.207825
vt 0.623978 0.193774
vt 0.604039 0.195050
vt 0.605307 0.196066
vt 0.604039 0.196105
vt 0.573126 0.204322
vt 0.571091 0.205801
vt 0.571948 0.204407
vt 0.604041 0.193742
vt 0.579722 0.200337
vt 0.604132 0.205801
vt 0.623975 0.227590
vt 0.623975 0.233657
vt 0.604039 0.233657
vt 0.604039 0.227590
vt 0.600239 0.200276
vt 0.605307 0.226322
vt 0.579718 0.198926
vt 0.598827 0.198864
vt 0.578992 0.199128
vt 0.572360 0.203135
vt 0.573030 0.195015
vt 0.601113 0.193760
vt 0.622707 0.221302
vt 0.605307 0.221302
vt 0.622707 0.226322
vt 0.599947 0.214148
vt 0.602344 0.219201
vt 0.574245 0.218630
vt 0.580841 0.214508
vt 0.601327 0.212705
s 1
usemtl body
f 104/103/191 106/104/192 103/105/193
f 103/105/193 105/106/194 104/103/191
f 107/107/195 105/106/195 103/105/196
f 103/108/197 106/109/198 108/110/199
f 107/107/195 103/105/196 108/111/196
f 107/107/195 108/111/195 109/112/195
f 109/113/200 108/110/199 111/114/201
f 106/109/198 110/115/202 108/110/199
f 110/115/202 111/114/201 108/110/199
f 110/115/202 112/116/197 111/114/201
f 112/117/203 113/118/204 111/119/205
f 111/114/206 113/120/206 109/113/207
f 112/117/203 114/121/205 113/118/204
f 114/121/205 115/122/205 113/118/205
f 116/123/208 107/124/208 115/125/208
f 115/125/208 117/126/209 116/123/210
f 114/121/205 117/127/205 115/122/205
f 116/123/210 117/126/209 118/128/211
f 119/129/212 118/130/213 117/127/214
f 117/127/215 114/121/215 119/129/215
f 119/131/216 114/121/217 112/117/218
f 112/117/218 110/132/219 119/131/216
f 119/129/195 110/133/195 120/134/195
f 120/134/195 118/130/213 119/129/212
f 106/109/198 121/135/220 120/136/221
f 120/136/222 110/115/202 106/109/198
f 118/128/211 120/136/221 121/135/220
f 121/135/220 122/137/223 118/128/211
f 122/138/205 121/139/205 106/140/205
f 106/140/205 104/141/205 122/138/205
f 122/138/224 104/141/224 105/106/224
f 118/128/211 122/137/223 116/123/210
f 105/106/225 116/142/225 122/138/225
f 107/107/195 116/142/195 105/106/195
o gaz2975_nomg_body.171
v -20.757206 -1.594318 -8.638973
v -27.746590 -3.464569 -9.829590
v -20.757206 -3.464565 -9.829590
v -27.746593 -1.594318 -8.638973
v -20.757206 -1.587784 -8.438309
v -27.746593 -1.587788 -8.438309
v -27.746597 -3.458038 -9.628925
v -20.757206 -3.458035 -9.628918
vn -0.0000 0.5370 -0.8436
vn -0.0000 0.6457 -0.7636
vn -0.0000 0.5674 -0.8234
vn -0.0000 -0.4691 0.8831
vn -0.0000 -0.5370 0.8436
vt 0.498785 0.206228
vt 0.498785 0.200037
vt 0.518302 0.200037
vt 0.518302 0.206228
vt 0.518302 0.199476
vt 0.498785 0.199476
vt 0.498785 0.193285
vt 0.518302 0.193285
s 1
usemtl body
f 124/143/226 126/144/227 123/145/228
f 123/145/228 125/146/226 124/143/226
f 127/147/229 123/145/228 126/144/227
f 126/144/227 128/148/229 127/147/229
f 127/147/229 128/148/229 129/149/230
f 129/149/230 130/150/230 127/147/229
o gaz2975_nomg_body.172
v -20.757206 -1.742558 -6.222736
v -27.746593 -3.386097 -7.420738
v -20.757206 -3.386093 -7.420738
v -27.746601 -1.742561 -6.222736
v -20.757206 -1.736027 -6.022076
v -27.746593 -1.736031 -6.022076
v -27.746593 -3.379555 -7.220078
v -20.757210 -3.379551 -7.220078
vn -0.0000 0.5890 -0.8081
vn -0.0001 0.6947 -0.7193
vn -0.0000 0.6191 -0.7853
vn -0.0000 -0.5203 0.8540
vn -0.0000 -0.5890 0.8081
vt 0.518714 0.222415
vt 0.518714 0.228094
vt 0.499197 0.228094
vt 0.499197 0.222415
vt 0.499197 0.228655
vt 0.518714 0.228655
vt 0.518714 0.234334
vt 0.499197 0.234334
s 1
usemtl body
f 132/151/231 134/152/232 131/153/233
f 131/153/233 133/154/231 132/151/231
f 135/155/234 131/153/233 134/152/232
f 134/152/232 136/156/234 135/155/234
f 135/155/234 136/156/234 137/157/235
f 137/157/235 138/158/235 135/155/234
o gaz2975_nomg_body.326
v -24.194527 -3.396988 -2.849030
v -23.936661 -1.711357 -5.990932
v -23.936665 -3.396988 -2.849045
v -24.194527 -1.711357 -5.990925
v -24.194523 -1.382721 -12.461269
v -24.194519 -3.797470 -13.942768
v -23.936661 -1.382915 -12.467083
v -23.936661 -3.294083 -13.935257
vn -0.0000 0.8812 0.4728
vn -1.0000 -0.0000 -0.0000
vn -0.9860 0.1668 0.0085
vn -0.9472 0.3203 0.0162
vn 0.9473 0.3201 0.0162
vn 0.9473 0.3199 0.0162
vn 0.9986 0.0534 0.0027
vn -0.9471 0.3204 0.0163
vn 1.0000 -0.0000 -0.0000
vt 0.547885 0.198878
vt 0.547577 0.199528
vt 0.538577 0.195272
vt 0.538884 0.194621
vt 0.538884 0.203853
vt 0.547885 0.199598
vt 0.565976 0.199598
vt 0.569765 0.206542
vt 0.565992 0.198878
vt 0.569816 0.193340
s 1
usemtl body
f 140/159/236 142/160/236 139/161/236
f 139/161/236 141/162/236 140/159/236
f 139/163/237 142/164/238 143/165/239
f 143/165/237 144/166/237 139/163/237
f 143/165/239 142/164/238 140/159/240
f 140/159/241 145/167/242 143/165/243
f 145/167/242 140/159/241 141/162/244
f 141/162/244 146/168/244 145/167/242
o gaz2975_nomg_body.334
v -27.746590 -3.532162 -11.904053
v -20.757206 -1.487926 -10.719120
v -20.757210 -3.532158 -11.904053
v -27.746593 -1.487930 -10.719120
v -27.746593 -1.494469 -10.919788
v -20.757206 -1.494465 -10.919781
v -27.746590 -3.538692 -12.104713
v -20.757206 -3.538689 -12.104713
vn -0.0001 -0.4349 0.9005
vn -0.0000 -0.4349 0.9005
vn -0.0000 -0.5015 0.8652
vn -0.0000 0.6108 -0.7918
vn -0.0000 0.5317 -0.8470
vn -0.0000 0.5015 -0.8652
vt 0.518936 0.214702
vt 0.498668 0.214702
vt 0.498668 0.207850
vt 0.518936 0.207850
vt 0.498669 0.215284
vt 0.518936 0.215284
vt 0.498668 0.221097
vt 0.518936 0.221097
s 1
usemtl body
f 148/169/245 150/170/246 147/171/247
f 147/171/247 149/172/247 148/169/245
f 151/173/248 150/170/246 148/169/245
f 148/169/245 152/174/249 151/173/248
f 153/175/250 151/173/248 152/174/249
f 152/174/249 154/176/250 153/175/250
