# Blender 4.3.2
# www.blender.org
mtllib door3_1.mtl
o gaz2975_nomg_body.005
v -1.534840 12.979965 -8.189190
v -1.534184 12.979969 20.183846
v 1.247967 26.987923 -8.191268
v 1.253689 26.987923 16.940483
v -0.749550 16.922443 20.172028
vn 0.9808 -0.1949 -0.0000
vn 0.9808 -0.1950 -0.0001
vn 0.9808 -0.1951 -0.0001
vn 0.9808 -0.1952 -0.0002
vn 0.9808 -0.1952 -0.0000
vt 0.009818 0.679680
vt 0.009788 0.930238
vt 0.495079 0.679671
vt 0.439614 0.930248
vt 0.494879 0.750194
s 1
usemtl glass
f 1/1/1 3/2/2 2/3/3
f 3/2/2 4/4/4 2/3/3
f 4/4/4 5/5/5 2/3/3
o gaz2975_nomg_body.006
v 0.835678 27.038231 -8.191307
v -1.946457 13.030277 20.183811
v -1.947128 13.030277 -8.189225
v -1.161823 16.972752 20.171989
v 0.841408 27.038231 16.940449
vn -0.9808 0.1952 0.0002
vn -0.9808 0.1950 0.0001
vn -0.9808 0.1951 0.0001
vn -0.9808 0.1949 -0.0000
vn -0.9808 0.1953 0.0002
vt 0.494879 0.750194
vt 0.009788 0.930238
vt 0.495079 0.679671
vt 0.009818 0.679680
vt 0.439614 0.930248
s 1
usemtl glass
f 9/6/6 6/7/7 7/8/8
f 6/7/7 8/9/9 7/8/8
f 9/6/6 10/10/10 6/7/7
