# Blender 4.3.2
# www.blender.org
mtllib door1.mtl
o gaz2975_nomg_body.079
v -2.447338 9.723598 -4.945311
v -2.447735 2.812916 -5.067289
v -2.422256 10.906868 -10.883744
v -2.447514 6.756260 -4.985622
v -2.447353 6.739651 -2.677485
v -2.447166 10.081230 -2.677501
v -2.416779 10.934891 24.378578
v -2.447224 9.625751 -0.721853
v -1.534534 9.625698 -0.721880
v -1.534481 10.081184 -2.677526
v -1.534668 6.739632 -2.677511
v -1.534668 6.739632 -4.985632
v -1.534843 5.717651 -2.677501
v -1.534950 2.743313 -0.721861
v -2.447636 2.743362 -0.721834
v -1.535030 2.341667 -2.677485
v -2.447559 3.899479 0.788805
v -1.534870 3.899429 0.788782
v -1.534599 8.415752 0.788782
v -1.534740 6.157593 1.233767
v -2.447422 6.157642 1.233797
v -2.447289 8.415806 0.788813
v -2.446697 -20.229294 24.378574
v -2.447384 -20.229294 2.133610
v -1.374187 -20.229294 24.378567
v -1.344269 10.934891 24.378571
v -1.349743 10.906868 -10.883744
v -1.373119 9.121380 19.507389
v -0.964058 12.853775 -8.189193
v -0.962391 12.853596 20.183846
v -0.580059 14.774792 24.378571
v -1.372864 0.874252 19.443710
v -1.374016 0.823330 22.709312
v -1.376312 -6.256721 22.709324
v -1.652569 14.774792 24.378578
v -1.997089 13.043610 20.183846
v -1.211693 16.985947 20.172028
v 1.395145 30.088387 19.462090
v 0.789356 27.051826 16.940483
v 0.786343 27.051331 -8.191266
v 1.372154 30.007774 -10.886559
v 2.444664 30.007774 -10.886559
v 2.467663 30.088387 19.462097
v -0.176945 16.795925 20.172024
v 1.824085 26.861809 16.940483
v 1.821075 26.861305 -8.191274
v -1.998791 13.043797 -8.189178
v -1.374882 -20.229294 2.133610
v -1.375404 -6.256718 -4.534804
v 1.796429 -6.256725 -4.534891
v 1.795521 -6.256721 22.709305
v 1.796635 1.099049 5.042341
v 1.796661 0.874252 19.443710
v 1.796665 0.823280 22.709297
v 1.798706 9.121262 19.464512
v 1.796402 9.109653 -9.214754
v -1.375423 9.109753 -9.214721
v 1.796616 1.321606 -9.215790
v -1.375217 1.321709 -9.215758
v -1.375286 0.847855 -10.885054
v -2.447788 0.847855 -10.885054
v -2.447720 2.341713 -2.677460
v -2.447624 5.771576 -4.985687
v -2.447533 5.744629 -2.677472
v -1.534843 5.717651 -4.985622
vn -1.0000 0.0001 -0.0005
vn -1.0000 0.0010 -0.0030
vn -1.0000 0.0005 -0.0006
vn -0.9920 0.1265 -0.0006
vn -0.9998 0.0186 0.0002
vn -1.0000 0.0001 0.0001
vn -0.0000 -0.0000 1.0000
vn -0.0002 -0.5704 0.8213
vn -0.0000 -0.3274 0.9449
vn -0.9998 0.0219 0.0010
vn -1.0000 0.0025 0.0011
vn -0.0001 -0.9312 -0.3644
vn -0.0001 -0.8659 -0.5002
vn -0.0001 -0.9739 -0.2268
vn -0.0167 -0.9197 0.3923
vn -0.0168 -0.9196 0.3925
vn -0.0182 -0.9998 -0.0000
vn -0.0000 -1.0000 -0.0072
vn -1.0000 0.0001 -0.0000
vn -1.0000 0.0002 0.0001
vn -1.0000 0.0002 -0.0000
vn -0.0000 0.8779 -0.4788
vn -0.0000 0.9404 -0.3400
vn -0.0000 0.6042 -0.7969
vn 0.0001 0.8354 0.5496
vn -0.0000 0.3899 -0.9209
vn -0.0000 -0.0656 -0.9978
vn -0.0000 0.0656 -0.9978
vn -0.0001 -0.3867 -0.9222
vn -0.0001 -0.5952 -0.8036
vn -1.0000 0.0004 0.0005
vn -1.0000 0.0012 0.0010
vn -1.0000 -0.0000 0.0001
vn -1.0000 -0.0000 -0.0000
vn -0.0000 -1.0000 -0.0000
vn 0.9928 -0.1200 0.0001
vn 0.9808 -0.1952 -0.0003
vn 0.9902 -0.1397 -0.0001
vn 1.0000 0.0001 -0.0060
vn 1.0000 -0.0013 -0.0032
vn 1.0000 -0.0016 -0.0026
vn 0.9807 -0.1953 -0.0000
vn 0.9808 -0.1952 0.0001
vn -0.0000 0.2742 0.9617
vn -0.0000 0.2091 0.9779
vn 1.0000 -0.0030 0.0003
vn 0.9999 -0.0003 -0.0159
vn 1.0000 0.0001 -0.0007
vn -0.9808 0.1952 -0.0001
vn -0.9808 0.1952 -0.0000
vn -0.9807 0.1953 0.0003
vn -0.0000 0.3057 0.9521
vn -0.9807 0.1954 0.0004
vn -0.9809 0.1947 0.0003
vn -0.9809 0.1947 0.0004
vn -0.0000 1.0000 -0.0027
vn 0.9807 -0.1953 -0.0004
vn 0.9807 -0.1953 -0.0003
vn 0.9809 -0.1948 -0.0003
vn 0.9809 -0.1947 -0.0004
vn -0.1806 -0.9836 -0.0000
vn -0.0000 0.0001 1.0000
vn -0.0543 -0.2954 -0.9538
vn -0.0005 -0.0029 -1.0000
vn -0.0000 -0.0001 -1.0000
vn -0.0000 -0.0000 -1.0000
vn -0.9809 0.1946 -0.0002
vn 0.1806 0.9836 -0.0000
vn -0.0002 0.2239 0.9746
vn 1.0000 0.0001 -0.0000
vn 1.0000 -0.0001 -0.0002
vn 0.8716 -0.4903 -0.0000
vn 0.9665 -0.2567 0.0003
vn 1.0000 -0.0001 -0.0000
vn 1.0000 -0.0002 -0.0000
vn -0.0000 0.6727 0.7399
vn -0.0000 0.9999 0.0156
vn 0.0067 -0.0052 1.0000
vn 0.0135 -0.0025 0.9999
vn 0.0068 -0.0051 1.0000
vn 0.9676 0.2523 -0.0023
vn -0.0000 -0.0077 1.0000
vn -0.0000 1.0000 -0.0004
vn 0.8820 0.4712 -0.0002
vn -0.0000 0.0001 -1.0000
vn 1.0000 -0.0000 -0.0000
vn 1.0000 -0.0002 0.0009
vn -0.0000 -0.5255 -0.8508
vn 1.0000 -0.0014 0.0072
vn 0.9999 -0.0025 0.0126
vn -1.0000 0.0012 -0.0004
vn 0.0001 0.5495 0.8355
vn 0.0165 0.5583 0.8295
vn 0.0165 0.5584 0.8294
vn 0.0295 0.9995 0.0117
vn -0.0000 -0.0001 1.0000
vn 0.0539 0.9130 0.4044
vn -0.0001 -0.0000 1.0000
vn 0.0590 0.9983 -0.0000
vt 0.721061 0.496069
vt 0.721179 0.504642
vt 0.720824 0.484677
vt 0.704023 0.508058
vt 0.727731 0.505674
vt 0.727729 0.496020
vt 0.964130 0.149840
vt 0.964130 0.159495
vt 0.961493 0.159495
vt 0.805895 0.508137
vt 0.733380 0.504358
vt 0.961493 0.215683
vt 0.964130 0.215683
vt 0.964130 0.221484
vt 0.961493 0.221484
vt 0.961493 0.149840
vt 0.964130 0.166164
vt 0.961493 0.166164
vt 0.720524 0.304874
vt 0.699326 0.299221
vt 0.708979 0.299223
vt 0.486838 0.128049
vt 0.486838 0.125096
vt 0.493506 0.125098
vt 0.711932 0.299223
vt 0.961493 0.191294
vt 0.964130 0.191294
vt 0.964130 0.196790
vt 0.961493 0.185525
vt 0.721685 0.299225
vt 0.961493 0.196790
vt 0.717183 0.309238
vt 0.710659 0.310522
vt 0.700640 0.304871
vt 0.704135 0.309236
vt 0.961493 0.203440
vt 0.964130 0.203440
vt 0.964130 0.210090
vt 0.961493 0.210090
vt 0.805885 0.418099
vt 0.737744 0.500861
vt 0.739029 0.494338
vt 0.042866 0.350879
vt 0.039768 0.350879
vt 0.039768 0.292857
vt 0.737743 0.487814
vt 0.733378 0.484474
vt 0.741620 0.418106
vt 0.104019 0.364939
vt 0.107117 0.364939
vt 0.107119 0.429202
vt 0.042866 0.292857
vt 0.414502 0.724203
vt 0.408217 0.728832
vt 0.332256 0.724269
vt 0.343619 0.720039
vt 0.343767 0.700804
vt 0.342039 0.728832
vt 0.332255 0.733401
vt 0.042866 0.358028
vt 0.039768 0.358028
vt 0.336150 0.700685
vt 0.336150 0.684171
vt 0.332257 0.651582
vt 0.805896 0.519447
vt 0.793777 0.514348
vt 0.793744 0.525961
vt 0.791694 0.564556
vt 0.039768 0.387973
vt 0.784409 0.555611
vt 0.711804 0.555611
vt 0.704018 0.564318
vt 0.882092 0.596975
vt 0.882092 0.600073
vt 0.794409 0.600073
vt 0.794409 0.596975
vt 0.042866 0.387973
vt 0.342067 0.738208
vt 0.349604 0.762145
vt 0.343722 0.769820
vt 0.408222 0.762143
vt 0.414508 0.769625
vt 0.887908 0.595543
vt 0.825488 0.595543
vt 0.825488 0.592930
vt 0.923375 0.595508
vt 0.887908 0.592930
vt 0.798766 0.595648
vt 0.798767 0.593035
vt 0.788783 0.595497
vt 0.788784 0.592884
vt 0.937278 0.596975
vt 0.937278 0.600073
vt 0.711809 0.514351
vt 0.923376 0.592895
vt 0.993846 0.592906
vt 0.993846 0.595519
vt 0.385364 0.920887
vt 0.401877 0.920882
vt 0.401877 0.928280
vt 0.384140 0.651581
vt 0.399693 0.684171
vt 0.146907 0.648656
vt 0.210452 0.648658
vt 0.210452 0.656057
vt 0.146907 0.656052
vt 0.188112 0.673212
vt 0.154522 0.672681
vt 0.146905 0.672564
vt 0.385363 0.928282
vt 0.377746 0.928280
vt 0.377747 0.920887
vt 0.358511 0.928284
vt 0.358510 0.920885
vt 0.154471 0.691910
vt 0.154371 0.699303
vt 0.221364 0.691905
vt 0.221363 0.699309
vt 0.228763 0.673739
vt 0.228764 0.691904
vt 0.221367 0.673737
vt 0.414504 0.700741
vt 0.410611 0.701847
vt 0.216747 0.652171
vt 0.227661 0.669849
vt 0.410608 0.720012
vt 0.020334 0.918760
vt 0.020333 0.847192
vt 0.023431 0.847192
vt 0.966340 0.596975
vt 0.966340 0.600073
vt 0.023433 0.918760
vt 0.704016 0.479002
vt 0.104020 0.429202
vt 0.727728 0.483315
vt 0.721061 0.493224
vt 0.964130 0.185525
vt 0.727729 0.493145
vt 0.961493 0.175732
vt 0.964130 0.175732
vt 0.964130 0.169063
vt 0.961493 0.169063
vt 0.493505 0.128051
s 1
usemtl body
f 4/1/1 1/2/2 2/3/3
f 1/2/2 3/4/4 2/3/3
f 3/4/4 1/2/2 6/5/5
f 1/2/2 4/1/1 5/6/6
f 5/6/6 6/5/5 1/2/2
f 6/7/7 5/8/8 11/9/9
f 7/10/10 3/4/4 6/5/5
f 6/5/5 8/11/11 7/10/10
f 9/12/12 8/13/13 6/14/14
f 6/14/14 10/15/14 9/12/12
f 11/9/9 10/16/7 6/7/7
f 4/17/15 12/18/16 11/9/17
f 11/9/9 5/8/8 4/17/18
f 14/19/19 10/20/19 11/21/19
f 13/22/20 11/23/19 12/24/21
f 14/19/19 11/21/19 13/25/20
f 14/26/22 15/27/23 17/28/24
f 15/27/23 14/26/22 16/29/25
f 16/30/19 14/19/19 13/25/20
f 17/28/24 18/31/26 14/26/22
f 14/19/19 18/32/19 20/33/19
f 14/19/19 9/34/19 10/20/19
f 14/19/19 19/35/19 9/34/19
f 14/19/19 20/33/19 19/35/19
f 20/36/27 21/37/28 22/38/29
f 21/37/28 20/36/27 18/31/26
f 22/38/29 19/39/30 20/36/27
f 23/40/31 7/10/10 22/41/32
f 7/10/10 8/11/11 22/41/32
f 19/39/30 22/38/29 8/13/13
f 23/40/31 22/41/32 21/42/6
f 26/43/7 7/44/7 23/45/7
f 23/40/31 21/42/6 17/46/33
f 23/40/31 17/46/33 15/47/34
f 24/48/34 23/40/31 15/47/34
f 25/49/35 23/50/35 24/51/35
f 23/45/7 25/52/7 26/43/7
f 27/53/36 29/54/37 26/55/38
f 27/53/36 26/55/38 28/56/39
f 32/57/40 28/56/39 26/55/41
f 29/54/37 30/58/42 26/55/38
f 30/58/42 31/59/43 26/55/38
f 26/43/7 31/60/44 35/61/45
f 26/55/41 33/62/46 32/57/40
f 34/63/47 33/62/46 26/55/41
f 26/55/41 25/64/48 34/63/47
f 35/61/45 7/44/7 26/43/7
f 7/10/10 35/65/49 36/66/50
f 37/67/49 36/66/50 35/65/49
f 37/67/49 35/65/49 38/68/51
f 38/69/52 35/61/45 31/60/44
f 37/67/49 38/68/51 39/70/53
f 40/71/54 39/70/53 38/68/51
f 38/68/51 41/72/55 40/71/54
f 42/73/56 41/74/56 38/75/56
f 38/75/56 43/76/56 42/73/56
f 31/60/44 43/77/52 38/69/52
f 44/78/43 45/79/57 43/80/58
f 44/78/43 43/80/58 31/59/43
f 43/80/58 45/79/57 46/81/59
f 46/81/59 42/82/60 43/80/58
f 46/83/61 45/84/61 39/85/61
f 27/53/36 42/82/60 46/81/59
f 46/81/59 29/54/37 27/53/36
f 29/86/62 46/83/62 40/87/62
f 39/85/61 40/87/61 46/83/61
f 45/84/63 44/88/63 37/89/63
f 37/89/63 39/85/63 45/84/63
f 44/88/64 30/90/64 36/91/64
f 44/78/43 31/59/43 30/58/42
f 36/91/64 37/89/64 44/88/64
f 41/74/65 42/73/65 27/92/66
f 40/71/54 41/72/55 3/4/4
f 27/92/66 3/93/66 41/74/65
f 3/4/4 47/94/67 40/71/54
f 40/87/62 47/95/62 29/86/62
f 47/94/67 3/4/4 36/66/50
f 29/86/68 47/95/68 36/96/68
f 3/4/4 7/10/10 36/66/50
f 36/96/68 30/97/68 29/86/68
f 33/98/69 34/99/7 51/100/7
f 34/63/47 25/64/48 48/101/70
f 48/101/70 49/102/71 34/63/47
f 34/103/35 49/104/35 50/105/72
f 50/105/72 51/106/73 34/103/35
f 51/106/73 52/107/74 53/108/75
f 51/106/73 50/105/72 52/107/74
f 54/109/75 51/106/73 53/108/75
f 51/100/7 54/110/76 33/98/69
f 54/110/76 53/111/77 32/112/77
f 32/112/77 33/98/69 54/110/76
f 53/111/78 55/113/79 28/114/80
f 53/108/75 52/107/74 55/115/81
f 28/114/80 32/112/82 53/111/78
f 28/116/83 55/115/81 56/117/84
f 52/107/74 56/117/84 55/115/81
f 56/117/84 57/118/83 28/116/83
f 59/119/85 57/120/85 56/117/85
f 52/107/74 58/121/86 56/117/84
f 56/117/85 58/121/85 59/119/85
f 48/101/70 60/122/87 59/123/86
f 59/123/86 49/102/71 48/101/70
f 49/124/88 59/125/88 58/121/88
f 57/126/89 59/123/86 60/122/87
f 60/127/88 48/128/88 24/129/88
f 60/122/87 27/53/90 57/126/89
f 27/92/66 60/130/85 61/131/85
f 24/129/88 61/132/88 60/127/88
f 61/131/85 3/93/66 27/92/66
f 3/4/4 61/133/91 2/3/3
f 61/133/91 24/48/34 2/3/3
f 50/105/72 58/121/86 52/107/74
f 58/121/88 50/105/88 49/124/88
f 28/56/39 57/126/89 27/53/36
f 24/51/35 48/134/35 25/49/35
f 24/48/34 62/135/34 2/3/3
f 15/47/34 62/135/34 24/48/34
f 63/136/19 2/3/3 62/135/34
f 16/29/25 62/137/92 15/27/23
f 62/135/34 64/138/19 63/136/19
f 13/139/93 64/140/94 62/137/7
f 62/137/92 16/29/25 13/139/7
f 63/141/95 64/140/94 13/139/93
f 63/136/19 4/1/1 2/3/3
f 12/18/16 4/17/15 63/141/96
f 63/141/97 65/142/97 12/18/98
f 13/139/99 65/142/97 63/141/97
f 12/24/21 65/143/21 13/22/20
f 18/31/26 17/28/24 21/37/28
f 8/13/13 9/12/12 19/39/30
o gaz2975_nomg_body.283
v 3.516293 -1.161644 9.150911
v 3.743809 -0.317982 -1.599108
v 3.714523 -1.253571 -1.615173
v 2.580902 -1.132469 9.129873
v 3.444420 -0.930195 12.644701
v 3.546295 -0.226536 9.112940
v 2.509033 -0.901009 12.624325
v 2.508789 -0.063297 13.882122
v 2.544617 0.016048 12.313896
v 2.544872 0.665279 13.288631
v 3.481342 3.040947 15.566456
v 3.480244 0.637177 13.311525
v 2.546059 2.977703 15.461231
v 3.211353 3.892143 16.234627
v 2.273777 3.497120 15.859222
v 2.507694 2.379944 16.180748
v 2.229816 2.909527 16.586540
v 3.442978 2.443188 16.285980
v 3.444164 -0.091404 13.905006
v 3.480011 -0.013138 12.334274
v 2.610920 -0.197365 9.091908
v 2.778137 -1.224117 -1.567717
v 2.807415 -0.288536 -1.551655
v 2.471554 -0.171726 -4.003542
v 2.406239 -1.099274 -4.111610
v 3.440369 -1.166687 -3.996908
v 1.568043 -0.795784 -5.262416
v 1.398167 -0.922646 -4.350683
v 2.591785 -0.990646 -5.098777
v 2.686161 -0.069134 -4.952965
v 1.716789 0.115379 -5.107915
v 1.546898 -0.011482 -4.196183
v 3.476616 -0.233112 -3.926582
v 3.165802 3.305298 16.962482
v 2.369350 3.681057 17.218540
v 1.572983 3.730320 17.213406
v 2.411720 4.269402 16.491707
v 1.531906 3.004623 16.623581
v 1.572987 3.593048 15.896755
v 1.614075 4.318745 16.486576
vn 0.7289 0.6846 0.0076
vn 0.7286 0.6849 0.0075
vn 0.9993 -0.0313 0.0187
vn 0.6844 -0.7289 0.0188
vn 0.4202 -0.9073 0.0155
vn 0.9993 -0.0316 0.0187
vn -0.0313 -0.9995 0.0080
vn -0.0326 -0.9973 0.0654
vn 0.4179 -0.9059 0.0686
vn 0.6837 -0.7271 0.0623
vn 0.9993 -0.0311 0.0226
vn -0.9993 0.0315 -0.0219
vn -0.9992 0.0287 -0.0266
vn -0.9993 0.0293 -0.0246
vn -0.0384 -0.8318 0.5537
vn -0.0380 -0.8317 0.5539
vn -0.0382 -0.8318 0.5538
vn -0.9993 0.0312 -0.0207
vn -0.9993 0.0314 -0.0217
vn 0.0363 0.6841 -0.7284
vn 0.0357 0.6843 -0.7283
vn 0.0362 0.6842 -0.7284
vn 0.0384 0.6837 -0.7288
vn 0.0382 0.8318 -0.5538
vn 0.0385 0.8317 -0.5539
vn 0.0383 0.8318 -0.5538
vn -0.9992 0.0273 -0.0289
vn 0.0468 0.6262 -0.7782
vn 0.0453 0.6257 -0.7788
vn 0.0474 0.6247 -0.7794
vn 0.0445 0.6286 -0.7765
vn -0.9219 -0.2723 -0.2755
vn -0.9220 -0.2723 -0.2754
vn -0.9219 -0.2723 -0.2756
vn -0.9992 0.0279 -0.0301
vn -0.9218 -0.2724 -0.2758
vn -0.0459 -0.6267 0.7779
vn -0.0458 -0.6226 0.7812
vn -0.0471 -0.6248 0.7794
vn -0.0379 -0.6846 0.7279
vn -0.0357 -0.6842 0.7284
vn -0.0361 -0.6843 0.7283
vn -0.0384 -0.6847 0.7278
vn -0.0385 -0.8319 0.5536
vn 0.9992 -0.0280 0.0295
vn 0.9993 -0.0292 0.0248
vn 0.9992 -0.0281 0.0276
vn 0.9993 -0.0314 0.0219
vn 0.9993 -0.0315 0.0219
vn 0.0380 0.8319 -0.5536
vn 0.0326 0.9973 -0.0654
vn 0.0325 0.9973 -0.0654
vn -0.6841 0.7291 -0.0188
vn -0.6844 0.7288 -0.0189
vn 0.0314 0.9995 -0.0080
vn -0.9993 0.0313 -0.0187
vn -0.9993 0.0316 -0.0187
vn 0.0310 0.9995 -0.0080
vn 0.0586 0.9978 0.0297
vn 0.0336 0.9985 0.0430
vn 0.0587 0.9978 0.0297
vn -0.9890 0.0535 0.1381
vn -0.9889 0.0284 0.1460
vn -0.9890 0.0536 0.1380
vn -0.2455 -0.0951 0.9647
vn -0.0330 -0.9989 -0.0326
vn -0.0606 -0.9974 -0.0401
vn -0.0331 -0.9989 -0.0326
vn -0.0515 -0.9916 -0.1188
vn -0.1638 -0.9768 -0.1383
vn -0.1332 -0.9779 -0.1609
vn 0.7933 0.0150 -0.6086
vn 0.1815 0.1355 -0.9740
vn 0.1412 0.9803 0.1379
vn 0.1589 0.9734 0.1651
vn 0.1412 0.9803 0.1378
vn -0.2234 -0.1274 0.9664
vn 0.0515 0.9916 0.1188
vn 0.9929 -0.0293 -0.1151
vn 0.9929 -0.0299 -0.1154
vn 0.9929 -0.0297 -0.1153
vn 0.9929 -0.0291 -0.1151
vn 0.0587 0.9978 0.0296
vn -0.0310 -0.9995 0.0080
vn -0.0473 -0.6269 0.7776
vn 0.9688 0.1612 0.1884
vn 0.9684 0.1640 0.1878
vn 0.9687 0.1618 0.1883
vn 0.9992 -0.0283 0.0297
vn -0.0439 -0.6286 0.7765
vn 0.4936 0.6617 0.5644
vn 0.9690 0.1591 0.1889
vn 0.0439 0.7753 0.6301
vn -0.1377 -0.7660 -0.6279
vn -0.1378 -0.7660 -0.6279
vn -0.1385 -0.7663 -0.6274
vn 0.0443 0.6285 -0.7766
vn 0.0450 0.6281 -0.7768
vt 0.305687 0.975874
vt 0.330798 0.975789
vt 0.330768 0.977939
vt 0.305645 0.978138
vt 0.330734 0.980147
vt 0.338931 0.979986
vt 0.338775 0.977791
vt 0.338277 0.970860
vt 0.341278 0.970763
vt 0.341436 0.972918
vt 0.342451 0.979541
vt 0.330523 0.971607
vt 0.338431 0.973135
vt 0.349087 0.971710
vt 0.349201 0.973885
vt 0.341614 0.975120
vt 0.351398 0.973532
vt 0.351149 0.971256
vt 0.348793 0.969563
vt 0.350348 0.969170
vt 0.352860 0.977349
vt 0.350511 0.978061
vt 0.349776 0.976025
vt 0.342016 0.977345
vt 0.338600 0.975475
vt 0.330675 0.973725
vt 0.305552 0.973626
vt 0.305512 0.971423
vt 0.299337 0.973688
vt 0.299603 0.971436
vt 0.297329 0.970958
vt 0.305477 0.980338
vt 0.298892 0.979673
vt 0.300376 0.977796
vt 0.297552 0.977634
vt 0.295369 0.977783
vt 0.296130 0.980202
vt 0.297771 0.975601
vt 0.295728 0.975040
vt 0.296937 0.972987
vt 0.300466 0.975773
vt 0.351888 0.975291
vt 0.353615 0.974977
vt 0.355261 0.974872
vt 0.354771 0.977355
vt 0.353037 0.972923
vt 0.351796 0.968477
vt 0.352751 0.970386
vt 0.354493 0.972164
s 1
usemtl body
f 67/144/100 71/145/101 66/146/102
f 66/146/103 68/147/104 67/144/105
f 68/147/104 66/146/103 69/148/106
f 72/149/107 69/148/107 66/146/108
f 66/146/108 70/150/109 72/149/107
f 70/150/109 66/146/108 71/145/110
f 72/151/111 73/152/112 75/153/113
f 73/154/114 72/149/115 70/150/116
f 69/155/117 72/151/111 74/156/118
f 75/153/113 74/156/118 72/151/111
f 75/153/119 78/157/120 76/158/121
f 76/158/121 77/159/122 75/153/119
f 74/156/123 75/153/124 77/159/125
f 78/157/126 75/153/113 73/152/112
f 79/160/127 76/158/128 78/157/129
f 78/157/129 80/161/130 79/160/127
f 80/161/131 78/157/132 81/162/133
f 73/152/112 81/162/134 78/157/126
f 81/162/133 82/163/135 80/161/131
f 82/164/136 81/165/137 83/166/138
f 84/167/139 83/166/140 81/165/141
f 81/165/141 73/154/142 84/167/139
f 70/150/116 84/167/143 73/154/114
f 83/166/144 84/167/145 77/159/146
f 84/167/145 70/150/147 85/168/148
f 85/168/148 77/159/146 84/167/145
f 77/159/125 85/168/149 74/156/123
f 86/169/150 74/156/151 85/168/151
f 85/168/151 71/145/150 86/169/150
f 71/145/110 85/168/148 70/150/147
f 74/156/118 86/169/117 69/155/117
f 88/170/152 86/169/153 71/145/154
f 87/171/155 69/155/117 86/169/117
f 86/169/153 88/170/152 87/171/156
f 71/145/101 67/144/100 88/170/157
f 89/172/158 88/170/159 67/144/160
f 90/173/161 87/171/162 88/170/163
f 88/170/163 89/172/163 90/173/161
f 93/174/164 90/173/164 89/172/164
f 87/175/165 90/176/166 91/177/167
f 90/176/168 94/178/168 91/177/168
f 92/179/169 94/178/169 90/176/169
f 90/176/170 93/180/170 92/179/170
f 91/177/171 94/178/171 95/181/171
f 96/182/172 95/181/172 94/178/172
f 94/178/172 92/179/172 96/182/172
f 95/181/173 96/182/174 97/183/173
f 97/183/175 89/172/175 95/181/175
f 89/172/176 97/183/176 93/174/176
f 95/181/171 98/184/171 91/177/171
f 98/184/177 95/181/177 89/172/177
f 68/147/178 91/177/179 98/184/180
f 98/184/180 67/144/181 68/147/178
f 67/144/160 98/184/182 89/172/158
f 91/177/167 68/147/167 87/175/165
f 69/148/106 87/175/183 68/147/104
f 83/166/138 99/185/184 82/164/136
f 99/185/185 83/166/186 76/158/187
f 77/159/146 76/158/188 83/166/144
f 82/164/136 99/185/184 100/186/189
f 100/186/190 99/185/190 79/160/190
f 76/158/187 79/160/191 99/185/185
f 100/186/189 101/187/189 103/188/189
f 101/187/192 100/186/192 102/189/192
f 79/160/190 102/189/190 100/186/190
f 103/188/189 82/164/136 100/186/189
f 82/163/193 103/190/193 104/191/193
f 104/191/194 80/161/195 82/163/193
f 80/161/130 104/191/130 105/192/130
f 105/192/196 102/189/197 80/161/130
f 102/189/192 105/192/192 101/187/192
f 102/189/197 79/160/127 80/161/130
o gaz2975_nomg_body.288
v 2.527832 5.619457 3.030014
v 1.699806 6.036530 -4.374201
v 2.120174 6.036530 -4.374199
v 2.107456 5.619457 3.030014
v 1.799950 5.406490 4.464127
v 2.120346 4.224941 -4.374261
v 2.526112 4.557037 3.026007
v 1.699978 4.224941 -4.374259
v 2.105736 4.557037 3.026007
v 1.797901 4.755360 4.459490
v 2.087631 4.552399 -4.713381
v 1.667259 4.552399 -4.713381
v 2.087494 5.712517 -4.713247
v 1.667126 5.712517 -4.713249
vn -0.0000 0.9984 0.0562
vn 0.9984 -0.0004 -0.0567
vn 0.9984 0.0001 -0.0567
vn 0.9999 -0.0007 -0.0172
vn -0.0000 0.9892 0.1469
vn 0.9969 -0.0022 0.0791
vn 0.8915 -0.0050 0.4531
vn -0.0000 -0.9990 0.0448
vn -0.0000 -0.9906 0.1370
vn 0.8912 -0.0060 0.4536
vn -0.0000 -0.7194 -0.6946
vn 0.6849 0.0002 -0.7287
vn 0.5995 0.0002 -0.8004
vn -0.0000 0.0001 -1.0000
vn -0.0000 0.7230 -0.6909
vt 0.617592 0.998677
vt 0.618384 0.980071
vt 0.619301 0.980281
vt 0.618380 0.998299
vt 0.622519 0.998299
vt 0.619698 0.976417
vt 0.621822 0.980291
vt 0.623305 0.998684
vt 0.622741 0.980090
vt 0.621470 0.976427
vt 0.622124 0.999863
vt 0.621808 0.999027
vt 0.619081 0.999027
vt 0.618763 0.999862
s 1
usemtl body
f 107/193/198 109/194/198 106/195/198
f 106/195/198 108/196/198 107/193/198
f 111/197/199 108/196/200 106/195/201
f 106/195/202 109/194/202 110/198/202
f 112/199/203 106/195/201 110/198/204
f 112/199/203 111/197/199 106/195/201
f 113/200/205 111/197/205 112/199/205
f 112/199/205 114/201/205 113/200/205
f 112/199/206 115/202/206 114/201/206
f 110/198/204 115/202/207 112/199/203
f 113/200/208 117/203/208 116/204/208
f 116/204/208 111/197/208 113/200/208
f 118/205/209 116/204/210 117/203/211
f 117/203/211 119/206/211 118/205/209
f 119/206/212 107/193/212 108/196/212
f 108/196/212 118/205/212 119/206/212
f 111/197/199 118/205/209 108/196/200
f 111/197/199 116/204/210 118/205/209
o gaz2975_nomg_body.284
v -2.447525 5.795113 0.996881
v -2.447521 6.706501 -4.879697
v -2.447346 6.662834 0.996870
v -2.447533 5.824680 -4.879685
v -1.534660 6.662823 0.996840
v -1.534836 5.795097 0.996855
v -1.534843 5.824661 -4.879710
v -1.534668 6.692383 -4.879723
vn -1.0000 -0.0000 -0.0000
vn -1.0000 0.0002 -0.0000
vn -0.0000 0.9577 0.2877
vn 0.0002 0.9886 0.1507
vn -0.0000 -0.9603 0.2788
vn 0.0002 -0.9977 0.0684
vn 0.0003 -0.9884 -0.1521
vn -0.0000 -0.9885 -0.1509
vn -0.0000 -0.0000 -1.0000
vn -0.0000 1.0000 0.0050
vn 0.0155 0.9999 0.0074
vt 0.128668 0.117755
vt 0.131108 0.117023
vt 0.136067 0.133260
vt 0.133665 0.133981
vt 0.131635 0.097275
vt 0.128997 0.097275
vt 0.128996 0.094771
vt 0.131635 0.094770
vt 0.128996 0.077805
vt 0.131635 0.077805
vt 0.131635 0.075300
vt 0.131635 0.114242
vt 0.128996 0.114242
vt 0.128996 0.075259
s 1
usemtl body
f 121/207/213 123/208/213 120/209/214
f 120/209/214 122/210/214 121/207/213
f 124/211/215 122/212/216 120/213/217
f 125/214/218 120/213/217 123/215/219
f 120/213/217 125/214/218 124/211/215
f 123/215/219 126/216/220 125/214/218
f 127/217/221 126/216/220 123/215/219
f 127/218/222 121/219/223 122/212/223
f 122/212/216 124/211/215 127/218/222
f 123/215/219 121/220/221 127/217/221
o gaz2975_nomg_body.282
v -1.743050 29.843346 19.084099
v -1.887024 30.084984 18.661209
v -1.879551 29.839172 18.661224
v -1.750519 30.089157 19.084091
v -2.102879 29.832420 19.344658
v -2.110352 30.078239 19.344650
v -2.461761 29.821495 19.082798
v -2.469234 30.067314 19.082787
v -2.323734 29.825668 18.660419
v -2.331211 30.071480 18.660408
vn 0.9512 0.0289 -0.3073
vn 0.8504 0.0259 0.5255
vn 0.9965 0.0303 0.0785
vn 0.2333 0.0071 0.9724
vn -0.2368 -0.0072 0.9715
vn -0.5890 -0.0179 0.8079
vn -0.9501 -0.0289 -0.3107
vn 0.0018 -0.0000 -1.0000
vn -0.0304 0.9995 -0.0001
vt 0.921699 0.007330
vt 0.920415 0.007298
vt 0.920433 0.006588
vt 0.921716 0.006620
vt 0.919149 0.006557
vt 0.919132 0.007267
vt 0.917861 0.006525
vt 0.917853 0.007235
vt 0.916567 0.006529
vt 0.915279 0.006568
vt 0.916579 0.007239
vt 0.915300 0.007278
vt 0.973831 0.256203
vt 0.975115 0.256203
vt 0.975511 0.257424
vt 0.974473 0.258179
vt 0.973435 0.257424
s 1
usemtl body
f 129/221/224 131/222/225 128/223/226
f 128/223/226 130/224/224 129/221/224
f 132/225/227 128/223/226 131/222/225
f 131/222/225 133/226/228 132/225/227
f 134/227/229 132/225/227 133/226/228
f 133/226/228 135/228/229 134/227/229
f 136/229/230 134/227/230 135/228/230
f 130/230/231 136/229/231 137/231/231
f 135/228/230 137/231/230 136/229/230
f 137/231/231 129/232/231 130/230/231
f 129/233/232 137/234/232 135/235/232
f 133/236/232 131/237/232 135/235/232
f 131/237/232 129/233/232 135/235/232
o gaz2975_nomg_body.285
v -6.463669 11.946095 18.958637
v -5.253666 11.051785 19.045570
v -5.108929 11.470650 18.958683
v -6.393810 12.077549 19.387932
v -6.672554 11.554016 19.045307
v -7.100662 12.533443 19.389515
v -7.211170 12.432884 18.957890
v -7.537880 12.135544 19.046284
v -7.527897 13.998718 19.387661
v -7.676571 13.993973 18.958763
v -8.121208 13.979778 19.045021
v -7.527847 27.695045 19.387627
v -7.676289 27.695969 18.958912
v -7.460831 28.551277 19.380348
v -7.604229 28.588516 18.948200
v -8.121204 27.705139 19.044949
v -8.026562 28.720222 19.035030
v -8.121105 27.706741 19.387066
v -8.121212 13.979778 19.386841
v -7.321705 12.332321 19.558445
v -7.825260 13.989223 19.558548
v -7.537884 12.135544 19.385593
v -6.533527 11.814632 19.558537
v -6.672558 11.554016 19.386570
v -5.156723 11.329929 19.558525
v -5.253670 11.051785 19.386307
v -3.708305 10.880085 19.385830
v -3.710526 11.178841 19.558460
v -3.715084 11.483643 19.389473
v -5.061146 11.611374 19.387863
v -3.712811 11.331242 18.957916
v -3.708298 10.880085 19.046051
v -7.824921 27.701698 19.558548
v -7.746216 28.642258 19.548111
v -8.026028 28.725624 19.374355
v -7.378094 29.503326 19.354965
v -7.380543 29.495201 19.015514
v -7.161213 29.121353 18.934868
v -6.159809 29.774750 18.997227
v -6.131130 29.328773 18.921597
v -6.113285 29.191872 19.354477
v -1.261826 29.329407 18.731815
v -1.244892 29.200363 19.139378
v -1.254581 29.484344 19.293697
v -6.130405 29.493134 19.517269
v -1.272282 29.759407 19.124977
v -6.153694 29.783295 19.338455
v -1.280365 29.750885 18.802074
v -7.231316 29.261322 19.532608
v -7.083714 29.006142 19.368698
vn -0.2329 -0.6572 -0.7168
vn -0.2326 -0.6574 -0.7168
vn -0.0644 -0.1825 -0.9811
vn 0.1662 0.4734 -0.8650
vn -0.0637 -0.1815 -0.9813
vn 0.3133 0.8926 -0.3243
vn 0.5149 0.7945 -0.3219
vn 0.5118 0.7946 -0.3266
vn 0.5149 0.7945 -0.3218
vn -0.1132 -0.1668 -0.9795
vn -0.1042 -0.1614 -0.9814
vn 0.5177 0.7944 -0.3176
vn 0.9086 0.2710 -0.3179
vn 0.9168 0.2669 -0.2969
vn 0.9085 0.2710 -0.3179
vn -0.3952 -0.5869 -0.7067
vn -0.3951 -0.5868 -0.7068
vn -0.1884 -0.0602 -0.9803
vn -0.2081 -0.0615 -0.9762
vn -0.1883 -0.0602 -0.9803
vn 0.9450 -0.0000 -0.3272
vn 0.9448 -0.0000 -0.3275
vn 0.7206 -0.0000 -0.6934
vn -0.1882 -0.0602 -0.9803
vn 0.2398 -0.0000 -0.9708
vn -0.5008 -0.0001 -0.8656
vn 0.9432 -0.0785 -0.3228
vn 0.9440 -0.0801 -0.3201
vn 0.9431 -0.0783 -0.3232
vn 0.9421 -0.0765 -0.3264
vn -0.1945 0.0064 -0.9809
vn -0.1898 0.0035 -0.9818
vn -0.1944 0.0063 -0.9809
vn -0.8658 -0.0000 -0.5004
vn -0.1987 0.0089 -0.9800
vn -0.9957 0.0929 -0.0000
vn -0.9957 0.0928 -0.0002
vn -0.9957 0.0928 -0.0001
vn -0.9450 -0.0000 0.3272
vn -0.7568 -0.0000 0.6536
vn -0.5199 -0.1650 0.8381
vn -0.0047 -0.0015 1.0000
vn -0.0048 -0.0015 1.0000
vn -0.4926 -0.1498 0.8573
vn -0.1900 0.0001 0.9818
vn -0.9534 -0.3016 -0.0000
vn -0.2824 -0.4188 0.8630
vn -0.2861 -0.4354 0.8535
vn -0.5578 -0.8300 -0.0000
vn -0.2896 -0.8177 0.4974
vn -0.2893 -0.8177 0.4977
vn -0.1683 -0.4758 0.8633
vn -0.0007 -0.0019 1.0000
vn -0.0008 -0.0023 1.0000
vn -0.1685 -0.4787 0.8617
vn -0.3337 -0.9427 -0.0000
vn -0.0955 -0.8604 0.5005
vn -0.0956 -0.8606 0.5002
vn -0.1104 -0.9939 -0.0000
vn -0.0553 -0.4999 0.8643
vn -0.0535 -0.5121 0.8572
vn 0.0507 0.4848 0.8731
vn 0.0507 0.4849 0.8731
vn 0.0470 0.5062 0.8611
vn 0.0895 0.9393 -0.3312
vn 0.0490 0.4959 -0.8670
vn -0.0197 -0.1919 -0.9812
vn -0.0769 -0.6983 -0.7117
vn -0.0773 -0.6982 -0.7118
vn -0.0215 -0.1959 -0.9804
vn 0.1654 0.4697 0.8672
vn 0.1656 0.4734 0.8651
vn 0.3120 0.8920 -0.3272
vn 0.2742 0.4196 0.8653
vn 0.2737 0.4169 0.8667
vn 0.2742 0.4197 0.8653
vn 0.4896 0.1438 0.8600
vn 0.4896 0.1439 0.8600
vn 0.1875 -0.0000 0.9823
vn 0.4983 -0.0000 0.8670
vn -0.4996 0.0574 0.8644
vn -0.5154 0.0526 0.8553
vn -0.4995 0.0574 0.8644
vn 0.4987 -0.0318 0.8662
vn 0.4979 -0.0320 0.8666
vn 0.4981 -0.0320 0.8665
vn 0.4987 -0.0000 0.8668
vn -0.7682 0.6401 -0.0091
vn -0.7684 0.6399 -0.0098
vn -0.7683 0.6400 -0.0096
vn -0.4117 0.3635 0.8357
vn -0.4110 0.3633 0.8361
vn -0.4112 0.3633 0.8360
vn -0.9957 0.0929 0.0001
vn -0.7682 0.6401 -0.0090
vn -0.1661 0.1136 -0.9795
vn -0.1661 0.1138 -0.9795
vn -0.0495 0.1827 -0.9819
vn -0.0495 0.1828 -0.9819
vn -0.2232 0.9746 -0.0206
vn -0.2235 0.9745 -0.0217
vn -0.2234 0.9745 -0.0215
vn -0.0522 0.1637 -0.9851
vn 0.1764 -0.9431 -0.2819
vn 0.1843 -0.9349 -0.3033
vn -0.0116 -0.9534 -0.3014
vn -0.0116 -0.9535 -0.3011
vn -0.0264 -0.7327 -0.6801
vn -0.0337 -0.5015 -0.8645
vn 0.9985 0.0482 -0.0262
vn 0.9985 0.0483 -0.0262
vn 0.0395 -0.4733 0.8800
vn 0.0396 -0.4760 0.8785
vn 0.0458 0.0130 0.9989
vn 0.0399 0.5243 0.8506
vn 0.0256 0.8724 0.4881
vn 0.0397 0.5265 0.8492
vn 0.0037 0.9996 -0.0265
vn 0.9985 0.0483 -0.0263
vn -0.0256 0.6908 -0.7226
vn -0.0255 0.6906 -0.7228
vn 0.0039 0.9997 -0.0251
vn -0.0386 0.1627 -0.9859
vn -0.1128 0.5426 0.8324
vn -0.2231 0.9746 -0.0204
vn -0.0969 0.5165 0.8508
vn 0.4060 -0.3152 0.8578
vn 0.4044 -0.3149 0.8587
vn 0.4049 -0.3150 0.8584
vn -0.4119 0.3635 0.8356
vn 0.4068 -0.3154 0.8573
vn 0.1150 -0.4889 0.8647
vn 0.7315 -0.6147 -0.2950
vn 0.7313 -0.6154 -0.2941
vn 0.7314 -0.6150 -0.2947
vn 0.7317 -0.6142 -0.2957
vn 0.1764 -0.9431 -0.2820
vn 0.1025 -0.4684 0.8776
vn -0.1660 0.1135 -0.9796
vn 0.4990 -0.0317 0.8660
vn 0.2748 0.4231 0.8634
vt 0.966555 0.603902
vt 0.962399 0.603903
vt 0.962324 0.602620
vt 0.966577 0.602616
vt 0.962263 0.601322
vt 0.959550 0.601425
vt 0.959575 0.602745
vt 0.954867 0.601120
vt 0.959686 0.603953
vt 0.954708 0.602416
vt 0.915222 0.601080
vt 0.954400 0.603693
vt 0.915119 0.602394
vt 0.840928 0.233772
vt 0.838380 0.234538
vt 0.838012 0.233270
vt 0.840432 0.232527
vt 0.841555 0.235134
vt 0.914916 0.603710
vt 0.838825 0.235696
vt 0.841726 0.236390
vt 0.954360 0.604706
vt 0.914864 0.604705
vt 0.959676 0.604846
vt 0.959587 0.605723
vt 0.954551 0.605704
vt 0.962347 0.605878
vt 0.962408 0.604896
vt 0.966571 0.604874
vt 0.966588 0.605847
vt 0.970991 0.604917
vt 0.970793 0.605972
vt 0.970602 0.606987
vt 0.966618 0.606829
vt 0.966533 0.601304
vt 0.970491 0.601097
vt 0.970665 0.602429
vt 0.970970 0.603823
vt 0.962297 0.606855
vt 0.959484 0.606656
vt 0.954714 0.606689
vt 0.914981 0.605699
vt 0.841493 0.237580
vt 0.838760 0.237469
vt 0.838919 0.236570
vt 0.841251 0.238616
vt 0.915073 0.606690
vt 0.836291 0.236828
vt 0.836236 0.235958
vt 0.836209 0.234789
vt 0.833043 0.234718
vt 0.832895 0.236020
vt 0.833133 0.233414
vt 0.819060 0.233498
vt 0.819001 0.234733
vt 0.874709 0.011572
vt 0.833274 0.238955
vt 0.819125 0.238933
vt 0.819089 0.238001
vt 0.833123 0.237985
vt 0.818983 0.237027
vt 0.832929 0.237012
vt 0.818960 0.236012
vt 0.836390 0.237670
vt 0.838611 0.238424
vt 0.836488 0.238577
vt 0.836153 0.233487
s 1
usemtl body
f 139/238/233 142/239/234 138/240/235
f 138/240/236 140/241/236 139/238/237
f 140/241/236 138/240/236 141/242/238
f 143/243/239 141/242/240 138/240/241
f 144/244/242 138/240/243 142/239/243
f 138/240/241 144/244/244 143/243/239
f 146/245/245 143/243/246 144/244/247
f 142/239/248 145/246/249 144/244/242
f 147/247/250 144/244/251 145/246/252
f 144/244/247 147/247/247 146/245/245
f 149/248/253 146/245/254 147/247/255
f 145/246/252 148/249/256 147/247/250
f 150/250/257 147/247/255 148/249/258
f 147/247/255 150/250/257 149/248/253
f 150/251/259 152/252/260 151/253/261
f 151/253/261 149/254/262 150/251/259
f 152/252/263 150/251/264 153/255/265
f 148/249/258 153/256/266 150/250/257
f 153/255/265 154/257/267 152/252/263
f 154/257/268 153/255/269 155/258/270
f 156/259/271 155/260/272 153/256/266
f 153/256/266 148/249/258 156/259/271
f 156/259/273 159/261/273 157/262/273
f 157/262/274 158/263/275 156/259/276
f 155/260/272 156/259/271 158/263/277
f 159/261/278 156/259/278 148/249/278
f 160/264/279 157/262/280 159/261/279
f 159/261/279 161/265/279 160/264/279
f 161/265/281 159/261/281 145/246/281
f 148/249/278 145/246/278 159/261/278
f 161/265/282 163/266/283 162/267/284
f 162/267/285 160/264/286 161/265/287
f 163/266/283 161/265/282 142/239/288
f 145/246/249 142/239/248 161/265/281
f 142/239/234 139/238/233 163/266/288
f 164/268/289 163/266/290 139/238/291
f 163/266/290 164/268/289 165/269/292
f 165/269/292 162/267/293 163/266/293
f 162/267/294 165/269/294 166/270/294
f 166/270/295 167/271/296 162/267/295
f 167/272/297 166/273/297 168/274/297
f 168/274/298 140/241/298 167/272/297
f 140/241/298 168/274/298 169/275/299
f 169/275/300 139/238/301 140/241/302
f 139/238/301 169/275/300 164/268/291
f 167/271/303 141/276/304 160/264/304
f 141/242/238 167/272/305 140/241/305
f 160/264/286 162/267/285 167/271/303
f 157/262/306 160/264/307 141/276/308
f 158/263/275 157/262/274 143/277/309
f 143/277/310 146/278/310 158/263/310
f 170/279/311 158/263/277 146/278/312
f 158/263/277 170/279/311 155/260/272
f 170/280/313 171/281/314 172/282/315
f 171/281/316 170/280/317 149/283/318
f 146/278/312 149/284/319 170/279/311
f 172/282/315 155/258/315 170/280/313
f 172/282/320 173/285/321 174/286/322
f 173/285/323 172/282/324 171/281/325
f 155/258/270 172/282/326 154/257/268
f 174/286/322 154/257/327 172/282/320
f 154/257/328 174/286/329 175/287/329
f 177/288/330 175/287/331 174/286/331
f 176/289/332 174/286/333 173/285/334
f 174/286/331 176/289/335 177/288/330
f 175/287/336 177/288/337 178/290/336
f 180/291/338 178/290/339 177/288/340
f 179/292/341 177/288/340 176/289/335
f 177/288/340 179/292/341 180/291/338
f 181/293/342 180/293/343 179/293/343
f 178/294/344 180/295/345 181/296/345
f 181/296/346 182/297/346 178/294/344
f 182/297/346 181/296/346 183/298/347
f 179/293/343 183/293/342 181/293/342
f 183/298/348 184/299/348 182/297/349
f 184/299/348 183/298/348 185/300/350
f 185/293/351 183/293/342 179/293/343
f 185/300/352 176/289/353 184/299/354
f 176/289/353 185/300/352 179/292/355
f 184/299/356 173/285/356 186/301/356
f 173/285/334 184/299/357 176/289/332
f 186/301/358 182/297/358 184/299/358
f 186/301/359 171/281/360 151/302/361
f 171/281/325 186/301/362 173/285/323
f 151/302/361 187/303/363 186/301/359
f 182/297/364 186/301/364 187/303/364
f 152/252/365 175/287/366 187/304/367
f 187/304/367 151/253/368 152/252/365
f 178/290/336 187/304/369 175/287/336
f 187/303/364 178/294/370 182/297/364
f 175/287/329 152/252/371 154/257/328
f 149/283/318 151/302/372 171/281/316
f 141/276/308 143/277/373 157/262/306
o gaz2975_nomg_body.286
v 2.626404 29.922920 19.681652
v -2.688854 29.587143 19.681652
v -2.688854 29.922920 19.681652
v 2.626404 28.339622 19.681652
v -2.688862 29.922920 18.323631
v 2.626396 29.922920 18.323631
v 2.626396 28.339622 18.323631
v -2.688862 29.587143 18.323631
v 2.626396 28.339622 18.577465
v -2.522034 29.587143 18.514946
v 2.626396 29.743439 19.002640
v -2.522034 29.587143 19.490345
v 2.626404 28.339622 19.427826
vn -0.0000 -0.0000 1.0000
vn -0.0313 0.9995 -0.0003
vn -0.1252 0.9921 -0.0000
vn -0.0000 1.0000 -0.0000
vn -0.0000 -0.0000 -1.0000
vn -0.2285 -0.9735 -0.0000
vn -0.2329 -0.9511 0.2031
vn -0.0816 -0.2889 0.9539
vn 0.0303 -0.9995 -0.0000
vn -0.0816 -0.2889 -0.9539
vn -0.2355 -0.9719 -0.0000
vn -0.2241 -0.9548 -0.1954
vn -0.0000 -1.0000 -0.0000
vn -0.7607 -0.6491 -0.0001
vn -0.9705 -0.2413 -0.0000
vt 0.972387 0.266223
vt 0.975990 0.281582
vt 0.971416 0.281582
vt 0.971417 0.266223
vt 0.967493 0.266223
vt 0.967492 0.281582
vt 0.962917 0.281582
vt 0.966522 0.266223
vt 0.962206 0.281415
vt 0.965870 0.266552
vt 0.958419 0.279513
vt 0.963305 0.265384
vt 0.980490 0.279513
vt 0.976702 0.281415
vt 0.973040 0.266552
vt 0.968045 0.264771
vt 0.970864 0.264771
vt 0.971417 0.265253
vt 0.967493 0.265253
s 1
usemtl body
f 189/305/374 191/306/374 188/307/374
f 188/307/374 190/308/374 189/305/374
f 192/309/375 190/308/376 188/307/377
f 188/307/377 193/310/377 192/309/375
f 192/309/378 193/310/378 194/311/378
f 194/311/378 195/312/378 192/309/378
f 195/312/379 194/311/379 196/313/379
f 196/313/380 197/314/380 195/312/380
f 197/314/381 196/313/381 198/315/381
f 197/314/382 198/315/382 199/316/382
f 198/317/383 200/318/383 199/319/383
f 199/319/384 200/318/384 191/306/384
f 191/306/385 189/305/385 199/319/385
f 197/320/386 199/321/386 189/322/387
f 189/322/387 195/323/388 197/320/386
f 190/308/376 192/309/375 195/323/388
f 195/323/388 189/322/387 190/308/376
o gaz2975_nomg_body.289
v -4.782516 27.144630 17.810917
v -5.348515 27.832932 17.598652
v -5.415348 27.498039 17.572403
v -4.565628 27.395508 17.895210
v -4.228771 26.580406 18.031746
v -4.518436 26.504822 17.919415
v -4.631535 26.504593 18.211082
v -4.895607 27.144402 18.102577
v -9.308659 27.518127 16.398369
v -5.528435 27.497810 17.864071
v -10.213932 26.534393 16.046490
v -5.605106 15.934666 17.822220
v -4.683132 16.935440 18.180523
v -4.981747 16.375710 18.063454
v -4.570026 16.935677 17.888847
v -4.281075 16.839581 18.000896
v -4.658897 16.131573 17.852940
v -4.868656 16.375938 17.771786
v -5.492004 15.934902 17.530556
v -5.411144 15.599247 17.561626
v -9.352150 15.954918 16.369331
v -9.239056 15.955154 16.077675
v -9.322487 15.620293 16.045017
v -10.069847 16.160717 15.754902
v -9.858047 16.402775 15.837135
v -9.971134 16.402546 16.128796
v -10.265507 16.965279 16.015968
v -10.152409 16.965511 15.724304
v -10.442207 16.872784 15.611900
v -10.100838 26.534622 15.754826
v -10.389908 26.613678 15.642788
v -9.827568 27.171783 15.854641
v -9.940662 27.171555 16.146297
v -10.042423 27.425095 15.771576
v -9.259853 27.854019 16.082012
v -9.195549 27.518364 16.106716
v -10.293575 27.424545 16.543583
v -9.510921 27.853477 16.854038
v -5.599689 27.832352 18.370609
v -4.816822 27.395004 18.667210
v -6.789852 26.265518 19.665691
v -4.479939 26.579903 18.803730
v -6.818947 17.290749 19.647278
v -8.633213 26.282990 18.993359
v -8.662296 17.308178 18.974987
v -10.641010 26.613144 16.414795
v -10.693375 16.872238 16.383911
v -10.320976 16.160175 16.526840
v -9.573605 15.619755 16.817039
v -5.662331 15.598667 18.333618
v -4.910011 16.131027 18.624935
v -4.532261 16.839005 18.772854
vn 0.3548 0.0034 -0.9349
vn 0.3569 0.0054 -0.9341
vn 0.3563 0.0048 -0.9344
vn 0.3540 0.0027 -0.9353
vn -0.4316 -0.8863 -0.1680
vn -0.4316 -0.8863 -0.1681
vn 0.3619 0.0002 -0.9322
vn 0.3615 0.0002 -0.9324
vn -0.8514 -0.4074 -0.3305
vn -0.8514 -0.4074 -0.3304
vn -0.8513 -0.4074 -0.3305
vn 0.3607 0.0011 -0.9327
vn 0.3539 -0.1882 -0.9162
vn 0.3608 0.0011 -0.9327
vn 0.2690 -0.6586 -0.7028
vn 0.3612 0.0009 -0.9325
vn 0.3617 0.0008 -0.9323
vn 0.3819 0.0009 -0.9242
vn -0.9323 0.0062 -0.3615
vn 0.3584 0.0040 -0.9336
vn -0.8091 0.4972 -0.3133
vn 0.3616 0.0003 -0.9323
vn 0.3620 0.0013 -0.9322
vn 0.3615 0.0009 -0.9324
vn 0.3617 0.0009 -0.9323
vn 0.3608 0.0005 -0.9326
vn -0.5137 0.8347 -0.1985
vn 0.3608 0.0006 -0.9327
vn 0.3309 0.4162 -0.8469
vn 0.1747 0.8817 -0.4382
vn 0.3611 0.0007 -0.9325
vn 0.0044 1.0000 0.0025
vn 0.5209 0.8292 0.2026
vn 0.5209 0.8292 0.2027
vn 0.3621 0.0007 -0.9321
vn 0.3622 0.0005 -0.9321
vn 0.3623 0.0006 -0.9321
vn 0.3614 0.0008 -0.9324
vn 0.3612 0.0007 -0.9325
vn 0.3615 -0.0011 -0.9324
vn 0.3613 0.0007 -0.9324
vn 0.3596 0.0010 -0.9331
vn 0.8133 0.4887 0.3157
vn 0.9323 -0.0062 0.3615
vn 0.8133 0.4887 0.3158
vn 0.3613 0.0013 -0.9325
vn 0.3612 0.0013 -0.9325
vn 0.3613 0.0001 -0.9325
vn 0.3610 -0.0001 -0.9326
vn 0.3678 0.0038 -0.9299
vn 0.8483 -0.4153 0.3286
vn 0.3786 -0.0174 -0.9254
vn 0.4234 -0.8911 0.1635
vn 0.3662 0.0055 -0.9305
vn 0.3615 0.0007 -0.9324
vn 0.3693 0.0024 -0.9293
vn 0.4234 -0.8910 0.1635
vn -0.0044 -1.0000 -0.0025
vn 0.2613 -0.6818 -0.6833
vn 0.3268 -0.4163 -0.8485
vn 0.0045 1.0000 0.0022
vn -0.4326 0.8907 -0.1401
vn -0.4326 0.8906 -0.1401
vn -0.4326 0.8907 -0.1400
vn 0.0046 1.0000 0.0022
vn -0.1912 0.8418 0.5048
vn -0.1913 0.8416 0.5050
vn 0.4405 0.8861 0.1440
vn 0.0458 0.6155 0.7868
vn -0.2468 0.7219 0.6465
vn 0.3024 0.2777 0.9118
vn 0.3532 -0.0040 0.9355
vn 0.3500 -0.0031 0.9368
vn -0.3427 -0.0008 0.9395
vn -0.2245 0.7393 0.6348
vn -0.3426 -0.0008 0.9395
vn -0.3399 -0.1518 0.9281
vn -0.3399 -0.1520 0.9281
vn -0.7875 0.0021 0.6162
vn -0.7889 0.0013 0.6145
vn -0.7885 0.0015 0.6150
vn -0.7545 0.2253 0.6164
vn -0.5504 0.5491 0.6289
vn -0.7872 0.0023 0.6167
vn -0.9509 0.0061 -0.3094
vn -0.9509 0.0061 -0.3093
vn -0.8652 0.4151 -0.2812
vn -0.8652 0.4151 -0.2811
vn -0.6858 -0.4037 0.6055
vn -0.8298 -0.4882 -0.2703
vn -0.3642 -0.0035 0.9313
vn -0.2072 -0.8268 0.5230
vn -0.2072 -0.8269 0.5228
vn -0.0045 -1.0000 -0.0022
vn -0.5319 -0.8288 -0.1736
vn -0.2600 -0.7042 0.6607
vn 0.5245 -0.8343 0.1700
vn 0.0891 -0.5721 0.8153
vn -0.2521 -0.6951 0.6733
vn 0.8255 -0.4966 0.2682
vn 0.8255 -0.4965 0.2682
vn 0.2777 -0.3362 0.8999
vn 0.3563 -0.0049 0.9343
vn 0.9509 -0.0061 0.3094
vn 0.8688 0.4064 0.2829
vn 0.8688 0.4065 0.2829
vn 0.4406 0.8861 0.1439
vn -0.8652 0.4152 -0.2812
vt 0.445937 0.192872
vt 0.448640 0.194301
vt 0.447993 0.195004
vt 0.445740 0.193795
vt 0.447465 0.195503
vt 0.449849 0.196937
vt 0.448999 0.197146
vt 0.448276 0.197309
vt 0.430852 0.197222
vt 0.433602 0.194444
vt 0.445553 0.194504
vt 0.445285 0.228465
vt 0.448102 0.225636
vt 0.447195 0.227222
vt 0.448819 0.225832
vt 0.449675 0.226102
vt 0.448346 0.228419
vt 0.447734 0.227735
vt 0.445486 0.229158
vt 0.445715 0.230088
vt 0.433258 0.229096
vt 0.433465 0.228405
vt 0.431567 0.227143
vt 0.433019 0.230025
vt 0.430405 0.228328
vt 0.431023 0.227651
vt 0.430676 0.225550
vt 0.429957 0.225737
vt 0.429098 0.225998
vt 0.430131 0.197052
vt 0.429282 0.196833
vt 0.431155 0.194920
vt 0.431677 0.195424
vt 0.430515 0.194210
vt 0.433234 0.192808
vt 0.433423 0.193733
vt 0.770458 0.312093
vt 0.770957 0.314179
vt 0.756686 0.314177
vt 0.753132 0.311909
vt 0.754834 0.310388
vt 0.757365 0.312145
vt 0.772951 0.310289
vt 0.767754 0.306209
vt 0.774452 0.307808
vt 0.767774 0.279645
vt 0.762667 0.306280
vt 0.762667 0.279653
vt 0.753362 0.307869
vt 0.753309 0.277713
vt 0.751173 0.277188
vt 0.751201 0.308385
vt 0.757282 0.273489
vt 0.753039 0.273906
vt 0.754787 0.275442
vt 0.770359 0.273451
vt 0.756575 0.271495
vt 0.770871 0.271402
vt 0.774483 0.273790
vt 0.772853 0.275428
vt 0.776445 0.277087
vt 0.774377 0.277668
vt 0.776558 0.308353
vt 0.774551 0.311895
s 1
usemtl body
f 202/324/389 204/325/390 201/326/391
f 201/326/391 203/327/392 202/324/389
f 203/327/393 201/326/394 208/328/394
f 201/326/391 204/325/390 205/329/395
f 205/329/395 206/330/396 201/326/391
f 201/326/397 206/330/398 207/331/398
f 207/331/398 208/328/399 201/326/397
f 211/332/400 209/333/401 208/328/402
f 209/333/401 210/334/403 208/328/402
f 208/328/394 210/334/393 203/327/393
f 212/335/404 211/332/400 208/328/402
f 213/336/405 212/335/404 208/328/402
f 207/331/406 213/336/405 208/328/402
f 213/336/407 207/331/407 206/330/407
f 213/336/405 214/337/408 212/335/404
f 214/337/409 213/336/409 215/338/409
f 206/330/407 215/338/407 213/336/407
f 205/329/395 216/339/410 215/338/411
f 215/338/411 206/330/396 205/329/395
f 215/338/411 216/339/410 217/340/412
f 217/340/412 218/341/413 215/338/411
f 215/338/409 218/341/409 214/337/409
f 219/342/414 218/341/413 217/340/412
f 218/341/415 219/342/415 212/335/415
f 212/335/415 214/337/415 218/341/415
f 217/340/412 220/343/416 219/342/414
f 222/344/417 219/342/418 220/343/419
f 219/342/418 222/344/417 221/345/420
f 221/345/420 212/335/420 219/342/418
f 226/346/421 221/345/422 222/344/422
f 220/343/419 223/347/423 222/344/417
f 222/344/424 223/347/425 224/348/426
f 224/348/426 225/349/427 222/344/424
f 222/344/422 225/349/421 226/346/421
f 212/335/404 221/345/428 226/346/429
f 212/335/404 226/346/429 211/332/400
f 226/346/429 227/350/430 211/332/400
f 227/350/431 226/346/431 225/349/431
f 211/332/432 227/350/432 228/351/432
f 225/349/431 228/351/433 227/350/431
f 224/348/426 229/352/434 228/351/435
f 228/351/435 225/349/427 224/348/426
f 230/353/436 228/351/435 229/352/434
f 228/351/432 230/353/432 211/332/432
f 229/352/434 231/354/437 230/353/436
f 232/355/438 230/353/436 231/354/437
f 230/353/439 232/355/439 233/356/439
f 233/356/439 211/332/439 230/353/439
f 211/332/400 233/356/440 209/333/440
f 209/333/441 233/356/441 232/355/441
f 231/354/437 234/357/442 232/355/438
f 232/355/438 234/357/442 235/358/443
f 235/358/443 236/359/444 232/355/438
f 232/355/441 236/359/445 209/333/441
f 210/334/403 209/333/401 236/359/446
f 236/359/447 203/327/448 210/334/446
f 203/327/448 236/359/447 235/358/443
f 235/358/443 202/324/389 203/327/448
f 239/360/449 202/361/449 235/362/449
f 235/362/450 234/363/451 237/364/450
f 237/364/450 238/365/452 235/362/450
f 235/362/453 238/365/454 239/360/455
f 202/361/456 239/360/456 240/366/456
f 240/366/457 239/360/457 241/367/457
f 241/367/458 239/360/455 238/365/454
f 241/367/459 242/368/459 240/366/459
f 242/368/460 241/367/461 243/369/460
f 243/369/462 241/367/462 244/370/462
f 238/365/463 244/370/463 241/367/458
f 244/370/464 245/371/465 243/369/466
f 245/371/467 244/370/468 246/372/469
f 237/364/470 246/372/470 244/370/470
f 244/370/471 238/365/471 237/364/471
f 246/372/469 247/373/472 245/371/467
f 229/374/473 247/373/473 246/372/474
f 246/372/474 231/375/474 229/374/473
f 231/375/475 246/372/476 237/364/475
f 249/376/477 245/371/477 247/373/477
f 224/377/478 248/378/478 247/373/478
f 247/373/478 229/374/478 224/377/478
f 247/373/479 248/378/479 249/376/479
f 250/379/480 249/376/481 223/380/482
f 223/380/483 249/376/483 248/378/483
f 245/371/484 249/376/481 250/379/480
f 250/379/485 220/381/485 217/382/485
f 217/382/485 251/383/485 250/379/485
f 243/369/486 250/379/486 251/383/486
f 223/380/482 220/381/482 250/379/482
f 250/379/487 243/369/466 245/371/465
f 251/383/488 217/382/488 216/384/488
f 216/384/488 252/385/489 251/383/488
f 251/383/490 252/385/490 243/369/490
f 243/369/460 252/385/491 242/368/460
f 205/386/492 242/368/492 252/385/492
f 252/385/492 216/384/492 205/386/492
f 248/378/483 224/377/483 223/380/483
f 240/366/493 242/368/494 205/386/493
f 205/386/493 204/387/493 240/366/493
f 240/366/456 204/387/495 202/361/456
f 237/364/475 234/363/496 231/375/475
o gaz2975_nomg_body.291
v -8.212700 20.835327 19.296844
v -7.381760 20.835289 19.094559
v -8.130398 20.835289 18.852409
v -7.508301 20.835289 19.480991
v -8.060207 20.835327 19.563026
v -8.130398 22.414993 18.852409
v -8.212700 22.414993 19.296844
v -7.508301 22.414970 19.480991
v -8.060207 22.414970 19.563026
v -7.381760 22.414970 19.094559
v -7.723114 22.414970 19.637241
v -7.723114 20.835327 19.637241
vn -0.0001 -1.0000 -0.0000
vn -0.0000 -1.0000 0.0001
vn -0.9833 -0.0000 -0.1821
vn -0.9999 -0.0000 -0.0103
vn -0.0001 -1.0000 0.0001
vn -0.9750 -0.0000 0.2223
vn -0.6866 -0.0000 0.7271
vn -0.0000 1.0000 -0.0000
vn -0.0000 1.0000 0.0001
vn -0.4485 -0.0000 0.8938
vn 0.9503 -0.0000 0.3112
vn 0.8930 -0.0001 0.4500
vn 0.0090 0.0001 1.0000
vn 0.2968 -0.0000 0.9549
vn 0.7825 -0.0000 0.6227
vn -0.0000 -1.0000 0.0002
vt 0.514269 0.014096
vt 0.514287 0.015271
vt 0.512190 0.015431
vt 0.511996 0.014140
vt 0.934982 0.005081
vt 0.934982 0.000518
vt 0.936288 0.000518
vt 0.512858 0.016015
vt 0.936288 0.005081
vt 0.937174 0.000518
vt 0.516902 0.015342
vt 0.514800 0.015260
vt 0.514774 0.014086
vt 0.516257 0.015950
vt 0.937174 0.005081
vt 0.517047 0.014045
vt 0.940113 0.000518
vt 0.940113 0.005081
vt 0.938939 0.005081
vt 0.515262 0.015873
vt 0.938171 0.000518
vt 0.938171 0.005081
vt 0.938939 0.000518
vt 0.513848 0.015900
s 1
usemtl body
f 254/388/497 256/389/497 253/390/497
f 253/390/498 255/391/498 254/388/498
f 258/392/499 255/393/499 253/394/500
f 257/395/501 253/390/497 256/389/497
f 259/396/502 253/394/500 257/397/503
f 253/394/500 259/396/502 258/392/499
f 259/398/504 260/399/504 262/400/504
f 260/399/504 259/398/504 261/401/505
f 257/397/503 261/402/506 259/396/502
f 262/400/504 258/403/504 259/398/504
f 254/404/507 262/405/507 260/406/508
f 261/401/505 263/407/504 260/399/504
f 264/408/509 263/409/510 261/402/506
f 261/402/506 257/397/503 264/408/509
f 263/409/510 264/408/509 256/410/511
f 256/389/497 264/411/512 257/395/501
f 256/410/511 260/406/508 263/409/510
f 260/406/508 256/410/511 254/404/507
o gaz2975_nomg_body.080
v 2.583523 -7.456196 20.057034
v 2.584793 -12.799080 6.207735
v 2.585495 -12.799082 20.057037
v 2.584179 -7.456196 6.207735
v -1.741364 -7.456196 4.832092
v -1.741360 -7.456196 21.432693
v -1.741356 -12.792864 21.432697
v -1.501244 -14.437546 20.057045
v 1.504208 -14.115793 20.057037
v 1.503510 -14.115793 6.207735
v -1.741360 -12.792864 4.832092
v -1.501942 -14.437544 6.207733
vn 1.0000 0.0002 -0.0000
vn 0.7770 0.6295 -0.0000
vn 0.7468 0.6650 -0.0000
vn 1.0000 0.0004 -0.0001
vn 0.3030 0.0001 0.9530
vn 0.3031 0.0001 0.9530
vn -0.0000 1.0000 -0.0000
vn 0.3030 -0.0000 0.9530
vn 0.2937 -0.2412 0.9250
vn 0.0679 -0.6343 0.7701
vn 0.2666 -0.9638 0.0001
vn 0.4964 -0.8681 -0.0000
vn 0.1064 -0.9943 -0.0000
vn 0.7728 -0.6346 -0.0000
vn 0.2938 -0.2412 -0.9249
vn 0.0679 -0.6343 -0.7701
vn 0.3030 -0.0000 -0.9530
vn 0.3031 -0.0000 -0.9530
vt 0.312844 0.917422
vt 0.312843 0.904960
vt 0.345146 0.904959
vt 0.345145 0.917421
vt 0.355733 0.904959
vt 0.309635 0.894871
vt 0.348354 0.894871
vt 0.355734 0.917406
vt 0.333278 0.886244
vt 0.334213 0.882515
vt 0.339062 0.892778
vt 0.333790 0.893376
vt 0.300835 0.886246
vt 0.299901 0.882517
vt 0.295051 0.892778
vt 0.300322 0.893378
vt 0.302256 0.917407
vt 0.302256 0.904960
s 1
usemtl body
f 266/412/513 268/413/514 265/414/515
f 265/414/515 267/415/516 266/412/513
f 267/415/517 265/414/518 270/416/518
f 265/414/515 268/413/514 269/417/519
f 269/417/519 270/418/519 265/414/515
f 270/416/518 271/419/520 267/415/517
f 273/420/521 267/421/521 271/422/521
f 272/423/522 273/420/522 271/422/522
f 274/424/523 273/420/524 272/423/525
f 266/425/526 267/421/526 273/420/524
f 273/420/524 274/424/523 266/425/526
f 266/425/527 274/424/527 275/426/527
f 274/424/528 276/427/528 275/426/528
f 272/423/525 276/427/525 274/424/523
f 275/428/529 269/429/530 268/413/530
f 268/413/530 266/412/529 275/428/529
o gaz2975_nomg_body.290
v -2.883461 11.533485 18.841450
v -2.995640 10.463226 19.547634
v -2.880875 11.530098 19.584332
v -2.997211 10.466278 18.871758
v -3.574871 11.560860 18.628117
v -3.375751 11.692310 19.225258
v -3.570717 11.555389 19.830112
v -3.999630 11.574375 19.239201
v -3.937672 10.503040 19.234802
v -3.578640 10.490864 18.679089
v -3.576530 10.485954 19.770924
vn 0.9943 -0.1064 -0.0032
vn 0.9944 -0.1061 -0.0028
vn 0.9943 -0.1065 -0.0035
vn 0.9943 -0.1068 -0.0040
vn 0.3093 0.9509 0.0033
vn 0.2922 -0.0583 -0.9546
vn 0.1152 0.9614 -0.2500
vn -0.1798 0.9703 0.1617
vn 0.1269 0.9578 0.2578
vn -0.1869 0.9707 -0.1514
vn -0.8091 -0.0492 0.5857
vn -0.8211 -0.0243 -0.5702
vn -0.8395 -0.0463 -0.5414
vn 0.3124 -0.0463 -0.9488
vn -0.8295 -0.0264 0.5579
vn 0.3334 -0.0539 0.9413
vn 0.3555 -0.0703 0.9320
vt 0.879767 0.488602
vt 0.879184 0.490465
vt 0.876195 0.489635
vt 0.876836 0.487586
vt 0.528309 0.000347
vt 0.530496 0.000355
vt 0.529369 0.001824
vt 0.875747 0.491677
vt 0.531122 0.002386
vt 0.529327 0.003652
vt 0.527590 0.002374
vt 0.875362 0.495912
vt 0.875436 0.493804
vt 0.878523 0.494087
vt 0.878798 0.492194
vt 0.878456 0.495954
vt 0.878523 0.497752
vt 0.875434 0.498027
s 1
usemtl body
f 278/430/531 280/431/532 277/432/533
f 277/432/533 279/433/534 278/430/531
f 279/434/535 277/435/535 282/436/535
f 281/437/536 277/432/536 280/431/536
f 277/435/537 281/438/537 282/436/537
f 284/439/538 283/440/538 282/436/538
f 283/440/539 279/434/539 282/436/539
f 281/438/540 284/439/540 282/436/540
f 283/441/541 284/442/541 285/443/541
f 284/442/542 281/437/542 286/444/542
f 286/444/543 285/443/543 284/442/543
f 280/431/536 286/444/544 281/437/536
f 285/443/545 287/445/545 283/441/545
f 287/445/546 278/446/547 279/447/546
f 279/447/546 283/441/546 287/445/546
o gaz2975_nomg_body.078
v -3.513618 10.715714 19.897152
v -1.969761 10.715714 18.128559
v -1.969761 10.715714 20.336922
v -3.513618 10.715714 18.568329
v -4.119205 10.715714 18.965927
v -4.119205 10.715714 19.499538
v -1.969761 8.327469 20.336922
v -3.513618 8.327469 19.897152
v -3.513618 8.327469 18.568329
v -4.119205 8.327469 19.499538
v -1.969761 8.327469 18.128559
v -4.119205 8.327469 18.965927
vn -0.0000 1.0000 -0.0000
vn -0.2740 -0.0000 0.9617
vn -0.3268 -0.0000 0.9451
vn -0.4091 -0.0000 0.9125
vn -0.8383 -0.0001 0.5452
vn -0.0000 -1.0000 -0.0000
vn -0.8383 -0.0000 0.5452
vn -0.2740 -0.0000 -0.9617
vn -0.3269 -0.0000 -0.9451
vn -0.8383 0.0001 -0.5452
vn -0.4092 -0.0000 -0.9125
vn -0.8384 -0.0000 -0.5451
vt 0.881166 0.000938
vt 0.879895 0.005398
vt 0.876056 0.005398
vt 0.874786 0.000938
vt 0.858330 0.231930
vt 0.858330 0.238829
vt 0.853693 0.238829
vt 0.878746 0.007148
vt 0.877205 0.007148
vt 0.853693 0.231930
vt 0.851600 0.238829
vt 0.462397 0.024469
vt 0.463495 0.028147
vt 0.459585 0.030640
vt 0.464402 0.025069
vt 0.851600 0.231930
vt 0.457760 0.024527
vt 0.843328 0.238829
vt 0.843328 0.231930
vt 0.847965 0.231930
vt 0.464843 0.026546
vt 0.850058 0.231930
vt 0.847965 0.238829
vt 0.850058 0.238829
s 1
usemtl body
f 289/448/548 291/449/548 288/450/548
f 288/450/548 290/451/548 289/448/548
f 294/452/549 290/453/549 288/454/550
f 288/450/548 291/449/548 292/455/548
f 292/455/548 293/456/548 288/450/548
f 295/457/551 288/454/550 293/458/552
f 288/454/550 295/457/551 294/452/549
f 295/459/553 296/460/553 298/461/553
f 296/460/553 295/459/553 297/462/553
f 293/458/552 297/463/554 295/457/551
f 298/461/553 294/464/553 295/459/553
f 289/465/555 298/466/555 296/467/556
f 297/462/553 299/468/553 296/460/553
f 299/469/557 297/463/554 293/458/552
f 291/470/558 296/467/556 299/469/557
f 293/458/552 292/471/559 299/469/557
f 299/469/557 292/471/559 291/470/558
f 296/467/556 291/470/558 289/465/555
o gaz2975_nomg_body.287
v -1.339134 12.911572 20.922501
v -3.058998 13.254612 21.172966
v -1.335751 12.911572 21.147011
v -3.075993 13.254612 20.044731
v -2.297050 17.171070 19.997818
v -0.532497 16.964722 20.912899
v -0.320007 27.104065 16.821739
v 1.600254 27.684830 17.514175
v -0.335838 27.056816 -8.191065
v 1.586662 27.642021 -8.191510
v -0.084557 28.229698 -8.191124
v 1.633698 27.861580 -8.191516
v 1.639595 27.861572 17.646957
v -0.522495 16.997841 21.134762
v -0.078663 28.229691 17.666061
v -2.244961 17.344757 21.160706
vn -0.1952 -0.9808 0.0029
vn 0.4500 -0.0917 -0.8883
vn 0.4336 -0.0970 -0.8959
vn 0.4095 -0.3487 -0.8430
vn 0.3986 -0.3503 -0.8476
vn 0.2911 -0.9567 0.0014
vn 0.2889 -0.9573 0.0016
vn 0.2912 -0.9567 0.0014
vn -0.0002 -0.0000 -1.0000
vn 0.2095 0.9778 -0.0000
vn -0.1177 0.9931 0.0005
vn 0.0731 0.2916 0.9537
vn -0.2360 0.3393 0.9106
vn -0.3783 0.9257 0.0001
vn -0.4758 0.3534 0.8055
vn -0.9798 0.1995 0.0141
vn -0.9778 0.2095 0.0002
vn -0.9806 0.1953 0.0148
vn 0.0151 -0.0000 0.9999
vn -0.2941 0.0614 0.9538
vn -0.5287 0.1079 0.8420
vn -0.9806 0.1952 0.0148
vt 0.525747 0.007395
vt 0.529007 0.007395
vt 0.526396 0.012471
vt 0.525747 0.012471
vt 0.913389 0.601408
vt 0.913389 0.607109
vt 0.901448 0.607109
vt 0.901448 0.601408
vt 0.868596 0.607109
vt 0.868596 0.601408
vt 0.794159 0.607109
vt 0.794159 0.601408
vt 0.526486 0.001865
vt 0.529303 0.006941
vt 0.525837 0.006941
vt 0.525837 0.001865
vt 0.868596 0.615523
vt 0.794159 0.615523
vt 0.794159 0.610411
vt 0.901448 0.615523
vt 0.868596 0.610411
vt 0.901448 0.610411
vt 0.913389 0.615523
vt 0.913389 0.610411
s 1
usemtl body
f 301/472/560 303/473/560 300/474/560
f 300/474/560 302/475/560 301/472/560
f 300/476/561 303/477/562 304/478/561
f 304/478/561 305/479/561 300/476/561
f 305/479/563 304/478/564 306/480/563
f 306/480/563 307/481/563 305/479/563
f 307/481/565 306/480/566 308/482/567
f 308/482/567 309/483/567 307/481/567
f 309/484/568 308/485/568 310/486/568
f 310/486/568 311/487/568 309/484/568
f 312/488/569 311/489/569 310/490/570
f 313/491/571 312/488/571 314/492/572
f 310/490/570 314/492/573 312/488/569
f 314/492/572 315/493/574 313/491/571
f 315/493/574 314/492/572 306/480/575
f 308/482/576 306/480/575 314/492/576
f 314/492/573 310/490/570 308/482/576
f 306/480/575 304/478/577 315/493/575
f 302/494/578 313/491/578 315/493/579
f 301/495/580 315/493/579 304/478/581
f 315/493/579 301/495/580 302/494/578
f 304/478/581 303/477/581 301/495/581
o gaz2975_nomg_body.005
v -1.534840 12.979965 -8.189190
v -1.534184 12.979969 20.183846
v 1.247967 26.987923 -8.191268
v 1.253689 26.987923 16.940483
v -0.749550 16.922443 20.172028
vn 0.9808 -0.1949 -0.0000
vn 0.9808 -0.1950 -0.0001
vn 0.9808 -0.1951 -0.0001
vn 0.9808 -0.1952 -0.0002
vn 0.9808 -0.1952 -0.0000
vt 0.009818 0.679680
vt 0.009788 0.930238
vt 0.495079 0.679671
vt 0.439614 0.930248
vt 0.494879 0.750194
s 1
usemtl glass
f 316/496/582 318/497/583 317/498/584
f 318/497/583 319/499/585 317/498/584
f 319/499/585 320/500/586 317/498/584
o gaz2975_nomg_body.006
v 0.835678 27.038231 -8.191307
v -1.946457 13.030277 20.183811
v -1.947128 13.030277 -8.189225
v -1.161823 16.972752 20.171989
v 0.841408 27.038231 16.940449
vn -0.9808 0.1952 0.0002
vn -0.9808 0.1950 0.0001
vn -0.9808 0.1951 0.0001
vn -0.9808 0.1949 -0.0000
vn -0.9808 0.1953 0.0002
vt 0.494879 0.750194
vt 0.009788 0.930238
vt 0.495079 0.679671
vt 0.009818 0.679680
vt 0.439614 0.930248
s 1
usemtl glass
f 324/501/587 321/502/588 322/503/589
f 321/502/588 323/504/590 322/503/589
f 324/501/587 325/505/591 321/502/588
