# Blender 4.3.2
# www.blender.org
mtllib door5.mtl
o gaz2975_nomg_body.085
v 10.479660 -1.658882 -2.356926
v 11.838877 -1.581173 -2.926888
v 11.838877 -1.581173 -2.506531
v 10.479658 -1.658882 -2.777298
v 4.434664 -1.998241 -2.519234
v 4.434664 -1.998241 -2.098877
v 10.481499 -3.330929 -2.357208
v 11.838938 -3.392757 -2.506363
v 12.177927 -1.905186 -2.539215
v 12.178061 -3.065296 -2.539078
v 11.838938 -3.392757 -2.926727
v 10.481499 -3.330929 -2.777603
v 4.438670 -3.060661 -2.520981
v 4.438670 -3.060661 -2.100601
v 3.005191 -2.862343 -2.828812
v 3.000553 -2.211212 -2.826759
v 12.178061 -3.065296 -2.959442
v 12.177927 -1.905186 -2.959587
vn -0.0571 0.9984 -0.0000
vn -0.0566 0.9984 -0.0000
vn -0.0561 0.9984 -0.0000
vn 0.1066 -0.0000 0.9943
vn 0.1070 0.0001 0.9943
vn 0.0641 -0.0001 0.9979
vn -0.0560 0.9984 -0.0000
vn 0.0424 -0.0015 0.9991
vn 0.0427 -0.0001 0.9991
vn -0.0455 -0.9990 -0.0000
vn -0.0439 -0.9990 -0.0000
vn -0.0451 -0.9990 -0.0000
vn 0.0960 0.0001 0.9954
vn 0.0959 0.0001 0.9954
vn 0.6946 -0.7194 -0.0000
vn -0.0447 -0.9990 -0.0000
vn -0.1370 -0.9906 -0.0000
vn -0.4522 -0.0031 0.8919
vn -0.4536 -0.0060 0.8912
vn -0.0629 -0.0019 0.9980
vn -0.0631 -0.0019 0.9980
vn -0.4522 -0.0032 0.8919
vn -0.1469 0.9892 -0.0000
vn 1.0000 0.0001 -0.0000
vn 0.6909 0.7230 -0.0000
vt 0.901389 0.917417
vt 0.900911 0.920595
vt 0.899940 0.920506
vt 0.900404 0.917368
vt 0.896194 0.917000
vt 0.898743 0.934696
vt 0.897899 0.934365
vt 0.896070 0.920163
vt 0.895099 0.920073
vt 0.899718 0.916509
vt 0.897028 0.916273
vt 0.895607 0.916218
vt 0.895218 0.916866
vt 0.894625 0.934319
vt 0.895514 0.934148
vt 0.895543 0.937844
vt 0.897194 0.937998
vt 0.896435 0.915495
vt 0.897114 0.915299
vt 0.899802 0.915534
vt 0.900440 0.915849
vt 0.901122 0.916703
s 1
usemtl body
f 2/1/1 4/2/2 1/3/3
f 1/3/3 3/4/1 2/1/1
f 8/5/4 3/4/5 1/3/6
f 1/3/3 4/2/2 5/6/7
f 5/6/3 6/7/3 1/3/3
f 7/8/8 1/3/6 6/7/9
f 7/8/8 8/5/4 1/3/6
f 8/5/10 7/8/11 12/9/12
f 8/5/4 9/10/13 3/4/5
f 8/5/4 10/11/14 9/10/13
f 10/11/15 8/5/15 11/12/15
f 12/9/12 11/13/10 8/5/10
f 13/14/16 12/9/12 7/8/11
f 7/8/11 14/15/16 13/14/16
f 14/15/17 15/16/17 13/14/17
f 16/17/18 15/16/19 14/15/19
f 14/15/20 6/7/21 16/17/22
f 16/17/23 6/7/23 5/6/23
f 6/7/21 14/15/20 7/8/8
f 11/12/15 17/18/15 10/11/15
f 17/19/24 18/20/24 9/10/24
f 9/10/24 10/11/24 17/19/24
f 3/4/25 9/10/25 18/21/25
f 18/21/25 2/22/25 3/4/25
o gaz2975_nomg_body.313
v -15.707233 19.682762 -2.830620
v 9.468758 18.168831 -2.830299
v -10.304628 18.168823 -2.830444
v -11.285666 17.971107 -2.830444
v -11.983500 17.382065 -2.830429
v -12.249210 16.407852 -2.830429
v -12.249207 11.302742 -2.830368
v -11.983414 10.328522 -2.830338
v -15.707230 -21.086349 -2.829758
v -14.467655 21.820084 -2.830757
v -15.343338 20.944397 -2.830681
v -15.343327 20.944366 -4.280968
v -15.707222 19.682732 -4.280876
v -16.230257 21.467751 -4.280968
v -16.704449 19.823685 -4.280891
v -15.707212 -21.086380 -4.280029
v -15.337187 -22.452587 -2.829758
v -15.337175 -22.452614 -4.280029
v -16.704441 -21.219040 -4.280029
v -16.230249 -22.969843 -4.280014
v -16.704445 19.823685 -5.136284
v -16.704445 -21.219040 -5.135422
v -11.983410 10.328514 -5.136047
v -11.285341 9.739483 -5.136032
v -10.303972 9.541763 -5.136017
v 9.469413 9.541771 -5.135880
v 10.450447 9.739483 -5.135849
v 15.170088 -24.670143 -5.135429
v -14.984852 -24.215239 -5.135437
v -16.230247 -22.969843 -5.135422
v -14.984854 -24.215242 -4.280029
v -14.467625 -23.322159 -4.280029
v -13.101727 -23.692108 -4.280045
v -13.234053 -24.689434 -4.280029
v 15.170088 -24.670143 -4.280037
v -13.234051 -24.689434 -5.135422
v 14.172843 -23.673582 -4.280052
v 14.172831 -23.673552 -2.829796
v 14.172677 22.189209 -4.280403
v 14.172664 22.189232 -2.830124
v 10.450123 17.971115 -2.830276
v 11.148190 17.382072 -2.830261
v 11.413992 16.407860 -2.830261
v -13.101433 22.190117 -2.830696
v -13.101416 22.190094 -4.280983
v -14.467636 21.820053 -4.281021
v -13.234060 23.187332 -4.280998
v 15.169917 23.186417 -4.280418
v 15.169917 23.186417 -5.135818
v 9.468759 18.168831 -5.136024
v -14.984865 22.713135 -5.136436
v 10.450120 17.971115 -5.135994
v 11.148195 17.382072 -5.135979
v 11.413992 16.407860 -5.135963
v -13.234058 23.187332 -5.136375
v -14.984869 22.713135 -4.281036
v 11.413992 11.302750 -5.135895
v 11.148284 10.328522 -5.135880
v 11.413992 11.302750 -2.830185
v 11.142296 10.323471 -2.830185
v 10.442417 9.737865 -2.830185
v 9.469413 9.541771 -2.830185
v -13.101740 -23.692081 -2.829758
v -14.467642 -23.322136 -2.829758
v -10.303968 9.541763 -2.830307
v -11.285341 9.739483 -2.830338
v -16.230255 21.467751 -5.136360
v -10.304626 18.168823 -5.136154
v -11.285664 17.971107 -5.136154
v -11.983498 17.382057 -5.136154
v -12.249205 16.407852 -5.136139
v -12.249208 11.302742 -5.136063
vn -0.0000 -0.0000 1.0000
vn -0.0000 0.0001 1.0000
vn -1.0000 -0.0000 -0.0000
vn 0.0001 -0.0000 1.0000
vn -0.9608 0.2771 -0.0000
vn -0.8185 0.5746 -0.0000
vn -0.9044 0.4267 -0.0000
vn -0.9652 -0.2614 -0.0000
vn -0.8272 -0.5618 -0.0000
vn -0.9129 -0.4081 -0.0000
vn -0.9078 -0.4195 -0.0000
vn -0.0000 -0.0000 -1.0000
vn -0.8196 -0.5729 -0.0000
vn -0.4195 -0.9078 -0.0000
vn -0.5729 -0.8196 -0.0000
vn -0.2614 -0.9652 -0.0000
vn 0.0007 -1.0000 -0.0000
vn -0.0062 -1.0000 -0.0000
vn 1.0000 -0.0000 -0.0000
vn -0.0001 -0.0000 1.0000
vn -0.0068 1.0000 -0.0000
vn -0.0000 1.0000 -0.0000
vn -0.4088 0.9126 -0.0000
vn -0.0248 0.9997 -0.0000
vn -0.5626 0.8267 -0.0000
vn -0.2614 0.9652 -0.0000
vn -0.5729 0.8196 -0.0000
vn -0.4195 0.9078 -0.0000
vn -0.8127 0.5827 -0.0000
vn -0.8998 -0.4363 -0.0000
vn -0.7916 -0.6111 -0.0000
vn -0.9972 -0.0751 -0.0000
vn -0.9997 -0.0240 -0.0000
vn -0.9997 0.0239 -0.0000
vn -0.9971 0.0759 -0.0003
vn -0.9642 0.2652 -0.0009
vn -0.9636 0.2673 -0.0019
vn -0.4997 0.8662 -0.0002
vn -0.3463 0.9381 -0.0008
vn -0.6439 0.7651 -0.0006
vn -0.6450 0.7642 -0.0000
vn -0.1976 0.9803 -0.0000
vn -0.0242 -0.9997 0.0001
vn -0.5619 -0.8272 -0.0000
vn -0.4082 -0.9129 -0.0000
vn 0.3471 0.9378 -0.0000
vn 0.5009 0.8655 -0.0000
vn 0.1975 0.9803 -0.0000
vn 0.7916 0.6111 -0.0000
vn 0.8998 0.4363 -0.0000
vn -0.6449 -0.7643 -0.0000
vn -0.1975 -0.9803 -0.0000
vn -0.9001 0.4356 -0.0000
vn -0.0000 -0.0001 -1.0000
vn -0.0000 -1.0000 -0.0000
vn 0.1976 -0.9803 -0.0000
vn 0.7917 -0.6110 -0.0000
vn 0.8999 -0.4361 -0.0000
vn 0.6450 -0.7642 -0.0000
vn 0.9972 -0.0751 -0.0000
vn 0.9997 -0.0239 -0.0000
vn 0.9997 0.0240 -0.0000
vn 0.9972 0.0751 -0.0000
vt 0.588467 0.711609
vt 0.585612 0.706685
vt 0.643610 0.703197
vt 0.598058 0.703197
vt 0.595798 0.702742
vt 0.594191 0.701385
vt 0.593578 0.699141
vt 0.593578 0.687380
vt 0.594191 0.685136
vt 0.585612 0.612766
vt 0.582270 0.706684
vt 0.586450 0.709592
vt 0.582476 0.712457
vt 0.585502 0.712459
vt 0.585500 0.715800
vt 0.582475 0.715797
vt 0.224974 0.115690
vt 0.224974 0.119436
vt 0.222128 0.120170
vt 0.222128 0.115288
vt 0.582271 0.612765
vt 0.579974 0.707009
vt 0.582260 0.603414
vt 0.585522 0.603417
vt 0.585519 0.606759
vt 0.582258 0.606755
vt 0.208399 0.133213
vt 0.208399 0.137251
vt 0.205553 0.137630
vt 0.579974 0.612460
vt 0.577990 0.707009
vt 0.205553 0.132454
vt 0.224568 0.108633
vt 0.224567 0.113808
vt 0.222126 0.113808
vt 0.578016 0.612459
vt 0.689405 0.516293
vt 0.687450 0.514644
vt 0.702622 0.427972
vt 0.702622 0.542876
vt 0.684703 0.514091
vt 0.629345 0.514091
vt 0.626598 0.514644
vt 0.613385 0.418310
vt 0.697807 0.419584
vt 0.701294 0.423070
vt 0.222127 0.108633
vt 0.222127 0.103608
vt 0.224568 0.103608
vt 0.213452 0.131349
vt 0.218478 0.131349
vt 0.217719 0.134194
vt 0.591617 0.603421
vt 0.588356 0.603419
vt 0.587745 0.601121
vt 0.591312 0.601124
vt 0.224568 0.098433
vt 0.656746 0.601168
vt 0.654449 0.603464
vt 0.591314 0.599154
vt 0.222127 0.098433
vt 0.654446 0.606805
vt 0.654446 0.712459
vt 0.657787 0.606805
vt 0.657787 0.712459
vt 0.660085 0.604509
vt 0.591615 0.712461
vt 0.645871 0.702742
vt 0.647479 0.701385
vt 0.648091 0.699141
vt 0.654446 0.715800
vt 0.588355 0.712461
vt 0.591615 0.715803
vt 0.588354 0.715803
vt 0.591309 0.718100
vt 0.656744 0.718098
vt 0.656744 0.720068
vt 0.662055 0.604509
vt 0.662055 0.714757
vt 0.660085 0.714757
vt 0.626599 0.537690
vt 0.629347 0.538243
vt 0.613385 0.552290
vt 0.697807 0.550965
vt 0.692906 0.552293
vt 0.624645 0.536041
vt 0.623900 0.533313
vt 0.591310 0.720071
vt 0.130722 0.073145
vt 0.132144 0.068168
vt 0.134491 0.068839
vt 0.133070 0.073815
vt 0.587741 0.718100
vt 0.222808 0.067361
vt 0.222808 0.070895
vt 0.219962 0.071653
vt 0.219962 0.066628
vt 0.135871 0.064007
vt 0.771162 0.353019
vt 0.771159 0.359597
vt 0.768274 0.359593
vt 0.623900 0.519021
vt 0.768282 0.353014
vt 0.753707 0.359568
vt 0.624644 0.516293
vt 0.753714 0.352990
vt 0.750829 0.359565
vt 0.648091 0.687380
vt 0.647465 0.685124
vt 0.750808 0.352987
vt 0.645853 0.683775
vt 0.748224 0.359564
vt 0.748200 0.352986
vt 0.586464 0.609618
vt 0.591614 0.606763
vt 0.643611 0.683324
vt 0.745366 0.359561
vt 0.745366 0.352983
vt 0.588467 0.607615
vt 0.588353 0.606761
vt 0.598060 0.683324
vt 0.684703 0.520546
vt 0.629345 0.520545
vt 0.595799 0.683779
vt 0.408989 0.218404
vt 0.402410 0.218404
vt 0.402413 0.215546
vt 0.408991 0.215546
vt 0.408987 0.221012
vt 0.402408 0.221010
vt 0.773767 0.353021
vt 0.773767 0.359599
vt 0.776624 0.353022
vt 0.776624 0.359601
vt 0.701294 0.547479
vt 0.133524 0.063337
vt 0.134865 0.058643
vt 0.137212 0.059313
vt 0.684705 0.538243
vt 0.684704 0.531788
vt 0.629346 0.531788
vt 0.687451 0.537690
vt 0.217974 0.093667
vt 0.224552 0.093667
vt 0.224552 0.096523
vt 0.217973 0.096523
vt 0.689405 0.536041
vt 0.402384 0.241340
vt 0.408963 0.241342
vt 0.408962 0.243947
vt 0.402384 0.243947
vt 0.690149 0.533313
vt 0.402387 0.238456
vt 0.408965 0.238463
vt 0.690149 0.519021
vt 0.402405 0.223890
vt 0.408983 0.223896
vt 0.656748 0.599198
vt 0.692906 0.418256
vt 0.214210 0.134194
s 1
usemtl body
f 28/23/26 19/24/26 20/25/26
f 19/24/26 21/26/27 20/25/26
f 19/24/26 22/27/27 21/26/27
f 23/28/26 22/27/27 19/24/26
f 24/29/26 23/28/26 19/24/26
f 25/30/26 24/29/26 19/24/26
f 26/31/26 25/30/26 19/24/26
f 26/31/26 19/24/26 27/32/26
f 27/32/28 19/24/28 31/33/28
f 28/23/26 29/34/29 19/24/26
f 19/35/30 29/36/31 30/37/32
f 30/37/32 31/38/30 19/35/30
f 31/39/26 30/40/27 32/41/26
f 32/41/26 33/42/26 31/39/26
f 34/43/26 31/33/26 33/44/26
f 31/33/28 34/43/28 27/32/28
f 34/45/33 36/46/34 35/47/35
f 35/47/35 27/48/33 34/45/33
f 36/49/26 34/50/26 37/51/26
f 33/44/26 37/52/26 34/43/26
f 37/52/28 33/44/28 39/53/28
f 37/51/26 38/54/26 36/49/26
f 38/55/36 37/56/33 40/57/33
f 39/53/28 40/58/28 37/52/28
f 41/59/37 42/60/37 40/61/37
f 41/59/37 40/61/37 39/62/37
f 42/60/37 43/63/37 40/61/37
f 43/63/37 44/64/37 40/61/37
f 44/64/37 45/65/37 40/61/37
f 45/65/37 46/66/37 40/61/37
f 46/66/37 47/67/37 40/61/37
f 47/67/37 48/68/37 40/61/37
f 40/57/33 48/69/38 38/55/36
f 48/69/38 47/70/39 49/71/40
f 49/71/40 38/55/36 48/69/38
f 38/72/26 49/73/26 50/74/26
f 51/75/26 50/76/26 49/77/26
f 49/77/26 52/78/26 51/75/26
f 52/79/41 49/71/40 47/70/39
f 52/78/26 53/80/26 55/81/26
f 53/80/42 52/78/42 54/82/42
f 47/70/39 54/83/41 52/79/41
f 55/81/26 51/75/26 52/78/26
f 51/75/43 55/81/42 56/84/42
f 58/85/44 56/84/44 55/86/44
f 55/86/44 57/87/44 58/85/44
f 57/87/26 55/86/26 53/88/26
f 62/89/26 28/23/26 58/85/26
f 28/23/26 20/25/26 58/85/26
f 20/25/26 59/90/26 58/85/26
f 59/90/26 60/91/26 58/85/26
f 60/91/26 61/92/45 58/85/26
f 61/92/45 56/84/26 58/85/26
f 62/89/46 58/85/47 57/93/47
f 28/94/48 62/89/46 63/95/49
f 57/93/47 63/95/49 62/89/46
f 63/95/49 64/96/50 28/94/48
f 64/96/26 63/95/26 65/97/26
f 66/98/26 65/97/26 63/95/26
f 63/95/26 57/93/26 66/98/26
f 65/97/47 66/98/47 67/99/47
f 46/100/44 67/101/44 66/102/44
f 66/102/44 53/88/44 46/100/44
f 53/88/26 66/102/26 57/87/26
f 70/103/37 68/104/37 67/105/37
f 68/104/37 69/106/37 67/105/37
f 69/106/37 73/107/37 67/105/37
f 71/108/37 70/103/37 67/105/37
f 72/109/37 71/108/37 67/105/37
f 72/109/37 67/105/37 46/66/37
f 67/99/47 73/110/47 65/97/47
f 73/111/51 69/112/52 74/113/53
f 74/113/53 65/114/51 73/111/51
f 65/97/26 74/115/26 64/96/26
f 30/116/27 64/117/26 74/118/26
f 74/118/26 32/119/26 30/116/27
f 32/120/54 74/113/53 69/112/52
f 60/121/55 71/122/56 72/123/57
f 75/124/37 72/109/37 46/66/37
f 61/125/58 72/123/57 75/126/59
f 72/123/57 61/125/58 60/121/55
f 76/127/37 75/124/37 46/66/37
f 77/128/60 75/126/59 76/129/61
f 75/126/59 77/128/60 61/125/58
f 61/92/45 77/130/26 56/84/26
f 77/130/26 78/131/26 56/84/26
f 76/129/61 78/132/62 77/128/60
f 78/131/26 79/133/26 56/84/26
f 45/134/63 79/135/64 78/132/65
f 78/132/65 76/129/66 45/134/63
f 79/133/26 35/136/26 81/137/26
f 79/133/26 80/138/26 35/136/26
f 44/139/67 80/140/67 79/135/64
f 79/133/26 81/137/26 56/84/26
f 79/135/64 45/134/63 44/139/67
f 56/84/42 81/137/68 51/75/43
f 35/136/26 82/141/26 81/137/26
f 81/137/68 82/142/69 50/76/70
f 50/76/70 51/75/43 81/137/68
f 82/142/69 35/47/35 36/46/34
f 36/46/34 50/76/70 82/142/69
f 80/138/26 27/32/26 35/136/26
f 80/138/26 83/143/26 27/32/26
f 43/63/47 83/144/47 80/145/47
f 80/145/47 44/64/47 43/63/47
f 83/143/26 84/146/26 27/32/26
f 42/147/71 84/148/72 83/149/73
f 83/149/73 43/150/73 42/147/71
f 84/146/26 26/31/26 27/32/26
f 41/151/74 26/152/75 84/148/72
f 84/148/72 42/147/71 41/151/74
f 45/65/37 76/127/37 46/66/37
f 59/153/76 70/154/76 71/122/56
f 71/122/56 60/121/55 59/153/76
f 20/155/77 68/156/77 70/154/77
f 70/154/77 59/153/77 20/155/77
f 68/104/37 39/62/37 69/106/37
f 39/62/37 85/157/37 69/106/37
f 69/112/52 85/158/78 32/120/54
f 85/158/78 39/159/30 33/160/30
f 33/160/30 32/120/54 85/158/78
f 68/104/37 86/161/79 39/62/37
f 21/162/80 86/161/80 68/104/80
f 68/104/80 20/163/80 21/162/80
f 86/161/79 87/164/37 39/62/37
f 22/165/81 87/166/81 86/167/81
f 86/167/81 21/168/81 22/165/81
f 39/62/37 87/164/37 88/169/37
f 23/170/82 88/171/83 87/172/84
f 87/172/84 22/173/84 23/170/82
f 39/62/37 88/169/37 89/174/37
f 24/175/85 89/176/86 88/171/83
f 88/171/83 23/170/82 24/175/85
f 39/62/37 89/174/37 90/177/37
f 25/178/87 90/179/88 89/176/86
f 89/176/86 24/175/85 25/178/87
f 41/59/37 39/62/37 90/177/37
f 26/152/75 41/151/74 90/179/88
f 90/179/88 25/178/87 26/152/75
f 64/96/50 30/37/32 29/36/31
f 29/36/31 28/94/48 64/96/50
f 54/82/42 46/180/42 53/80/42
f 46/66/37 54/181/79 47/67/37
f 50/74/26 36/182/26 38/72/26
o gaz2975_nomg_body.317
v 7.748364 4.917297 -0.721809
v 9.909370 5.605309 -1.635971
v 10.169788 4.945068 -1.000145
v 7.718714 4.255501 -1.384247
v 7.713370 5.579327 -1.384430
v -7.772829 4.255497 -1.384262
v -7.802477 4.917294 -0.721794
v -9.963486 5.605305 -1.635979
v -7.767483 5.579323 -1.384430
v -10.223900 4.945065 -1.000137
v -10.793348 5.600040 -2.275078
v -9.967880 4.281471 -1.637451
v -11.397009 4.937630 -1.903587
v -10.776510 4.276344 -2.260193
v -11.569572 4.910271 -2.983192
v -10.925705 5.579060 -3.103065
v -10.262510 4.924545 -3.192474
v -10.172855 4.938759 -2.631699
v -10.906378 4.255756 -3.072617
v -9.707464 4.941708 -2.273293
v -7.737835 4.917530 -2.046883
v 7.683719 4.917534 -2.046883
v 9.913765 4.281475 -1.637444
v 9.653348 4.941711 -2.273285
v 10.118738 4.938763 -2.631691
v 10.722399 4.276348 -2.260185
v 11.342892 4.937634 -1.903580
v 11.515461 4.910275 -2.983200
v 10.852262 4.255760 -3.072624
v 10.208393 4.924549 -3.192467
v 10.739237 5.600044 -2.275070
v 10.871589 5.579063 -3.103058
vn 0.0728 0.7066 0.7039
vn 0.0722 0.7075 0.7030
vn 0.1142 -0.0000 0.9935
vn 0.0888 -0.7066 0.7020
vn -0.0000 -0.9486 0.3164
vn -0.0000 -0.9491 -0.3150
vn -0.0000 -0.3154 0.9489
vn -0.0000 0.3155 0.9489
vn -0.0000 0.9485 0.3167
vn -0.0728 0.7066 0.7039
vn -0.1142 -0.0000 0.9935
vn -0.0722 0.7075 0.7030
vn -0.0727 0.7067 0.7038
vn -0.0000 0.9491 -0.3149
vn -0.0888 -0.7067 0.7020
vn -0.4338 0.7079 0.5574
vn -0.6102 0.0013 0.7923
vn -0.6102 0.0010 0.7923
vn -0.0892 -0.7076 0.7010
vn -0.0888 -0.7067 0.7019
vn -0.4291 -0.7063 0.5630
vn -0.6878 -0.7145 0.1281
vn -0.6879 -0.7145 0.1281
vn -0.7085 0.6992 0.0955
vn 0.6878 0.7145 -0.1281
vn 0.6879 0.7145 -0.1281
vn 0.7085 -0.6992 -0.0955
vn 0.4291 0.7063 -0.5630
vn 0.4338 -0.7079 -0.5574
vn 0.0724 -0.7068 -0.7037
vn 0.0723 -0.7065 -0.7040
vn 0.0726 -0.7072 -0.7033
vn 0.0892 0.7069 -0.7017
vn 0.0894 0.7066 -0.7019
vn 0.0888 0.7073 -0.7013
vn 0.0887 0.7075 -0.7011
vn 0.0727 -0.7075 -0.7030
vn -0.0000 -0.7074 -0.7068
vn -0.0000 0.7075 -0.7068
vn -0.0000 0.7075 -0.7067
vn -0.0724 -0.7068 -0.7037
vn -0.0727 -0.7075 -0.7030
vn -0.0726 -0.7072 -0.7033
vn -0.0723 -0.7065 -0.7040
vn -0.0888 0.7073 -0.7013
vn -0.0894 0.7066 -0.7019
vn -0.0892 0.7069 -0.7017
vn -0.4338 -0.7079 -0.5574
vn -0.0887 0.7075 -0.7011
vn -0.4291 0.7063 -0.5630
vn 0.4291 -0.7063 0.5630
vn 0.6878 -0.7145 0.1281
vn -0.7085 -0.6992 -0.0955
vn -0.6878 0.7145 -0.1281
vn 0.7085 0.6992 0.0955
vn 0.4338 0.7079 0.5574
vn 0.6102 0.0010 0.7923
vn 0.6102 0.0013 0.7923
vn 0.0892 -0.7076 0.7010
vt 0.299998 0.992995
vt 0.305071 0.992772
vt 0.305149 0.994987
vt 0.300022 0.994980
vt 0.305067 0.997196
vt 0.340589 0.997196
vt 0.340508 0.994987
vt 0.345658 0.992995
vt 0.345634 0.994980
vt 0.340584 0.992772
vt 0.348112 0.992981
vt 0.348464 0.994982
vt 0.345666 0.996972
vt 0.348085 0.996995
vt 0.350622 0.995002
vt 0.349937 0.992359
vt 0.348800 0.990301
vt 0.347471 0.990865
vt 0.349888 0.997621
vt 0.348764 0.999668
vt 0.347445 0.999111
vt 0.345676 0.990886
vt 0.345678 0.999084
vt 0.340697 0.999354
vt 0.340689 0.990610
vt 0.304967 0.990610
vt 0.304960 0.999354
vt 0.299991 0.996972
vt 0.299979 0.999085
vt 0.299980 0.990887
vt 0.297572 0.996995
vt 0.298185 0.990865
vt 0.298212 0.999111
vt 0.297192 0.994983
vt 0.295035 0.995003
vt 0.295769 0.997621
vt 0.296893 0.999669
vt 0.297545 0.992981
vt 0.295719 0.992359
vt 0.296856 0.990302
s 1
usemtl body
f 92/183/89 95/184/90 91/185/90
f 91/185/91 93/186/91 92/183/89
f 93/186/91 91/185/91 94/187/92
f 96/188/93 94/187/94 91/185/95
f 97/189/96 91/185/95 95/184/97
f 91/185/95 97/189/96 96/188/93
f 98/190/98 100/191/99 97/189/99
f 97/189/100 99/192/100 98/190/101
f 95/184/97 99/192/102 97/189/96
f 96/188/103 97/189/99 100/191/99
f 101/193/104 103/194/105 100/191/106
f 100/191/104 98/190/104 101/193/104
f 100/191/107 102/195/107 96/188/108
f 102/195/109 100/191/106 103/194/105
f 103/194/109 104/196/109 102/195/109
f 104/196/110 103/194/111 105/197/110
f 106/198/112 105/197/112 103/194/112
f 103/194/112 101/193/112 106/198/112
f 107/199/113 106/198/114 101/193/113
f 101/193/113 108/200/113 107/199/113
f 109/201/115 107/202/115 108/203/115
f 105/197/110 109/201/110 104/196/110
f 108/203/115 104/196/115 109/201/115
f 98/190/116 110/204/116 108/200/116
f 108/200/116 101/193/116 98/190/116
f 104/196/117 108/203/117 110/205/117
f 110/205/117 102/195/117 104/196/117
f 102/195/118 110/205/119 111/206/120
f 99/192/121 111/207/122 110/204/123
f 110/204/123 98/190/124 99/192/121
f 111/206/120 96/188/125 102/195/118
f 94/187/94 96/188/93 111/206/126
f 112/208/127 111/207/128 99/192/102
f 111/206/126 112/209/126 94/187/94
f 113/210/129 94/187/130 112/209/131
f 112/209/131 114/211/132 113/210/129
f 114/212/133 112/208/134 95/184/135
f 99/192/102 95/184/97 112/208/127
f 116/213/136 113/210/136 114/211/136
f 95/184/135 92/183/137 114/212/133
f 115/214/138 114/212/138 92/183/138
f 114/211/136 115/215/136 116/213/136
f 113/210/139 116/213/139 117/216/139
f 118/217/140 117/216/140 116/213/140
f 119/218/141 116/213/141 115/215/141
f 116/213/140 119/218/140 118/217/140
f 115/215/141 120/219/141 119/218/141
f 121/220/142 122/221/142 120/222/142
f 120/222/142 115/214/142 121/220/142
f 117/216/143 118/217/143 122/221/143
f 122/221/143 121/220/143 117/216/143
f 121/220/144 92/183/144 93/186/144
f 93/186/145 117/216/146 121/220/144
f 92/183/138 121/220/138 115/214/138
f 117/216/146 93/186/145 113/210/139
f 94/187/92 113/210/147 93/186/147
o gaz2975_nomg_body.314
v -9.194231 20.185623 -5.142738
v -6.756914 20.183395 -5.657768
v -9.194231 20.183388 -5.657761
v -6.756914 20.185631 -5.142746
v -9.194231 20.632767 -4.887146
v -9.269833 20.630539 -5.402184
v -9.194231 21.077682 -5.146606
v -9.194231 21.075447 -5.661621
v -9.194229 20.628304 -5.917213
v -6.756910 21.075455 -5.661629
v -6.756910 20.628311 -5.917221
v -6.681313 20.630547 -5.402176
v -6.756910 21.077690 -5.146614
v -6.756910 20.632774 -4.887138
vn -0.0000 -1.0000 0.0043
vn -0.0000 -0.7533 0.6577
vn -0.0000 -0.9434 0.3316
vn -0.9894 -0.1261 -0.0721
vn -0.9859 -0.1671 0.0007
vn -0.0000 -0.1845 0.9828
vn -0.9859 -0.0829 0.1451
vn -0.9859 0.0842 0.1444
vn -0.9894 0.1261 0.0721
vn -0.9859 0.1671 -0.0007
vn -0.9859 0.0829 -0.1451
vn -0.9859 -0.0842 -0.1444
vn -0.0000 0.7532 -0.6578
vn -0.0000 -0.1930 -0.9812
vn -0.0000 0.1845 -0.9828
vn -0.0000 0.9434 -0.3316
vn -0.0000 -0.5038 -0.8638
vn 0.9859 0.0829 -0.1451
vn 0.9894 0.1255 -0.0732
vn 0.9859 -0.0842 -0.1443
vn 0.9859 0.1671 -0.0007
vn 0.9859 0.0842 0.1443
vn 0.9859 -0.0829 0.1451
vn 0.9894 -0.1255 0.0732
vn 0.9859 -0.1671 0.0007
vn -0.0000 0.1930 0.9812
vn -0.0000 0.7589 0.6512
vn -0.0000 0.9462 0.3234
vt 0.175328 0.106828
vt 0.175328 0.108040
vt 0.169597 0.108040
vt 0.169597 0.106828
vt 0.149639 0.090208
vt 0.150394 0.088935
vt 0.151119 0.090225
vt 0.169597 0.109251
vt 0.151874 0.088952
vt 0.152599 0.090243
vt 0.151844 0.091516
vt 0.150364 0.091498
vt 0.175328 0.111673
vt 0.175328 0.112884
vt 0.169597 0.112884
vt 0.169597 0.111673
vt 0.169597 0.114095
vt 0.156556 0.097419
vt 0.155824 0.096132
vt 0.157304 0.096142
vt 0.175328 0.114095
vt 0.158036 0.097428
vt 0.156572 0.094856
vt 0.158052 0.094865
vt 0.158784 0.096151
vt 0.175328 0.109251
vt 0.169597 0.110462
vt 0.175328 0.110462
s 1
usemtl body
f 124/223/148 126/224/149 123/225/150
f 123/225/150 125/226/148 124/223/148
f 125/227/151 123/228/152 128/229/151
f 127/230/153 123/225/150 126/224/149
f 123/228/154 127/231/154 128/229/154
f 127/231/155 129/232/156 128/229/156
f 129/232/156 130/233/157 128/229/156
f 130/233/158 131/234/158 128/229/158
f 131/234/159 125/227/151 128/229/151
f 132/235/160 133/236/161 131/237/162
f 131/237/162 130/238/163 132/235/160
f 125/239/164 131/237/162 133/236/161
f 133/240/165 132/241/166 134/242/166
f 133/236/161 124/243/164 125/239/164
f 124/244/167 133/240/167 134/242/167
f 132/241/166 135/245/168 134/242/166
f 135/245/169 136/246/169 134/242/169
f 136/246/170 126/247/171 134/242/171
f 126/247/171 124/244/172 134/242/171
f 126/224/149 136/248/173 127/230/153
f 129/249/174 127/230/153 136/248/173
f 136/248/173 135/250/175 129/249/174
f 130/238/163 129/249/174 135/250/175
f 135/250/175 132/235/160 130/238/163
o gaz2975_nomg_body.315
v 7.524856 20.183395 -5.657753
v 7.716656 20.046852 -5.142120
v 7.524856 20.185631 -5.142731
v 7.716656 20.044617 -5.657158
v 6.547567 20.183395 -5.657768
v 6.547567 20.185631 -5.142746
v 6.355774 20.044617 -5.657173
v 6.355774 20.046852 -5.142120
v 6.377981 18.515785 -5.650536
v 7.694443 18.515785 -5.650536
v 7.694443 18.518021 -5.135490
v 6.377981 18.518021 -5.135490
vn 0.5862 0.8102 -0.0035
vn 0.5862 0.8101 -0.0035
vn -0.0000 -0.0044 -1.0000
vn -0.0000 -0.0043 -1.0000
vn -0.5862 0.8101 -0.0035
vn -0.5863 0.8101 -0.0035
vn -0.5862 0.8102 -0.0035
vn -0.9999 -0.0145 0.0001
vn -0.0000 -1.0000 0.0043
vn 0.9999 -0.0145 0.0001
vt 0.212460 0.071006
vt 0.213917 0.071006
vt 0.213923 0.071681
vt 0.212454 0.071681
vt 0.217238 0.071401
vt 0.214452 0.071401
vt 0.219237 0.071681
vt 0.217768 0.071681
vt 0.217774 0.071006
vt 0.219231 0.071006
vt 0.217734 0.066646
vt 0.213957 0.066646
vt 0.213969 0.065178
vt 0.217722 0.065178
vt 0.212466 0.066646
vt 0.219225 0.066646
s 1
usemtl body
f 138/251/176 140/252/176 137/253/176
f 137/253/177 139/254/177 138/251/177
f 141/255/178 137/256/179 140/252/179
f 142/257/180 141/258/181 143/259/180
f 140/252/179 143/259/179 141/255/178
f 143/259/180 144/260/182 142/257/180
f 144/260/183 143/259/183 145/261/183
f 146/262/179 145/261/179 143/259/179
f 143/259/179 140/252/179 146/262/179
f 146/262/184 147/263/184 148/264/184
f 147/265/185 146/262/185 140/252/185
f 148/264/184 145/261/184 146/262/184
f 145/261/183 148/266/183 144/260/183
f 140/252/185 138/251/185 147/265/185
o gaz2975_nomg_body.316
v -7.486931 20.183395 -5.657753
v -7.295134 20.046852 -5.142120
v -7.486931 20.185631 -5.142731
v -7.295134 20.044617 -5.657158
v -8.464222 20.183388 -5.657776
v -8.464222 20.185623 -5.142738
v -8.656015 20.044609 -5.657166
v -8.656015 20.046844 -5.142128
v -8.633804 18.515778 -5.650558
v -7.317343 18.515785 -5.650536
v -7.317343 18.518021 -5.135490
v -8.633804 18.518013 -5.135498
vn 0.5862 0.8102 -0.0035
vn 0.5863 0.8101 -0.0035
vn -0.0000 -0.0044 -1.0000
vn -0.0000 -0.0042 -1.0000
vn -0.0000 -0.0043 -1.0000
vn -0.5862 0.8101 -0.0035
vn -0.5861 0.8102 -0.0035
vn -0.5862 0.8102 -0.0035
vn -0.5863 0.8101 -0.0035
vn -0.9999 -0.0145 0.0001
vn -0.0000 -1.0000 0.0043
vn 0.9999 -0.0145 0.0001
vt 0.205091 0.070866
vt 0.206548 0.070866
vt 0.206554 0.071541
vt 0.205085 0.071541
vt 0.209870 0.071262
vt 0.207083 0.071262
vt 0.211868 0.071541
vt 0.210399 0.071541
vt 0.210405 0.070866
vt 0.211862 0.070866
vt 0.210365 0.066507
vt 0.206588 0.066507
vt 0.206600 0.065039
vt 0.210353 0.065039
vt 0.205097 0.066507
vt 0.211856 0.066507
s 1
usemtl body
f 150/267/186 152/268/186 149/269/186
f 149/269/187 151/270/187 150/267/187
f 153/271/188 149/272/189 152/268/190
f 154/273/191 153/274/192 155/275/193
f 152/268/190 155/275/188 153/271/188
f 155/275/193 156/276/194 154/273/191
f 156/276/195 155/275/195 157/277/195
f 158/278/190 157/277/190 155/275/188
f 155/275/188 152/268/190 158/278/190
f 158/278/196 159/279/196 160/280/196
f 159/281/197 158/278/197 152/268/197
f 160/280/196 157/277/196 158/278/196
f 157/277/195 160/282/195 156/276/195
f 152/268/197 150/267/197 159/281/197
o gaz2975_nomg_body.318
v -16.516050 18.744896 -5.321030
v -14.525742 18.651039 -4.706345
v -16.516048 18.744896 -4.706345
v -14.525745 18.651039 -5.321030
v -16.516050 15.835960 -5.321030
v -17.048386 18.835129 -5.013687
v -17.048393 18.744896 -5.628387
v -17.580738 18.744896 -5.321045
v -17.048393 15.835953 -5.628387
v -17.580738 15.835960 -5.321045
v -17.048386 15.745720 -5.013687
v -16.516048 15.835960 -4.706345
v -17.048393 15.835960 -4.398987
v -17.580738 15.835960 -4.706345
v -17.048393 18.744896 -4.398987
v -17.580738 18.744896 -4.706345
v -14.525745 15.929810 -5.321030
v -14.525742 15.929810 -4.706345
vn 0.0471 0.9989 -0.0000
vn 0.1671 0.9859 -0.0000
vn -0.0000 -0.0000 -1.0000
vn 0.1888 -0.0000 -0.9820
vn 0.5000 -0.0000 -0.8660
vn 0.0836 0.9859 -0.1447
vn -0.0000 0.9894 -0.1452
vn -0.0836 0.9859 -0.1447
vn -0.7561 -0.0000 -0.6545
vn -0.1887 -0.0000 -0.9820
vn -0.9448 -0.0000 -0.3276
vn -0.0836 -0.9859 -0.1447
vn -0.0000 -0.9894 -0.1452
vn 0.0836 -0.9859 -0.1447
vn 0.1671 -0.9859 -0.0000
vn 0.0836 -0.9859 0.1447
vn -0.0000 -0.9894 0.1452
vn -0.0836 -0.9859 0.1447
vn -0.1671 -0.9859 -0.0000
vn -0.7561 -0.0000 0.6545
vn -0.0002 -0.0000 1.0000
vn -0.1887 -0.0000 0.9820
vn -0.9448 -0.0000 0.3275
vn -0.1671 0.9859 -0.0000
vn -0.0836 0.9859 0.1447
vn -0.0000 0.9894 0.1452
vn 0.0836 0.9859 0.1447
vn 0.5000 -0.0000 0.8660
vn 0.0471 -0.9989 -0.0000
vn 1.0000 -0.0000 -0.0000
vt 0.190946 0.106160
vt 0.190861 0.107912
vt 0.185184 0.107644
vt 0.185269 0.105881
vt 0.144333 0.094682
vt 0.146098 0.094682
vt 0.145215 0.096212
vt 0.185184 0.115942
vt 0.183430 0.107644
vt 0.146979 0.096212
vt 0.146103 0.097743
vt 0.181677 0.107644
vt 0.183430 0.115942
vt 0.181677 0.115942
vt 0.212081 0.134497
vt 0.212957 0.136028
vt 0.211194 0.136027
vt 0.212077 0.137558
vt 0.210311 0.137558
vt 0.209431 0.136028
vt 0.210307 0.134497
vt 0.179923 0.115942
vt 0.178170 0.115942
vt 0.178170 0.107644
vt 0.179923 0.107644
vt 0.144329 0.097743
vt 0.143452 0.096212
vt 0.176416 0.107644
vt 0.176416 0.115942
vt 0.190861 0.115674
vt 0.190946 0.117426
vt 0.185269 0.117705
vt 0.192615 0.115674
vt 0.192615 0.107912
s 1
usemtl body
f 162/283/198 164/284/198 161/285/198
f 161/285/198 163/286/198 162/283/198
f 163/287/199 161/288/199 166/289/199
f 165/290/200 161/285/200 164/284/200
f 167/291/201 161/285/202 165/290/202
f 161/288/203 167/292/204 166/289/204
f 167/292/204 168/293/205 166/289/204
f 168/294/206 167/291/201 169/295/207
f 165/290/202 169/295/207 167/291/201
f 169/295/207 170/296/208 168/294/206
f 170/297/209 169/298/210 171/299/210
f 169/298/210 165/300/211 171/299/210
f 165/300/212 172/301/212 171/299/212
f 172/301/213 173/302/214 171/299/214
f 173/302/214 174/303/215 171/299/214
f 174/303/216 170/297/216 171/299/216
f 174/304/217 173/305/218 175/306/219
f 170/296/208 174/304/217 176/307/220
f 175/306/219 176/307/220 174/304/217
f 168/293/221 176/308/221 166/289/221
f 176/308/222 175/309/223 166/289/223
f 176/307/220 168/294/206 170/296/208
f 175/309/223 163/287/224 166/289/223
f 163/310/225 175/306/219 173/305/218
f 173/305/225 172/311/225 163/310/225
f 177/312/226 178/313/226 172/314/226
f 172/314/226 165/290/226 177/312/226
f 178/315/227 177/312/227 164/284/227
f 164/284/227 162/316/227 178/315/227
f 164/284/200 177/312/200 165/290/200
o gaz2975_nomg_body.332
v 5.817553 20.185631 -5.142731
v 8.254871 20.183395 -5.657753
v 5.817553 20.183395 -5.657753
v 8.254871 20.185631 -5.142731
v 5.817553 20.632774 -4.887138
v 5.741950 20.630547 -5.402191
v 5.817553 21.077690 -5.146599
v 5.817553 21.075455 -5.661613
v 5.817553 20.628311 -5.917206
v 8.254871 21.075455 -5.661613
v 8.254871 20.628311 -5.917206
v 8.330475 20.630547 -5.402176
v 8.254871 21.077690 -5.146599
v 8.254871 20.632774 -4.887138
vn -0.0000 -1.0000 0.0043
vn -0.0000 -0.7533 0.6577
vn -0.0000 -0.9434 0.3317
vn -0.9859 -0.1671 0.0007
vn -0.0000 -0.1845 0.9828
vn -0.9859 -0.0829 0.1451
vn -0.9859 0.0842 0.1444
vn -0.9859 0.1671 -0.0007
vn -0.9859 0.0829 -0.1451
vn -0.9859 -0.0842 -0.1444
vn -0.0000 0.7532 -0.6577
vn -0.0000 -0.1930 -0.9812
vn -0.0000 0.1845 -0.9828
vn -0.0000 0.9434 -0.3316
vn -0.0000 -0.5038 -0.8638
vn 0.9859 0.0829 -0.1451
vn 0.9894 0.1255 -0.0732
vn -0.0000 -0.5037 -0.8639
vn 0.9859 -0.0842 -0.1444
vn 0.9859 0.1671 -0.0007
vn 0.9859 0.0842 0.1444
vn 0.9859 -0.0829 0.1451
vn 0.9894 -0.1255 0.0732
vn 0.9859 -0.1671 0.0007
vn -0.0000 0.1930 0.9812
vn -0.0000 0.7589 0.6512
vn -0.0000 0.9462 0.3234
vt 0.154700 0.092090
vt 0.154700 0.093559
vt 0.147746 0.093559
vt 0.147746 0.092090
vt 0.223424 0.090004
vt 0.224698 0.090759
vt 0.223407 0.091484
vt 0.147746 0.095029
vt 0.224680 0.092238
vt 0.223390 0.092963
vt 0.222117 0.092209
vt 0.222134 0.090729
vt 0.154700 0.097968
vt 0.154700 0.099437
vt 0.147746 0.099437
vt 0.147746 0.097968
vt 0.147746 0.100907
vt 0.150376 0.103802
vt 0.149643 0.102516
vt 0.151123 0.102525
vt 0.154700 0.100907
vt 0.151855 0.103811
vt 0.150391 0.101238
vt 0.151871 0.101248
vt 0.152603 0.102534
vt 0.154700 0.095029
vt 0.147746 0.096498
vt 0.154700 0.096498
s 1
usemtl body
f 180/317/228 182/318/229 179/319/230
f 179/319/230 181/320/228 180/317/228
f 181/321/231 179/322/231 184/323/231
f 183/324/232 179/319/230 182/318/229
f 179/322/233 183/325/233 184/323/233
f 183/325/234 185/326/234 184/323/234
f 185/326/235 186/327/235 184/323/235
f 186/327/236 187/328/236 184/323/236
f 187/328/237 181/321/237 184/323/237
f 188/329/238 189/330/239 187/331/240
f 187/331/240 186/332/241 188/329/238
f 181/333/242 187/331/240 189/330/239
f 189/334/243 188/335/244 190/336/244
f 189/330/239 180/337/245 181/333/242
f 180/338/246 189/334/246 190/336/246
f 188/335/244 191/339/247 190/336/244
f 191/339/248 192/340/248 190/336/248
f 192/340/249 182/341/250 190/336/250
f 182/341/250 180/338/251 190/336/250
f 182/318/229 192/342/252 183/324/232
f 185/343/253 183/324/232 192/342/252
f 192/342/252 191/344/254 185/343/253
f 186/332/241 185/343/253 191/344/254
f 191/344/254 188/329/238 186/332/241
o gaz2975_nomg_body.319
v -16.516047 -18.464943 -5.321030
v -14.525736 -18.558804 -4.706345
v -16.516045 -18.464943 -4.706345
v -14.525738 -18.558804 -5.321030
v -16.516043 -21.373886 -5.321030
v -17.048382 -18.374714 -5.013687
v -17.048389 -18.464943 -5.628387
v -17.580738 -18.464943 -5.321045
v -17.048389 -21.373886 -5.628387
v -17.580734 -21.373886 -5.321045
v -17.048382 -21.464115 -5.013687
v -16.516041 -21.373886 -4.706345
v -17.048389 -21.373886 -4.398987
v -17.580734 -21.373886 -4.706345
v -17.048389 -18.464943 -4.398987
v -17.580738 -18.464943 -4.706345
v -14.525738 -21.280033 -5.321030
v -14.525736 -21.280033 -4.706345
vn 0.0471 0.9989 -0.0000
vn 0.1671 0.9859 -0.0000
vn -0.0000 -0.0000 -1.0000
vn 0.1888 -0.0000 -0.9820
vn 0.5000 -0.0000 -0.8660
vn 0.0835 0.9859 -0.1447
vn -0.0000 0.9894 -0.1452
vn -0.0835 0.9859 -0.1447
vn -0.7561 -0.0000 -0.6545
vn -0.1888 -0.0000 -0.9820
vn -0.9448 -0.0000 -0.3276
vn -0.0835 -0.9859 -0.1447
vn -0.0000 -0.9894 -0.1452
vn 0.0836 -0.9859 -0.1447
vn 0.1671 -0.9859 -0.0000
vn 0.0836 -0.9859 0.1447
vn -0.0000 -0.9894 0.1452
vn -0.0836 -0.9859 0.1447
vn -0.1671 -0.9859 -0.0000
vn -0.7561 -0.0000 0.6545
vn -0.0002 -0.0000 1.0000
vn -0.1887 -0.0000 0.9820
vn -0.9448 -0.0000 0.3275
vn -0.1671 0.9859 -0.0000
vn -0.0835 0.9859 0.1447
vn -0.0000 0.9894 0.1452
vn 0.0835 0.9859 0.1447
vn 0.5000 -0.0000 0.8660
vn 0.0471 -0.9989 -0.0000
vn 1.0000 -0.0000 -0.0000
vt 0.399986 0.174529
vt 0.399902 0.176281
vt 0.394224 0.176013
vt 0.394309 0.174250
vt 0.192641 0.117242
vt 0.194407 0.117242
vt 0.193524 0.118772
vt 0.394224 0.184311
vt 0.392471 0.176013
vt 0.195288 0.118772
vt 0.194411 0.120302
vt 0.390718 0.176013
vt 0.392471 0.184311
vt 0.390718 0.184311
vt 0.216536 0.094131
vt 0.217412 0.095661
vt 0.215649 0.095661
vt 0.216532 0.097192
vt 0.214766 0.097192
vt 0.213886 0.095661
vt 0.214762 0.094131
vt 0.388964 0.184311
vt 0.387210 0.184311
vt 0.387210 0.176013
vt 0.388964 0.176013
vt 0.192638 0.120302
vt 0.191761 0.118772
vt 0.385457 0.176013
vt 0.385457 0.184311
vt 0.399902 0.184044
vt 0.399986 0.185795
vt 0.394309 0.186074
vt 0.401656 0.184044
vt 0.401656 0.176281
s 1
usemtl body
f 194/345/255 196/346/255 193/347/255
f 193/347/255 195/348/255 194/345/255
f 195/349/256 193/350/256 198/351/256
f 197/352/257 193/347/257 196/346/257
f 199/353/258 193/347/259 197/352/259
f 193/350/260 199/354/261 198/351/261
f 199/354/261 200/355/262 198/351/261
f 200/356/263 199/353/258 201/357/264
f 197/352/259 201/357/264 199/353/258
f 201/357/264 202/358/265 200/356/263
f 202/359/266 201/360/267 203/361/267
f 201/360/267 197/362/268 203/361/267
f 197/362/269 204/363/269 203/361/269
f 204/363/270 205/364/271 203/361/271
f 205/364/271 206/365/272 203/361/271
f 206/365/273 202/359/273 203/361/273
f 206/366/274 205/367/275 207/368/276
f 202/358/265 206/366/274 208/369/277
f 207/368/276 208/369/277 206/366/274
f 200/355/278 208/370/278 198/351/278
f 208/370/279 207/371/280 198/351/280
f 208/369/277 200/356/263 202/358/265
f 207/371/280 195/349/281 198/351/280
f 195/372/282 207/368/276 205/367/275
f 205/367/282 204/373/282 195/372/282
f 209/374/283 210/375/283 204/376/283
f 204/376/283 197/352/283 209/374/283
f 210/377/284 209/374/284 196/346/284
f 196/346/284 194/378/284 210/377/284
f 196/346/257 209/374/257 197/352/257
o gaz2975_nomg_body.020
v 11.350282 9.672352 -3.574570
v -12.998127 18.117821 -3.574547
v 11.350280 18.117828 -3.574570
v -12.998127 9.672344 -3.574547
vn -0.0000 -0.0000 1.0000
vt 0.986664 0.188651
vt 0.986664 0.008658
vt 0.488856 0.008658
vt 0.488856 0.188651
s 1
usemtl glass
f 212/379/285 214/380/285 211/381/285
f 211/381/285 213/382/285 212/379/285
o gaz2975_nomg_body.021
v -12.998123 18.117821 -4.052399
v 11.350282 9.672352 -4.052414
v 11.350280 18.117828 -4.052414
v -12.998123 9.672344 -4.052399
vn -0.0000 -0.0000 -1.0000
vt 0.488856 0.008658
vt 0.986664 0.008658
vt 0.986664 0.188651
vt 0.488856 0.188651
s 1
usemtl glass
f 216/383/286 218/384/286 215/385/286
f 215/385/286 217/386/286 216/383/286
