# Blender 4.3.2
# www.blender.org
mtllib untitled2.mtl
o gaz2975_nomg_body.004
v -37.088898 28.128933 -1.987475
v -38.412544 19.185925 -25.851566
v -38.440998 19.192142 -1.987483
v -37.070705 28.124973 -25.851570
vn 0.9889 -0.1487 0.0009
vn 0.9889 -0.1484 0.0008
vn 0.9888 -0.1493 0.0011
vn 0.9887 -0.1496 0.0012
vt 0.481915 0.008969
vt 0.481941 0.174733
vt 0.007595 0.174832
vt 0.007568 0.009081
s 1
usemtl glass
f 2/1/1 4/2/2 1/3/3
f 1/3/3 3/4/4 2/1/1
o gaz2975_nomg_body.007
v -41.616646 19.282932 -1.986844
v -39.891788 28.137119 -25.850952
v -39.893311 28.137463 -1.986852
v -41.614250 19.282421 -25.850954
vn -0.9816 0.1910 -0.0001
vn -0.9816 0.1909 -0.0001
vt 0.007581 0.174382
vt 0.007584 0.008958
vt 0.481930 0.008967
vt 0.481927 0.174392
s 1
usemtl glass
f 6/5/5 8/6/6 5/7/5
f 5/7/5 7/8/5 6/5/5
o gaz2975_nomg_body.010
v 38.430286 19.184429 -65.793564
v 37.075218 28.120564 -41.929470
v 38.417057 19.181530 -41.929470
v 37.062691 28.117840 -65.793564
vn -0.9885 -0.1511 0.0004
vn -0.9885 -0.1513 0.0005
vn -0.9886 -0.1507 0.0003
vn -0.9889 -0.1484 -0.0006
vt 0.481928 0.174742
vt 0.007582 0.174727
vt 0.007582 0.008994
vt 0.481928 0.008979
s 1
usemtl glass
f 10/9/7 12/10/8 9/11/9
f 9/11/9 11/12/10 10/9/7
o gaz2975_nomg_body.011
v 39.912758 28.136806 -41.930103
v 41.636337 19.282352 -65.794212
v 41.635223 19.282093 -41.930138
v 39.911701 28.136578 -65.794212
vn 0.9816 0.1911 -0.0000
vn 0.9816 0.1912 -0.0000
vn 0.9816 0.1910 -0.0000
vn 0.9816 0.1909 -0.0000
vt 0.481928 0.008959
vt 0.481928 0.174383
vt 0.007582 0.174383
vt 0.007582 0.008958
s 1
usemtl glass
f 14/13/11 16/14/12 13/15/13
f 13/15/13 15/16/14 14/13/11
o gaz2975_nomg_body.012
v -38.394608 19.181515 -41.929512
v -37.040241 28.117825 -65.793602
v -38.407837 19.184414 -65.793602
v -37.052769 28.120548 -41.929504
vn 0.9886 -0.1507 -0.0003
vn 0.9889 -0.1484 0.0005
vn 0.9887 -0.1496 0.0001
vn 0.9885 -0.1513 -0.0006
vt 0.481928 0.348006
vt 0.007582 0.348022
vt 0.007582 0.182258
vt 0.481928 0.182274
s 1
usemtl glass
f 18/17/15 20/18/16 17/19/17
f 17/19/17 19/20/18 18/17/15
o gaz2975_nomg_body.013
v -41.612774 19.282078 -41.930176
v -39.889244 28.136570 -65.794258
v -39.890308 28.136791 -41.930153
v -41.613888 19.282337 -65.794258
vn -0.9816 0.1911 -0.0000
vn -0.9816 0.1912 -0.0000
vn -0.9816 0.1910 -0.0000
vn -0.9816 0.1909 -0.0000
vt 0.007582 0.347662
vt 0.007582 0.182238
vt 0.481928 0.182237
vt 0.481928 0.347662
s 1
usemtl glass
f 22/21/19 24/22/20 21/23/21
f 21/23/21 23/24/22 22/21/19
o gaz2975_nomg_body.014
v 37.093143 28.124989 -25.851551
v 38.463428 19.192150 -1.987463
v 38.434982 19.185940 -25.851551
v 37.111328 28.128948 -1.987455
vn -0.9888 -0.1493 0.0009
vn -0.9887 -0.1496 0.0008
vn -0.9889 -0.1487 0.0011
vn -0.9889 -0.1484 0.0012
vt 0.481942 0.182360
vt 0.481915 0.348111
vt 0.007569 0.348012
vt 0.007595 0.182248
s 1
usemtl glass
f 26/25/23 28/26/24 25/27/25
f 25/27/25 27/28/26 26/25/23
o gaz2975_nomg_body.015
v 39.915741 28.137478 -1.986838
v 41.636681 19.282436 -25.850935
v 41.639069 19.282948 -1.986830
v 39.914211 28.137135 -25.850941
vn 0.9816 0.1910 -0.0001
vn 0.9816 0.1909 -0.0001
vt 0.481927 0.182237
vt 0.481929 0.347661
vt 0.007583 0.347671
vt 0.007580 0.182246
s 1
usemtl glass
f 30/29/27 32/30/28 29/31/27
f 29/31/27 31/32/27 30/29/27
o gaz2975_nomg_body.016
v -2.775605 16.173862 44.568005
v -36.995682 16.173851 44.567997
v -34.615227 30.913555 39.525970
v -2.775609 30.913570 39.525974
vn -0.0000 0.3237 0.9462
vt 0.007428 0.353879
vt 0.470607 0.580499
vt 0.505236 0.353879
vt 0.007428 0.580499
s 1
usemtl glass
f 33/33/29 35/34/29 34/35/29
f 35/34/29 33/33/29 36/36/29
o gaz2975_nomg_body.017
v -2.775605 15.933041 43.291622
v -2.775608 30.672741 38.249588
v -34.615219 30.672733 38.249584
v -36.995682 15.933029 43.291615
vn -0.0000 -0.3237 -0.9462
vt 0.007428 0.353879
vt 0.470607 0.580499
vt 0.007428 0.580499
vt 0.505236 0.353879
s 1
usemtl glass
f 37/37/30 39/38/30 38/39/30
f 39/38/30 37/37/30 40/40/30
o gaz2975_nomg_body.018
v 2.798068 16.173862 44.568005
v 2.798069 30.913570 39.525974
v 34.637695 30.913570 39.525978
v 37.018147 16.173874 44.568005
vn -0.0000 0.3237 0.9462
vt 0.990998 0.194396
vt 0.527819 0.421016
vt 0.990998 0.421016
vt 0.493190 0.194395
s 1
usemtl glass
f 41/41/31 43/42/31 42/43/31
f 43/42/31 41/41/31 44/44/31
o gaz2975_nomg_body.019
v 2.798070 15.933041 43.291622
v 37.018147 15.933052 43.291622
v 34.637695 30.672749 38.249592
v 2.798069 30.672741 38.249588
vn -0.0000 -0.3237 -0.9462
vt 0.990998 0.194396
vt 0.527819 0.421016
vt 0.493190 0.194395
vt 0.990998 0.421016
s 1
usemtl glass
f 45/45/32 47/46/32 46/47/32
f 47/46/32 45/45/32 48/48/32
