# Blender 4.3.2
# www.blender.org
mtllib untitled3.mtl
o gaz2975_nomg_susp
v -30.345951 -21.595648 -49.827343
v -30.340227 -21.611378 -52.126156
v -31.639709 -22.701777 -52.126156
v -31.654209 -22.693401 -49.827343
v -31.934277 -24.372358 -52.126141
v -28.858440 -26.247303 78.713127
v -28.858438 -21.636150 78.713127
v -26.430758 -22.874256 78.804230
v -26.430758 -26.882380 78.804230
v -26.430756 -26.882380 80.430946
v -19.145168 -29.003815 83.540596
v -19.145170 -26.374327 83.540596
v -26.430756 -22.874256 80.430946
v -19.145163 -26.374327 81.913879
v -19.145161 -29.003815 81.913879
v -28.858440 -26.247303 80.339867
v -28.858438 -21.636150 80.339867
v -18.305172 -26.883049 85.258728
v -18.439417 -27.644375 85.258728
v -17.712965 -26.386133 85.258728
v -18.052876 -28.313875 85.258728
v -16.347641 -26.883055 85.258713
v -16.939898 -26.386131 85.258728
v -17.326427 -28.578278 85.258728
v -16.599983 -28.313873 85.258728
v -16.213488 -27.644365 85.258728
v -18.439430 -27.644388 62.992188
v -18.305170 -26.883039 62.992188
v -18.052866 -28.313864 62.992188
v -17.712959 -26.386150 62.992188
v -16.599987 -28.313871 62.992180
v -17.326427 -28.578278 62.992188
v -16.939899 -26.386127 62.992188
v -16.347706 -26.883051 62.992188
v -16.213430 -27.644377 62.992188
v -19.474092 -26.208168 67.538338
v -19.488596 -26.199800 63.988907
v -19.785152 -27.881666 63.988911
v -18.174608 -25.117779 67.538322
v -19.488592 -26.199800 84.261993
v -19.474091 -26.208172 80.712555
v -19.768663 -27.878757 80.712555
v -18.180332 -25.102041 84.261978
v -18.174604 -25.117779 80.712555
v -18.180336 -25.102045 63.988907
v -16.478251 -25.117777 67.538338
v -16.472523 -25.102043 63.988907
v -16.001478 -27.681747 80.494789
v -16.001476 -27.681751 67.756157
v -17.326427 -25.950249 67.756157
v -17.326429 -25.950249 80.494774
v -18.801550 -27.188025 67.756157
v -18.801552 -27.188025 80.494774
v -17.838730 -28.855675 67.756157
v -17.838734 -28.855671 80.494789
v -16.472523 -25.102039 84.261978
v -16.478251 -25.117777 80.712570
v -15.178766 -26.208174 67.538338
v -15.164266 -26.199802 63.988911
v -15.164265 -26.199799 84.261993
v -15.178765 -26.208170 80.712570
v -14.884195 -27.878756 67.538322
v -14.867706 -27.881660 63.988911
v -17.326422 -29.928032 80.712555
v -17.326422 -29.944778 84.261993
v -18.931242 -29.360674 84.261978
v -15.732373 -29.347843 80.712570
v -15.721610 -29.360672 84.261978
v -14.884195 -27.878752 80.712555
v -14.867705 -27.881660 84.261993
v 16.023973 -27.681751 -50.023048
v 17.861229 -28.855671 -50.023041
v 17.348930 -29.928032 -49.805233
v 0.011227 -23.941730 76.660606
v 0.011227 -21.878622 75.316566
v -28.944542 -21.878620 75.316589
v -28.944544 -23.941729 76.660614
v 0.011223 -26.004848 75.316566
v -28.944546 -26.004847 75.316589
v 0.011223 -26.137251 72.857864
v -28.944546 -26.137251 72.857872
v 0.011223 -23.941730 71.743172
v -28.944546 -23.941729 71.743172
v 0.011223 -21.746216 72.857857
v -28.944546 -21.746214 72.857872
v 17.861185 -28.855667 80.494789
v 16.023933 -27.681747 80.494804
v 16.023939 -27.681747 67.756157
v 17.861197 -28.855667 67.756142
v 18.824009 -27.188021 80.494789
v 18.824015 -27.188021 67.756157
v 17.348888 -25.950245 80.494789
v 17.348896 -25.950245 67.756142
v -30.605093 -24.137989 66.914909
v -30.470831 -23.376638 66.914917
v -30.218529 -24.807463 66.914917
v -29.878624 -22.879751 66.914909
v -28.765652 -24.807470 66.914909
v -29.492094 -25.071878 66.914909
v -29.105560 -22.879728 66.914917
v -28.513371 -23.376652 66.914909
v -28.379089 -24.137976 66.914909
v 15.186774 -26.199799 -66.528900
v 16.495029 -25.102039 -66.528885
v 16.962406 -26.386124 -67.525620
v 16.370214 -26.883051 -67.525635
v 18.202841 -25.102037 -66.528885
v 17.735468 -26.386143 -67.525620
v 19.511101 -26.199797 -66.528885
v 18.327675 -26.883032 -67.525635
v -18.305130 -26.883055 -45.259106
v -18.439367 -27.644382 -45.259106
v -17.712921 -26.386135 -45.259106
v -18.052834 -28.313879 -45.259106
v -16.347597 -26.883055 -45.259106
v -16.939856 -26.386133 -45.259106
v -17.326382 -28.578281 -45.259106
v -16.599939 -28.313877 -45.259106
v -16.213446 -27.644369 -45.259106
v -14.867667 -27.881664 -66.528885
v -16.213387 -27.644377 -67.525620
v -16.347668 -26.883055 -67.525635
v -15.164225 -26.199802 -66.528885
v -16.939857 -26.386127 -67.525635
v -16.472485 -25.102043 -66.528900
v -17.712923 -26.386150 -67.525635
v -18.180294 -25.102045 -66.528900
v -18.305128 -26.883039 -67.525620
v -19.488554 -26.199804 -66.528885
v 31.108604 -25.841436 69.859291
v 29.514553 -26.421625 69.859283
v 29.514555 -26.438368 67.560486
v 30.026859 -25.349264 70.000351
v 31.119370 -25.854265 67.560486
v 15.754877 -29.347847 -49.805225
v 14.906695 -27.878752 -49.805233
v 31.973265 -24.375259 80.690544
v 31.676706 -22.693392 80.690552
v 30.493282 -23.376642 81.336060
v 30.627525 -24.137966 81.336067
v 31.973274 -24.375256 67.560486
v 31.956785 -24.372351 69.859291
v 31.676718 -22.693390 67.560486
v 30.627552 -24.137981 66.914940
v 31.662212 -22.701761 69.859283
v 30.989676 -23.681616 70.000359
v 30.493292 -23.376627 66.914940
v 30.989670 -23.681612 78.250664
v 29.514547 -22.443842 78.250656
v 30.362722 -21.611368 78.391731
v 31.662210 -22.701765 78.391731
v 26.453249 -26.882372 -50.086849
v 26.453249 -22.874249 -50.086849
v 19.167658 -26.374319 -46.977196
v 19.167660 -29.003805 -46.977196
v 28.880936 -26.247292 -50.177952
v 28.880936 -21.636141 -50.177952
v -28.944500 -21.746218 -57.659954
v -28.944496 -21.878620 -55.201233
v 0.011267 -21.878618 -55.201237
v 0.011263 -21.746216 -57.659946
v -28.944500 -23.941732 -58.774643
v 0.011264 -23.941730 -58.774651
v -28.944500 -26.137253 -57.659954
v 0.011263 -26.137247 -57.659946
v -28.944500 -26.004847 -55.201233
v 0.011263 -26.004845 -55.201237
v -28.944500 -23.941732 -53.857208
v 0.011267 -23.941730 -53.857220
v -26.430712 -26.882380 -62.603325
v -19.145115 -29.003815 -65.712967
v -19.145121 -29.003815 -64.086220
v -26.430712 -26.882380 -60.976608
v -28.858398 -26.247303 -62.512222
v -28.858397 -26.247303 -60.885506
v -19.145123 -26.374327 -64.086220
v -26.430712 -22.874256 -60.976608
v -28.858397 -21.636150 -60.885506
v -26.430712 -22.874256 -62.603325
v -19.145117 -26.374327 -65.712967
v -28.858398 -21.636150 -62.512222
v -18.931242 -29.360674 63.988907
v -18.920479 -29.347847 67.538338
v -19.768661 -27.878759 67.538322
v -17.326424 -29.944778 63.988911
v -17.326424 -29.928036 67.538338
v 15.201265 -26.208170 -49.805225
v -19.785152 -27.881666 84.261993
v -18.920481 -29.347843 80.712555
v -15.721610 -29.360672 63.988907
v -26.430752 -26.882380 69.541214
v -19.145157 -29.003815 66.431564
v -19.145159 -26.374327 66.431564
v -26.430752 -22.874256 69.541214
v -28.858438 -26.247303 69.632317
v -28.858438 -21.636150 69.632317
v -26.430754 -26.882380 67.914505
v -26.430754 -22.874256 67.914505
v -19.145159 -26.374327 64.804832
v -19.145157 -29.003815 64.804832
v -28.858437 -26.247303 68.005600
v -28.858437 -21.636150 68.005600
v -32.456032 -29.586937 70.612381
v -32.456032 -18.296522 70.612381
v -27.689188 -21.337282 70.612381
v -27.689188 -26.546171 70.612381
v -27.689192 -26.546171 77.638557
v -27.689192 -21.337282 77.638557
v -32.456032 -18.296522 77.638557
v -32.456032 -29.586937 77.638557
v -30.470829 -23.376650 81.336044
v -30.605072 -24.137974 81.336037
v -29.878622 -22.879732 81.336037
v -30.218536 -24.807474 81.336044
v -28.513300 -23.376652 81.336037
v -29.105556 -22.879732 81.336044
v -29.492094 -25.071878 81.336044
v -28.765646 -24.807470 81.336037
v -28.379148 -24.137964 81.336044
v -31.654253 -22.693399 80.690498
v -31.639751 -22.701773 78.391685
v -31.934319 -24.372358 78.391701
v -30.345995 -21.595640 80.690506
v -30.340269 -21.611378 78.391685
v 18.942984 -29.347843 -49.805225
v -28.638184 -21.595640 80.690506
v -28.643913 -21.611378 78.391708
v -27.329924 -22.693396 80.690506
v -27.344429 -22.701771 78.391693
v -27.033367 -24.375261 80.690498
v -27.049856 -24.372353 78.391693
v -27.329929 -22.693399 67.560455
v -27.344429 -22.701775 69.859245
v -27.049860 -24.372356 69.859253
v -27.033369 -24.375261 67.560455
v -27.887274 -25.854271 80.690506
v -27.898039 -25.841442 78.391693
v -29.492090 -26.438375 80.690498
v -31.096905 -25.854271 80.690506
v -31.950809 -24.375269 80.690498
v -31.950809 -24.375269 67.560455
v -31.096909 -25.854271 67.560455
v -29.492094 -26.438379 67.560455
v -27.887278 -25.854271 67.560455
v -28.638189 -21.595646 67.560455
v -30.345999 -21.595646 67.560455
v -31.654257 -22.693399 67.560448
v 15.744109 -29.360672 -46.255810
v 17.348930 -29.944775 -46.255817
v 17.348930 -28.578278 -45.259098
v 16.622478 -28.313873 -45.259098
v 18.953741 -29.360674 -46.255817
v 18.075371 -28.313871 -45.259098
v 19.807642 -27.881666 -46.255817
v 18.461906 -27.644375 -45.259098
v 19.511086 -26.199800 -46.255817
v 18.327662 -26.883049 -45.259098
v 18.953756 -29.360670 -66.528885
v 17.348942 -29.944771 -66.528885
v 17.348938 -28.578274 -67.525635
v 18.075377 -28.313856 -67.525620
v 15.744124 -29.360668 -66.528885
v 16.622494 -28.313866 -67.525620
v 14.890215 -27.881660 -66.528885
v 16.235935 -27.644373 -67.525635
v -18.439390 -27.644394 -67.525635
v -18.052824 -28.313864 -67.525620
v -16.599945 -28.313871 -67.525635
v -17.326385 -28.578281 -67.525620
v -19.488554 -26.199804 -46.255825
v -19.474054 -26.208176 -49.805233
v -19.768625 -27.878759 -49.805233
v -18.180294 -25.102049 -46.255817
v -18.174570 -25.117783 -49.805241
v 16.500746 -25.117777 -49.805225
v 17.348930 -25.950245 -50.023048
v -19.474052 -26.208172 -62.979481
v -19.785107 -27.881670 -66.528885
v -18.174568 -25.117779 -62.979481
v -16.478214 -25.117777 -62.979481
v 18.824051 -27.188021 -50.023048
v 19.496588 -26.208172 -49.805233
v 19.791155 -27.878754 -49.805225
v -16.472481 -25.102047 -46.255817
v -16.478209 -25.117781 -49.805241
v -15.178725 -26.208178 -62.979473
v -15.164224 -26.199802 -46.255833
v -15.178727 -26.208174 -49.805233
v -14.884154 -27.878759 -62.979481
v -14.867666 -27.881664 -46.255817
v -14.884154 -27.878756 -49.805233
v -17.326385 -29.928036 -49.805233
v -17.326384 -29.944780 -46.255817
v -18.931200 -29.360678 -46.255817
v -15.732327 -29.347847 -49.805241
v -15.721564 -29.360676 -46.255817
v -15.732329 -29.347843 -62.979481
v -15.721566 -29.360672 -66.528900
v -17.326385 -29.928036 -62.979481
v -17.326385 -29.944778 -66.528885
v -18.920441 -29.347847 -49.805233
v -19.785110 -27.881670 -46.255817
v -18.931200 -29.360678 -66.528900
v -18.920439 -29.347847 -62.979481
v -19.768623 -27.878759 -62.979473
v 18.824057 -27.188021 -62.761658
v 19.791162 -27.878754 -62.979465
v 19.496592 -26.208164 -62.979473
v 0.011234 -23.941727 76.660606
v 28.966997 -23.941717 76.660645
v 28.966997 -21.878609 75.316620
v 0.011236 -26.004841 75.316566
v 28.967001 -26.004831 75.316620
v 0.011238 -26.137245 72.857864
v 28.967001 -26.137234 72.857910
v 0.011238 -23.941727 71.743172
v 28.967001 -23.941717 71.743210
v 0.011238 -21.746212 72.857857
v 28.967001 -21.746202 72.857910
v 0.011234 -21.878614 75.316566
v 26.453209 -26.882372 80.430992
v 19.167614 -29.003805 83.540611
v 19.167616 -29.003805 81.913879
v 26.453207 -26.882372 78.804276
v 28.880896 -26.247292 80.339882
v 28.880896 -26.247292 78.713158
v 19.167614 -26.374319 81.913879
v 26.453207 -22.874249 78.804276
v 28.880896 -21.636141 78.713158
v 26.453209 -22.874249 80.430992
v 19.167612 -26.374319 83.540611
v 28.880896 -21.636141 80.339882
v 30.026854 -25.349264 78.250656
v 28.189596 -24.175344 78.250656
v 28.189604 -24.175344 70.000351
v 29.514553 -22.443842 70.000351
v 30.362728 -21.611368 69.859291
v 30.368460 -21.595634 67.560486
v 28.660639 -21.595634 80.690552
v 30.368444 -21.595636 80.690552
v 28.666368 -21.611368 78.391724
v 27.352379 -22.693394 80.690544
v 27.366882 -22.701763 78.391724
v 28.666374 -21.611368 69.859283
v 27.366888 -22.701771 69.859283
v 28.660654 -21.595634 67.560486
v 27.352388 -22.693394 67.560478
v 18.197102 -25.117775 -49.805225
v 27.055822 -24.375257 80.690544
v 27.072315 -24.372345 78.391724
v 27.055834 -24.375254 67.560478
v 27.072323 -24.372349 69.859283
v 27.909725 -25.854263 80.690552
v 27.920490 -25.841438 78.391724
v 27.909737 -25.854263 67.560486
v 27.920492 -25.841434 69.859283
v 31.956778 -24.372347 78.391731
v 31.108603 -25.841436 78.391731
v 29.901077 -22.879725 81.336067
v 29.128012 -22.879725 81.336060
v 28.535757 -23.376648 81.336067
v 28.401602 -24.137955 81.336060
v 28.788099 -24.807463 81.336067
v 29.514545 -26.438368 80.690544
v 29.514545 -25.071871 81.336067
v 31.119362 -25.854265 80.690552
v 30.240988 -24.807463 81.336060
v 30.240990 -24.807451 66.914940
v 29.514555 -25.071867 66.914940
v 28.788113 -24.807459 66.914948
v 28.401556 -24.137968 66.914940
v 28.535833 -23.376644 66.914948
v 29.128023 -22.879717 66.914940
v 29.901087 -22.879740 66.914948
v 28.880938 -21.636141 -62.512211
v 26.453253 -22.874249 -62.603317
v 26.453253 -22.874249 -60.976604
v 28.880939 -21.636141 -60.885494
v 28.880939 -26.247292 -60.885494
v 26.453253 -26.882372 -60.976604
v 26.453253 -26.882372 -62.603317
v 19.167665 -29.003805 -65.712967
v 19.167664 -26.374319 -65.712967
v 19.167662 -26.374319 -64.086220
v 19.167664 -29.003805 -64.086220
v 28.880938 -26.247292 -62.512211
v 0.011275 -23.941727 -53.857220
v 28.967043 -23.941717 -53.857204
v 28.967039 -21.878609 -55.201229
v 0.011279 -26.004841 -55.201237
v 28.967043 -26.004831 -55.201229
v 0.011279 -26.137245 -57.659946
v 28.967043 -26.137234 -57.659946
v 0.011280 -23.941727 -58.774651
v 28.967043 -23.941717 -58.774635
v 0.011279 -21.746212 -57.659946
v 28.967043 -21.746202 -57.659946
v 0.011275 -21.878614 -55.201237
v 30.026892 -25.349264 -52.267216
v 28.189638 -24.175344 -52.267216
v 28.189644 -24.175344 -60.517509
v 30.026897 -25.349264 -60.517509
v 30.989710 -23.681612 -52.267216
v 30.989714 -23.681616 -60.517509
v 29.514582 -22.443842 -52.267216
v 29.514593 -22.443842 -60.517509
v 31.662256 -22.701761 -60.658577
v 30.362772 -21.611368 -60.658577
v 31.676760 -22.693390 -62.957382
v 30.368498 -21.595634 -62.957386
v 28.660683 -21.595634 -49.827335
v 30.368486 -21.595636 -49.827335
v 30.362761 -21.611368 -52.126148
v 28.666409 -21.611368 -52.126133
v 27.352423 -22.693394 -49.827335
v 27.366924 -22.701763 -52.126148
v 28.666418 -21.611368 -60.658577
v 27.366932 -22.701771 -60.658577
v 28.660696 -21.595634 -62.957386
v 27.352430 -22.693394 -62.957382
v 19.807657 -27.881662 -66.528885
v 17.861233 -28.855667 -62.761650
v 17.348936 -29.928032 -62.979473
v 18.942989 -29.347843 -62.979473
v 27.055864 -24.375257 -49.827335
v 27.072357 -24.372345 -52.126148
v 27.055872 -24.375254 -62.957386
v 27.072363 -24.372349 -60.658577
v 27.909763 -25.854263 -49.827335
v 27.920530 -25.841438 -52.126148
v 27.909777 -25.854263 -62.957386
v 27.920536 -25.841434 -60.658581
v 29.514593 -26.438368 -62.957386
v 29.514595 -26.421625 -60.658577
v 31.973305 -24.375259 -49.827335
v 31.676748 -22.693392 -49.827335
v 30.493322 -23.376642 -49.181782
v 30.627565 -24.137966 -49.181786
v 31.119408 -25.854265 -62.957386
v 31.973318 -24.375256 -62.957386
v 31.956827 -24.372351 -60.658577
v 31.108648 -25.841436 -60.658577
v 30.627592 -24.137981 -63.602921
v 30.493332 -23.376627 -63.602921
v 31.662249 -22.701765 -52.126148
v 31.956818 -24.372347 -52.126133
v 31.108643 -25.841436 -52.126148
v 29.901117 -22.879725 -49.181786
v 29.128050 -22.879725 -49.181786
v 28.535797 -23.376648 -49.181786
v 28.401644 -24.137955 -49.181786
v 28.788143 -24.807463 -49.181786
v 29.514584 -26.438368 -49.827335
v 29.514584 -25.071871 -49.181786
v 31.119402 -25.854265 -49.827335
v 30.241032 -24.807463 -49.181786
v 30.241032 -24.807451 -63.602921
v 29.514593 -25.071867 -63.602921
v 28.788155 -24.807459 -63.602924
v 28.401594 -24.137968 -63.602924
v 28.535873 -23.376644 -63.602921
v 29.128059 -22.879717 -63.602921
v 29.901127 -22.879740 -63.602924
v 26.453249 -26.882372 -51.713562
v 19.167658 -29.003805 -48.603920
v 19.167658 -26.374319 -48.603920
v 26.453249 -22.874249 -51.713562
v 28.880936 -26.247292 -51.804668
v 28.880936 -21.636141 -51.804668
v -30.605053 -24.137993 -63.602932
v -30.470791 -23.376638 -63.602928
v -30.218489 -24.807463 -63.602932
v -29.878582 -22.879751 -63.602928
v -28.765612 -24.807470 -63.602928
v -29.492056 -25.071878 -63.602928
v -29.105520 -22.879728 -63.602932
v -28.513329 -23.376652 -63.602928
v -28.379051 -24.137976 -63.602928
v -30.470787 -23.376654 -49.181789
v -30.605030 -24.137978 -49.181793
v -29.878580 -22.879736 -49.181793
v -30.218493 -24.807474 -49.181793
v -28.513258 -23.376656 -49.181789
v -29.105515 -22.879736 -49.181793
v -29.492050 -25.071882 -49.181793
v -28.765602 -24.807474 -49.181793
v -28.379105 -24.137964 -49.181793
v -15.732371 -29.347843 67.538338
v -29.492092 -26.421633 78.391685
v 16.023981 -27.681747 -62.761658
v 15.754882 -29.347843 -62.979473
v -27.898037 -25.841442 69.859253
v -29.492094 -26.421633 69.859245
v -31.086147 -25.841444 78.391685
v -31.086145 -25.841448 69.859245
v -31.934319 -24.372358 69.859245
v -30.967216 -23.681623 78.250618
v -29.492092 -22.443848 78.250618
v -30.004395 -25.349272 78.250626
v -30.967215 -23.681623 70.000313
v -30.004396 -25.349274 70.000320
v 16.494976 -25.102043 84.261993
v 18.202785 -25.102041 84.261993
v 18.197062 -25.117775 80.712570
v 16.500706 -25.117777 80.712601
v 15.201231 -26.208174 67.538322
v 16.500713 -25.117773 67.538345
v 16.494991 -25.102039 63.988934
v 15.186731 -26.199799 63.988934
v 15.186721 -26.199799 84.261993
v 15.201221 -26.208170 80.712570
v 14.906664 -27.878756 67.538345
v 14.890176 -27.881660 63.988934
v 14.890163 -27.881660 84.261978
v 14.906652 -27.878752 80.712585
v 15.744068 -29.360672 84.261993
v 15.754836 -29.347843 80.712570
v 15.744081 -29.360668 63.988934
v 15.754842 -29.347839 67.538330
v 17.348902 -29.944771 63.988926
v 17.348898 -29.928032 67.538330
v 19.496548 -26.208168 80.712570
v 19.791121 -27.878754 80.712601
v 18.942947 -29.347839 80.712570
v 18.942949 -29.347839 67.538330
v 19.791128 -27.878754 67.538345
v 19.496550 -26.208164 67.538330
v 18.197069 -25.117771 67.538345
v 19.511044 -26.199797 84.261993
v 17.735411 -26.386131 85.258728
v 18.327620 -26.883049 85.258728
v 16.962345 -26.386131 85.258728
v 16.370089 -26.883053 85.258728
v 16.235935 -27.644365 85.258728
v 16.622433 -28.313873 85.258728
v 17.348886 -29.944775 84.261978
v 17.348883 -28.578274 85.258728
v 18.953701 -29.360670 84.261993
v 18.075325 -28.313871 85.258728
v 19.807604 -27.881662 84.261978
v 18.461861 -27.644375 85.258728
v 18.953716 -29.360670 63.988926
v 17.348902 -28.578274 62.992195
v 18.075333 -28.313856 62.992203
v 16.622456 -28.313866 62.992203
v 16.235891 -27.644373 62.992203
v 16.370169 -26.883051 62.992203
v 16.962364 -26.386124 62.992195
v 18.202799 -25.102037 63.988926
v 17.735424 -26.386143 62.992203
v 19.511061 -26.199797 63.988934
v 18.327633 -26.883032 62.992203
v 16.495018 -25.102043 -46.255817
v 18.202826 -25.102041 -46.255817
v 15.201273 -26.208174 -62.979465
v 16.500750 -25.117777 -62.979473
v 15.186762 -26.199802 -46.255825
v 14.906706 -27.878756 -62.979473
v 14.890204 -27.881664 -46.255810
v 17.348930 -25.950245 -62.761658
v 18.197109 -25.117775 -62.979473
v 17.735458 -26.386131 -45.259098
v 16.962389 -26.386133 -45.259098
v 16.370134 -26.883053 -45.259098
v 16.235981 -27.644365 -45.259098
v -18.801512 -27.188028 -50.023056
v -17.326385 -25.950253 -50.023048
v -17.838692 -28.855675 -50.023048
v -18.801510 -27.188028 -62.761665
v -17.838694 -28.855675 -62.761658
v -17.326387 -25.950253 -62.761658
v 32.478493 -29.586926 70.612411
v 27.711645 -26.546164 70.612411
v 27.711645 -21.337275 70.612411
v 32.478493 -18.296511 70.612411
v 27.711643 -26.546164 77.638588
v 32.478489 -29.586926 77.638596
v 32.478489 -18.296511 77.638596
v 27.711643 -21.337275 77.638588
v 28.880898 -21.636141 68.005630
v 26.453209 -22.874249 67.914536
v 26.453209 -22.874249 69.541260
v 28.880896 -21.636141 69.632339
v 28.880896 -26.247292 69.632339
v 26.453209 -26.882372 69.541260
v 26.453209 -26.882372 67.914536
v 19.167624 -29.003805 64.804848
v 19.167622 -26.374319 64.804848
v 19.167622 -26.374319 66.431572
v 19.167624 -29.003805 66.431572
v 28.880898 -26.247292 68.005630
v 32.478535 -29.586926 -59.905445
v 27.711685 -26.546164 -59.905441
v 27.711685 -21.337275 -59.905441
v 32.478535 -18.296511 -59.905445
v 27.711685 -26.546164 -52.879265
v 32.478531 -29.586926 -52.879269
v 32.478531 -18.296511 -52.879269
v 27.711685 -21.337275 -52.879265
v -28.638142 -21.595646 -49.827343
v -28.643871 -21.611378 -52.126141
v -27.329884 -22.693399 -49.827343
v -27.344391 -22.701771 -52.126156
v -27.033325 -24.375265 -49.827343
v -27.049818 -24.372353 -52.126156
v -27.329889 -22.693399 -62.957390
v -27.344387 -22.701778 -60.658585
v -27.049820 -24.372356 -60.658585
v -27.033331 -24.375261 -62.957394
v -27.887234 -25.854271 -49.827343
v -27.897997 -25.841446 -52.126156
v -29.492052 -26.421637 -52.126156
v -29.492048 -26.438379 -49.827343
v -31.096861 -25.854277 -49.827343
v -27.897995 -25.841442 -60.658585
v -27.887238 -25.854271 -62.957394
v -29.492052 -26.421637 -60.658585
v -29.492056 -26.438379 -62.957394
v -31.086103 -25.841448 -52.126156
v -31.950764 -24.375271 -49.827343
v -30.967175 -23.681623 -52.267223
v -29.492052 -22.443851 -52.267223
v -30.004353 -25.349274 -52.267223
v -30.967173 -23.681627 -60.517517
v -31.934280 -24.372362 -60.658585
v -31.086102 -25.841448 -60.658588
v -30.004353 -25.349274 -60.517517
v -31.950768 -24.375269 -62.957394
v -31.096867 -25.854277 -62.957394
v -28.638149 -21.595646 -62.957394
v -30.345957 -21.595646 -62.957394
v -31.654211 -22.693399 -62.957390
v -32.455986 -29.586937 -59.905449
v -32.455986 -18.296522 -59.905449
v -27.689146 -21.337282 -59.905449
v -27.689146 -26.546171 -59.905449
v -27.689148 -26.546171 -52.879272
v -27.689148 -21.337282 -52.879272
v -32.455994 -18.296522 -52.879272
v -32.455994 -29.586937 -52.879272
v -28.858402 -21.636150 -50.177963
v -26.430717 -22.874256 -50.086853
v -26.430717 -22.874256 -51.713566
v -28.858402 -21.636150 -51.804676
v -28.858402 -26.247303 -51.804676
v -26.430717 -26.882380 -51.713566
v -26.430717 -26.882380 -50.086853
v -19.145121 -29.003815 -46.977203
v -19.145123 -26.374327 -46.977203
v -19.145126 -26.374327 -48.603935
v -19.145124 -29.003815 -48.603935
v -28.858402 -26.247303 -50.177963
v -31.639704 -22.701773 -60.658585
v -29.492050 -22.443851 -60.517517
v -30.340225 -21.611378 -60.658585
v -28.643873 -21.611378 -60.658585
v -28.167099 -24.175350 -60.517517
v 18.461935 -27.644384 -67.525635
v -16.001434 -27.681751 -50.023048
v -16.001436 -27.681751 -62.761665
v -28.167101 -24.175350 -52.267223
v 17.348890 -29.928032 80.712570
v 18.461895 -27.644384 62.992203
v -28.167143 -24.175350 70.000320
v -28.167143 -24.175348 78.250626
v -29.492092 -22.443848 70.000313
v 19.807621 -27.881662 63.988934
v -28.643915 -21.611378 69.859253
v 29.514582 -26.421625 -52.126148
v 29.514547 -26.421625 78.391724
v -31.639750 -22.701769 69.859245
v -30.340269 -21.611378 69.859245
vn -0.6428 0.7660 -0.0068
vn -0.8653 0.5012 -0.0073
vn -0.8655 0.5009 -0.0073
vn -0.9848 0.1736 -0.0068
vn 0.0375 -0.0000 -0.9993
vn -0.3926 -0.0000 0.9197
vn 0.4330 0.9014 -0.0000
vn 0.3926 -0.0000 -0.9197
vn -0.0375 -0.0000 0.9993
vn -0.0000 -0.0000 1.0000
vn -0.0000 -0.0001 1.0000
vn -0.0000 -0.0000 -1.0000
vn -0.8665 0.4991 0.0047
vn -0.8667 0.4988 0.0047
vn -0.9848 0.1736 0.0044
vn -0.6428 0.7660 0.0044
vn -0.8653 0.5012 -0.0047
vn -0.8655 0.5009 -0.0047
vn -0.9848 0.1736 -0.0044
vn -0.6428 0.7660 -0.0044
vn -0.2531 -0.9674 -0.0000
vn -0.2796 -0.9601 -0.0000
vn -0.3433 0.9392 0.0047
vn -0.3430 0.9393 0.0047
vn -0.0000 1.0000 0.0044
vn 0.7942 0.6077 -0.0000
vn 0.4746 0.8802 -0.0002
vn -0.1713 0.9852 -0.0002
vn -0.9017 0.4323 -0.0000
vn -0.9952 -0.0978 -0.0002
vn -0.4979 -0.8672 -0.0001
vn 0.1450 -0.9894 -0.0002
vn 0.5384 -0.8427 -0.0000
vn -0.0000 1.0000 -0.0044
vn 0.6428 0.7660 0.0044
vn 0.6428 0.7660 -0.0044
vn 0.9848 0.1736 0.0044
vn -0.0010 -1.0000 -0.0047
vn 0.1198 -0.9928 -0.0047
vn -0.3420 -0.9397 -0.0044
vn 0.5455 -0.8381 -0.0047
vn 0.6417 -0.7669 -0.0047
vn 0.8660 -0.5000 -0.0044
vn -0.0978 -0.1530 -0.9834
vn 0.2097 -0.5762 0.7899
vn 0.2097 -0.5762 0.7900
vn -0.0000 0.2121 0.9773
vn -0.0000 0.5459 0.8379
vn -0.0000 0.5458 0.8379
vn -0.0000 -0.2121 0.9773
vn -0.0000 -0.7706 0.6374
vn -0.0000 -0.9373 0.3486
vn -0.0000 -0.9524 -0.3050
vn -0.0000 -0.7403 -0.6723
vn -0.0000 -0.1667 -0.9860
vn -0.0000 0.1667 -0.9860
vn -0.0000 0.7403 -0.6723
vn -0.0000 0.9524 -0.3050
vn -0.0000 0.9986 0.0538
vn -0.1450 -0.9894 -0.0000
vn -0.5384 -0.8427 -0.0000
vn 0.4979 -0.8672 -0.0000
vn 0.9952 -0.0978 -0.0000
vn 0.9017 0.4323 -0.0000
vn 0.1713 0.9852 -0.0000
vn -0.4746 0.8802 -0.0000
vn -0.7942 0.6077 -0.0000
vn -0.0000 0.0001 -1.0000
vn 0.9848 0.1736 -0.0044
vn -0.3941 0.4697 -0.7899
vn -0.0000 0.6132 -0.7899
vn -0.0000 0.6132 -0.7900
vn 0.3941 0.4697 -0.7899
vn 0.3941 0.4697 -0.7900
vn 0.6039 0.1065 -0.7899
vn 0.3942 0.4697 -0.7900
vn -0.3941 0.4697 -0.7900
vn 0.3231 -0.8875 0.3286
vn 0.3228 -0.8877 0.3284
vn 0.3420 -0.9397 0.0068
vn 0.0571 -0.1570 0.9859
vn -0.1734 -0.1001 -0.9798
vn 0.4423 0.0780 0.8935
vn 0.8660 -0.5000 0.0068
vn 0.9045 0.1595 -0.3956
vn 0.9577 0.1689 -0.2332
vn 0.4423 0.0780 -0.8934
vn 0.9689 0.1709 0.1790
vn 0.9302 0.1638 0.3284
vn 0.1645 0.0290 0.9859
vn 0.4423 0.0780 -0.8935
vn -0.0446 -0.1224 -0.9915
vn 0.0761 0.0907 -0.9930
vn 0.3926 -0.0000 0.9197
vn 0.0375 -0.0000 0.9993
vn -0.3926 -0.0000 -0.9197
vn -0.0375 -0.0000 -0.9993
vn -0.6417 -0.7669 0.0047
vn -0.6420 -0.7667 0.0048
vn -0.8660 -0.5000 0.0044
vn -0.3420 -0.9397 0.0044
vn -0.1971 0.0348 -0.9798
vn -0.9850 -0.1726 -0.0047
vn -0.9850 -0.1723 -0.0047
vn -0.8660 -0.5000 -0.0044
vn -0.9846 -0.1750 0.0047
vn -0.9846 -0.1747 0.0047
vn -0.5924 -0.0229 -0.8053
vn -0.5924 -0.0227 -0.8053
vn -0.6039 0.1065 -0.7900
vn -0.5310 -0.3066 -0.7899
vn -0.6038 0.1065 -0.7900
vn -0.5310 -0.3066 -0.7900
vn -0.1164 0.1387 -0.9835
vn -0.1568 -0.0905 -0.9835
vn -0.1568 -0.0905 0.9835
vn -0.1164 0.1387 0.9835
vn -0.3941 0.4697 0.7899
vn -0.0000 0.6132 0.7899
vn 0.3941 0.4697 0.7899
vn 0.6039 0.1065 0.7900
vn 0.6039 0.1064 0.7899
vn 0.6039 0.1065 0.7899
vn 0.6038 0.1065 0.7900
vn 0.5310 -0.3066 0.7899
vn 0.5310 -0.3066 0.7900
vn -0.2097 -0.5762 0.7899
vn -0.5310 -0.3066 0.7899
vn -0.6039 0.1065 0.7899
vn -0.2097 -0.5762 -0.7900
vn 0.2097 -0.5762 -0.7900
vn 0.5310 -0.3066 -0.7899
vn 0.5310 -0.3066 -0.7900
vn 0.6039 0.1065 -0.7900
vn 0.6038 0.1065 -0.7900
vn 0.0866 -0.2379 -0.9674
vn -0.0000 1.0000 -0.0068
vn 0.6428 0.7660 -0.0068
vn 0.9848 0.1736 -0.0068
vn 0.9848 0.1736 0.0068
vn 0.8660 -0.5000 -0.0068
vn 0.1536 -0.4221 0.8935
vn -0.1536 -0.4221 0.8935
vn -0.3890 -0.2246 0.8935
vn -0.3890 -0.2246 -0.8935
vn -0.3890 -0.2246 -0.8934
vn -0.1536 -0.4221 -0.8935
vn 0.1536 -0.4221 -0.8935
vn 0.1536 -0.4221 -0.8934
vn 0.3890 -0.2246 -0.8934
vn 0.3890 -0.2246 -0.8935
vn 0.2887 0.3441 -0.8935
vn -0.0000 0.4492 -0.8935
vn -0.2887 0.3441 -0.8935
vn -0.2097 -0.5762 0.7900
vn 0.2097 -0.5762 -0.7899
vn -0.2097 -0.5762 -0.7899
vn -0.6039 0.1065 -0.7899
vn 0.0001 -0.0000 -1.0000
vn -0.8655 0.5009 -0.0044
vn 0.2493 0.0440 -0.9674
vn 0.6417 -0.7669 -0.0046
vn -0.1106 0.0846 -0.9903
vn 0.8660 -0.5000 0.0044
vn 0.3420 -0.9397 0.0044
vn -0.6436 -0.7654 -0.0048
vn -0.6438 -0.7652 -0.0047
vn -0.6420 -0.7667 0.0047
vn 0.2493 0.0440 0.9674
vn -0.9850 -0.1723 -0.0044
vn 0.0005 -0.0000 1.0000
vn -0.0001 -0.2121 0.9773
vn -0.0001 -0.7706 0.6374
vn 0.0001 -0.7403 -0.6723
vn -0.0002 0.1667 -0.9860
vn -0.0003 0.8660 -0.5000
vn 0.2531 -0.9674 -0.0000
vn 0.2796 -0.9601 -0.0000
vn 0.4980 -0.8672 -0.0000
vn 0.9952 -0.0979 -0.0000
vn 0.9017 0.4324 -0.0000
vn -0.4747 0.8802 -0.0000
vn 0.5769 0.6876 0.4408
vn 0.5770 0.6875 0.4409
vn 0.0761 0.0907 0.9930
vn 0.6428 0.7660 0.0068
vn -0.5301 0.6318 0.5655
vn -0.5301 0.6317 0.5656
vn -0.0545 0.0650 0.9964
vn -0.6428 0.7660 0.0068
vn -0.0000 0.2531 -0.9674
vn -0.9848 0.1736 0.0068
vn -0.8660 -0.5000 -0.0068
vn -0.8660 -0.5000 0.0068
vn -0.3420 -0.9397 0.0068
vn 0.1026 -0.0592 -0.9930
vn 0.1025 -0.0592 0.9930
vn 0.1026 -0.0592 0.9930
vn 0.2887 0.3441 0.8935
vn -0.0000 0.4491 0.8935
vn -0.2887 0.3441 0.8935
vn -0.4423 0.0780 0.8935
vn -0.4424 0.0779 0.8934
vn 0.1536 -0.4220 0.8935
vn 0.3890 -0.2246 0.8935
vn -0.4423 0.0780 -0.8935
vn -0.4423 0.0780 -0.8934
vn -0.2887 0.3441 -0.8934
vn -0.2887 0.3440 -0.8935
vn -0.4543 0.8908 -0.0000
vn -0.4330 0.9014 -0.0000
vn 0.0004 -0.0000 1.0000
vn -0.0002 -0.2121 0.9773
vn -0.0001 -0.9373 0.3486
vn -0.0001 -0.1667 -0.9860
vn 0.0001 0.1667 -0.9860
vn -0.0006 0.8660 -0.5000
vn 0.5770 0.6876 0.4408
vn -0.5302 0.6318 0.5655
vn 0.9846 -0.1750 0.0047
vn 0.9846 -0.1747 0.0047
vn 0.9850 -0.1726 -0.0047
vn 0.9850 -0.1723 -0.0047
vn 0.0866 -0.2379 0.9674
vn 0.4423 0.0780 0.8934
vn 0.9689 0.1708 0.1790
vn 0.6417 -0.7669 0.0047
vn 0.6420 -0.7667 0.0047
vn 0.2887 0.3441 0.8934
vn -0.0000 0.4492 0.8935
vn -0.0000 0.4492 0.8934
vn -0.2887 0.3441 0.8934
vn -0.4423 0.0780 0.8934
vn -0.4424 0.0780 0.8934
vn -0.1536 -0.4221 0.8934
vn 0.1536 -0.4221 0.8934
vn 0.3890 -0.2246 0.8934
vn -0.6436 -0.7654 -0.0047
vn -0.0011 -1.0000 -0.0073
vn 0.1197 -0.9928 -0.0072
vn -0.3420 -0.9397 -0.0068
vn 0.3420 -0.9397 -0.0068
vn 0.3420 -0.9397 -0.0044
vn 0.6436 -0.7654 -0.0047
vn 0.6438 -0.7652 -0.0047
vn -0.0750 -0.1173 0.9903
vn -0.6436 -0.7653 -0.0073
vn -0.6438 -0.7651 -0.0073
vn -0.9850 -0.1726 -0.0073
vn -0.9850 -0.1723 -0.0073
vn -0.0761 0.0907 -0.9930
vn -0.1026 -0.0592 -0.9930
vn -0.1025 -0.0592 -0.9930
vn -0.1026 -0.0592 0.9930
vn 0.4424 0.0779 0.8934
vn 0.1164 0.1387 -0.9835
vn 0.1568 -0.0905 -0.9835
vn 0.1568 -0.0906 0.9835
vn 0.1568 -0.0905 0.9835
vn 0.1164 0.1387 0.9835
vn 0.3941 0.4697 0.7900
vn -0.0000 0.6132 0.7900
vn -0.3941 0.4697 0.7900
vn -0.6039 0.1065 0.7900
vn -0.6039 0.1064 0.7899
vn -0.5310 -0.3066 0.7900
vn 0.1568 -0.0906 -0.9835
vn -0.6038 0.1065 0.7900
vn -0.5310 -0.3065 0.7900
vn -0.5924 -0.0228 -0.8053
vn -0.5925 -0.0227 -0.8053
vn -0.1568 -0.0906 -0.9835
vn 0.5310 -0.3065 0.7900
vn -0.1198 -0.9928 -0.0049
vn 0.0010 -1.0000 -0.0047
vn 0.4424 0.0780 0.8934
vn -0.3890 -0.2246 0.8934
vn -0.0000 0.4491 -0.8935
vn 0.4543 0.8908 -0.0000
vn 0.8665 0.4991 0.0047
vn 0.8667 0.4988 0.0047
vn -0.0619 -0.1702 0.9835
vn 0.3433 0.9392 0.0047
vn 0.3430 0.9393 0.0047
vn -0.1734 -0.1001 0.9798
vn -0.5378 -0.8431 -0.0000
vn -0.8658 -0.5003 -0.0000
vn -0.9426 -0.3339 -0.0000
vn -0.9426 0.3340 -0.0000
vn -0.7642 0.6450 0.0001
vn -0.5378 0.8431 -0.0000
vn -0.0000 0.2531 0.9674
vn -0.1971 0.0348 0.9798
vn 0.5378 0.8431 -0.0000
vn 0.9426 0.3340 -0.0000
vn 0.8659 0.5002 -0.0000
vn 0.8659 -0.5003 -0.0000
vn 0.5378 -0.8431 -0.0000
vn -0.0838 0.0998 0.9915
vn -0.1645 0.0290 0.9859
vn -0.9688 0.1715 0.1790
vn -0.9302 0.1640 0.3284
vn -0.9575 0.1695 -0.2332
vn -0.9045 0.1595 -0.3956
vn -0.1442 0.1104 0.9834
vn -0.0761 0.0907 0.9930
vn -0.5769 0.6876 0.4408
vn -0.5769 0.6876 0.4409
vn 0.0943 0.0722 0.9929
vn 0.1292 0.0228 0.9914
vn -0.0837 0.0998 0.9915
vn 0.1136 -0.0656 0.9914
vn 0.0488 -0.0764 0.9959
vn 0.5925 -0.0227 -0.8053
vn 0.5924 -0.0228 -0.8053
vn 0.4746 0.8802 0.0003
vn -0.9017 0.4323 0.0002
vn -0.9952 -0.0978 -0.0001
vn -0.4979 -0.8672 -0.0000
vn 0.0405 -0.1113 0.9930
vn -0.0000 0.0001 1.0000
vn -0.0750 -0.1174 0.9903
vn -0.1645 0.0290 -0.9859
vn -0.0571 -0.1570 -0.9859
vn 0.0866 -0.2378 0.9674
vn 0.0639 -0.1001 -0.9929
vn 0.1106 0.0846 -0.9903
vn 0.0290 -0.0797 -0.9964
vn 0.1136 -0.0656 -0.9914
vn 0.1971 0.0348 -0.9798
vn 0.1292 0.0228 -0.9914
vn 0.2493 0.0439 -0.9674
vn 0.0720 0.0551 -0.9959
vn 0.1734 -0.1001 -0.9798
vn 0.0866 -0.2378 -0.9674
vn -0.0000 0.1671 -0.9859
vn 0.0446 -0.1224 -0.9915
vn -0.3230 -0.8876 0.3284
vn -0.3230 -0.8875 0.3286
vn -0.0571 -0.1570 0.9859
vn -0.0445 -0.1224 -0.9915
vn 0.5302 0.6318 0.5655
vn 0.5301 0.6317 0.5656
vn 0.0545 0.0650 0.9964
vn 0.0978 -0.1530 -0.9834
vn -0.0000 1.0000 0.0068
vn -0.0000 0.9445 0.3284
vn -0.0000 0.9445 0.3285
vn -0.0000 0.1671 0.9859
vn -0.8659 -0.5003 -0.0000
vn -0.9426 0.3340 0.0001
vn -0.7642 0.6450 -0.0001
vn -0.0866 -0.2379 -0.9674
vn -0.9017 0.4324 -0.0002
vn -0.9952 -0.0979 0.0004
vn -0.4980 -0.8672 -0.0000
vn 0.1450 -0.9894 -0.0000
vn -0.1733 -0.1001 -0.9798
vn -0.2493 0.0440 -0.9674
vn -0.1971 0.0347 -0.9798
vn -0.2493 0.0440 0.9674
vn -0.0943 0.0722 0.9929
vn -0.4980 -0.8672 -0.0002
vn -0.9952 -0.0979 -0.0001
vn -0.9017 0.4324 -0.0001
vn -0.1713 0.9852 -0.0000
vn 0.4746 0.8802 -0.0003
vn -0.0866 -0.2379 0.9674
vn 0.8653 0.5012 -0.0047
vn 0.8655 0.5009 -0.0047
vn -0.1292 0.0228 0.9914
vn 0.0619 -0.1702 0.9835
vn -0.1136 -0.0656 0.9914
vn 0.5925 -0.0226 -0.8053
vn 0.9848 0.1737 0.0044
vn 0.0750 -0.1173 0.9903
vn 0.9850 -0.1726 -0.0073
vn 0.9850 -0.1723 -0.0073
vn -0.0405 -0.1113 0.9930
vn 0.1734 -0.1001 0.9798
vn -0.0488 -0.0764 0.9959
vn 0.1971 0.0348 0.9798
vn 0.1645 0.0290 -0.9859
vn 0.0837 0.0998 0.9915
vn 0.0571 -0.1570 -0.9859
vn 0.1442 0.1104 0.9834
vn -0.0290 -0.0797 -0.9964
vn 0.1733 -0.1001 -0.9798
vn -0.0639 -0.1001 -0.9929
vn -0.1136 -0.0656 -0.9914
vn -0.1292 0.0228 -0.9914
vn 0.8653 0.5012 -0.0073
vn 0.8655 0.5009 -0.0073
vn -0.0866 -0.2378 -0.9674
vn 0.0003 0.9445 0.3284
vn -0.0000 0.9445 0.3286
vn -0.2492 0.0439 -0.9674
vn -0.0720 0.0551 -0.9959
vn -0.1197 -0.9928 -0.0075
vn 0.0011 -1.0000 -0.0073
vn 0.6436 -0.7653 -0.0073
vn 0.6438 -0.7651 -0.0073
vn 0.0750 -0.1174 0.9903
vn 0.1972 0.0348 0.9798
vn 0.0761 0.0908 -0.9930
vn 0.5301 0.6317 0.5657
vn 0.8658 -0.5003 -0.0000
vn -0.5770 0.6876 0.4408
vt 0.245205 0.969871
vt 0.251298 0.969756
vt 0.251291 0.968196
vt 0.245172 0.968251
vt 0.251284 0.966633
vt 0.561188 0.892817
vt 0.555495 0.894948
vt 0.555901 0.891376
vt 0.560849 0.889524
vt 0.562746 0.888525
vt 0.561706 0.877764
vt 0.565126 0.878335
vt 0.567958 0.889395
vt 0.556561 0.879979
vt 0.553947 0.890492
vt 0.554607 0.879094
vt 0.559808 0.878764
vt 0.194498 0.970224
vt 0.194672 0.966501
vt 0.200350 0.968272
vt 0.201032 0.972261
vt 0.299744 0.983959
vt 0.299943 0.982830
vt 0.298865 0.984697
vt 0.299370 0.981836
vt 0.296839 0.983959
vt 0.297718 0.984697
vt 0.298291 0.981444
vt 0.297213 0.981836
vt 0.296640 0.982830
vt 0.299716 0.987755
vt 0.299516 0.986625
vt 0.299142 0.988749
vt 0.298638 0.985888
vt 0.296986 0.988749
vt 0.298064 0.989141
vt 0.297490 0.985888
vt 0.296611 0.986625
vt 0.296412 0.987755
vt 0.133839 0.959898
vt 0.140886 0.959945
vt 0.140886 0.958095
vt 0.133836 0.961699
vt 0.121226 0.956857
vt 0.128280 0.956794
vt 0.128273 0.954992
vt 0.121263 0.958725
vt 0.128289 0.958593
vt 0.564180 0.891509
vt 0.562282 0.892507
vt 0.140856 0.961814
vt 0.133826 0.963520
vt 0.140804 0.963718
vt 0.294562 0.999531
vt 0.294562 0.976486
vt 0.291907 0.976486
vt 0.291907 0.999531
vt 0.289563 0.976486
vt 0.289563 0.999531
vt 0.287218 0.976486
vt 0.287218 0.999531
vt 0.284564 0.976486
vt 0.284564 0.999531
vt 0.121322 0.960629
vt 0.128304 0.960415
vt 0.133832 0.965441
vt 0.140768 0.965715
vt 0.121362 0.962626
vt 0.128302 0.962338
vt 0.133385 0.967500
vt 0.141004 0.967839
vt 0.128224 0.951318
vt 0.121240 0.951286
vt 0.121227 0.953163
vt 0.128171 0.949367
vt 0.121225 0.949321
vt 0.128550 0.947277
vt 0.120918 0.947222
vt 0.130235 0.948682
vt 0.129664 0.952273
vt 0.118647 0.951490
vt 0.118652 0.949934
vt 0.240642 0.997098
vt 0.240642 0.999674
vt 0.283665 0.999674
vt 0.283665 0.997098
vt 0.240642 0.993233
vt 0.283665 0.993233
vt 0.240642 0.989368
vt 0.283665 0.989368
vt 0.240642 0.985503
vt 0.283665 0.985503
vt 0.240642 0.981638
vt 0.283665 0.981638
vt 0.240642 0.977773
vt 0.283665 0.977773
vt 0.121130 0.964751
vt 0.128754 0.964400
vt 0.143396 0.963572
vt 0.143349 0.965157
vt 0.143462 0.961798
vt 0.143500 0.959953
vt 0.143586 0.966355
vt 0.360671 0.937893
vt 0.359096 0.937893
vt 0.358963 0.931841
vt 0.359931 0.939132
vt 0.360620 0.931805
vt 0.245171 0.966647
vt 0.242905 0.968265
vt 0.242901 0.966667
vt 0.362237 0.931793
vt 0.362239 0.937905
vt 0.363841 0.931793
vt 0.362237 0.929524
vt 0.363800 0.937905
vt 0.363015 0.939166
vt 0.363848 0.929526
vt 0.252551 0.967394
vt 0.252545 0.970490
vt 0.291621 0.781328
vt 0.297565 0.781082
vt 0.292859 0.793044
vt 0.288960 0.793205
vt 0.275943 0.778650
vt 0.280978 0.774013
vt 0.282067 0.777909
vt 0.277693 0.781940
vt 0.288960 0.793206
vt 0.286981 0.791824
vt 0.289641 0.779946
vt 0.293644 0.778199
vt 0.291665 0.776816
vt 0.283524 0.790016
vt 0.284370 0.777189
vt 0.290478 0.776314
vt 0.284414 0.773142
vt 0.297565 0.781083
vt 0.292859 0.793045
vt 0.275943 0.778649
vt 0.280979 0.774013
vt 0.282067 0.777910
vt 0.277692 0.781940
vt 0.140873 0.956232
vt 0.133853 0.956290
vt 0.133839 0.958098
vt 0.140831 0.954321
vt 0.133853 0.954475
vt 0.130387 0.962979
vt 0.121225 0.955008
vt 0.128250 0.953165
vt 0.143502 0.958095
vt 0.143477 0.956255
vt 0.129733 0.955870
vt 0.129726 0.959439
vt 0.132384 0.958993
vt 0.132424 0.955437
vt 0.132403 0.962550
vt 0.118612 0.956874
vt 0.118655 0.958718
vt 0.118727 0.960490
vt 0.118778 0.962075
vt 0.118543 0.963273
vt 0.118383 0.948753
vt 0.118617 0.953225
vt 0.118606 0.955031
vt 0.143421 0.954480
vt 0.143384 0.952891
vt 0.140806 0.952317
vt 0.143626 0.951693
vt 0.141052 0.950193
vt 0.289641 0.779948
vt 0.286980 0.791825
vt 0.283523 0.790017
vt 0.290478 0.776316
vt 0.284414 0.773143
vt 0.291621 0.781330
vt 0.297565 0.781085
vt 0.292858 0.793046
vt 0.288959 0.793207
vt 0.280978 0.774014
vt 0.277692 0.781941
vt 0.287158 0.676623
vt 0.275719 0.680416
vt 0.281881 0.688688
vt 0.287158 0.686938
vt 0.296949 0.686938
vt 0.302227 0.688688
vt 0.308389 0.680416
vt 0.296949 0.676623
vt 0.245255 0.971522
vt 0.251311 0.971337
vt 0.245291 0.973254
vt 0.251310 0.973004
vt 0.245089 0.975096
vt 0.251702 0.974792
vt 0.368845 0.931895
vt 0.368607 0.937911
vt 0.370393 0.938299
vt 0.370687 0.931690
vt 0.245172 0.961715
vt 0.251196 0.961754
vt 0.251525 0.959942
vt 0.244906 0.959894
vt 0.242940 0.962246
vt 0.242936 0.963595
vt 0.245185 0.963419
vt 0.242910 0.965101
vt 0.245174 0.965047
vt 0.360640 0.929546
vt 0.359101 0.929594
vt 0.357723 0.929627
vt 0.357225 0.931862
vt 0.356684 0.929416
vt 0.355383 0.931649
vt 0.369400 0.929452
vt 0.368361 0.929657
vt 0.366986 0.929616
vt 0.367113 0.931864
vt 0.365448 0.929559
vt 0.365461 0.931819
vt 0.133431 0.950500
vt 0.133869 0.952559
vt 0.293644 0.778200
vt 0.291665 0.776817
vt 0.284415 0.773142
vt 0.282067 0.777911
vt 0.277693 0.781941
vt 0.198120 0.888904
vt 0.195983 0.888904
vt 0.195983 0.870358
vt 0.198120 0.870358
vt 0.200007 0.888904
vt 0.200007 0.870358
vt 0.201893 0.888904
vt 0.201893 0.870358
vt 0.204030 0.888904
vt 0.204030 0.870358
vt 0.365362 0.937907
vt 0.366100 0.939150
vt 0.366941 0.937916
vt 0.369167 0.939716
vt 0.357435 0.937878
vt 0.355649 0.938259
vt 0.252491 0.964275
vt 0.251265 0.965048
vt 0.242943 0.969864
vt 0.243005 0.971401
vt 0.243049 0.972776
vt 0.242846 0.973815
vt 0.242707 0.961222
vt 0.201030 0.972263
vt 0.200348 0.968274
vt 0.202740 0.967947
vt 0.203422 0.971936
vt 0.561190 0.892816
vt 0.555497 0.894947
vt 0.555903 0.891375
vt 0.560851 0.889523
vt 0.562748 0.888524
vt 0.561709 0.877763
vt 0.565128 0.878334
vt 0.567960 0.889394
vt 0.556564 0.879977
vt 0.553949 0.890490
vt 0.554610 0.879093
vt 0.559811 0.878763
vt 0.194496 0.970225
vt 0.194670 0.966503
vt 0.289642 0.779946
vt 0.283524 0.790015
vt 0.284370 0.777188
vt 0.284414 0.773141
vt 0.251242 0.963447
vt 0.131790 0.951901
vt 0.292248 0.906194
vt 0.292248 0.895879
vt 0.297526 0.894129
vt 0.303688 0.902401
vt 0.282458 0.895879
vt 0.282458 0.906194
vt 0.271018 0.902401
vt 0.277180 0.894129
vt 0.201033 0.972262
vt 0.200351 0.968273
vt 0.202742 0.967946
vt 0.203426 0.971935
vt 0.561188 0.892816
vt 0.555495 0.894947
vt 0.555901 0.891375
vt 0.560849 0.889523
vt 0.562746 0.888524
vt 0.561707 0.877764
vt 0.567958 0.889394
vt 0.556561 0.879978
vt 0.553948 0.890491
vt 0.554608 0.879093
vt 0.559809 0.878763
vt 0.194499 0.970227
vt 0.194672 0.966504
vt 0.201032 0.972259
vt 0.200351 0.968271
vt 0.202742 0.967944
vt 0.203425 0.971932
vt 0.561187 0.892818
vt 0.555494 0.894949
vt 0.555900 0.891378
vt 0.560848 0.889526
vt 0.562746 0.888527
vt 0.561706 0.877766
vt 0.565125 0.878337
vt 0.567957 0.889397
vt 0.556561 0.879980
vt 0.553947 0.890493
vt 0.554607 0.879096
vt 0.559808 0.878765
vt 0.194499 0.970223
vt 0.194672 0.966500
vt 0.293643 0.778200
vt 0.291664 0.776817
vt 0.202742 0.967945
vt 0.203424 0.971934
vt 0.293643 0.778198
vt 0.291664 0.776815
vt 0.564179 0.891510
vt 0.562281 0.892509
vt 0.282458 0.890319
vt 0.292248 0.890319
vt 0.282458 0.880004
vt 0.292248 0.880004
vt 0.131750 0.966086
vt 0.356864 0.939681
vt 0.252986 0.961161
vt 0.253118 0.973560
vt 0.283282 0.773287
vt 0.281219 0.790733
vt 0.283283 0.773288
vt 0.281218 0.790733
vt 0.564180 0.891508
vt 0.283283 0.773289
vt 0.281218 0.790734
vt 0.564182 0.891508
vt 0.562284 0.892506
vt 0.296949 0.702813
vt 0.296949 0.692498
vt 0.287158 0.692498
vt 0.287158 0.702813
s 1
usemtl body
f 1/1/1 2/2/1 3/3/1
f 4/4/2 3/3/3 5/5/4
f 3/3/3 4/4/2 1/1/1
f 6/6/5 7/7/5 8/8/5
f 8/8/5 9/9/5 6/6/5
f 10/10/6 11/11/6 12/12/6
f 12/12/6 13/13/6 10/10/6
f 14/14/7 8/8/7 13/15/7
f 13/15/7 12/16/7 14/14/7
f 9/9/8 8/8/8 14/14/8
f 14/14/8 15/17/8 9/9/8
f 16/18/9 10/19/9 13/20/9
f 13/20/9 17/21/9 16/18/9
f 18/22/10 19/23/10 20/24/10
f 19/23/10 21/25/10 20/24/10
f 21/25/10 22/26/10 20/24/10
f 22/26/10 23/27/11 20/24/10
f 21/25/10 24/28/10 25/29/10
f 21/25/10 25/29/10 22/26/10
f 25/29/10 26/30/10 22/26/10
f 27/31/12 28/32/12 29/33/12
f 28/32/12 30/34/12 29/33/12
f 30/34/12 31/35/12 29/33/12
f 31/35/12 32/36/12 29/33/12
f 30/34/12 33/37/12 34/38/12
f 30/34/12 34/38/12 31/35/12
f 34/38/12 35/39/12 31/35/12
f 36/40/13 37/41/14 38/42/15
f 37/41/14 36/40/13 39/43/16
f 40/44/17 41/45/18 42/46/19
f 41/45/18 40/44/17 43/47/20
f 43/47/20 44/48/20 41/45/20
f 16/49/21 6/50/21 9/9/21
f 9/9/21 10/10/21 16/49/21
f 10/10/21 9/9/21 15/17/22
f 15/17/22 11/11/22 10/10/21
f 45/51/23 39/43/24 46/52/25
f 39/43/24 45/51/23 37/41/16
f 46/52/25 47/53/25 45/51/25
f 48/54/26 49/55/26 50/56/27
f 50/56/27 51/57/28 48/54/26
f 51/57/28 50/56/27 52/58/29
f 52/58/29 53/59/30 51/57/28
f 53/59/30 52/58/29 54/60/31
f 54/60/31 55/61/32 53/59/30
f 55/61/32 54/60/31 49/62/33
f 49/62/33 48/63/33 55/61/32
f 56/64/34 57/65/34 44/48/34
f 44/48/34 43/47/34 56/64/34
f 47/53/35 46/52/35 58/66/35
f 58/66/35 59/67/35 47/53/35
f 60/68/36 61/69/36 57/65/36
f 57/65/36 56/64/36 60/68/36
f 59/67/37 58/66/37 62/70/37
f 62/70/37 63/71/37 59/67/37
f 64/72/38 65/73/39 66/74/40
f 65/73/39 64/72/38 67/75/41
f 67/75/41 68/76/42 65/73/39
f 68/76/42 67/75/41 69/77/43
f 69/77/43 70/78/43 68/76/43
f 71/79/44 72/80/44 73/72/44
f 24/81/45 65/73/46 68/76/45
f 68/76/45 25/82/45 24/81/45
f 74/83/47 75/84/48 76/85/49
f 76/85/49 77/86/50 74/83/47
f 78/87/51 74/83/47 77/86/50
f 77/86/50 79/88/52 78/87/51
f 80/89/53 78/87/51 79/88/52
f 79/88/52 81/90/54 80/89/53
f 82/91/55 80/89/53 81/90/54
f 81/90/54 83/92/56 82/91/55
f 84/93/57 82/91/55 83/92/56
f 83/92/56 85/94/58 84/93/57
f 75/95/59 84/93/57 85/94/58
f 85/94/58 76/96/59 75/95/59
f 86/61/60 87/63/61 88/62/61
f 88/62/61 89/60/62 86/61/60
f 90/59/63 86/61/60 89/60/62
f 89/60/62 91/58/64 90/59/63
f 92/57/65 90/59/63 91/58/64
f 91/58/64 93/56/66 92/57/65
f 87/54/67 92/57/65 93/56/66
f 93/56/66 88/55/67 87/54/67
f 94/31/12 95/32/12 96/33/12
f 95/32/12 97/34/12 96/33/12
f 97/34/12 98/35/12 96/33/12
f 98/35/12 99/36/12 96/33/12
f 97/34/12 100/37/68 101/38/12
f 97/34/12 101/38/12 98/35/12
f 101/38/12 102/39/12 98/35/12
f 70/97/69 69/98/69 61/69/69
f 61/69/69 60/68/69 70/97/69
f 103/67/70 104/53/70 105/99/70
f 105/99/70 106/100/70 103/67/70
f 104/53/71 107/51/72 108/101/71
f 108/101/71 105/99/71 104/53/71
f 107/51/73 109/41/73 110/102/74
f 110/102/74 108/101/74 107/51/73
f 111/22/10 112/23/10 113/24/10
f 112/23/10 114/25/10 113/24/10
f 114/25/10 115/26/10 113/24/10
f 115/26/10 116/27/10 113/24/10
f 114/25/10 117/28/10 118/29/10
f 114/25/10 118/29/10 115/26/10
f 118/29/10 119/30/10 115/26/10
f 120/71/75 121/103/75 122/100/75
f 122/100/75 123/67/75 120/71/75
f 123/67/73 122/100/76 124/99/73
f 124/99/73 125/53/73 123/67/73
f 125/53/71 124/99/71 126/101/71
f 126/101/71 127/51/72 125/53/71
f 127/51/70 126/101/77 128/102/70
f 128/102/70 129/41/70 127/51/70
f 130/104/78 131/105/79 132/106/80
f 133/107/81 131/105/79 130/104/78
f 132/106/80 134/108/80 130/104/80
f 71/79/82 135/75/82 136/77/82
f 137/109/83 138/4/83 139/110/83
f 139/110/83 140/111/83 137/109/83
f 134/108/84 141/112/84 142/113/84
f 142/113/84 130/104/84 134/108/84
f 143/114/85 141/112/86 144/115/87
f 141/112/86 143/114/85 145/116/88
f 145/116/88 142/113/89 141/112/86
f 146/117/90 142/113/89 145/116/88
f 144/115/91 147/118/91 143/114/91
f 73/72/92 135/75/92 71/79/92
f 148/119/93 149/120/93 150/2/93
f 150/2/93 151/3/93 148/119/93
f 152/121/94 153/122/94 154/123/94
f 154/123/94 155/124/94 152/121/94
f 156/125/95 157/126/95 153/127/95
f 153/127/95 152/128/95 156/125/95
f 158/94/58 159/96/59 160/95/59
f 160/95/59 161/93/57 158/94/58
f 162/92/56 158/94/58 161/93/57
f 161/93/57 163/91/55 162/92/56
f 164/90/54 162/92/56 163/91/55
f 163/91/55 165/89/53 164/90/54
f 166/88/52 164/90/54 165/89/53
f 165/89/53 167/87/51 166/88/52
f 168/86/50 166/88/52 167/87/51
f 167/87/51 169/83/47 168/86/50
f 159/85/49 168/86/50 169/83/47
f 169/83/47 160/84/49 159/85/49
f 170/121/21 171/129/22 172/130/22
f 172/130/22 173/131/21 170/121/21
f 174/132/21 170/121/21 173/131/21
f 173/131/21 175/133/21 174/132/21
f 173/131/94 172/130/94 176/134/94
f 176/134/94 177/135/94 173/131/94
f 175/136/95 173/131/95 177/135/95
f 177/135/95 178/137/95 175/136/95
f 170/121/96 179/138/96 180/139/96
f 180/139/96 171/129/96 170/121/96
f 174/140/97 181/141/97 179/142/97
f 179/142/97 170/143/97 174/140/97
f 182/144/98 183/145/99 184/146/100
f 183/145/99 182/144/98 185/147/101
f 185/147/101 186/148/101 183/145/101
f 71/149/102 136/98/102 187/69/102
f 42/46/103 188/150/104 40/44/19
f 188/150/104 42/46/103 189/151/105
f 38/42/106 184/146/107 36/40/15
f 184/146/107 38/42/106 182/144/100
f 27/152/108 38/42/109 37/41/110
f 38/42/109 27/152/108 29/153/111
f 37/41/112 28/102/112 27/152/112
f 29/153/113 182/144/113 38/42/113
f 53/154/114 41/45/114 44/48/114
f 44/48/114 51/155/114 53/154/114
f 55/80/115 189/151/115 42/46/115
f 42/46/115 53/154/115 55/80/115
f 52/156/116 184/146/116 183/145/116
f 183/145/116 54/157/116 52/156/116
f 50/158/117 39/43/117 36/40/117
f 36/40/117 52/156/117 50/158/117
f 40/44/118 18/159/118 20/160/118
f 20/160/118 43/47/118 40/44/118
f 43/47/119 20/160/119 23/161/119
f 23/161/119 56/64/119 43/47/119
f 56/64/120 23/161/120 22/162/120
f 22/162/120 60/68/120 56/64/120
f 60/68/121 22/162/122 26/163/123
f 26/163/123 70/97/124 60/68/121
f 70/78/125 26/164/126 25/82/126
f 25/82/126 68/76/125 70/78/125
f 65/73/127 24/81/127 21/165/127
f 21/165/127 66/74/127 65/73/127
f 66/74/128 21/165/128 19/166/128
f 19/166/128 188/150/128 66/74/128
f 188/150/129 19/166/129 18/159/129
f 18/159/129 40/44/129 188/150/129
f 182/144/130 29/153/130 32/167/130
f 32/167/130 185/147/130 182/144/130
f 185/147/131 32/167/131 31/168/131
f 31/168/131 190/169/131 185/147/131
f 190/169/132 31/168/133 35/170/133
f 35/170/133 63/171/132 190/169/132
f 63/71/134 35/103/75 34/100/75
f 34/100/75 59/67/135 63/71/134
f 59/67/74 34/100/74 33/99/74
f 33/99/74 47/53/74 59/67/74
f 47/53/72 33/99/71 30/101/72
f 30/101/72 45/51/72 47/53/72
f 45/51/77 30/101/77 28/102/77
f 28/102/77 37/41/77 45/51/77
f 191/172/94 192/173/94 193/174/94
f 193/174/94 194/135/94 191/172/94
f 195/175/95 191/172/95 194/135/95
f 194/135/95 196/176/95 195/175/95
f 197/177/96 198/178/96 199/179/96
f 199/179/96 200/180/96 197/177/96
f 201/125/97 202/181/97 198/142/97
f 198/142/97 197/182/97 201/125/97
f 203/183/12 204/184/12 205/185/12
f 205/185/12 206/186/12 203/183/12
f 207/187/10 208/188/10 209/189/10
f 209/189/10 210/190/10 207/187/10
f 211/22/10 212/23/10 213/24/10
f 212/23/10 214/25/10 213/24/10
f 214/25/10 215/26/10 213/24/10
f 215/26/10 216/27/11 213/24/10
f 214/25/10 217/28/10 218/29/10
f 214/25/10 218/29/10 215/26/10
f 218/29/10 219/30/10 215/26/10
f 220/4/2 221/3/3 222/5/4
f 221/3/3 220/4/2 223/1/1
f 223/1/1 224/2/1 221/3/1
f 72/80/136 225/151/136 73/72/136
f 226/191/137 227/192/137 224/2/137
f 224/2/137 223/1/137 226/191/137
f 228/193/138 229/194/138 227/192/138
f 227/192/138 226/191/138 228/193/138
f 230/195/139 231/196/139 229/194/139
f 229/194/139 228/193/139 230/195/139
f 232/197/140 233/198/140 234/199/140
f 234/199/140 235/200/140 232/197/140
f 236/201/141 237/202/141 231/203/141
f 231/203/141 230/204/141 236/201/141
f 236/201/142 218/205/142 217/206/142
f 217/206/142 238/207/142 236/201/142
f 238/207/143 217/206/143 214/208/143
f 214/208/143 239/209/143 238/207/143
f 239/209/144 214/208/144 212/111/144
f 212/111/144 240/109/144 239/209/144
f 241/112/145 94/115/146 96/210/145
f 96/210/145 242/108/145 241/112/145
f 242/108/147 96/210/147 99/211/147
f 99/211/147 243/106/147 242/108/147
f 243/106/148 99/211/149 98/212/148
f 98/212/148 244/213/148 243/106/148
f 244/213/150 98/212/151 102/214/151
f 102/214/151 235/215/150 244/213/150
f 235/200/91 102/216/87 101/217/87
f 101/217/87 232/197/91 235/200/91
f 232/197/152 101/217/152 100/218/152
f 100/218/152 245/219/152 232/197/152
f 245/219/153 100/218/153 97/220/153
f 97/220/153 246/221/153 245/219/153
f 246/221/154 97/220/154 95/118/154
f 95/118/154 247/114/154 246/221/154
f 248/76/155 249/73/155 250/81/155
f 250/81/155 251/82/155 248/76/155
f 249/73/46 252/74/46 253/165/46
f 253/165/46 250/81/46 249/73/46
f 252/74/126 254/150/126 255/166/126
f 255/166/126 253/165/126 252/74/126
f 254/150/121 256/44/121 257/159/121
f 257/159/121 255/166/124 254/150/121
f 258/144/156 259/147/156 260/167/131
f 260/167/131 261/153/131 258/144/156
f 259/147/157 262/169/157 263/168/157
f 263/168/157 260/167/157 259/147/157
f 262/169/111 264/171/111 265/170/111
f 265/170/111 263/168/113 262/169/111
f 264/71/158 103/67/110 106/100/158
f 106/100/158 265/103/158 264/71/158
f 266/31/159 128/32/12 267/33/12
f 128/32/12 126/34/12 267/33/12
f 126/34/12 268/35/12 267/33/12
f 268/35/12 269/36/12 267/33/12
f 126/34/12 124/37/12 122/38/12
f 126/34/12 122/38/12 268/35/12
f 122/38/12 121/39/159 268/35/12
f 270/44/17 271/45/160 272/46/19
f 271/45/160 270/44/17 273/47/20
f 273/47/20 274/48/20 271/45/20
f 187/69/114 275/65/114 276/155/114
f 277/40/13 129/41/14 278/42/15
f 129/41/14 277/40/13 279/43/16
f 127/51/23 279/43/24 280/52/25
f 279/43/24 127/51/23 129/41/16
f 280/52/25 125/53/25 127/51/25
f 281/154/161 282/45/161 283/46/161
f 284/64/34 285/65/34 274/48/34
f 274/48/34 273/47/34 284/64/34
f 125/53/35 280/52/35 286/66/35
f 286/66/35 123/67/35 125/53/35
f 287/68/36 288/69/36 285/65/36
f 285/65/36 284/64/36 287/68/36
f 123/67/37 286/66/37 289/70/37
f 289/70/37 120/71/37 123/67/37
f 290/97/69 291/98/69 288/69/69
f 288/69/69 287/68/69 290/97/69
f 292/72/38 293/73/39 294/74/40
f 293/73/39 292/72/38 295/75/41
f 295/75/41 296/76/162 293/73/39
f 296/76/162 295/75/41 291/77/43
f 291/77/43 290/78/43 296/76/43
f 276/155/163 71/149/163 187/69/163
f 120/171/164 289/222/164 297/223/164
f 297/223/164 298/169/164 120/171/164
f 298/169/165 297/223/165 299/148/165
f 299/148/165 300/147/165 298/169/165
f 301/151/166 294/74/167 302/150/105
f 294/74/167 301/151/166 292/72/40
f 303/144/98 304/145/168 305/146/100
f 304/145/168 303/144/98 300/147/101
f 300/147/101 299/148/101 304/145/101
f 306/156/169 307/146/169 308/40/169
f 272/46/103 302/150/170 270/44/19
f 302/150/170 272/46/103 301/151/105
f 278/42/106 305/146/107 277/40/15
f 305/146/107 278/42/106 303/144/100
f 309/83/171 310/86/172 311/85/49
f 310/86/172 309/83/171 312/87/173
f 312/87/173 313/88/52 310/86/172
f 313/88/52 312/87/173 314/89/53
f 314/89/53 315/90/174 313/88/52
f 315/90/174 314/89/53 316/91/55
f 316/91/55 317/92/175 315/90/174
f 317/92/175 316/91/55 318/93/57
f 318/93/57 319/94/176 317/92/175
f 319/94/176 318/93/57 320/95/59
f 311/85/48 320/84/48 309/83/48
f 320/95/59 311/96/59 319/94/59
f 321/177/177 322/180/178 323/173/178
f 323/173/178 324/172/177 321/177/177
f 325/224/177 321/177/177 324/172/177
f 324/172/177 326/225/177 325/224/177
f 324/172/96 323/173/96 327/174/96
f 327/174/96 328/135/96 324/172/96
f 326/175/97 324/172/97 328/135/97
f 328/135/97 329/226/97 326/175/97
f 321/177/94 330/178/94 331/179/94
f 331/179/94 322/180/94 321/177/94
f 325/125/95 332/181/95 330/227/95
f 330/227/95 321/228/95 325/125/95
f 333/229/60 334/230/61 335/231/61
f 335/231/61 133/232/179 333/229/60
f 148/233/180 333/229/60 133/232/179
f 133/232/179 146/234/181 148/233/180
f 149/235/65 148/233/180 146/234/181
f 146/234/181 336/236/182 149/235/65
f 334/237/67 149/235/65 336/236/182
f 336/236/182 335/238/67 334/237/67
f 145/116/183 337/239/184 336/240/185
f 337/239/184 145/116/183 143/114/186
f 143/114/186 338/221/186 337/239/186
f 336/240/185 146/117/185 145/116/185
f 339/191/137 340/1/137 150/2/137
f 150/2/137 341/192/137 339/191/137
f 342/193/1 339/191/1 341/192/1
f 341/192/1 343/194/1 342/193/1
f 344/241/187 345/198/188 335/242/189
f 345/198/188 344/241/187 346/219/190
f 346/219/190 347/197/190 345/198/190
f 276/155/191 275/65/191 348/48/191
f 349/195/4 342/193/4 343/194/4
f 343/194/4 350/196/4 349/195/4
f 347/197/192 351/200/192 352/199/192
f 352/199/192 345/198/192 347/197/192
f 353/201/193 349/204/193 350/203/193
f 350/203/193 354/202/193 353/201/193
f 351/215/194 355/213/194 356/243/194
f 356/243/194 352/244/194 351/215/194
f 355/213/195 132/106/195 131/105/195
f 131/105/195 356/243/195 355/213/195
f 333/245/196 148/119/196 357/5/196
f 357/5/196 358/246/196 333/245/196
f 146/117/197 133/107/197 130/104/197
f 130/104/197 142/113/198 146/117/197
f 138/4/199 340/1/199 359/247/199
f 359/247/199 139/110/199 138/4/199
f 340/1/200 339/191/200 360/248/200
f 360/248/200 359/247/200 340/1/200
f 339/191/201 342/193/201 361/249/201
f 361/249/201 360/248/201 339/191/201
f 342/193/202 349/195/202 362/250/202
f 362/250/202 361/249/203 342/193/202
f 349/204/144 353/201/144 363/205/144
f 363/205/144 362/251/144 349/204/144
f 353/201/143 364/207/143 365/206/143
f 365/206/143 363/205/143 353/201/143
f 364/207/204 366/209/204 367/208/142
f 367/208/142 365/206/142 364/207/204
f 366/209/205 137/109/205 140/111/205
f 140/111/205 367/208/205 366/209/205
f 141/112/151 134/108/151 368/210/150
f 368/210/150 144/115/150 141/112/151
f 134/108/148 132/106/148 369/211/148
f 369/211/148 368/210/149 134/108/148
f 132/106/147 355/213/147 370/212/147
f 370/212/147 369/211/147 132/106/147
f 355/213/145 351/215/146 371/214/145
f 371/214/145 370/212/145 355/213/145
f 351/200/206 347/197/206 372/217/206
f 372/217/206 371/216/207 351/200/206
f 347/197/154 346/219/208 373/218/154
f 373/218/154 372/217/209 347/197/154
f 346/219/153 338/221/153 374/220/153
f 374/220/153 373/218/153 346/219/153
f 338/221/152 143/114/152 147/118/152
f 147/118/152 374/220/152 338/221/152
f 375/252/210 376/253/210 377/254/210
f 377/254/210 378/255/210 375/252/210
f 379/256/9 378/257/9 377/258/9
f 377/258/9 380/259/9 379/256/9
f 381/260/8 382/261/8 383/262/8
f 383/262/8 376/263/8 381/260/8
f 384/264/211 377/258/211 376/265/211
f 376/265/211 383/266/211 384/264/211
f 380/259/6 377/258/6 384/264/6
f 384/264/6 385/267/6 380/259/6
f 386/268/5 381/269/5 376/253/5
f 376/253/5 375/252/5 386/268/5
f 387/83/212 388/86/213 389/85/49
f 388/86/213 387/83/212 390/87/51
f 390/87/51 391/88/214 388/86/213
f 391/88/214 390/87/51 392/89/53
f 392/89/53 393/90/174 391/88/214
f 393/90/174 392/89/53 394/91/215
f 394/91/215 395/92/216 393/90/174
f 395/92/216 394/91/215 396/93/57
f 396/93/57 397/94/217 395/92/216
f 397/94/217 396/93/57 398/95/59
f 389/85/49 398/84/49 387/83/49
f 398/95/59 389/96/59 397/94/59
f 399/229/60 400/230/61 401/231/61
f 401/231/61 402/232/179 399/229/60
f 403/233/180 399/229/60 402/232/179
f 402/232/179 404/234/181 403/233/180
f 405/235/65 403/233/180 404/234/181
f 404/234/181 406/236/182 405/235/65
f 400/237/67 405/235/65 406/236/182
f 406/236/182 401/238/67 400/237/67
f 407/116/218 408/239/184 406/240/185
f 408/239/184 407/116/218 409/114/186
f 409/114/186 410/221/186 408/239/186
f 406/240/185 404/117/185 407/116/185
f 411/191/137 412/1/137 413/2/137
f 413/2/137 414/192/137 411/191/137
f 415/193/1 411/191/1 414/192/1
f 414/192/1 416/194/1 415/193/1
f 417/241/219 418/198/188 401/242/189
f 418/198/188 417/241/219 419/219/190
f 419/219/190 420/197/190 418/198/190
f 258/144/164 421/42/220 307/146/221
f 308/40/37 307/146/221 421/42/220
f 225/151/43 283/46/222 254/150/223
f 256/44/69 254/150/223 283/46/222
f 422/157/224 423/148/224 424/145/224
f 425/195/4 415/193/4 416/194/4
f 416/194/4 426/196/4 425/195/4
f 420/197/192 427/200/192 428/199/192
f 428/199/192 418/198/192 420/197/192
f 429/201/193 425/204/193 426/203/193
f 426/203/193 430/202/193 429/201/193
f 427/215/194 431/213/194 432/243/194
f 432/243/194 428/244/194 427/215/194
f 431/213/195 433/106/195 434/105/195
f 434/105/195 432/243/195 431/213/195
f 435/109/225 436/4/225 437/110/225
f 437/110/225 438/111/225 435/109/225
f 439/108/84 440/112/84 441/113/84
f 441/113/84 442/104/84 439/108/84
f 409/114/85 440/112/86 443/115/91
f 440/112/86 409/114/85 407/116/226
f 407/116/226 441/113/89 440/112/86
f 404/117/90 441/113/89 407/116/226
f 443/115/91 444/118/91 409/114/91
f 424/145/165 423/148/165 259/147/165
f 259/147/165 258/144/227 424/145/228
f 307/146/164 424/145/228 258/144/227
f 403/119/93 405/120/93 413/2/93
f 413/2/93 445/3/93 403/119/93
f 399/245/196 403/119/196 446/5/196
f 446/5/196 447/246/196 399/245/196
f 404/117/198 402/107/198 442/104/198
f 442/104/198 441/113/198 404/117/198
f 436/4/229 412/1/199 448/247/229
f 448/247/229 437/110/229 436/4/229
f 412/1/230 411/191/230 449/248/231
f 449/248/231 448/247/231 412/1/230
f 411/191/232 415/193/232 450/249/232
f 450/249/232 449/248/201 411/191/232
f 415/193/233 425/195/202 451/250/234
f 451/250/234 450/249/234 415/193/233
f 425/204/144 429/201/144 452/205/144
f 452/205/144 451/251/144 425/204/144
f 429/201/143 453/207/235 454/206/143
f 454/206/143 452/205/143 429/201/143
f 453/207/142 455/209/142 456/208/236
f 456/208/236 454/206/236 453/207/142
f 455/209/237 435/109/237 438/111/237
f 438/111/237 456/208/237 455/209/237
f 440/112/151 439/108/151 457/210/151
f 457/210/151 443/115/150 440/112/151
f 439/108/148 433/106/148 458/211/148
f 458/211/148 457/210/148 439/108/148
f 433/106/147 431/213/147 459/212/147
f 459/212/147 458/211/147 433/106/147
f 431/213/145 427/215/145 460/214/145
f 460/214/145 459/212/145 431/213/145
f 427/200/206 420/197/206 461/217/206
f 461/217/206 460/216/207 427/200/206
f 420/197/154 419/219/154 462/218/154
f 462/218/154 461/217/154 420/197/154
f 419/219/153 410/221/153 463/220/153
f 463/220/153 462/218/153 419/219/153
f 410/221/152 409/114/152 444/118/152
f 444/118/152 463/220/152 410/221/152
f 464/270/96 465/130/96 466/271/96
f 466/271/96 467/272/96 464/270/96
f 468/136/97 464/270/97 467/272/97
f 467/272/97 469/273/97 468/136/97
f 470/31/12 471/32/12 472/33/12
f 471/32/12 473/34/12 472/33/12
f 473/34/12 474/35/12 472/33/12
f 474/35/12 475/36/12 472/33/12
f 473/34/12 476/37/12 477/38/12
f 473/34/12 477/38/12 474/35/12
f 477/38/12 478/39/12 474/35/12
f 479/22/10 480/23/10 481/24/10
f 480/23/10 482/25/10 481/24/10
f 482/25/10 483/26/10 481/24/10
f 483/26/10 484/27/10 481/24/10
f 482/25/10 485/28/10 486/29/10
f 482/25/10 486/29/10 483/26/10
f 486/29/10 487/30/10 483/26/10
f 63/171/164 62/222/164 488/223/164
f 488/223/164 190/169/164 63/171/164
f 190/169/165 488/223/165 186/148/165
f 186/148/165 185/147/165 190/169/165
f 66/74/167 189/151/238 64/72/40
f 189/151/238 66/74/167 188/150/105
f 489/274/239 238/207/240 239/209/241
f 238/207/240 489/274/239 237/202/242
f 237/202/242 236/201/242 238/207/240
f 73/72/243 225/151/244 252/74/245
f 254/150/43 252/74/245 225/151/244
f 422/157/246 490/275/246 491/223/246
f 235/215/84 234/244/84 492/243/84
f 492/243/84 244/213/84 235/215/84
f 244/213/80 492/243/80 493/105/80
f 493/105/80 243/106/80 244/213/80
f 494/246/247 239/209/248 240/109/193
f 239/209/248 494/246/247 489/274/241
f 222/5/249 240/109/250 220/4/4
f 240/109/250 222/5/249 494/246/193
f 240/109/202 212/111/202 211/110/202
f 211/110/202 220/4/202 240/109/202
f 242/108/194 495/104/194 496/113/194
f 496/113/194 241/112/194 242/108/194
f 497/119/251 221/3/251 224/2/251
f 224/2/251 498/120/251 497/119/251
f 499/245/252 494/246/253 222/5/252
f 222/5/252 497/119/252 499/245/252
f 500/117/254 496/113/254 495/104/254
f 495/104/254 501/107/254 500/117/254
f 220/4/201 211/110/232 213/247/201
f 213/247/201 223/1/201 220/4/201
f 223/1/230 213/247/230 216/248/230
f 216/248/230 226/191/230 223/1/230
f 226/191/229 216/248/199 215/249/229
f 215/249/229 228/193/229 226/191/229
f 228/193/83 215/249/255 219/250/83
f 219/250/83 230/195/83 228/193/83
f 230/204/205 219/251/205 218/205/205
f 218/205/205 236/201/205 230/204/205
f 502/64/34 503/47/34 504/48/34
f 504/48/34 505/65/34 502/64/34
f 506/66/16 507/52/16 508/53/16
f 508/53/16 509/67/16 506/66/16
f 510/68/20 502/64/20 505/65/20
f 505/65/20 511/69/20 510/68/20
f 512/70/15 506/66/15 509/67/15
f 509/67/15 513/71/15 512/70/15
f 514/97/19 510/68/19 511/69/19
f 511/69/19 515/98/19 514/97/19
f 516/76/105 514/78/105 515/77/105
f 515/77/105 517/75/105 516/76/105
f 513/171/100 518/169/100 519/223/100
f 519/223/100 512/222/100 513/171/100
f 518/169/101 520/147/101 521/148/101
f 521/148/101 519/223/101 518/169/101
f 90/154/256 92/155/256 504/48/256
f 504/48/256 522/45/256 90/154/256
f 86/80/257 90/154/257 523/46/257
f 523/46/257 524/151/257 86/80/257
f 91/156/258 89/157/258 525/145/258
f 525/145/258 526/146/259 91/156/258
f 93/158/260 91/156/260 527/40/260
f 527/40/260 528/43/260 93/158/260
f 529/44/261 503/47/261 530/160/261
f 530/160/261 531/159/120 529/44/261
f 503/47/119 502/64/119 532/161/119
f 532/161/119 530/160/262 503/47/119
f 502/64/118 510/68/118 533/162/118
f 533/162/118 532/161/263 502/64/118
f 510/68/129 514/97/264 534/163/265
f 534/163/265 533/162/265 510/68/129
f 514/78/128 516/76/128 535/82/266
f 535/82/266 534/164/266 514/78/128
f 516/76/127 536/73/127 537/81/127
f 537/81/127 535/82/127 516/76/127
f 536/73/45 538/74/45 539/165/45
f 539/165/45 537/81/45 536/73/45
f 538/74/125 540/150/125 541/166/125
f 541/166/125 539/165/126 538/74/125
f 540/150/123 529/44/123 531/159/123
f 531/159/123 541/166/123 540/150/123
f 542/144/131 520/147/131 543/167/131
f 543/167/131 544/153/131 542/144/131
f 520/147/130 518/169/130 545/168/157
f 545/168/157 543/167/157 520/147/130
f 518/169/111 513/171/111 546/170/113
f 546/170/113 545/168/113 518/169/111
f 513/71/158 509/67/110 547/100/158
f 547/100/158 546/103/158 513/71/158
f 509/67/77 508/53/70 548/99/77
f 548/99/77 547/100/77 509/67/77
f 508/53/72 549/51/72 550/101/71
f 550/101/71 548/99/71 508/53/72
f 549/51/74 551/41/73 552/102/74
f 552/102/74 550/101/74 549/51/74
f 553/64/34 554/47/34 348/48/34
f 348/48/34 275/65/34 553/64/34
f 555/66/16 556/52/16 104/53/16
f 104/53/16 103/67/16 555/66/16
f 557/68/20 553/64/20 275/65/20
f 275/65/20 187/69/20 557/68/20
f 558/70/15 555/66/15 103/67/15
f 103/67/15 264/71/15 558/70/15
f 559/97/19 557/68/19 187/69/19
f 187/69/19 136/98/19 559/97/19
f 248/76/105 559/78/105 136/77/105
f 136/77/105 135/75/105 248/76/105
f 264/171/100 262/169/100 491/223/100
f 491/223/100 558/222/100 264/171/100
f 262/169/101 259/147/101 423/148/101
f 423/148/101 491/223/101 262/169/101
f 281/154/256 276/155/256 348/48/256
f 348/48/256 282/45/256 281/154/256
f 72/80/257 281/154/267 283/46/267
f 283/46/267 225/151/257 72/80/257
f 306/156/259 422/157/259 424/145/259
f 424/145/259 307/146/259 306/156/259
f 560/158/260 306/156/260 308/40/260
f 308/40/260 561/43/260 560/158/260
f 256/44/261 554/47/261 562/160/261
f 562/160/261 257/159/261 256/44/261
f 554/47/262 553/64/262 563/161/262
f 563/161/262 562/160/262 554/47/262
f 553/64/118 557/68/118 564/162/263
f 564/162/263 563/161/263 553/64/118
f 557/68/264 559/97/268 565/163/265
f 565/163/265 564/162/265 557/68/264
f 251/82/266 565/164/269 559/78/266
f 559/78/266 248/76/266 251/82/266
f 266/152/270 278/42/271 129/41/158
f 278/42/271 266/152/270 267/153/111
f 129/41/112 128/102/112 266/152/112
f 267/153/113 303/144/113 278/42/113
f 566/154/114 271/45/114 274/48/114
f 274/48/114 567/155/114 566/154/114
f 568/80/115 301/151/115 272/46/272
f 272/46/272 566/154/272 568/80/115
f 569/156/116 305/146/116 304/145/116
f 304/145/116 570/157/116 569/156/116
f 571/158/117 279/43/117 277/40/117
f 277/40/117 569/156/117 571/158/117
f 270/44/263 111/159/263 113/160/263
f 113/160/263 273/47/263 270/44/263
f 273/47/262 113/160/262 116/161/262
f 116/161/262 284/64/262 273/47/262
f 284/64/261 116/161/261 115/162/261
f 115/162/261 287/68/120 284/64/261
f 287/68/121 115/162/122 119/163/122
f 119/163/122 290/97/124 287/68/121
f 290/78/126 119/164/273 118/82/126
f 118/82/126 296/76/126 290/78/126
f 296/76/46 118/82/46 117/81/46
f 117/81/46 293/73/46 296/76/46
f 293/73/155 117/81/155 114/165/155
f 114/165/155 294/74/155 293/73/155
f 294/74/266 114/165/266 112/166/266
f 112/166/266 302/150/266 294/74/266
f 302/150/268 112/166/264 111/159/264
f 111/159/264 270/44/268 302/150/268
f 303/144/130 267/153/130 269/167/130
f 269/167/130 300/147/157 303/144/130
f 300/147/156 269/167/131 268/168/156
f 268/168/156 298/169/156 300/147/156
f 298/169/132 268/168/132 121/170/132
f 121/170/132 120/171/132 298/169/132
f 572/276/12 573/277/12 574/278/12
f 574/278/12 575/279/12 572/276/12
f 576/280/10 577/281/10 578/282/10
f 578/282/10 579/283/10 576/280/10
f 580/284/210 581/285/210 582/286/210
f 582/286/210 583/287/210 580/284/210
f 584/288/9 583/289/9 582/290/9
f 582/290/9 585/291/9 584/288/9
f 586/292/8 587/293/8 588/12/8
f 588/12/8 581/294/8 586/292/8
f 589/295/211 582/290/211 581/296/211
f 581/296/211 588/297/211 589/295/211
f 585/291/6 582/290/6 589/295/6
f 589/295/6 590/298/6 585/291/6
f 591/299/5 586/300/5 581/285/5
f 581/285/5 580/284/5 591/299/5
f 592/276/12 593/277/12 594/278/12
f 594/278/12 595/279/12 592/276/12
f 596/280/10 597/281/10 598/282/10
f 598/282/10 599/283/10 596/280/10
f 600/191/137 601/192/137 2/2/137
f 2/2/137 1/1/137 600/191/137
f 602/193/138 603/194/138 601/192/138
f 601/192/138 600/191/138 602/193/138
f 604/195/139 605/196/139 603/194/139
f 603/194/139 602/193/139 604/195/139
f 606/197/140 607/198/140 608/199/140
f 608/199/140 609/200/140 606/197/140
f 610/201/141 611/202/141 605/203/141
f 605/203/141 604/204/141 610/201/141
f 612/274/239 613/207/240 614/209/241
f 613/207/240 612/274/239 611/202/242
f 611/202/242 610/201/242 613/207/240
f 252/74/243 249/73/274 73/72/275
f 135/75/40 73/72/275 249/73/274
f 249/73/274 248/76/40 135/75/40
f 609/215/84 608/244/84 615/243/84
f 615/243/84 616/213/84 609/215/84
f 616/213/80 615/243/80 617/105/80
f 617/105/80 618/106/80 616/213/80
f 619/246/247 614/209/248 620/109/193
f 614/209/248 619/246/247 612/274/241
f 5/5/249 620/109/250 4/4/4
f 620/109/250 5/5/249 619/246/193
f 620/109/233 480/111/233 479/110/233
f 479/110/233 4/4/233 620/109/233
f 621/119/251 3/3/251 2/2/251
f 2/2/251 622/120/251 621/119/251
f 623/245/252 619/246/252 5/5/252
f 5/5/252 621/119/252 623/245/252
f 624/117/254 625/113/254 626/104/254
f 626/104/254 627/107/254 624/117/254
f 4/4/232 479/110/232 481/247/232
f 481/247/232 1/1/201 4/4/232
f 1/1/230 481/247/231 484/248/230
f 484/248/230 600/191/230 1/1/230
f 600/191/229 484/248/199 483/249/229
f 483/249/229 602/193/229 600/191/229
f 602/193/225 483/249/255 487/250/276
f 487/250/276 604/195/83 602/193/225
f 604/204/205 487/251/205 486/205/205
f 486/205/205 610/201/237 604/204/205
f 610/201/142 486/205/236 485/206/142
f 485/206/142 613/207/142 610/201/142
f 613/207/235 485/206/235 482/208/235
f 482/208/235 614/209/143 613/207/235
f 614/209/277 482/208/277 480/111/277
f 480/111/277 620/109/277 614/209/277
f 628/112/145 470/115/146 472/210/145
f 472/210/145 629/108/145 628/112/145
f 629/108/147 472/210/147 475/211/147
f 475/211/147 618/106/147 629/108/147
f 618/106/148 475/211/148 474/212/148
f 474/212/148 616/213/148 618/106/148
f 616/213/151 474/212/151 478/214/151
f 478/214/151 609/215/151 616/213/151
f 609/200/91 478/216/87 477/217/91
f 477/217/91 606/197/91 609/200/91
f 606/197/152 477/217/152 476/218/152
f 476/218/152 630/219/152 606/197/152
f 630/219/153 476/218/153 473/220/153
f 473/220/153 631/221/278 630/219/153
f 631/221/154 473/220/154 471/118/154
f 471/118/154 632/114/154 631/221/154
f 633/276/12 634/279/12 635/278/12
f 635/278/12 636/277/12 633/276/12
f 637/280/10 638/283/10 639/282/10
f 639/282/10 640/281/10 637/280/10
f 641/301/279 642/302/279 643/303/279
f 643/303/279 644/304/279 641/301/279
f 645/305/5 644/306/5 643/307/5
f 643/307/5 646/308/5 645/305/5
f 647/309/6 648/310/6 649/311/6
f 649/311/6 642/312/6 647/309/6
f 650/313/7 643/307/7 642/314/7
f 642/314/7 649/315/7 650/313/7
f 646/308/8 643/307/8 650/313/8
f 650/313/8 651/316/8 646/308/8
f 652/317/9 647/318/9 642/302/9
f 642/302/9 641/301/9 652/317/9
f 197/177/22 200/180/22 192/173/22
f 192/173/22 191/172/22 197/177/22
f 201/319/21 197/177/22 191/172/22
f 191/172/22 195/320/21 201/319/21
f 8/321/279 7/322/279 17/21/279
f 17/21/279 13/20/279 8/321/279
f 152/121/177 155/124/178 465/130/178
f 465/130/178 464/270/177 152/121/177
f 156/323/177 152/121/177 464/270/177
f 464/270/177 468/324/177 156/323/177
f 560/56/66 490/55/67 71/54/67
f 71/54/67 276/57/65 560/56/66
f 306/58/64 560/56/66 276/57/65
f 276/57/65 281/59/63 306/58/64
f 422/60/62 306/58/64 281/59/63
f 281/59/63 72/61/60 422/60/62
f 490/62/61 422/60/62 72/61/60
f 72/61/60 71/63/61 490/62/61
f 561/43/35 308/40/280 109/41/281
f 421/42/37 109/41/281 308/40/280
f 491/223/282 423/148/282 422/157/282
f 629/108/194 626/104/194 625/113/194
f 625/113/194 628/112/194 629/108/194
f 562/24/10 563/27/10 564/26/10
f 562/24/10 564/26/10 253/25/10
f 564/26/10 251/29/10 253/25/10
f 251/29/10 250/28/10 253/25/10
f 564/26/10 565/30/10 251/29/10
f 257/22/10 562/24/10 255/23/10
f 562/24/10 253/25/10 255/23/10
f 107/51/25 104/53/25 556/52/25
f 109/41/35 107/51/283 561/43/284
f 556/52/25 561/43/284 107/51/283
f 652/325/21 645/326/21 646/308/21
f 646/308/21 647/309/21 652/325/21
f 647/309/21 646/308/21 651/316/22
f 651/316/22 648/310/22 647/309/21
f 490/275/285 558/222/285 491/223/285
f 597/281/286 596/280/287 593/277/288
f 593/277/288 596/280/287 599/327/289
f 599/327/289 594/328/290 593/277/288
f 594/328/290 599/327/289 598/329/291
f 598/329/291 595/330/291 594/328/290
f 593/277/286 592/276/286 597/281/286
f 93/158/292 528/43/292 507/52/292
f 530/24/10 532/27/10 533/26/10
f 530/24/10 533/26/10 539/25/10
f 533/26/10 535/29/10 539/25/10
f 535/29/10 537/28/10 539/25/10
f 533/26/10 534/30/10 535/29/10
f 531/22/10 530/24/10 541/23/10
f 530/24/10 539/25/10 541/23/10
f 490/331/293 555/66/293 558/70/293
f 635/328/294 634/330/294 639/329/294
f 639/329/294 638/327/295 635/328/296
f 636/277/297 635/328/296 638/327/295
f 638/327/295 637/280/297 636/277/297
f 636/277/297 637/280/297 640/281/298
f 640/281/298 633/276/298 636/277/297
f 507/52/299 506/66/299 88/331/299
f 632/114/206 471/118/206 470/115/206
f 624/117/300 653/116/301 625/113/302
f 628/112/303 625/113/302 653/116/301
f 653/116/301 632/114/304 628/112/303
f 470/115/206 628/112/303 632/114/304
f 490/331/305 560/158/305 556/52/305
f 653/116/306 624/117/306 654/240/306
f 632/114/190 653/116/307 655/239/308
f 654/240/306 655/239/308 653/116/307
f 655/239/190 631/221/190 632/114/190
f 656/241/309 654/240/309 657/242/309
f 88/331/305 93/158/305 507/52/305
f 657/242/310 608/199/310 607/198/310
f 556/52/311 555/66/311 490/331/311
f 657/332/312 615/243/312 608/244/312
f 88/331/293 506/66/293 512/70/293
f 615/243/313 657/332/313 627/107/313
f 560/158/292 561/43/292 556/52/292
f 457/33/12 458/36/12 459/35/12
f 457/33/12 459/35/12 463/34/12
f 459/35/12 461/38/12 463/34/12
f 461/38/12 462/37/12 463/34/12
f 459/35/12 460/39/12 461/38/12
f 443/31/12 457/33/12 444/32/12
f 457/33/12 463/34/12 444/32/12
f 658/152/75 110/102/75 109/41/75
f 109/41/75 421/42/314 658/152/315
f 261/153/132 658/152/315 421/42/314
f 421/42/133 258/144/133 261/153/133
f 88/275/285 512/222/285 519/223/285
f 448/24/10 449/27/10 450/26/10
f 448/24/10 450/26/10 456/25/10
f 450/26/10 452/29/10 456/25/10
f 452/29/10 454/28/10 456/25/10
f 450/26/10 451/30/10 452/29/10
f 437/22/10 448/24/10 438/23/10
f 448/24/10 456/25/10 438/23/10
f 659/54/26 660/55/26 571/56/316
f 571/56/316 567/57/28 659/54/26
f 567/57/28 571/56/316 569/58/317
f 569/58/317 566/59/318 567/57/28
f 566/59/318 569/58/317 570/60/319
f 570/60/319 568/61/32 566/59/318
f 568/61/32 570/60/319 660/62/33
f 660/62/33 659/63/33 568/61/32
f 627/107/320 617/105/320 615/243/320
f 519/223/282 521/148/282 89/157/282
f 368/33/12 369/36/12 370/35/12
f 368/33/12 370/35/12 374/34/12
f 370/35/12 372/38/12 374/34/12
f 372/38/12 373/37/12 374/34/12
f 370/35/12 371/39/12 372/38/12
f 144/31/12 368/33/12 147/32/12
f 368/33/12 374/34/12 147/32/12
f 567/155/191 274/48/191 285/65/191
f 359/24/10 360/27/321 361/26/10
f 359/24/10 361/26/10 367/25/10
f 361/26/10 363/29/10 367/25/10
f 363/29/10 365/28/10 367/25/10
f 361/26/10 362/30/10 363/29/10
f 139/22/10 359/24/10 140/23/10
f 359/24/10 367/25/10 140/23/10
f 89/157/322 88/275/322 519/223/322
f 621/119/323 5/5/323 3/3/323
f 567/155/256 285/65/256 288/69/256
f 623/245/324 612/274/324 619/246/324
f 89/157/325 521/148/325 525/145/325
f 612/274/326 623/245/326 661/333/326
f 288/69/327 659/149/327 567/155/327
f 661/333/328 611/202/328 612/274/328
f 91/156/169 526/146/169 527/40/169
f 661/333/329 605/203/329 611/202/329
f 659/149/330 288/69/330 291/98/330
f 661/334/331 603/194/331 605/196/331
f 90/154/332 522/45/332 523/46/332
f 603/194/333 661/334/333 622/120/333
f 659/79/334 291/77/334 295/75/334
f 622/120/93 601/192/93 603/194/93
f 86/80/335 524/151/335 662/72/335
f 622/120/336 2/2/336 601/192/336
f 659/79/337 295/75/337 292/72/337
f 626/104/195 629/108/195 618/106/195
f 618/106/195 617/105/338 626/104/339
f 627/107/340 626/104/339 617/105/338
f 662/72/341 517/75/341 87/79/341
f 607/198/186 606/197/186 630/219/186
f 630/219/186 656/241/342 607/198/343
f 657/242/344 607/198/343 656/241/342
f 292/72/345 568/80/345 659/79/345
f 656/241/346 630/219/346 631/221/346
f 631/221/346 655/239/347 656/241/348
f 654/240/349 656/241/348 655/239/347
f 87/79/44 86/80/44 662/72/44
f 577/281/286 576/280/350 573/277/288
f 573/277/288 576/280/350 579/327/351
f 579/327/351 574/328/352 573/277/288
f 574/328/352 579/327/351 578/329/291
f 578/329/291 575/330/291 574/328/352
f 573/277/286 572/276/286 577/281/286
f 568/80/353 292/72/353 301/151/353
f 661/237/26 657/238/26 654/236/27
f 654/236/27 622/235/28 661/237/26
f 622/235/28 654/236/27 624/234/354
f 624/234/354 621/233/355 622/235/28
f 621/233/355 624/234/354 627/232/356
f 627/232/356 623/229/357 621/233/355
f 623/229/357 627/232/356 657/231/33
f 657/231/33 661/230/33 623/229/357
f 87/79/358 517/75/358 515/77/358
f 157/126/210 469/335/210 467/272/210
f 467/272/210 153/127/211 157/126/210
f 153/127/211 467/272/210 466/271/211
f 466/271/211 154/336/211 153/127/211
f 566/154/359 272/46/359 271/45/359
f 261/33/12 260/36/12 263/35/12
f 261/33/12 263/35/12 108/34/12
f 263/35/12 106/38/12 108/34/12
f 106/38/12 105/37/12 108/34/12
f 263/35/12 265/39/12 106/38/12
f 658/31/12 261/33/12 110/32/12
f 261/33/12 108/34/12 110/32/12
f 87/149/360 515/98/360 511/69/360
f 544/33/12 543/36/12 545/35/12
f 544/33/12 545/35/12 550/34/12
f 545/35/12 547/38/12 550/34/12
f 547/38/12 548/37/12 550/34/12
f 545/35/12 546/39/12 547/38/12
f 663/31/12 544/33/12 552/32/12
f 544/33/12 550/34/12 552/32/12
f 569/156/361 277/40/361 305/146/361
f 401/242/362 406/240/362 417/241/362
f 511/69/114 505/65/114 92/155/114
f 664/231/33 665/230/33 499/229/32
f 499/229/32 501/232/363 664/231/33
f 501/232/363 499/229/32 497/233/364
f 497/233/364 500/234/365 501/232/363
f 500/234/365 497/233/364 498/235/366
f 498/235/366 666/236/367 500/234/365
f 666/236/367 498/235/366 665/237/26
f 665/237/26 664/238/26 666/236/367
f 570/157/368 304/145/368 299/148/368
f 503/47/36 529/44/369 522/45/370
f 523/46/69 522/45/370 529/44/369
f 522/45/36 504/48/36 503/47/36
f 92/155/163 87/149/163 511/69/163
f 401/242/371 418/198/371 428/199/371
f 570/157/372 299/148/372 297/223/372
f 554/47/36 256/44/369 282/45/370
f 283/46/69 282/45/370 256/44/369
f 282/45/36 348/48/36 554/47/36
f 92/155/191 505/65/191 504/48/191
f 401/332/373 428/244/373 432/243/373
f 667/42/133 542/144/133 544/153/133
f 551/41/75 667/42/374 663/152/315
f 544/153/132 663/152/315 667/42/374
f 663/152/134 552/102/134 551/41/134
f 542/144/164 667/42/220 526/146/221
f 527/40/375 526/146/221 667/42/220
f 524/151/43 523/46/222 540/150/223
f 529/44/69 540/150/223 523/46/222
f 297/223/376 660/275/376 570/157/376
f 358/246/141 357/5/377 137/109/378
f 138/4/139 137/109/378 357/5/377
f 181/141/279 178/337/279 177/135/279
f 177/135/279 179/142/7 181/141/279
f 179/142/7 177/135/279 176/134/7
f 176/134/7 180/338/7 179/142/7
f 525/145/165 521/148/165 520/147/165
f 520/147/165 542/144/227 525/145/228
f 526/146/164 525/145/228 542/144/227
f 432/243/379 434/105/379 402/107/379
f 662/72/243 524/151/244 538/74/245
f 540/150/43 538/74/245 524/151/244
f 660/275/380 297/223/380 289/222/380
f 51/155/191 44/48/191 57/65/191
f 538/74/243 536/73/274 662/72/275
f 517/75/40 662/72/275 536/73/274
f 536/73/274 516/76/40 517/75/40
f 402/107/381 401/332/381 432/243/381
f 528/43/35 527/40/280 551/41/281
f 667/42/37 551/41/281 527/40/280
f 660/331/382 289/70/382 286/66/382
f 51/155/256 57/65/256 61/69/256
f 549/51/25 508/53/25 507/52/25
f 551/41/35 549/51/283 528/43/284
f 507/52/25 528/43/284 549/51/283
f 403/119/383 445/3/383 446/5/383
f 660/331/384 286/66/384 280/52/384
f 61/69/327 48/149/327 51/155/327
f 668/241/309 666/240/309 664/242/309
f 399/245/385 447/246/385 669/274/385
f 280/52/386 571/158/386 660/331/386
f 48/149/330 61/69/330 69/98/330
f 664/242/310 234/199/310 233/198/310
f 669/274/387 430/202/387 400/333/387
f 571/158/292 280/52/292 279/43/292
f 48/79/388 69/77/388 67/75/388
f 664/332/312 492/243/312 234/244/312
f 400/333/389 399/245/389 669/274/389
f 591/339/177 584/50/177 585/291/177
f 585/291/177 586/292/177 591/339/177
f 586/292/177 585/291/177 590/298/178
f 590/298/178 587/293/178 586/292/177
f 48/79/337 67/75/337 64/72/337
f 492/243/313 664/332/313 501/107/313
f 400/333/390 430/202/390 426/203/390
f 332/181/210 329/340/210 328/135/210
f 328/135/210 330/227/211 332/181/210
f 330/227/211 328/135/210 327/174/211
f 327/174/211 331/341/211 330/227/211
f 64/72/345 55/80/345 48/79/345
f 501/107/320 493/105/320 492/243/320
f 400/334/391 426/196/391 416/194/391
f 340/1/138 138/4/392 151/3/393
f 357/5/139 151/3/393 138/4/392
f 151/3/138 150/2/138 340/1/138
f 55/80/394 64/72/394 189/151/394
f 497/119/323 222/5/323 221/3/323
f 416/194/251 414/192/251 405/120/251
f 338/221/346 346/219/346 344/241/346
f 336/240/349 337/239/395 344/241/396
f 344/241/396 337/239/395 338/221/346
f 53/154/397 42/46/397 41/45/397
f 499/245/324 489/274/324 494/246/324
f 405/120/398 400/334/398 416/194/398
f 366/209/242 364/207/399 670/274/400
f 354/202/241 670/274/400 364/207/399
f 364/207/399 353/201/241 354/202/241
f 52/156/361 36/40/361 184/146/361
f 670/274/242 358/246/401 366/209/402
f 137/109/141 366/209/402 358/246/401
f 489/274/326 499/245/326 665/333/326
f 405/120/336 414/192/336 413/2/336
f 149/120/336 341/192/336 150/2/336
f 54/157/368 183/145/368 186/148/368
f 665/333/328 237/202/328 489/274/328
f 447/246/141 446/5/377 435/109/378
f 436/4/139 435/109/378 446/5/377
f 402/107/81 434/105/79 442/104/78
f 442/104/78 434/105/79 433/106/80
f 433/106/80 439/108/80 442/104/80
f 149/120/398 334/334/398 343/194/398
f 54/157/372 186/148/372 488/223/372
f 665/333/329 231/203/329 237/202/329
f 669/274/242 447/246/401 455/209/402
f 435/109/141 455/209/402 447/246/401
f 455/209/242 453/207/399 669/274/400
f 430/202/241 669/274/400 453/207/399
f 453/207/399 429/201/241 430/202/241
f 343/194/251 341/192/251 149/120/251
f 488/223/403 49/275/403 54/157/403
f 665/334/331 229/194/331 231/196/331
f 406/240/349 408/239/395 417/241/396
f 417/241/396 408/239/395 410/221/346
f 410/221/346 419/219/346 417/241/346
f 334/334/391 350/196/391 343/194/391
f 49/275/380 488/223/380 62/222/380
f 229/194/333 665/334/333 498/120/333
f 445/3/138 413/2/138 412/1/138
f 412/1/138 436/4/392 445/3/393
f 446/5/139 445/3/393 436/4/392
f 334/333/390 354/202/390 350/203/390
f 49/331/404 62/70/404 58/66/404
f 498/120/405 227/192/405 229/194/405
f 386/342/177 379/343/177 380/259/177
f 380/259/177 381/260/177 386/342/177
f 381/260/177 380/259/177 385/267/178
f 385/267/178 382/261/178 381/260/177
f 334/333/389 333/245/389 670/274/389
f 49/331/384 58/66/384 46/52/384
f 498/120/336 224/2/336 227/192/336
f 335/242/362 336/240/362 344/241/362
f 670/274/387 354/202/387 334/333/387
f 46/52/386 50/158/386 49/331/386
f 247/114/206 95/118/206 94/115/206
f 500/117/300 671/116/301 496/113/302
f 241/112/303 496/113/302 671/116/301
f 671/116/301 247/114/304 241/112/303
f 94/115/207 241/112/303 247/114/304
f 335/242/371 345/198/371 352/199/371
f 333/245/385 358/246/385 670/274/385
f 50/158/292 46/52/292 39/43/292
f 495/104/195 242/108/195 243/106/195
f 243/106/195 493/105/338 495/104/339
f 501/107/340 495/104/339 493/105/338
f 335/332/373 352/244/373 356/243/373
f 148/119/383 151/3/383 357/5/383
f 202/181/279 196/340/279 194/135/279
f 194/135/279 198/142/7 202/181/279
f 198/142/7 194/135/279 193/174/7
f 193/174/7 199/341/7 198/142/7
f 233/198/186 232/197/186 245/219/186
f 245/219/186 668/241/342 233/198/406
f 664/242/344 233/198/406 668/241/342
f 356/243/379 131/105/379 133/107/379
f 133/107/381 335/332/381 356/243/381
f 209/344/294 208/345/295 205/346/296
f 206/186/297 205/346/296 208/345/295
f 208/345/295 207/187/407 206/186/297
f 206/186/297 207/187/407 210/190/298
f 210/190/298 203/183/298 206/186/297
f 205/346/294 204/347/294 209/344/294
f 668/241/346 245/219/346 246/221/346
f 246/221/346 672/239/347 668/241/348
f 666/240/349 668/241/348 672/239/347
f 247/114/190 671/116/408 672/239/308
f 666/240/306 672/239/308 671/116/408
f 672/239/190 246/221/190 247/114/190
f 671/116/306 500/117/306 666/240/306
