# Blender 4.3.2
# www.blender.org
mtllib wheel2.mtl
o gaz2975_wheel.001
v 2.358901 -6.996897 4.328655
v 4.108049 -7.065486 6.073140
v 3.893330 -5.931591 6.628366
v 5.557262 -7.042918 4.744307
v 3.866742 -6.994370 3.063421
v 5.131885 -5.811667 3.950680
v 5.932060 -5.899838 4.758974
v -5.169024 -3.289303 -5.984889
v -2.809202 -3.285351 -7.394224
v -2.672680 -5.167934 -7.044024
v -5.696984 -5.245810 -6.599360
v -3.094975 -5.241457 -8.153337
v -4.920762 -5.171696 -5.701427
v -1.640878 -7.316265 -4.343793
v 1.539698 -7.310966 -4.390785
v -4.047132 -7.320309 -2.263366
v -6.574073 -5.174483 -3.670907
v -6.904510 -3.292217 -3.853446
v -7.610585 -5.249031 -4.249167
v 5.004378 -3.272336 -6.135196
v 6.802067 -3.269367 -4.055953
v 6.483465 -5.152707 -3.863801
v 4.770898 -5.155539 -5.844597
v 2.484135 -5.159332 -7.120195
v 4.006378 -7.306868 -2.382344
v -0.100990 -5.163633 -7.536754
v -0.109674 -3.280838 -7.911458
v -0.118409 -5.236482 -8.723639
v -3.892957 -5.401821 -10.249587
v -9.569264 -5.411350 -5.341901
v -8.604970 -5.250721 -1.386225
v -7.806342 -3.293756 -1.256968
v -10.762974 -5.413437 2.066267
v 2.603952 -3.276324 -7.474195
v 2.873714 -5.231498 -8.241504
v 3.609940 -5.389315 -10.360440
v 5.520492 -5.227106 -6.765090
v 9.428756 -5.379675 -5.622582
v 7.502683 -5.223829 -4.472445
v 8.581218 -5.222060 -1.640131
v 10.840787 -5.377418 1.747095
v 7.185328 -5.383593 8.300241
v 13.801718 -6.794574 2.223799
v 12.003948 -6.797460 -7.159142
v 4.595538 -6.809727 -13.191304
v -4.957015 -6.825654 -13.050173
v 12.133485 -7.397361 14.019435
v 0.287867 -7.417156 18.530148
v 0.219454 -6.817357 13.966933
v -8.805283 -6.832371 10.832370
v -11.685841 -7.437069 14.371352
v -13.703791 -6.840429 2.630163
v -18.184986 -7.447770 3.488939
v -12.183987 -6.837779 -6.801773
v -16.168570 -7.444249 -9.025024
v -6.580090 -7.428154 -17.315161
v 6.093912 -7.407017 -17.502403
v 15.923118 -7.390749 -9.499141
v 18.308334 -7.386935 2.949787
v 9.147665 -6.802440 10.567142
v 0.172811 -5.395317 10.970545
v -6.915512 -5.407104 8.508562
v -2.852711 -5.241258 8.245541
v 0.139419 -5.236271 8.727671
v 3.115993 -5.231299 8.157360
v 0.124151 -3.280650 7.915568
v -2.589483 -3.285166 7.478314
v -4.989901 -3.289153 6.139316
v -4.750137 -5.171556 5.848670
v -6.787597 -3.292130 4.060063
v -6.462706 -5.174390 3.867876
v -7.394528 -5.175909 1.420807
v -4.553167 -7.321190 0.877049
v -2.922179 -7.318500 3.608026
v 3.055352 -7.308527 3.519732
v 4.604956 -7.305913 0.741749
v 7.415288 -5.151187 -1.416744
v 7.453969 -5.151155 1.201452
v 6.594833 -5.152607 3.674984
v 6.918988 -3.269270 3.857562
v 4.941529 -5.155396 5.705497
v 5.183501 -3.272186 5.988997
v 2.823671 -3.276141 7.398343
v 0.121750 -5.163458 7.540823
v -2.463383 -5.167759 7.124260
v 2.693455 -5.159163 7.048080
v 0.082654 -7.313517 4.651711
v 7.780208 -3.267771 -1.487250
v 7.820812 -3.267740 1.261085
v 7.631596 -5.223729 4.253211
v 5.717994 -5.226947 6.603402
v 8.625973 -5.222032 1.390257
v -0.858614 -7.420231 -3.209124
v -3.065673 -7.424001 -1.356176
v -5.542906 -7.229142 -4.277122
v -3.030434 -5.865968 -1.311059
v -5.507676 -5.671108 -4.232000
v -3.200856 -5.667243 -6.167655
v -3.236093 -7.225274 -6.212772
v -0.823376 -5.862206 -3.164006
v 6.584709 6.778132 17.319344
v 16.173212 6.794223 9.029189
v 18.189627 6.797750 -3.484779
v 11.690468 6.787047 -14.367168
v -15.918488 6.740721 9.503303
v -6.089277 6.757004 17.506569
v -0.283248 6.767150 -18.525982
v -12.128866 6.747343 -14.015262
v -18.303694 6.736910 -2.945631
v 16.014675 -6.089054 13.031927
v 10.593091 -6.098140 17.719395
v 3.895274 -6.109344 20.269852
v -3.270915 -6.121293 20.375732
v -10.041148 -6.132544 18.024220
v -15.598841 -6.141757 13.498981
v -19.273617 -6.147807 7.345806
v -20.622278 -6.149957 0.306849
v -19.482143 -6.147976 -6.768869
v 4.106553 -4.355277 21.387878
v -3.454921 -4.367877 21.499599
v -10.598611 -4.379751 19.018391
v -16.462860 -4.389460 14.243529
v -20.340349 -4.395844 7.750937
v -21.763405 -4.398116 0.323713
v -20.560373 -4.396013 -7.142313
v 16.894470 -4.333859 13.750728
v 20.578478 -4.327641 7.146391
v 20.563211 4.833088 7.146502
v 16.879204 4.826857 13.750822
v 11.173832 -4.343454 18.696732
v 11.158570 4.817270 18.696831
v 4.091288 4.805452 21.387997
v -3.470194 4.792850 21.499710
v -10.613884 4.780976 19.018509
v -16.478134 4.771263 14.243632
v -20.355616 4.764873 7.751050
v -21.778679 4.762596 0.323799
v -20.575647 4.764702 -7.142207
v 21.766235 4.835189 -0.319526
v 21.781502 -4.325535 -0.319628
v 20.646219 -6.081164 -0.302849
v 20.358446 -4.327804 -7.746862
v 19.506084 -6.083149 6.772881
v -16.876381 -4.389805 -13.746619
v -16.891663 4.770927 -13.746523
v -11.155755 -4.380200 -18.692636
v -11.171036 4.780529 -18.692530
v -4.088481 -4.368395 -21.383787
v -4.103747 4.792338 -21.383692
v 3.473016 -4.355784 -21.495527
v 3.457743 4.804945 -21.495407
v 10.616699 -4.343913 -19.014313
v 10.601438 4.816823 -19.014194
v 16.480949 -4.334194 -14.239448
v 16.465687 4.826536 -14.239355
v 20.343180 4.832911 -7.746736
v 19.297558 -6.083321 -7.341816
v 15.622766 -6.089378 -13.494987
v 10.065087 -6.098577 -18.020222
v 3.294840 -6.109830 -20.371714
v -3.871349 -6.121777 -20.265854
v -10.569170 -6.132971 -17.715376
v -15.990741 -6.142066 -13.027911
v 3.010665 -5.815228 5.730587
v -7.433203 -5.175946 -1.197384
v -7.765738 -3.293725 1.491364
v -8.560200 -5.250693 1.644161
v -7.481671 -5.248928 4.476499
v -5.499481 -5.245656 6.769125
vn -0.6456 -0.4310 0.6304
vn 0.6843 -0.2131 -0.6974
vn 0.6860 -0.2117 -0.6961
vn 0.6846 -0.2128 -0.6971
vn 0.6823 -0.2147 -0.6988
vn -0.0057 -0.9997 -0.0232
vn -0.0170 -0.9996 -0.0223
vn 0.6603 -0.2257 0.7163
vn -0.5230 -0.5994 -0.6060
vn 0.2397 -0.7419 0.6262
vn -0.2785 -0.4980 -0.8213
vn 0.4284 -0.7566 0.4940
vn 0.2081 -0.8136 0.5430
vn -0.5414 -0.5541 -0.6323
vn -0.2366 -0.8822 -0.4072
vn 0.0516 -0.9544 -0.2942
vn -0.3198 -0.9405 -0.1148
vn -0.7410 -0.4988 -0.4495
vn 0.5864 -0.7413 0.3265
vn 0.5088 -0.8130 0.2830
vn 0.5068 -0.5976 -0.6213
vn -0.5740 -0.7433 0.3436
vn 0.7611 -0.4963 -0.4177
vn 0.5294 -0.5524 -0.6439
vn 0.3148 -0.4970 -0.8087
vn 0.3042 -0.9173 -0.2571
vn -0.0082 -0.5532 -0.8330
vn -0.0108 -0.5985 -0.8011
vn 0.0109 -0.7573 0.6529
vn 0.1057 -0.9719 0.2102
vn 0.2165 -0.9717 0.0941
vn 0.6460 -0.7563 0.1039
vn -0.7899 -0.5998 -0.1275
vn 0.2267 -0.9717 -0.0660
vn -0.2186 -0.7426 0.6330
vn -0.1893 -0.8142 0.5488
vn -0.0537 -0.9722 0.2279
vn -0.4111 -0.7580 0.5064
vn -0.1873 -0.9724 0.1390
vn -0.4975 -0.8147 0.2979
vn -0.6401 -0.7584 0.1229
vn -0.2326 -0.9725 -0.0150
vn -0.1681 -0.9724 -0.1619
vn -0.2740 -0.9597 -0.0628
vn -0.2499 -0.9596 0.1291
vn -0.1081 -0.9594 0.2605
vn 0.0851 -0.9591 0.2701
vn 0.1236 -0.9790 0.1622
vn -0.0092 -0.9792 0.2027
vn 0.0156 -0.9592 -0.2823
vn 0.1938 -0.9589 -0.2073
vn -0.1370 -0.9794 0.1483
vn 0.2821 -0.9587 -0.0353
vn -0.1999 -0.9795 0.0245
vn 0.2391 -0.9588 0.1532
vn -0.1685 -0.9795 -0.1107
vn -0.0575 -0.9793 -0.1942
vn 0.0812 -0.9790 -0.1868
vn 0.1826 -0.9789 -0.0920
vn 0.1994 -0.9788 0.0459
vn -0.1692 -0.9595 -0.2253
vn -0.0243 -0.9721 -0.2332
vn 0.1316 -0.9719 -0.1953
vn 0.2155 -0.7570 -0.6169
vn -0.0072 -0.8139 -0.5810
vn -0.2311 -0.7577 -0.6103
vn -0.0083 -0.7423 -0.6700
vn -0.2617 -0.5989 0.7568
vn 0.4239 -0.7416 -0.5200
vn -0.5707 -0.4985 0.6525
vn -0.6869 -0.5996 0.4107
vn -0.7159 -0.5544 0.4243
vn -0.8564 -0.4990 0.1325
vn -0.4408 -0.8825 0.1638
vn -0.1461 -0.9547 0.2593
vn 0.2313 -0.9541 0.1904
vn 0.4731 -0.8810 -0.0026
vn 0.8197 -0.5519 -0.1536
vn 0.8517 -0.4961 0.1687
vn 0.7269 -0.5520 0.4086
vn 0.7006 -0.5973 0.3903
vn 0.5442 -0.4966 0.6762
vn -0.4371 -0.7430 -0.5069
vn 0.2860 -0.5980 0.7487
vn -0.0176 -0.4976 0.8672
vn -0.2755 -0.5537 0.7858
vn 0.2943 -0.5528 0.7796
vn 0.0860 -0.8817 0.4640
vn 0.7878 -0.5972 -0.1507
vn -0.6603 -0.7434 -0.1066
vn -0.5691 -0.7582 -0.3182
vn -0.3787 -0.8145 -0.4395
vn -0.5723 -0.8148 -0.0924
vn 0.5322 -0.7062 -0.4670
vn -0.5617 -0.7073 0.4292
vn -0.7425 -0.6531 0.1486
vn -0.7627 -0.0015 0.6467
vn -0.9177 0.0322 -0.3959
vn 0.4184 0.0168 -0.9081
vn -0.2179 -0.3798 -0.8990
vn 0.7841 0.0002 -0.6206
vn 0.0991 0.9726 0.2101
vn 0.3356 0.9295 0.1528
vn 0.2972 0.9512 -0.0835
vn 0.1300 0.9727 -0.1923
vn -0.1910 0.9722 0.1357
vn -0.0935 0.9288 0.3586
vn -0.0378 0.9289 -0.3684
vn -0.1920 0.9635 -0.1863
vn -0.3707 0.9283 -0.0282
vn 0.5436 -0.7380 0.3999
vn 0.4021 -0.6921 0.5994
vn 0.1596 -0.7386 0.6550
vn -0.0771 -0.6929 0.7169
vn -0.2985 -0.7394 0.6035
vn -0.5196 -0.6936 0.4989
vn -0.6163 -0.7399 0.2698
vn -0.7184 -0.6940 0.0474
vn -0.6452 -0.7399 -0.1903
vn 0.1856 -0.2842 0.9406
vn -0.1474 -0.2846 0.9472
vn -0.4623 -0.2853 0.8396
vn -0.7216 -0.2858 0.6306
vn -0.8937 -0.2860 0.3456
vn -0.9580 -0.2861 0.0189
vn -0.9067 -0.2861 -0.3099
vn 0.7469 -0.2833 0.6016
vn 0.9023 -0.3232 0.2855
vn 0.8486 0.4031 0.3426
vn 0.6349 0.5156 0.5754
vn 0.4961 -0.2837 0.8206
vn 0.4297 0.4023 0.8084
vn 0.1162 0.5147 0.8494
vn -0.1906 0.4013 0.8959
vn -0.4572 0.5138 0.7260
vn -0.7221 0.4004 0.5642
vn -0.8170 0.5132 0.2629
vn -0.9159 0.4001 -0.0315
vn -0.7950 0.5132 -0.3233
vn 0.8560 0.5159 0.0322
vn 0.9729 -0.2256 -0.0510
vn 0.7016 -0.7124 -0.0163
vn 0.8947 -0.2830 -0.3456
vn 0.6520 -0.7264 0.2175
vn -0.7460 -0.2857 -0.6016
vn -0.6816 0.4005 -0.6124
vn -0.4952 -0.2854 -0.8206
vn -0.4014 0.5139 -0.7582
vn -0.1846 -0.2848 -0.9406
vn -0.1285 0.4013 -0.9069
vn 0.1482 -0.2843 -0.9472
vn 0.1796 0.5149 -0.8382
vn 0.4632 -0.2838 -0.8396
vn 0.4843 0.4023 -0.7769
vn 0.7225 -0.2834 -0.6306
vn 0.6762 0.5156 -0.5261
vn 0.8701 0.4031 -0.2834
vn 0.6611 -0.6917 -0.2907
vn 0.4892 -0.7381 -0.4647
vn 0.3198 -0.6922 -0.6469
vn 0.0764 -0.7387 -0.6697
vn -0.1705 -0.6931 -0.7004
vn -0.3716 -0.7395 -0.5613
vn -0.5806 -0.6937 -0.4262
vn -0.6869 -0.3660 0.6279
vn -0.8210 -0.5546 -0.1357
vn 0.6594 -0.7412 -0.1261
vn 0.5720 -0.8129 -0.1093
vn 0.5620 -0.7564 -0.3349
vn 0.3682 -0.8133 -0.4506
vt 0.378264 0.279235
vt 0.377865 0.274764
vt 0.380117 0.274182
vt 0.374298 0.274923
vt 0.374689 0.279236
vt 0.372197 0.276730
vt 0.372129 0.274659
vt 0.378715 0.272599
vt 0.373696 0.272822
vt 0.449221 0.415912
vt 0.456552 0.411191
vt 0.457731 0.414971
vt 0.446210 0.411634
vt 0.455645 0.406526
vt 0.452014 0.419455
vt 0.461095 0.423365
vt 0.469406 0.422859
vt 0.455056 0.429096
vt 0.447081 0.424829
vt 0.443747 0.422692
vt 0.440053 0.419700
vt 0.481381 0.414824
vt 0.487299 0.421222
vt 0.483782 0.423040
vt 0.478375 0.418190
vt 0.472218 0.414273
vt 0.476100 0.427813
vt 0.464959 0.414011
vt 0.465110 0.409503
vt 0.465548 0.404299
vt 0.455255 0.401123
vt 0.436282 0.415812
vt 0.436108 0.429677
vt 0.441165 0.431018
vt 0.431189 0.439259
vt 0.473756 0.410621
vt 0.476058 0.406454
vt 0.479231 0.402062
vt 0.485071 0.411114
vt 0.496988 0.418196
vt 0.491736 0.419519
vt 0.495644 0.428883
vt 0.500229 0.441970
vt 0.487423 0.462263
vt 0.509505 0.442617
vt 0.504512 0.412728
vt 0.481477 0.393037
vt 0.451175 0.392766
vt 0.503306 0.479062
vt 0.465941 0.492663
vt 0.465545 0.478833
vt 0.437167 0.468203
vt 0.428580 0.479052
vt 0.422251 0.441825
vt 0.408700 0.444616
vt 0.427784 0.412031
vt 0.415608 0.405458
vt 0.446073 0.379905
vt 0.485835 0.379905
vt 0.516291 0.405470
vt 0.523193 0.444630
vt 0.494113 0.468722
vt 0.464571 0.469584
vt 0.442367 0.460493
vt 0.455988 0.463072
vt 0.466051 0.464373
vt 0.476664 0.462797
vt 0.466794 0.459680
vt 0.458188 0.458322
vt 0.450438 0.454335
vt 0.453122 0.451424
vt 0.444711 0.447767
vt 0.448685 0.445632
vt 0.445262 0.439224
vt 0.454113 0.437368
vt 0.458708 0.444312
vt 0.474326 0.443359
vt 0.478043 0.435908
vt 0.485968 0.430002
vt 0.486999 0.437193
vt 0.484197 0.443927
vt 0.488032 0.446302
vt 0.480358 0.450096
vt 0.482759 0.453245
vt 0.475296 0.457746
vt 0.466982 0.455722
vt 0.459864 0.454131
vt 0.473884 0.453461
vt 0.466691 0.446679
vt 0.490431 0.429353
vt 0.490864 0.438061
vt 0.492326 0.449294
vt 0.485207 0.457320
vt 0.495356 0.439608
vt 0.409736 0.378278
vt 0.409735 0.373044
vt 0.416701 0.373009
vt 0.409744 0.370581
vt 0.416710 0.370546
vt 0.419164 0.373009
vt 0.419164 0.378479
vt 0.416700 0.378479
vt 0.416650 0.380941
vt 0.409686 0.380741
vt 0.461859 0.495372
vt 0.473681 0.515881
vt 0.469554 0.539192
vt 0.451409 0.554396
vt 0.417368 0.495341
vt 0.439619 0.487260
vt 0.427736 0.554380
vt 0.409612 0.539150
vt 0.405517 0.515834
vt 0.735247 0.408515
vt 0.745999 0.416959
vt 0.703018 0.416959
vt 0.756743 0.408540
vt 0.778245 0.408639
vt 0.789068 0.416959
vt 0.799770 0.408525
vt 0.821329 0.408431
vt 0.832189 0.416959
vt 0.842872 0.408085
vt 0.864485 0.407228
vt 0.874833 0.416959
vt 0.886141 0.407183
vt 0.907913 0.407731
vt 0.915076 0.416959
vt 0.778195 0.402206
vt 0.799705 0.402200
vt 0.821260 0.402108
vt 0.842872 0.401815
vt 0.864598 0.401153
vt 0.886709 0.400759
vt 0.909518 0.400347
vt 0.735236 0.402117
vt 0.713756 0.402093
vt 0.713743 0.373957
vt 0.735212 0.373970
vt 0.756716 0.402140
vt 0.756661 0.373969
vt 0.778065 0.373998
vt 0.799479 0.374154
vt 0.820908 0.374055
vt 0.842311 0.373820
vt 0.863804 0.373335
vt 0.885722 0.373001
vt 0.908296 0.372951
vt 0.894044 0.361214
vt 0.852655 0.361214
vt 0.810143 0.361214
vt 0.767393 0.361214
vt 0.724472 0.361214
vt 0.692269 0.373936
vt 0.692278 0.402072
vt 0.692281 0.408466
vt 0.670801 0.402051
vt 0.713762 0.408486
vt 0.541036 0.401720
vt 0.518314 0.402212
vt 0.518714 0.373884
vt 0.541297 0.373894
vt 0.563133 0.401952
vt 0.563179 0.374103
vt 0.584825 0.401924
vt 0.584807 0.373888
vt 0.606360 0.402005
vt 0.606320 0.373953
vt 0.627852 0.402018
vt 0.627826 0.373900
vt 0.649327 0.402032
vt 0.649312 0.373900
vt 0.670793 0.373918
vt 0.681533 0.361214
vt 0.512531 0.361214
vt 0.552858 0.361214
vt 0.595604 0.361214
vt 0.638563 0.361214
vt 0.670804 0.408441
vt 0.649332 0.408420
vt 0.627862 0.408392
vt 0.606404 0.408350
vt 0.584926 0.408170
vt 0.563464 0.408169
vt 0.541772 0.407623
vt 0.518699 0.407762
vt 0.533196 0.416959
vt 0.574407 0.416959
vt 0.617137 0.416959
vt 0.660064 0.416959
vt 0.380446 0.276454
vt 0.445583 0.431936
vt 0.441334 0.439730
vt 0.436579 0.439813
vt 0.439974 0.449990
vt 0.446850 0.457453
s 1
usemtl body.001
f 1/1/1 2/2/1 3/3/1
f 4/4/2 5/5/3 6/6/4
f 6/6/4 7/7/5 4/4/2
f 2/2/6 1/1/7 5/5/6
f 5/5/6 4/4/6 2/2/6
f 3/8/8 2/2/8 4/4/8
f 4/4/8 7/9/8 3/8/8
f 8/10/9 9/11/10 10/12/11
f 9/11/10 8/10/9 11/13/12
f 11/13/12 12/14/13 9/11/10
f 10/12/11 13/15/14 8/10/9
f 13/15/14 10/12/11 14/16/15
f 10/12/11 15/17/16 14/16/15
f 16/18/17 14/16/15 15/17/16
f 17/19/18 14/16/15 16/18/17
f 17/19/18 13/15/14 14/16/15
f 8/10/9 13/15/14 17/19/18
f 17/19/18 18/20/19 8/10/9
f 11/13/12 8/10/9 18/20/19
f 18/20/19 19/21/20 11/13/12
f 20/22/21 21/23/22 22/24/23
f 22/24/23 23/25/24 20/22/21
f 20/22/21 23/25/24 24/26/25
f 24/26/25 23/25/24 25/27/26
f 24/26/25 25/27/26 15/17/16
f 26/28/27 24/26/25 15/17/16
f 10/12/11 26/28/27 15/17/16
f 27/29/28 26/28/27 10/12/11
f 10/12/11 9/11/10 27/29/28
f 28/30/29 27/29/28 9/11/10
f 9/11/10 12/14/13 28/30/29
f 28/30/29 12/14/13 29/31/30
f 29/31/30 12/14/13 11/13/12
f 29/31/30 11/13/12 30/32/31
f 11/13/12 19/21/20 30/32/31
f 30/32/31 19/21/20 31/33/32
f 31/33/32 19/21/20 18/20/19
f 18/20/19 32/34/33 31/33/32
f 23/25/24 22/24/23 25/27/26
f 30/32/31 31/33/32 33/35/34
f 24/26/25 26/28/27 27/29/28
f 27/29/28 34/36/35 24/26/25
f 34/36/35 27/29/28 28/30/29
f 28/30/29 35/37/36 34/36/35
f 36/38/37 35/37/36 28/30/29
f 37/39/38 35/37/36 36/38/37
f 38/40/39 37/39/38 36/38/37
f 38/40/39 39/41/40 37/39/38
f 40/42/41 39/41/40 38/40/39
f 21/23/22 39/41/40 40/42/41
f 37/39/38 39/41/40 21/23/22
f 21/23/22 20/22/21 37/39/38
f 37/39/38 20/22/21 34/36/35
f 24/26/25 34/36/35 20/22/21
f 34/36/35 35/37/36 37/39/38
f 41/43/42 40/42/41 38/40/39
f 42/44/43 41/43/42 43/45/44
f 44/46/45 43/45/44 41/43/42
f 41/43/42 38/40/39 44/46/45
f 45/47/46 44/46/45 38/40/39
f 38/40/39 36/38/37 45/47/46
f 46/48/47 45/47/46 36/38/37
f 36/38/37 29/31/30 46/48/47
f 36/38/37 28/30/29 29/31/30
f 47/49/48 48/50/49 49/51/50
f 50/52/51 49/51/50 48/50/49
f 48/50/49 51/53/52 50/52/51
f 52/54/53 50/52/51 51/53/52
f 51/53/52 53/55/54 52/54/53
f 54/56/55 52/54/53 53/55/54
f 53/55/54 55/57/56 54/56/55
f 46/48/47 54/56/55 55/57/56
f 55/57/56 56/58/57 46/48/47
f 45/47/46 46/48/47 56/58/57
f 56/58/57 57/59/58 45/47/46
f 44/46/45 45/47/46 57/59/58
f 57/59/58 58/60/59 44/46/45
f 43/45/44 44/46/45 58/60/59
f 58/60/59 59/61/60 43/45/44
f 60/62/61 43/45/44 59/61/60
f 43/45/44 60/62/61 42/44/43
f 61/63/62 42/44/43 60/62/61
f 59/61/60 47/49/48 60/62/61
f 49/51/50 60/62/61 47/49/48
f 60/62/61 49/51/50 61/63/62
f 62/64/63 61/63/62 49/51/50
f 49/51/50 50/52/51 62/64/63
f 33/35/34 62/64/63 50/52/51
f 50/52/51 52/54/53 33/35/34
f 30/32/31 33/35/34 52/54/53
f 52/54/53 54/56/55 30/32/31
f 29/31/30 30/32/31 54/56/55
f 54/56/55 46/48/47 29/31/30
f 62/64/63 63/65/64 61/63/62
f 63/65/64 64/66/65 61/63/62
f 61/63/62 65/67/66 42/44/43
f 61/63/62 64/66/65 65/67/66
f 65/67/66 64/66/65 66/68/67
f 66/68/67 64/66/65 63/65/64
f 63/65/64 67/69/68 66/68/67
f 68/70/69 67/69/68 63/65/64
f 67/69/68 68/70/69 69/71/70
f 69/71/70 68/70/69 70/72/71
f 70/72/71 71/73/72 69/71/70
f 72/74/73 71/73/72 70/72/71
f 71/73/72 72/74/73 73/75/74
f 72/74/73 16/18/17 73/75/74
f 74/76/75 73/75/74 16/18/17
f 74/76/75 16/18/17 15/17/16
f 75/77/76 74/76/75 15/17/16
f 75/77/76 15/17/16 25/27/26
f 76/78/77 75/77/76 25/27/26
f 22/24/23 76/78/77 25/27/26
f 77/79/78 78/80/79 76/78/77
f 78/80/79 75/77/76 76/78/77
f 78/80/79 79/81/80 75/77/76
f 80/82/81 79/81/80 78/80/79
f 81/83/82 79/81/80 80/82/81
f 80/82/81 82/84/83 81/83/82
f 81/83/82 82/84/83 83/85/84
f 65/67/66 83/85/84 82/84/83
f 66/68/67 83/85/84 65/67/66
f 83/85/84 66/68/67 84/86/85
f 84/86/85 66/68/67 67/69/68
f 67/69/68 85/87/86 84/86/85
f 69/71/70 85/87/86 67/69/68
f 85/87/86 69/71/70 74/76/75
f 69/71/70 73/75/74 74/76/75
f 69/71/70 71/73/72 73/75/74
f 84/86/85 85/87/86 74/76/75
f 83/85/84 86/88/87 81/83/82
f 84/86/85 86/88/87 83/85/84
f 86/88/87 84/86/85 87/89/88
f 84/86/85 74/76/75 87/89/88
f 75/77/76 87/89/88 74/76/75
f 81/83/82 87/89/88 75/77/76
f 79/81/80 81/83/82 75/77/76
f 81/83/82 86/88/87 87/89/88
f 22/24/23 77/79/78 76/78/77
f 88/90/89 77/79/78 22/24/23
f 78/80/79 77/79/78 88/90/89
f 88/90/89 89/91/90 78/80/79
f 78/80/79 89/91/90 80/82/81
f 90/92/91 80/82/81 89/91/90
f 82/84/83 80/82/81 90/92/91
f 90/92/91 91/93/92 82/84/83
f 82/84/83 91/93/92 65/67/66
f 65/67/66 91/93/92 42/44/43
f 42/44/43 91/93/92 90/92/91
f 42/44/43 90/92/91 41/43/42
f 90/92/91 92/94/93 41/43/42
f 41/43/42 92/94/93 40/42/41
f 40/42/41 92/94/93 89/91/90
f 89/91/90 88/90/89 40/42/41
f 40/42/41 88/90/89 21/23/22
f 22/24/23 21/23/22 88/90/89
f 89/91/90 92/94/93 90/92/91
f 93/95/94 94/96/95 95/97/96
f 95/97/96 94/96/95 96/98/97
f 96/98/97 97/99/98 95/97/96
f 97/100/98 98/101/99 99/102/100
f 99/102/100 95/97/96 97/100/98
f 95/97/96 99/102/100 93/95/94
f 93/95/94 99/102/100 98/103/99
f 98/103/99 100/104/101 93/95/94
f 101/105/102 102/106/103 103/107/104
f 101/105/102 103/107/104 104/108/105
f 105/109/106 101/105/102 104/108/105
f 105/109/106 106/110/107 101/105/102
f 104/108/105 107/111/108 108/112/109
f 105/109/106 104/108/105 108/112/109
f 105/109/106 108/112/109 109/113/110
f 110/114/111 47/115/48 59/116/60
f 47/115/48 110/114/111 111/117/112
f 47/115/48 111/117/112 112/118/113
f 112/118/113 48/119/49 47/115/48
f 48/119/49 112/118/113 113/120/114
f 48/119/49 113/120/114 114/121/115
f 114/121/115 51/122/52 48/119/49
f 51/122/52 114/121/115 115/123/116
f 51/122/52 115/123/116 116/124/117
f 116/124/117 53/125/54 51/122/52
f 53/125/54 116/124/117 117/126/118
f 53/125/54 117/126/118 118/127/119
f 118/127/119 55/128/56 53/125/54
f 119/129/120 120/130/121 113/120/114
f 114/121/115 113/120/114 120/130/121
f 120/130/121 121/131/122 114/121/115
f 115/123/116 114/121/115 121/131/122
f 121/131/122 122/132/123 115/123/116
f 116/124/117 115/123/116 122/132/123
f 122/132/123 123/133/124 116/124/117
f 117/126/118 116/124/117 123/133/124
f 123/133/124 124/134/125 117/126/118
f 118/127/119 117/126/118 124/134/125
f 124/134/125 125/135/126 118/127/119
f 126/136/127 127/137/128 128/138/129
f 128/138/129 129/139/130 126/136/127
f 130/140/131 126/136/127 129/139/130
f 129/139/130 131/141/132 130/140/131
f 119/129/120 130/140/131 131/141/132
f 131/141/132 132/142/133 119/129/120
f 120/130/121 119/129/120 132/142/133
f 132/142/133 133/143/134 120/130/121
f 121/131/122 120/130/121 133/143/134
f 133/143/134 134/144/135 121/131/122
f 122/132/123 121/131/122 134/144/135
f 134/144/135 135/145/136 122/132/123
f 123/133/124 122/132/123 135/145/136
f 135/145/136 136/146/137 123/133/124
f 124/134/125 123/133/124 136/146/137
f 136/146/137 137/147/138 124/134/125
f 125/135/126 124/134/125 137/147/138
f 137/147/138 138/148/139 125/135/126
f 109/149/110 138/148/139 137/147/138
f 109/149/110 137/147/138 136/146/137
f 136/146/137 105/150/106 109/149/110
f 105/150/106 136/146/137 135/145/136
f 105/150/106 135/145/136 134/144/135
f 134/144/135 106/151/107 105/150/106
f 106/151/107 134/144/135 133/143/134
f 106/151/107 133/143/134 132/142/133
f 132/142/133 101/152/102 106/151/107
f 101/152/102 132/142/133 131/141/132
f 101/152/102 131/141/132 129/139/130
f 129/139/130 102/153/103 101/152/102
f 102/153/103 129/139/130 128/138/129
f 102/153/103 128/138/129 139/154/140
f 139/154/140 128/138/129 127/137/128
f 127/137/128 140/155/141 139/154/140
f 141/156/142 140/155/141 127/137/128
f 142/157/143 140/155/141 141/156/142
f 127/137/128 143/158/144 141/156/142
f 144/159/145 125/160/126 138/161/139
f 138/161/139 145/162/146 144/159/145
f 146/163/147 144/159/145 145/162/146
f 145/162/146 147/164/148 146/163/147
f 148/165/149 146/163/147 147/164/148
f 147/164/148 149/166/150 148/165/149
f 150/167/151 148/165/149 149/166/150
f 149/166/150 151/168/152 150/167/151
f 152/169/153 150/167/151 151/168/152
f 151/168/152 153/170/154 152/169/153
f 154/171/155 152/169/153 153/170/154
f 153/170/154 155/172/156 154/171/155
f 142/157/143 154/171/155 155/172/156
f 155/172/156 156/173/157 142/157/143
f 140/155/141 142/157/143 156/173/157
f 156/173/157 139/154/140 140/155/141
f 103/174/104 139/154/140 156/173/157
f 139/154/140 103/174/104 102/153/103
f 138/161/139 109/175/110 108/176/109
f 108/176/109 145/162/146 138/161/139
f 108/176/109 147/164/148 145/162/146
f 147/164/148 108/176/109 107/177/108
f 107/177/108 149/166/150 147/164/148
f 107/177/108 151/168/152 149/166/150
f 151/168/152 107/177/108 104/178/105
f 104/178/105 153/170/154 151/168/152
f 104/178/105 155/172/156 153/170/154
f 155/172/156 104/178/105 103/174/104
f 103/174/104 156/173/157 155/172/156
f 141/156/142 157/179/158 142/157/143
f 154/171/155 142/157/143 157/179/158
f 157/179/158 158/180/159 154/171/155
f 152/169/153 154/171/155 158/180/159
f 158/180/159 159/181/160 152/169/153
f 150/167/151 152/169/153 159/181/160
f 159/181/160 160/182/161 150/167/151
f 148/165/149 150/167/151 160/182/161
f 160/182/161 161/183/162 148/165/149
f 146/163/147 148/165/149 161/183/162
f 161/183/162 162/184/163 146/163/147
f 144/159/145 146/163/147 162/184/163
f 162/184/163 163/185/164 144/159/145
f 125/160/126 144/159/145 163/185/164
f 163/185/164 118/186/119 125/160/126
f 55/187/56 118/186/119 163/185/164
f 55/187/56 163/185/164 162/184/163
f 162/184/163 56/188/57 55/187/56
f 56/188/57 162/184/163 161/183/162
f 56/188/57 161/183/162 160/182/161
f 160/182/161 57/189/58 56/188/57
f 57/189/58 160/182/161 159/181/160
f 57/189/58 159/181/160 158/180/159
f 158/180/159 58/190/59 57/189/58
f 58/190/59 158/180/159 157/179/158
f 58/190/59 157/179/158 141/156/142
f 141/156/142 59/116/60 58/190/59
f 59/116/60 141/156/142 143/158/144
f 59/116/60 143/158/144 110/114/111
f 110/114/111 143/158/144 127/137/128
f 127/137/128 126/136/127 110/114/111
f 111/117/112 110/114/111 126/136/127
f 126/136/127 130/140/131 111/117/112
f 112/118/113 111/117/112 130/140/131
f 130/140/131 119/129/120 112/118/113
f 113/120/114 112/118/113 119/129/120
f 3/3/165 164/191/165 1/1/165
f 32/34/33 18/20/19 17/19/18
f 17/19/18 165/192/166 32/34/33
f 165/192/166 17/19/18 16/18/17
f 72/74/73 165/192/166 16/18/17
f 32/34/33 165/192/166 72/74/73
f 72/74/73 166/193/167 32/34/33
f 31/33/32 32/34/33 166/193/167
f 166/193/167 167/194/168 31/33/32
f 31/33/32 167/194/168 33/35/34
f 33/35/34 167/194/168 168/195/169
f 33/35/34 168/195/169 62/64/63
f 168/195/169 169/196/170 62/64/63
f 62/64/63 169/196/170 63/65/64
f 63/65/64 169/196/170 68/70/69
f 68/70/69 169/196/170 168/195/169
f 168/195/169 70/72/71 68/70/69
f 166/193/167 70/72/71 168/195/169
f 70/72/71 166/193/167 72/74/73
f 168/195/169 167/194/168 166/193/167
